<svg width="1209" height="261" viewBox="0 0 1209 261" fill="none" xmlns="http://www.w3.org/2000/svg">
<path d="M297.98 41.0195V86.3086L325.223 41.0195H339.402V105H327.543V59.0234L299.656 105H286.078V41.0195H297.98ZM393.027 91.4219C393.027 96.1484 391.008 99.8008 386.969 102.379C382.93 104.957 377.315 106.246 370.125 106.246C364.138 106.246 357.678 104.9 350.746 102.207V93.2266H352.207C354.298 94.6302 356.733 95.7474 359.512 96.5781C362.319 97.4089 365.227 97.8242 368.234 97.8242C372.159 97.8242 375.152 97.194 377.215 95.9336C379.306 94.6732 380.352 92.8971 380.352 90.6055C380.352 88.944 379.922 87.6406 379.062 86.6953C378.203 85.75 377.029 85.0625 375.539 84.6328C374.078 84.1745 371.743 83.9453 368.535 83.9453H361.316V75.9961H366.773C371.385 75.9961 374.637 75.5091 376.527 74.5352C378.418 73.5612 379.363 72.0859 379.363 70.1094C379.363 68.2188 378.475 66.7578 376.699 65.7266C374.923 64.6667 372.273 64.1367 368.75 64.1367C366.229 64.1367 363.723 64.4805 361.23 65.168C358.767 65.8555 356.547 66.8724 354.57 68.2188H353.152V58.8516C355.53 57.8776 358.438 57.0898 361.875 56.4883C365.341 55.8581 368.363 55.543 370.941 55.543C377.673 55.543 382.872 56.6745 386.539 58.9375C390.206 61.2005 392.039 64.4518 392.039 68.6914C392.039 71.1836 391.223 73.4036 389.59 75.3516C387.986 77.2708 385.866 78.6888 383.23 79.6055V79.9492C386.238 80.694 388.616 82.0833 390.363 84.1172C392.139 86.1224 393.027 88.5573 393.027 91.4219ZM412.062 56.875C413.695 61.0286 415.758 66.5716 418.25 73.5039C420.714 80.4648 422.762 86.0221 424.395 90.1758L437.629 56.875H450.219C448.299 61.2865 441.124 78.7747 428.691 109.34L423.105 122.703H408.539L417.348 102.809L398.957 56.875H412.062ZM501.566 105H489.234V87.5977C486.742 88.2565 484.322 88.8008 481.973 89.2305C479.652 89.6315 477.132 89.832 474.41 89.832C468.853 89.832 464.685 88.5716 461.906 86.0508C459.128 83.5299 457.738 79.4766 457.738 73.8906V56.875H470.156V69.9375C470.156 74.4062 470.872 77.4714 472.305 79.1328C473.737 80.7656 476.43 81.582 480.383 81.582C481.93 81.582 483.419 81.4102 484.852 81.0664C486.284 80.7227 487.745 80.3359 489.234 79.9062V56.875H501.566V105ZM526.059 82.957C526.173 87.569 527.663 91.207 530.527 93.8711C533.392 96.5065 537.273 97.8242 542.172 97.8242C544.807 97.8242 547.686 97.3372 550.809 96.3633C553.96 95.3893 556.552 94.1289 558.586 92.582H559.918V102.164C556.509 103.625 553.243 104.656 550.121 105.258C547.027 105.859 543.733 106.16 540.238 106.16C531.931 106.16 525.4 103.954 520.645 99.543C515.918 95.1315 513.555 89.0299 513.555 81.2383C513.555 73.3607 515.846 67.1016 520.43 62.4609C525.042 57.8203 531.201 55.5 538.906 55.5C545.924 55.5 551.339 57.4622 555.148 61.3867C558.958 65.2826 560.863 70.7826 560.863 77.8867V82.957H526.059ZM548.488 75.5234C548.431 71.7708 547.5 68.8919 545.695 66.8867C543.891 64.8529 541.355 63.8359 538.09 63.8359C534.566 63.8359 531.745 64.9102 529.625 67.0586C527.534 69.207 526.374 72.0286 526.145 75.5234H548.488ZM616.938 105H604.562V84.8047H584.41V105H572.035V56.875H584.41V74.6641H604.562V56.875H616.938V105ZM675.805 105H663.816V72.5156L641 105H630.559V56.875H642.547V87.2969L664.375 56.875H675.805V105ZM699.395 82.957C699.509 87.569 700.999 91.207 703.863 93.8711C706.728 96.5065 710.609 97.8242 715.508 97.8242C718.143 97.8242 721.022 97.3372 724.145 96.3633C727.296 95.3893 729.888 94.1289 731.922 92.582H733.254V102.164C729.845 103.625 726.579 104.656 723.457 105.258C720.363 105.859 717.069 106.16 713.574 106.16C705.267 106.16 698.736 103.954 693.98 99.543C689.254 95.1315 686.891 89.0299 686.891 81.2383C686.891 73.3607 689.182 67.1016 693.766 62.4609C698.378 57.8203 704.536 55.5 712.242 55.5C719.26 55.5 724.674 57.4622 728.484 61.3867C732.294 65.2826 734.199 70.7826 734.199 77.8867V82.957H699.395ZM721.824 75.5234C721.767 71.7708 720.836 68.8919 719.031 66.8867C717.227 64.8529 714.691 63.8359 711.426 63.8359C707.902 63.8359 705.081 64.9102 702.961 67.0586C700.87 69.207 699.71 72.0286 699.48 75.5234H721.824ZM822.457 79.8633C822.457 85.0195 821.54 89.5885 819.707 93.5703C817.902 97.5234 815.367 100.589 812.102 102.766C808.865 104.914 805.227 105.988 801.188 105.988C798.867 105.988 796.719 105.73 794.742 105.215C792.766 104.728 790.674 103.854 788.469 102.594V122.703H775.879V56.875H788.469V62.332C791.219 59.8971 793.811 58.1641 796.246 57.1328C798.681 56.0729 801.173 55.543 803.723 55.543C809.566 55.543 814.15 57.6484 817.473 61.8594C820.796 66.0703 822.457 72.0716 822.457 79.8633ZM809.867 80.8945C809.867 75.9961 809.022 72.2721 807.332 69.7227C805.671 67.1445 803.007 65.8555 799.34 65.8555C795.444 65.8555 791.806 67.2734 788.426 70.1094V94.5586C790.947 96.0195 793.883 96.75 797.234 96.75C801.388 96.75 804.525 95.3607 806.645 92.582C808.793 89.7747 809.867 85.8789 809.867 80.8945ZM841.062 56.875C842.695 61.0286 844.758 66.5716 847.25 73.5039C849.714 80.4648 851.762 86.0221 853.395 90.1758L866.629 56.875H879.219C877.299 61.2865 870.124 78.7747 857.691 109.34L852.105 122.703H837.539L846.348 102.809L827.957 56.875H841.062ZM909.941 106.074C901.777 106.074 895.447 103.926 890.949 99.6289C886.452 95.3034 884.203 89.1159 884.203 81.0664C884.203 73.2174 886.48 67.0299 891.035 62.5039C895.59 57.9492 901.849 55.6719 909.812 55.6719C914.94 55.6719 920.326 57.0326 925.969 59.7539V70.5391H924.207C919.624 66.901 915.098 65.082 910.629 65.082C906.275 65.082 902.966 66.4284 900.703 69.1211C898.469 71.8138 897.352 75.7956 897.352 81.0664C897.352 86.3086 898.512 90.276 900.832 92.9688C903.181 95.6615 906.49 97.0078 910.758 97.0078C912.448 97.0078 914.009 96.8073 915.441 96.4062C916.902 96.0052 918.234 95.4896 919.438 94.8594C920.641 94.2292 922.23 93.112 924.207 91.5078H925.969V101.777C923.992 103.038 921.514 104.069 918.535 104.871C915.585 105.673 912.72 106.074 909.941 106.074ZM959.957 106.074C951.793 106.074 945.462 103.926 940.965 99.6289C936.467 95.3034 934.219 89.1159 934.219 81.0664C934.219 73.2174 936.496 67.0299 941.051 62.5039C945.605 57.9492 951.865 55.6719 959.828 55.6719C964.956 55.6719 970.341 57.0326 975.984 59.7539V70.5391H974.223C969.639 66.901 965.113 65.082 960.645 65.082C956.29 65.082 952.982 66.4284 950.719 69.1211C948.484 71.8138 947.367 75.7956 947.367 81.0664C947.367 86.3086 948.527 90.276 950.848 92.9688C953.197 95.6615 956.505 97.0078 960.773 97.0078C962.464 97.0078 964.025 96.8073 965.457 96.4062C966.918 96.0052 968.25 95.4896 969.453 94.8594C970.656 94.2292 972.246 93.112 974.223 91.5078H975.984V101.777C974.008 103.038 971.53 104.069 968.551 104.871C965.6 105.673 962.736 106.074 959.957 106.074ZM999.188 105H986.855V56.875H999.188V76.9844L1000.09 77.0273C1001.69 77.0273 1003.07 76.7839 1004.21 76.2969C1005.36 75.8099 1006.41 74.9935 1007.35 73.8477C1008.33 72.6732 1009.66 70.2812 1011.35 66.6719C1013.04 62.9766 1015.04 60.4128 1017.36 58.9805C1019.71 57.5195 1022.79 56.7891 1026.6 56.7891H1029.65L1031.8 56.875V67.1875H1027.63C1025.74 67.1875 1024.22 67.6172 1023.08 68.4766C1021.96 69.3359 1021 70.5677 1020.2 72.1719C1018.82 74.75 1017.68 76.5547 1016.76 77.5859C1015.87 78.6172 1014.94 79.4336 1013.97 80.0352L1034.16 105H1019.55L1003.53 85.2773H999.188V105ZM1088 80.9375C1088 88.7292 1085.83 94.888 1081.47 99.4141C1077.12 103.94 1071.1 106.203 1063.43 106.203C1055.81 106.203 1049.82 103.954 1045.46 99.457C1041.11 94.931 1038.93 88.7578 1038.93 80.9375C1038.93 76.0104 1039.95 71.6276 1041.98 67.7891C1044.05 63.9219 1046.94 60.9427 1050.66 58.8516C1054.39 56.7318 1058.64 55.6719 1063.43 55.6719C1071.1 55.6719 1077.12 57.9349 1081.47 62.4609C1085.83 66.987 1088 73.1458 1088 80.9375ZM1051.44 81.1523C1051.44 86.2799 1052.45 90.2331 1054.49 93.0117C1056.55 95.7617 1059.53 97.1367 1063.43 97.1367C1067.29 97.1367 1070.26 95.7617 1072.32 93.0117C1074.41 90.2617 1075.46 86.3086 1075.46 81.1523C1075.46 75.9674 1074.41 72 1072.32 69.25C1070.26 66.4714 1067.29 65.082 1063.43 65.082C1059.53 65.082 1056.55 66.4427 1054.49 69.1641C1052.45 71.8568 1051.44 75.8529 1051.44 81.1523ZM1135.53 66.0273H1111.38V105H1099V56.875H1135.53V66.0273ZM1188.98 80.9375C1188.98 88.7292 1186.8 94.888 1182.45 99.4141C1178.1 103.94 1172.08 106.203 1164.4 106.203C1156.78 106.203 1150.8 103.954 1146.44 99.457C1142.09 94.931 1139.91 88.7578 1139.91 80.9375C1139.91 76.0104 1140.93 71.6276 1142.96 67.7891C1145.02 63.9219 1147.92 60.9427 1151.64 58.8516C1155.36 56.7318 1159.62 55.6719 1164.4 55.6719C1172.08 55.6719 1178.1 57.9349 1182.45 62.4609C1186.8 66.987 1188.98 73.1458 1188.98 80.9375ZM1152.41 81.1523C1152.41 86.2799 1153.43 90.2331 1155.46 93.0117C1157.53 95.7617 1160.51 97.1367 1164.4 97.1367C1168.27 97.1367 1171.23 95.7617 1173.3 93.0117C1175.39 90.2617 1176.43 86.3086 1176.43 81.1523C1176.43 75.9674 1175.39 72 1173.3 69.25C1171.23 66.4714 1168.27 65.082 1164.4 65.082C1160.51 65.082 1157.53 66.4427 1155.46 69.1641C1153.43 71.8568 1152.41 75.8529 1152.41 81.1523ZM322.988 165.027H323.719C325.924 165.027 327.715 164.383 329.09 163.094C330.465 161.805 331.854 159.241 333.258 155.402C334.69 151.507 336.466 148.771 338.586 147.195C340.734 145.62 343.757 144.832 347.652 144.832H350.445L352.293 144.875V155.188H349.113C347.251 155.188 345.776 155.589 344.688 156.391C343.599 157.164 342.74 158.41 342.109 160.129C340.763 164.111 338.973 166.746 336.738 168.035L354.141 193H339.918L326.555 173.32H322.988V193H310.656V173.32H307.133L293.727 193H279.504L296.949 168.035C294.801 166.832 293.039 164.283 291.664 160.387C290.919 158.439 289.988 157.092 288.871 156.348C287.783 155.574 286.35 155.188 284.574 155.188H281.352V144.875L283.242 144.832H286.035C289.931 144.832 292.939 145.62 295.059 147.195C297.178 148.771 298.954 151.507 300.387 155.402C301.418 158.238 302.363 160.272 303.223 161.504C304.111 162.736 305.085 163.638 306.145 164.211C307.204 164.755 308.465 165.027 309.926 165.027H310.656V144.875H322.988V165.027ZM371.543 170.957C371.658 175.569 373.147 179.207 376.012 181.871C378.876 184.507 382.758 185.824 387.656 185.824C390.292 185.824 393.171 185.337 396.293 184.363C399.444 183.389 402.036 182.129 404.07 180.582H405.402V190.164C401.993 191.625 398.728 192.656 395.605 193.258C392.512 193.859 389.217 194.16 385.723 194.16C377.415 194.16 370.884 191.954 366.129 187.543C361.402 183.132 359.039 177.03 359.039 169.238C359.039 161.361 361.331 155.102 365.914 150.461C370.526 145.82 376.685 143.5 384.391 143.5C391.409 143.5 396.823 145.462 400.633 149.387C404.443 153.283 406.348 158.783 406.348 165.887V170.957H371.543ZM393.973 163.523C393.915 159.771 392.984 156.892 391.18 154.887C389.375 152.853 386.84 151.836 383.574 151.836C380.051 151.836 377.229 152.91 375.109 155.059C373.018 157.207 371.858 160.029 371.629 163.523H393.973ZM440.637 194.074C432.473 194.074 426.142 191.926 421.645 187.629C417.147 183.303 414.898 177.116 414.898 169.066C414.898 161.217 417.176 155.03 421.73 150.504C426.285 145.949 432.544 143.672 440.508 143.672C445.635 143.672 451.021 145.033 456.664 147.754V158.539H454.902C450.319 154.901 445.793 153.082 441.324 153.082C436.97 153.082 433.661 154.428 431.398 157.121C429.164 159.814 428.047 163.796 428.047 169.066C428.047 174.309 429.207 178.276 431.527 180.969C433.876 183.661 437.185 185.008 441.453 185.008C443.143 185.008 444.704 184.807 446.137 184.406C447.598 184.005 448.93 183.49 450.133 182.859C451.336 182.229 452.926 181.112 454.902 179.508H456.664V189.777C454.688 191.038 452.21 192.069 449.23 192.871C446.28 193.673 443.415 194.074 440.637 194.074ZM506.379 154.027H490.137V193H477.805V154.027H461.562V144.875H506.379V154.027ZM560.09 168.938C560.09 176.729 557.913 182.888 553.559 187.414C549.204 191.94 543.189 194.203 535.512 194.203C527.892 194.203 521.905 191.954 517.551 187.457C513.197 182.931 511.02 176.758 511.02 168.938C511.02 164.01 512.036 159.628 514.07 155.789C516.133 151.922 519.026 148.943 522.75 146.852C526.474 144.732 530.728 143.672 535.512 143.672C543.189 143.672 549.204 145.935 553.559 150.461C557.913 154.987 560.09 161.146 560.09 168.938ZM523.523 169.152C523.523 174.28 524.54 178.233 526.574 181.012C528.637 183.762 531.616 185.137 535.512 185.137C539.379 185.137 542.344 183.762 544.406 181.012C546.497 178.262 547.543 174.309 547.543 169.152C547.543 163.967 546.497 160 544.406 157.25C542.344 154.471 539.379 153.082 535.512 153.082C531.616 153.082 528.637 154.443 526.574 157.164C524.54 159.857 523.523 163.853 523.523 169.152ZM571.09 144.875H592.059C597.444 144.875 601.583 145.262 604.477 146.035C607.37 146.78 609.561 147.983 611.051 149.645C612.54 151.277 613.285 153.44 613.285 156.133C613.285 158.568 612.641 160.688 611.352 162.492C610.091 164.268 608.315 165.557 606.023 166.359V166.832C609.003 167.462 611.366 168.751 613.113 170.699C614.889 172.618 615.777 175.197 615.777 178.434C615.777 183.217 613.944 186.841 610.277 189.305C606.639 191.768 601.154 193 593.82 193H571.09V144.875ZM590.727 164.426C597.401 164.426 600.738 162.32 600.738 158.109C600.738 156.19 599.936 154.801 598.332 153.941C596.757 153.053 593.949 152.609 589.91 152.609H583.336V164.426H590.727ZM591.242 185.137C595.568 185.137 598.647 184.564 600.48 183.418C602.342 182.243 603.273 180.439 603.273 178.004C603.273 173.535 599.621 171.301 592.316 171.301H583.336V185.137H591.242ZM673.785 168.938C673.785 176.729 671.608 182.888 667.254 187.414C662.9 191.94 656.884 194.203 649.207 194.203C641.587 194.203 635.6 191.954 631.246 187.457C626.892 182.931 624.715 176.758 624.715 168.938C624.715 164.01 625.732 159.628 627.766 155.789C629.828 151.922 632.721 148.943 636.445 146.852C640.169 144.732 644.423 143.672 649.207 143.672C656.884 143.672 662.9 145.935 667.254 150.461C671.608 154.987 673.785 161.146 673.785 168.938ZM637.219 169.152C637.219 174.28 638.236 178.233 640.27 181.012C642.332 183.762 645.311 185.137 649.207 185.137C653.074 185.137 656.039 183.762 658.102 181.012C660.193 178.262 661.238 174.309 661.238 169.152C661.238 163.967 660.193 160 658.102 157.25C656.039 154.471 653.074 153.082 649.207 153.082C645.311 153.082 642.332 154.443 640.27 157.164C638.236 159.857 637.219 163.853 637.219 169.152ZM721.309 154.027H697.16V193H684.785V144.875H721.309V154.027ZM774.762 168.938C774.762 176.729 772.585 182.888 768.23 187.414C763.876 191.94 757.861 194.203 750.184 194.203C742.564 194.203 736.577 191.954 732.223 187.457C727.868 182.931 725.691 176.758 725.691 168.938C725.691 164.01 726.708 159.628 728.742 155.789C730.805 151.922 733.698 148.943 737.422 146.852C741.146 144.732 745.4 143.672 750.184 143.672C757.861 143.672 763.876 145.935 768.23 150.461C772.585 154.987 774.762 161.146 774.762 168.938ZM738.195 169.152C738.195 174.28 739.212 178.233 741.246 181.012C743.309 183.762 746.288 185.137 750.184 185.137C754.051 185.137 757.016 183.762 759.078 181.012C761.169 178.262 762.215 174.309 762.215 169.152C762.215 163.967 761.169 160 759.078 157.25C757.016 154.471 754.051 153.082 750.184 153.082C746.288 153.082 743.309 154.443 741.246 157.164C739.212 159.857 738.195 163.853 738.195 169.152ZM858.594 193H846.219V175.469H838.527L825.809 193H811.672L826.41 173.406C822.486 171.888 819.721 170.012 818.117 167.777C816.513 165.543 815.711 162.678 815.711 159.184C815.711 154.629 817.215 151.105 820.223 148.613C823.259 146.121 827.57 144.875 833.156 144.875H858.594V193ZM846.219 167.477V153.211H837.926C831.595 153.211 828.43 155.531 828.43 160.172C828.43 165.042 832.068 167.477 839.344 167.477H846.219ZM910.887 179.422C910.887 184.148 908.867 187.801 904.828 190.379C900.789 192.957 895.174 194.246 887.984 194.246C881.997 194.246 875.538 192.9 868.605 190.207V181.227H870.066C872.158 182.63 874.592 183.747 877.371 184.578C880.178 185.409 883.086 185.824 886.094 185.824C890.018 185.824 893.012 185.194 895.074 183.934C897.165 182.673 898.211 180.897 898.211 178.605C898.211 176.944 897.781 175.641 896.922 174.695C896.062 173.75 894.888 173.062 893.398 172.633C891.938 172.174 889.603 171.945 886.395 171.945H879.176V163.996H884.633C889.245 163.996 892.496 163.509 894.387 162.535C896.277 161.561 897.223 160.086 897.223 158.109C897.223 156.219 896.335 154.758 894.559 153.727C892.783 152.667 890.133 152.137 886.609 152.137C884.089 152.137 881.582 152.48 879.09 153.168C876.626 153.855 874.406 154.872 872.43 156.219H871.012V146.852C873.389 145.878 876.297 145.09 879.734 144.488C883.201 143.858 886.223 143.543 888.801 143.543C895.533 143.543 900.732 144.674 904.398 146.938C908.065 149.201 909.898 152.452 909.898 156.691C909.898 159.184 909.082 161.404 907.449 163.352C905.845 165.271 903.725 166.689 901.09 167.605V167.949C904.098 168.694 906.475 170.083 908.223 172.117C909.999 174.122 910.887 176.557 910.887 179.422ZM971.859 144.832H984.234V193H971.859V144.832ZM965.672 177.273C965.672 182.057 964.039 185.882 960.773 188.746C957.508 191.582 953.197 193 947.84 193H922.23V144.875H934.562V162.02H947.367C953.125 162.02 957.608 163.366 960.816 166.059C964.053 168.751 965.672 172.49 965.672 177.273ZM944.059 185.094C947.152 185.094 949.415 184.464 950.848 183.203C952.309 181.914 953.039 179.995 953.039 177.445C953.039 175.01 952.28 173.177 950.762 171.945C949.243 170.685 946.78 170.055 943.371 170.055H934.562V185.094H944.059ZM1010.19 193H997.855V144.875H1010.19V164.984L1011.09 165.027C1012.69 165.027 1014.07 164.784 1015.21 164.297C1016.36 163.81 1017.41 162.993 1018.35 161.848C1019.33 160.673 1020.66 158.281 1022.35 154.672C1024.04 150.977 1026.04 148.413 1028.36 146.98C1030.71 145.52 1033.79 144.789 1037.6 144.789H1040.65L1042.8 144.875V155.188H1038.63C1036.74 155.188 1035.22 155.617 1034.08 156.477C1032.96 157.336 1032 158.568 1031.2 160.172C1029.82 162.75 1028.68 164.555 1027.76 165.586C1026.87 166.617 1025.94 167.434 1024.97 168.035L1045.16 193H1030.55L1014.53 173.277H1010.19V193ZM1083.58 187.887C1079.17 191.983 1073.6 194.031 1066.86 194.031C1062.02 194.031 1058.03 192.685 1054.88 189.992C1051.72 187.299 1050.15 183.733 1050.15 179.293C1050.15 176.457 1050.74 173.993 1051.91 171.902C1053.08 169.811 1054.83 168.092 1057.15 166.746C1059.5 165.371 1062.54 164.297 1066.26 163.523C1069.99 162.721 1075.77 162.148 1083.62 161.805V160.043C1083.62 157.579 1082.56 155.674 1080.44 154.328C1078.35 152.953 1075.34 152.266 1071.42 152.266C1069.04 152.266 1066.79 152.466 1064.67 152.867C1062.55 153.268 1059.56 154.113 1055.69 155.402H1054.57V145.949C1057.32 145.176 1060.3 144.574 1063.51 144.145C1066.75 143.715 1069.77 143.5 1072.58 143.5C1080.77 143.5 1086.73 144.832 1090.45 147.496C1094.18 150.16 1096.04 154.428 1096.04 160.301V193H1083.58V187.887ZM1083.58 168.895C1077.93 169.21 1073.68 169.697 1070.82 170.355C1067.95 171.014 1065.89 171.96 1064.63 173.191C1063.4 174.423 1062.78 176.128 1062.78 178.305C1062.78 180.596 1063.47 182.415 1064.84 183.762C1066.22 185.079 1068.21 185.738 1070.82 185.738C1075.63 185.738 1079.88 184.277 1083.58 181.355V168.895Z" fill="#5285F2"/>
<path fill-rule="evenodd" clip-rule="evenodd" d="M30.0198 49.1734L101.055 13.5781C102.594 12.8073 104.404 12.8073 105.943 13.5781L176.978 49.1734C181.006 51.1915 181.006 56.9514 176.978 58.9695L152.678 71.1464V100.619C152.678 116.302 129.815 128 103.499 128C77.1836 128 54.3206 116.302 54.3206 100.619V71.1464L30.0198 58.9695C25.9923 56.9514 25.9923 51.1915 30.0198 49.1734ZM65.2492 76.6226V100.619C65.2492 108.255 82.4343 117.048 103.499 117.048C124.564 117.048 141.749 108.255 141.749 100.619V76.6226L105.943 94.5647C104.404 95.336 102.594 95.336 101.055 94.5647L65.2492 76.6226ZM163.606 78.7143V106.095C163.606 109.12 166.053 111.571 169.07 111.571C172.088 111.571 174.535 109.12 174.535 106.095V78.7143C174.535 75.6899 172.088 73.2381 169.07 73.2381C166.053 73.2381 163.606 75.6899 163.606 78.7143ZM103.499 24.5988L162.316 54.0714L103.499 83.5441L44.682 54.0714L103.499 24.5988Z" fill="#5285F2" stroke="#5285F2"/>
<path fill-rule="evenodd" clip-rule="evenodd" d="M201.257 161.533C192.702 144.388 175.644 136 158.98 136C146.388 136 136.208 142.481 128.101 147.943C125.747 149.53 122.997 150.374 120.189 150.374H94.4286C84.5255 150.374 76.4976 158.418 76.4976 168.341C76.4976 178.264 84.5255 186.308 94.4286 186.308H123.118C127.079 186.308 130.291 183.09 130.291 179.121C130.291 175.152 127.079 171.934 123.118 171.934H94.4286C92.448 171.934 90.8424 170.325 90.8424 168.341C90.8424 166.356 92.448 164.747 94.4286 164.747H120.189C125.878 164.747 131.409 163.035 136.105 159.871C144.364 154.307 151.233 150.374 158.98 150.374C171.006 150.374 182.638 156.36 188.427 167.961C192.504 176.132 177.769 225.424 197.359 208.848C201.592 205.266 203.029 165.084 201.257 161.533Z" fill="#5285F2"/>
<path d="M32.3427 160.379C33.9838 157.921 37.2008 157.068 39.847 158.389L79.785 178.327C83.3302 180.097 87.6408 178.662 89.4134 175.123C91.1861 171.583 89.7492 167.279 86.2039 165.509L46.2659 145.571C37.145 141.018 26.0566 143.958 20.4001 152.429C13.7799 162.344 17.1554 175.796 27.6756 181.423L96.9047 218.452C110.491 225.719 126.43 227.227 141.141 222.637L162.751 215.895C171.471 213.174 180.575 212.708 189.845 212.642C191.686 212.629 193.289 211.376 193.729 209.589L195.462 202.557C195.992 200.408 194.676 198.237 192.526 197.713L189.961 197.089C189.651 197.013 189.331 196.974 189.012 196.976C177.647 197.025 169.402 198.805 158.469 202.216L136.86 208.958C125.827 212.401 113.872 211.27 103.683 205.82L34.4535 168.791C31.4013 167.158 30.422 163.255 32.3427 160.379Z" fill="#5285F2"/>
</svg>
