<svg width="4674" height="4674" viewBox="0 0 4674 4674" fill="none" xmlns="http://www.w3.org/2000/svg">
<path d="M2830.67 3245.63C2830.67 3245.63 2879.09 3439.04 2830.67 3517.46C2828.7 3520.74 2826.55 3524.01 2824.31 3526.81C2792.82 3572.09 2747.36 3605.81 2694.9 3622.81C2642.43 3639.81 2585.84 3639.16 2533.77 3620.95L1989.07 3433.99L2030.66 3287.78L2380.37 3330.97L2753.55 3229.36L2830.67 3245.63Z" fill="#FFBE9D"/>
<path d="M2587.81 2946.96C2587.81 2946.96 2762.24 3455.21 2753.55 3577.11C2744.85 3699 2407.67 4337.66 2407.67 4337.66L2259.97 4269.79C2259.97 4269.79 2316.62 4090.59 2354.39 3933.83C2373.08 3854.65 2380.94 3758.46 2395.52 3719.57C2439.83 3603.37 2491.62 3542.89 2491.62 3542.89L2253.9 3054.27L2587.81 2946.96Z" fill="#FFBE9D"/>
<path d="M2109.84 2608.09C2109.84 2608.09 2058.34 2749.81 2093.95 2883.67C2129.57 3017.54 2464.79 3566.08 2464.79 3566.08L2852.73 3341.72C2852.73 3341.72 2837.77 2852.82 2702.6 2580.05L2109.84 2608.09Z" fill="#263238"/>
<path d="M2750.46 3399.87C2750.46 3399.87 2751.4 3401.27 2752.71 3404.17C2754.01 3407.07 2755.88 3411.37 2757.85 3417.07C2763.46 3433.22 2767.2 3449.97 2768.97 3466.99C2771.47 3492.27 2770.81 3517.77 2767.01 3542.89C2764.86 3557.1 2762.33 3571.78 2758.5 3586.92C2754.67 3602.06 2749.62 3617.4 2744.11 3632.82C2721.95 3694.89 2698.21 3749.39 2680.91 3788.84C2672.22 3808.56 2665.02 3824.36 2659.88 3835.58C2657.45 3840.53 2655.49 3844.93 2653.9 3848.01C2653.25 3849.5 2652.44 3850.91 2651.47 3852.22C2651.77 3850.63 2652.27 3849.09 2652.96 3847.64L2658.1 3834.83L2677.73 3788.09C2694.19 3748.27 2717.46 3693.58 2739.52 3631.79C2744.95 3616.37 2749.9 3601.13 2753.83 3586.36C2757.75 3571.59 2760.37 3556.82 2762.61 3542.8C2766.59 3518.08 2767.63 3492.98 2765.7 3468.01C2764.34 3451.15 2761.21 3434.48 2756.35 3418.28C2752.61 3406.13 2749.99 3400.05 2750.46 3399.87Z" fill="#EB996E"/>
<path d="M2368.03 3867.08C2367.94 3862.7 2368.22 3858.32 2368.88 3853.99C2369.62 3845.49 2371.12 3833.33 2373.18 3818.38C2378.24 3779.11 2387.16 3740.44 2399.82 3702.93C2413.61 3665.77 2431.51 3630.28 2453.19 3597.11C2461.33 3584.4 2468.15 3574.11 2473.01 3567.2C2475.32 3563.46 2477.98 3559.95 2480.96 3556.73C2479.19 3560.74 2477.07 3564.59 2474.6 3568.22C2469.74 3576.26 2463.57 3586.92 2455.91 3598.89C2435.25 3632.31 2417.93 3667.7 2404.21 3704.52C2391.65 3741.77 2382.27 3780.01 2376.17 3818.84C2373.74 3833.05 2371.77 3844.93 2370.28 3854.18C2370 3858.55 2369.25 3862.87 2368.03 3867.08Z" fill="#EB996E"/>
<path d="M2748.31 3293.49C2747.53 3292.08 2746.93 3290.57 2746.54 3289L2742.33 3276.01C2738.68 3263.95 2733.64 3247.96 2727.56 3228.05C2715.13 3187.48 2697.46 3131.67 2676.52 3070.54C2655.58 3009.4 2635.29 2954.44 2620.43 2914.71L2602.67 2867.97C2600.8 2862.83 2599.31 2858.62 2598 2855.16C2597.34 2853.71 2596.9 2852.16 2596.69 2850.58C2597.65 2851.86 2598.4 2853.28 2598.93 2854.79L2604.45 2867.31C2609.21 2878.16 2615.76 2894.05 2623.61 2914.05C2639.41 2953.41 2660.16 3008.28 2681.19 3069.51C2702.23 3130.74 2719.33 3186.83 2731.02 3227.58C2736.81 3247.96 2741.39 3264.98 2744.29 3276.1C2745.6 3281.34 2746.72 3285.45 2747.56 3289.28C2748.01 3290.64 2748.26 3292.06 2748.31 3293.49Z" fill="#455A64"/>
<path d="M2520.03 2914.24C2519.47 2914.89 2507.88 2905.36 2487.22 2892.93C2475.16 2885.7 2462.67 2879.21 2449.83 2873.48C2434.01 2866.65 2417.73 2860.9 2401.13 2856.28C2384.42 2851.94 2367.43 2848.82 2350.27 2846.93C2336.28 2845.38 2322.19 2844.73 2308.11 2844.97C2284 2845.44 2269.23 2847.87 2269.04 2846.93C2272.36 2845.75 2275.81 2844.96 2279.32 2844.6C2288.81 2842.95 2298.4 2841.91 2308.02 2841.51C2322.26 2840.79 2336.54 2841.1 2350.74 2842.45C2368.16 2844.18 2385.42 2847.3 2402.34 2851.79C2419.22 2856.45 2435.72 2862.39 2451.7 2869.56C2464.63 2875.55 2477.13 2882.45 2489.09 2890.21C2497.22 2895.37 2504.99 2901.05 2512.37 2907.23C2515.2 2909.25 2517.77 2911.6 2520.03 2914.24Z" fill="#455A64"/>
<path d="M2662.78 2365.05C2665.58 2300.92 2741.3 2220.34 2721.76 2038.43C2701.2 1847.63 2672.22 1679.46 2672.22 1679.46L2528.35 1714.52L2503.67 1679.46L2266.14 1735.55L2228.75 1770.79L2063.94 1838.19C2054.2 1842.2 2045.36 1848.13 2037.95 1855.63C2030.55 1863.13 2024.73 1872.05 2020.85 1881.85L1906.06 2173.79L1656.56 2005.99L1562.05 2134.15C1562.05 2134.15 1876.14 2422.35 1958.22 2414.03C2031.79 2406.55 2093.39 2294.94 2123.96 2228.1L2171.26 2425.25C2171.26 2425.25 2096.48 2557.05 2081.43 2780.47L2574.81 2799.17C2590.03 2799.76 2605.19 2796.81 2619.07 2790.55C2632.96 2784.29 2645.2 2774.88 2654.83 2763.08L2748.31 2648.94C2748.31 2648.94 2659.97 2428.8 2662.78 2365.05Z" fill="#AE7EDE"/>
<path d="M2605.01 1714.7L2668.67 1685.54L2918.72 1467.64L3008.65 1087.55L3167.57 1154.01C3167.57 1154.01 3152.33 1439.59 3132.42 1537.28C3112.51 1634.97 2710.92 1953.73 2710.92 1953.73L2605.01 1714.7Z" fill="#AE7EDE"/>
<path d="M2692.22 1772.94C2694.34 1783.66 2695.87 1794.49 2696.8 1805.38C2699.51 1826.79 2702.97 1853.9 2706.71 1883.81C2710.45 1913.72 2713.63 1942.33 2715.31 1962.43C2716.25 1972.52 2716.81 1981.12 2717.09 1986.36C2717.53 1989.3 2717.53 1992.29 2717.09 1995.24C2714.74 1984.54 2713.09 1973.71 2712.13 1962.8C2709.42 1941.39 2705.96 1914.38 2702.13 1884.46C2698.3 1854.55 2695.21 1825.94 2693.62 1805.75C2692.78 1795.66 2692.32 1787.52 2692.13 1781.82C2691.69 1778.88 2691.72 1775.88 2692.22 1772.94Z" fill="#263238"/>
<path d="M2521.53 2283.44C2519.84 2281.98 2518.27 2280.39 2516.85 2278.67L2504.23 2264.27C2493.02 2251.28 2477.31 2233.14 2458.24 2210.9L2307.93 2033.28L2225.29 1935.04L2224.26 1933.82L2225.1 1932.51L2243.52 1900.45L2245.76 1903.53C2234.92 1905.78 2224.73 1906.34 2215.38 1908.3L2212.67 1908.96V1906.15C2217.72 1866.52 2222.02 1833.7 2224.82 1810.24C2226.32 1799.21 2227.53 1790.42 2228.47 1783.88C2228.72 1780.72 2229.29 1777.58 2230.15 1774.53C2230.22 1777.66 2230.03 1780.78 2229.59 1783.88C2228.94 1790.52 2228.09 1799.3 2226.97 1810.43C2224.45 1833.89 2220.9 1866.52 2216.6 1906.52L2214.17 1904.47C2223.51 1902.22 2234.26 1901.57 2244.55 1899.33L2249.13 1898.3L2246.88 1902.41C2241.18 1912.69 2235.2 1923.44 2228.94 1934.57V1932.04C2254.27 1962.15 2282.41 1995.33 2311.85 2030.2L2461.42 2208.56L2506.2 2262.96L2518.16 2277.92C2519.48 2279.63 2520.61 2281.48 2521.53 2283.44Z" fill="#263238"/>
<path d="M2558.45 2256.42C2558.39 2254.35 2558.58 2252.28 2559.01 2250.25L2561.54 2232.58C2563.87 2217.25 2567.61 2195.19 2572.47 2167.8C2577.34 2140.41 2583.04 2108.07 2588.37 2071.89C2594.4 2032.77 2597.87 1993.3 2598.74 1953.73C2599.84 1910.93 2596.71 1868.13 2589.39 1825.94L2591.08 1827.63L2558.45 1819.87L2553.5 1818.65L2557.89 1816.04L2581.73 1802.01L2581.17 1804.72C2570.79 1789.95 2563.13 1775.84 2555.93 1763.5C2548.73 1751.16 2542.84 1740.69 2537.79 1731.72C2532.75 1722.74 2528.45 1716.29 2525.92 1711.71C2524.33 1709.5 2522.92 1707.15 2521.71 1704.7C2522.28 1705.16 2522.79 1705.69 2523.21 1706.29C2524.51 1707.85 2525.73 1709.47 2526.86 1711.15C2529.94 1715.45 2534.24 1722.09 2539.57 1730.6L2558.27 1762C2565.65 1774.06 2573.69 1788.18 2583.97 1802.48L2585.19 1804.16L2583.41 1805.29L2559.76 1819.59L2559.2 1815.85L2591.82 1823.33H2593.23V1824.73C2601.12 1867.26 2604.66 1910.48 2603.79 1953.73C2602.86 1993.57 2599.18 2033.3 2592.76 2072.64C2587.24 2108.91 2580.98 2141.35 2575.84 2168.55C2570.7 2195.75 2566.49 2217.16 2563.41 2232.96C2562 2240.15 2560.88 2245.95 2559.95 2250.44C2559.65 2252.48 2559.15 2254.48 2558.45 2256.42Z" fill="#263238"/>
<path d="M2589.39 2357.01C2587.22 2358.93 2584.76 2360.51 2582.1 2361.68C2577.24 2364.39 2570.14 2368.04 2561.26 2372.34C2514.81 2394.58 2466.11 2411.78 2415.99 2423.66C2406.64 2425.9 2398.6 2427.58 2393.18 2428.52C2390.38 2429.29 2387.48 2429.6 2384.58 2429.45C2394.59 2425.76 2404.79 2422.64 2415.15 2420.11C2433.84 2414.78 2460.11 2406.92 2488.34 2396.92C2516.57 2386.92 2541.81 2376.64 2559.86 2368.88C2569.44 2364.31 2579.31 2360.34 2589.39 2357.01Z" fill="#263238"/>
<path d="M2597.34 2433.47C2589.65 2434.36 2581.89 2434.58 2574.16 2434.13C2559.86 2434.13 2540.13 2434.13 2518.07 2435.25C2496.01 2436.37 2476.66 2437.77 2462.45 2438.99C2454.95 2440 2447.38 2440.28 2439.83 2439.83C2447.24 2437.46 2454.89 2435.89 2462.64 2435.15C2476.85 2433.1 2496.66 2430.95 2518.73 2430.01C2540.79 2429.08 2560.51 2429.45 2574.81 2430.01C2582.43 2430.27 2590 2431.43 2597.34 2433.47Z" fill="#263238"/>
<path d="M2561.35 2358.97C2558.53 2342.04 2557.28 2324.89 2557.61 2307.74C2556.37 2290.64 2556.75 2273.45 2558.73 2256.42C2561.61 2273.34 2562.86 2290.49 2562.47 2307.65C2563.77 2324.75 2563.39 2341.94 2561.35 2358.97Z" fill="#263238"/>
<path d="M2553.78 2428.89C2550.11 2420.51 2547.93 2411.56 2547.33 2402.44C2545.14 2393.51 2544.57 2384.27 2545.65 2375.14C2551.51 2392.44 2554.26 2410.63 2553.78 2428.89Z" fill="#263238"/>
<path d="M2612.2 2793.65C2611.27 2789.07 2610.77 2784.4 2610.71 2779.72C2610.05 2770.37 2609.12 2757.66 2607.62 2741.68C2604.91 2709.52 2600.05 2665.21 2592.85 2616.6C2585.66 2567.99 2577.15 2523.96 2570.7 2492.74C2567.43 2476.94 2564.44 2464.23 2562.47 2455.35C2561.11 2450.84 2560.23 2446.2 2559.86 2441.51C2561.71 2445.84 2563.21 2450.31 2564.34 2454.88C2566.87 2463.48 2570.33 2476.1 2573.69 2491.8C2581.36 2523.21 2590.33 2567.06 2597.62 2615.76C2604.91 2664.46 2609.21 2709.24 2611.08 2741.3C2612.11 2757.47 2612.48 2770.47 2612.58 2779.54C2612.92 2784.24 2612.8 2788.97 2612.2 2793.65Z" fill="#263238"/>
<g opacity="0.3">
<path d="M2213.05 1907.65L2224.08 1912.23L2211.92 1940.27C2211.92 1940.27 2398.88 2168.92 2450.02 2213.14C2511.71 2266.8 2513.49 2273.71 2513.49 2273.71L2226.97 1933.35L2245.02 1901.29L2213.05 1907.65Z" fill="black"/>
</g>
<g opacity="0.3">
<path d="M2347.38 2440.76L2622.58 2354.95C2624.2 2362.96 2623.59 2371.26 2620.8 2378.95C2618.01 2386.63 2613.16 2393.4 2606.78 2398.51C2593.82 2408.52 2578.82 2415.57 2562.85 2419.17C2496.57 2437.87 2416.64 2449.46 2348.4 2440.76" fill="black"/>
</g>
<path d="M1974.02 2234.17C1958.48 2202.93 1931.18 2179.12 1898.11 2167.99C1903.35 2167.83 1908.56 2168.85 1913.35 2170.98C1937.39 2179.43 1957.29 2196.75 1968.97 2219.4C1971.69 2223.91 1973.41 2228.94 1974.02 2234.17Z" fill="#263238"/>
<path d="M2071.89 1978.69C2072.6 1980.07 2073.11 1981.56 2073.39 1983.08C2074.32 1986.64 2075.44 1990.84 2076.75 1995.99C2079.56 2008.04 2083.39 2024.03 2088.06 2043.75C2097.41 2084.04 2110.12 2139.85 2123.77 2201.45C2137.42 2263.06 2149.2 2318.4 2158.17 2359.53C2162.29 2379.25 2165.65 2395.52 2168.08 2407.58C2169.11 2412.81 2169.95 2416.93 2170.61 2420.66C2170.97 2422.17 2171.19 2423.7 2171.26 2425.25C2169.11 2419.64 2167.45 2413.85 2166.31 2407.95C2163.41 2395.99 2159.48 2379.91 2154.81 2360.28C2145.46 2319.99 2132.65 2264.27 2119 2202.58C2105.36 2140.88 2093.2 2084.6 2084.6 2044.5C2080.58 2024.78 2077.22 2008.51 2075.26 1996.45C2074.32 1991.22 2073.48 1987.1 2072.83 1983.27C2072.32 1981.79 2072.01 1980.25 2071.89 1978.69Z" fill="#263238"/>
<path d="M1602.62 2122C1601.69 2125.83 1601.89 2129.86 1603.18 2133.59C1603.92 2135.45 1605.05 2137.12 1606.5 2138.5C1607.96 2139.87 1609.7 2140.91 1611.59 2141.53C1613.89 2142.06 1616.29 2141.88 1618.47 2141.01C1620.66 2140.14 1622.53 2138.63 1623.84 2136.67C1625.34 2134.87 1626.26 2132.66 1626.49 2130.33C1626.72 2128 1626.26 2125.65 1625.15 2123.59C1623.99 2121.95 1622.5 2120.59 1620.78 2119.57C1619.05 2118.56 1617.13 2117.92 1615.15 2117.7C1611.19 2117.48 1607.26 2118.42 1603.84 2120.41C1603.84 2120.41 1603.84 2118.91 1605.89 2117.32C1608.57 2115.27 1611.87 2114.22 1615.24 2114.33C1617.86 2114.33 1620.45 2114.95 1622.78 2116.14C1625.12 2117.32 1627.15 2119.04 1628.7 2121.15C1630.34 2124.02 1631.1 2127.3 1630.89 2130.59C1630.68 2133.89 1629.5 2137.04 1627.51 2139.67C1625.52 2142.3 1622.8 2144.29 1619.68 2145.38C1616.57 2146.48 1613.21 2146.64 1610.01 2145.83C1607.54 2144.95 1605.31 2143.48 1603.53 2141.57C1601.74 2139.65 1600.43 2137.33 1599.72 2134.8C1598.5 2131.58 1598.5 2128.02 1599.72 2124.8C1601.22 2122.65 1602.43 2122 1602.62 2122Z" fill="#263238"/>
<path d="M3029.59 1140.46C3029.59 1140.46 3030.34 1139.05 3033.05 1138.31C3034.93 1138.05 3036.84 1138.18 3038.67 1138.68C3040.5 1139.18 3042.22 1140.03 3043.71 1141.2C3048.34 1144.55 3051.46 1149.59 3052.4 1155.23C3052.67 1158.89 3051.7 1162.54 3049.65 1165.59C3047.6 1168.64 3044.58 1170.91 3041.09 1172.05C3037.78 1173.43 3034.14 1173.83 3030.61 1173.2C3027.08 1172.57 3023.81 1170.94 3021.18 1168.5C3019.23 1166.33 3017.9 1163.67 3017.33 1160.81C3016.75 1157.95 3016.95 1154.99 3017.91 1152.23C3020.9 1142.89 3026.13 1140.08 3026.41 1140.46C3024.33 1144.5 3022.61 1148.73 3021.27 1153.08C3020.69 1155.21 3020.66 1157.46 3021.2 1159.61C3021.74 1161.75 3022.83 1163.72 3024.36 1165.32C3026.42 1167.04 3028.92 1168.15 3031.57 1168.55C3034.22 1168.94 3036.93 1168.6 3039.41 1167.57C3041.92 1166.78 3044.11 1165.19 3045.64 1163.05C3047.18 1160.91 3047.98 1158.33 3047.92 1155.69C3047.28 1151.13 3045.02 1146.95 3041.56 1143.92C3039.32 1141.73 3036.36 1140.44 3033.24 1140.27C3031 1140.46 3029.78 1141.3 3029.59 1140.46Z" fill="#263238"/>
<path d="M1709.66 1782.1C1770.98 1703.86 1853.8 1641.88 1953.82 1625.99C2005.43 1617.67 2055.44 1625.99 2104.42 1642.91C2156.4 1660.58 2206.22 1681.52 2261.09 1688.72C2324.1 1697.04 2387.39 1691.24 2450.2 1684.04C2462.36 1682.64 2507.32 1671.24 2507.32 1657.96C2507.32 1646.74 2462.45 1637.21 2450.2 1638.61C2393.18 1645.15 2335.5 1650.86 2278.11 1645.34C2222.02 1639.92 2171.07 1617.76 2118.44 1599.82C2067.1 1580.88 2012.06 1574.09 1957.66 1580C1903.22 1586.96 1850.93 1605.58 1804.35 1634.59C1755.62 1665.34 1712.68 1704.42 1677.5 1750.04C1673.45 1754.4 1671.2 1760.12 1671.2 1766.07C1671.2 1772.02 1673.45 1777.75 1677.5 1782.1C1681.78 1786.33 1687.56 1788.7 1693.58 1788.7C1699.59 1788.7 1705.37 1786.33 1709.66 1782.1Z" fill="#455A64"/>
<g opacity="0.3">
<path d="M1709.84 1782.76C1771.16 1704.52 1853.99 1642.54 1954.01 1626.65C2004.87 1619.74 2056.64 1625.55 2104.7 1643.57C2156.68 1661.14 2206.5 1682.17 2261.28 1689.37C2324.29 1697.69 2387.67 1691.9 2450.39 1684.7C2462.64 1683.3 2507.32 1675.35 2507.32 1662.17C2507.32 1650.95 2462.64 1637.86 2450.39 1639.27C2393.37 1645.81 2335.69 1651.51 2278.29 1645.9C2222.21 1640.57 2171.35 1618.42 2118.72 1600.47C2067.34 1581.55 2012.29 1574.74 1957.84 1580.56C1903.41 1587.57 1851.12 1606.22 1804.54 1635.25C1755.84 1665.99 1712.93 1705.07 1677.78 1750.69C1673.69 1755.03 1671.41 1760.77 1671.41 1766.73C1671.41 1772.69 1673.69 1778.42 1677.78 1782.76C1682.05 1786.98 1687.81 1789.34 1693.81 1789.34C1699.81 1789.34 1705.57 1786.98 1709.84 1782.76Z" fill="black"/>
</g>
<path d="M2598.74 1230.29C2620.06 1218.23 2624.26 1185.79 2609.77 1165.88C2601.94 1156.38 2591.44 1149.45 2579.62 1145.98C2567.81 1142.51 2555.22 1142.67 2543.5 1146.44C2546.01 1139.34 2546.17 1131.63 2543.95 1124.43C2541.72 1117.24 2537.24 1110.96 2531.16 1106.52C2518.75 1097.94 2503.88 1093.64 2488.81 1094.28C2468.71 1094.28 2445.72 1100.54 2437.49 1118.86C2434.31 1106.9 2420.76 1100.82 2408.42 1100.17C2391.85 1099.6 2375.65 1105.16 2362.93 1115.78C2350.2 1126.41 2341.83 1141.35 2339.43 1157.75C2328.38 1151.44 2315.64 1148.73 2302.97 1149.99C2296.67 1150.78 2290.81 1153.62 2286.3 1158.09C2281.78 1162.55 2278.87 1168.38 2278.01 1174.67C2273.78 1170.08 2268.47 1166.62 2262.56 1164.62C2256.65 1162.61 2250.33 1162.11 2244.17 1163.17C2235.1 1163.43 2226.32 1166.47 2219.03 1171.87C2215.45 1174.63 2212.8 1178.42 2211.43 1182.73C2210.06 1187.04 2210.04 1191.66 2211.36 1195.98C2202.76 1194.52 2193.91 1196.3 2186.54 1200.98C2179.17 1205.66 2173.8 1212.91 2171.47 1221.33C2169.15 1229.74 2170.03 1238.72 2173.94 1246.53C2177.86 1254.33 2184.53 1260.4 2192.67 1263.57C2186.76 1268.43 2182.19 1274.72 2179.38 1281.83C2176.58 1288.95 2175.63 1296.67 2176.63 1304.25C2177.63 1311.84 2180.55 1319.04 2185.1 1325.19C2189.66 1331.33 2195.7 1336.22 2202.67 1339.38C2200.97 1340.13 2199.46 1341.26 2198.25 1342.67C2197.05 1344.09 2196.19 1345.77 2195.73 1347.57C2195.27 1349.37 2195.23 1351.25 2195.6 1353.07C2195.98 1354.89 2196.76 1356.61 2197.9 1358.08C2202.39 1364.25 2199.4 1364.62 2207.25 1364.43C2208.74 1390.61 2210.8 1410.71 2212.3 1436.88C2213.33 1453.8 2212.95 1475.96 2219.12 1491.66C2223.75 1500.45 2230.07 1508.24 2237.72 1514.58C2245.38 1520.92 2254.21 1525.68 2263.71 1528.59L2575.47 1411.55C2585.81 1400.56 2592.82 1386.88 2595.7 1372.07C2598.58 1357.26 2597.2 1341.94 2591.73 1327.88C2590.73 1326.63 2590.03 1325.17 2589.69 1323.61C2589.34 1322.04 2589.35 1320.42 2589.72 1318.87C2590.08 1317.31 2590.8 1315.85 2591.82 1314.61C2592.83 1313.38 2594.11 1312.38 2595.57 1311.71C2601.88 1306.85 2607.15 1300.76 2611.03 1293.8C2614.92 1286.84 2617.36 1279.16 2618.19 1271.23C2618.78 1263.31 2617.29 1255.37 2613.88 1248.19C2610.48 1241.01 2605.26 1234.84 2598.74 1230.29Z" fill="#263238"/>
<path d="M2570.7 1336.76C2563.69 1273.67 2492.64 1213.65 2430.48 1223.28L2228.19 1271.33L2230.53 1305.35L2282.13 1763.41L2500.78 1893.72L2487.97 1668.52C2487.97 1668.52 2567.8 1651.32 2579.39 1544.94C2585.19 1492.5 2578.37 1406.5 2570.7 1336.76Z" fill="#FFBE9D"/>
<path d="M2531.72 1428.47C2531.9 1431.97 2530.72 1435.41 2528.42 1438.06C2526.12 1440.71 2522.88 1442.37 2519.38 1442.68C2515.98 1443.02 2512.59 1442 2509.95 1439.84C2507.3 1437.69 2505.62 1434.57 2505.26 1431.18C2505.03 1427.65 2506.19 1424.18 2508.5 1421.5C2510.81 1418.82 2514.08 1417.16 2517.6 1416.88C2521.01 1416.56 2524.4 1417.6 2527.04 1419.77C2529.68 1421.94 2531.36 1425.07 2531.72 1428.47Z" fill="#263238"/>
<path d="M2554.15 1382.01C2552.56 1383.88 2541.91 1376.77 2527.42 1377.52C2512.93 1378.27 2502.65 1386.03 2501.06 1384.34C2499.47 1382.66 2501.71 1380.33 2506.2 1376.68C2512.27 1372.07 2519.61 1369.43 2527.23 1369.11C2534.81 1368.65 2542.33 1370.69 2548.64 1374.9C2553.22 1378.08 2554.9 1381.26 2554.15 1382.01Z" fill="#263238"/>
<path d="M2404.77 1432.49C2405.01 1435.99 2403.85 1439.44 2401.56 1442.1C2399.27 1444.76 2396.02 1446.41 2392.53 1446.7C2390.82 1446.92 2389.08 1446.79 2387.42 1446.33C2385.76 1445.87 2384.2 1445.08 2382.85 1444.01C2381.5 1442.94 2380.38 1441.6 2379.55 1440.09C2378.73 1438.58 2378.21 1436.91 2378.04 1435.2C2377.8 1431.69 2378.95 1428.22 2381.24 1425.55C2383.53 1422.88 2386.78 1421.21 2390.28 1420.9C2392 1420.68 2393.75 1420.8 2395.41 1421.27C2397.08 1421.74 2398.64 1422.54 2399.99 1423.62C2401.34 1424.7 2402.46 1426.04 2403.28 1427.57C2404.1 1429.09 2404.61 1430.76 2404.77 1432.49Z" fill="#263238"/>
<path d="M2412.25 1394.63C2410.66 1396.5 2400.1 1389.39 2385.61 1390.14C2371.12 1390.89 2360.84 1398.65 2359.15 1396.87C2357.47 1395.09 2359.9 1392.94 2364.39 1389.3C2370.39 1384.65 2377.68 1381.98 2385.27 1381.64C2392.85 1381.31 2400.35 1383.33 2406.74 1387.43C2411.78 1390.7 2413 1393.79 2412.25 1394.63Z" fill="#263238"/>
<path d="M2469.55 1497.08C2477.07 1494.27 2484.93 1492.44 2492.92 1491.66C2496.57 1491.1 2500.03 1490.17 2500.59 1487.64C2500.69 1483.78 2499.65 1479.97 2497.6 1476.7L2485.26 1448.66C2468.06 1409.03 2455.44 1376.4 2457.21 1375.75C2458.99 1375.09 2474.04 1406.59 2491.24 1446.23C2495.35 1455.58 2499.28 1464.93 2503.11 1474.27C2505.63 1478.66 2506.55 1483.78 2505.73 1488.76C2505.26 1490.12 2504.48 1491.34 2503.46 1492.35C2502.44 1493.35 2501.2 1494.11 2499.84 1494.56C2497.84 1495.2 2495.77 1495.58 2493.67 1495.68C2485.72 1497.11 2477.62 1497.58 2469.55 1497.08Z" fill="#263238"/>
<path d="M2487.97 1668.9C2438.49 1672.01 2389.12 1661.26 2345.41 1637.86C2345.41 1637.86 2388.41 1716.29 2493.11 1701.43L2487.97 1668.9Z" fill="#EB996E"/>
<path d="M2465.16 1532.42C2462.23 1529.07 2458.49 1526.53 2454.31 1525.03C2450.12 1523.52 2445.62 1523.11 2441.23 1523.82C2438.07 1524.21 2435.02 1525.24 2432.28 1526.85C2429.53 1528.45 2427.14 1530.6 2425.25 1533.17C2423.47 1535.72 2422.52 1538.75 2422.52 1541.86C2422.52 1544.97 2423.47 1548 2425.25 1550.55C2427.68 1553.07 2430.83 1554.8 2434.27 1555.5C2437.7 1556.2 2441.27 1555.84 2444.5 1554.48C2451.26 1551.74 2457.39 1547.67 2462.54 1542.51C2464.12 1541.27 2465.45 1539.75 2466.47 1538.03C2466.97 1537.21 2467.24 1536.27 2467.24 1535.32C2467.24 1534.36 2466.97 1533.42 2466.47 1532.6" fill="#EB996E"/>
<path d="M2427.4 1509.14C2429.73 1509.14 2430.57 1524.66 2444.6 1535.32C2458.62 1545.97 2475.26 1543.35 2475.44 1545.5C2475.63 1547.65 2471.89 1548.78 2464.79 1549.34C2455.58 1549.9 2446.48 1547.18 2439.08 1541.67C2431.95 1536.34 2427.14 1528.48 2425.62 1519.7C2424.78 1513.07 2426.27 1509.14 2427.4 1509.14Z" fill="#263238"/>
<path d="M2414.12 1342.37C2412.81 1346.39 2398.32 1345.27 2381.4 1348.08C2364.48 1350.88 2350.93 1356.3 2348.5 1352.84C2347.37 1351.16 2349.62 1347.33 2354.95 1343.5C2362.14 1338.48 2370.38 1335.16 2379.04 1333.78C2387.7 1332.41 2396.56 1333.01 2404.96 1335.55C2411.78 1337.51 2414.59 1340.5 2414.12 1342.37Z" fill="#263238"/>
<path d="M2546.77 1340.13C2544.34 1343.59 2534.15 1340.13 2522.18 1341.06C2510.22 1342 2500.12 1344.34 2497.6 1341.06C2496.48 1339.38 2497.6 1336.02 2502.18 1332.65C2507.96 1328.59 2514.84 1326.38 2521.9 1326.29C2528.97 1326.1 2535.92 1328.09 2541.81 1332C2546.21 1335.18 2547.8 1338.45 2546.77 1340.13Z" fill="#263238"/>
<path d="M2521.34 1216.83L2514.8 1214.12C2524.99 1191.31 2507.79 1162.05 2483.48 1156.35C2471.15 1154.23 2458.46 1156.15 2447.31 1161.83C2436.16 1167.5 2427.14 1176.63 2421.6 1187.85C2416 1178.06 2407.25 1170.45 2396.78 1166.26C2386.31 1162.07 2374.73 1161.54 2363.92 1164.76C2346.25 1170.65 2333.63 1185.79 2321.48 1200C2318.77 1203.18 2315.31 1206.64 2311.11 1206.17C2308.11 1205.38 2305.43 1203.68 2303.44 1201.31C2292.91 1192.63 2280.02 1187.32 2266.43 1186.07C2252.84 1184.82 2239.19 1187.68 2227.25 1194.3C2215.5 1201.2 2205.25 1210.39 2197.1 1221.33C2188.96 1232.26 2183.1 1244.72 2179.86 1257.96C2176.47 1268.66 2175.89 1280.06 2178.18 1291.05C2179.37 1296.5 2181.97 1301.54 2185.73 1305.66C2189.49 1309.78 2194.27 1312.83 2199.58 1314.52C2194.84 1321.18 2191.69 1328.85 2190.38 1336.92C2189.06 1345 2189.63 1353.27 2192.02 1361.1C2194.42 1368.92 2198.58 1376.09 2204.18 1382.05C2209.79 1388.01 2216.69 1392.6 2224.36 1395.47C2225.48 1399.03 2227.02 1402.45 2228.94 1405.66C2227.16 1424.86 2226.51 1444.15 2226.97 1463.43C2226.69 1471.76 2228.42 1480.03 2232.02 1487.55C2233.94 1491.22 2236.97 1494.2 2240.68 1496.04C2244.39 1497.89 2248.59 1498.52 2252.68 1497.83C2261.37 1495.4 2273.53 1490.91 2276.14 1482.22C2280.72 1466.7 2275.68 1445.29 2276.89 1429.12C2285.9 1427.78 2294.33 1423.88 2301.18 1417.89C2308.03 1411.89 2313.01 1404.05 2315.53 1395.31C2318.05 1386.56 2318.01 1377.27 2315.4 1368.55C2312.79 1359.83 2307.73 1352.04 2300.82 1346.11C2308.37 1349.26 2316.56 1350.57 2324.71 1349.93C2332.86 1349.29 2340.74 1346.73 2347.71 1342.45C2354.67 1338.17 2360.52 1332.29 2364.77 1325.3C2369.02 1318.32 2371.55 1310.42 2372.15 1302.27C2379.6 1309.24 2388.47 1314.51 2398.15 1317.74C2407.83 1320.96 2418.09 1322.07 2428.24 1320.97C2437.99 1320.43 2447.15 1316.11 2453.76 1308.91C2456.89 1305.19 2458.54 1300.44 2458.4 1295.58C2458.27 1290.72 2456.35 1286.08 2453.01 1282.55C2462.31 1286.7 2472.64 1288.03 2482.69 1286.37C2492.75 1284.71 2502.09 1280.13 2509.56 1273.2C2516.78 1265.96 2521.74 1256.77 2523.83 1246.76C2525.92 1236.76 2525.06 1226.35 2521.34 1216.83Z" fill="#263238"/>
<path d="M2257.63 1445.67C2256.05 1445.01 2194.91 1429.03 2198.84 1491.01C2202.76 1552.98 2263.8 1536.44 2263.8 1534.66C2263.8 1532.89 2257.63 1445.67 2257.63 1445.67Z" fill="#FFBE9D"/>
<path d="M2243.52 1512.32C2243.52 1512.32 2242.49 1513.16 2240.72 1514.1C2238.23 1515.36 2235.34 1515.59 2232.68 1514.75C2228.53 1512.42 2225.07 1509.05 2222.64 1504.96C2220.22 1500.88 2218.9 1496.23 2218.84 1491.47C2218.39 1486.18 2219.1 1480.86 2220.9 1475.86C2221.37 1473.9 2222.3 1472.08 2223.61 1470.55C2224.93 1469.02 2226.6 1467.83 2228.47 1467.08C2229.69 1466.66 2231.03 1466.7 2232.22 1467.18C2233.42 1467.66 2234.41 1468.55 2235.01 1469.69C2235.95 1471.38 2235.67 1472.59 2235.95 1472.68C2236.23 1472.78 2237.26 1471.56 2236.6 1469.04C2236.15 1467.52 2235.19 1466.2 2233.89 1465.3C2233.02 1464.71 2232.05 1464.3 2231.02 1464.09C2229.99 1463.89 2228.94 1463.88 2227.91 1464.08C2225.4 1464.73 2223.1 1466.02 2221.23 1467.82C2219.36 1469.63 2217.99 1471.88 2217.25 1474.37C2214.93 1479.88 2214.03 1485.89 2214.63 1491.85C2214.64 1497.39 2216.28 1502.81 2219.36 1507.42C2222.44 1512.02 2226.81 1515.62 2231.93 1517.74C2233.56 1518.04 2235.23 1518 2236.84 1517.61C2238.45 1517.22 2239.96 1516.5 2241.28 1515.5C2243.52 1513.82 2243.52 1512.41 2243.52 1512.32Z" fill="#EB996E"/>
<path d="M2369.06 1291.8C2369.62 1291.86 2370.19 1291.86 2370.75 1291.8L2375.7 1292.36C2381.95 1292.83 2388.23 1292.52 2394.4 1291.43C2398.88 1290.56 2403.25 1289.15 2407.39 1287.22C2412.3 1285.01 2416.72 1281.83 2420.38 1277.87C2424.52 1273.16 2427.44 1267.52 2428.89 1261.42C2430.52 1254.53 2429.59 1247.29 2426.27 1241.04L2424.59 1242.63C2437.51 1250.89 2452.77 1254.73 2468.06 1253.57C2476.4 1253.05 2484.58 1250.99 2492.18 1247.49C2496.16 1245.64 2499.87 1243.25 2503.21 1240.39C2506.6 1237.28 2509.09 1233.3 2510.4 1228.89C2511.73 1223.79 2511.89 1218.45 2510.87 1213.28C2510.05 1208.3 2508.84 1203.39 2507.23 1198.6C2505.75 1193.88 2503.65 1189.39 2500.96 1185.23C2499.63 1183.1 2497.85 1181.28 2495.73 1179.92C2493.61 1178.57 2491.21 1177.7 2488.72 1177.38V1179.91C2497.89 1182.25 2507.58 1181.39 2516.2 1177.48C2524.12 1174.1 2530.92 1168.56 2535.83 1161.49C2540.09 1155.29 2542.46 1147.98 2542.65 1140.46C2542.71 1132.6 2540.69 1124.86 2536.82 1118.02C2532.95 1111.18 2527.36 1105.48 2520.59 1101.48C2517.7 1099.77 2514.54 1098.56 2511.25 1097.92C2514.18 1099.21 2517.05 1100.65 2519.85 1102.22C2527.42 1107.01 2533.35 1113.99 2536.86 1122.23C2539.35 1127.98 2540.56 1134.2 2540.41 1140.46C2540.25 1147.71 2537.91 1154.75 2533.68 1160.65C2528.98 1167.29 2522.5 1172.48 2514.98 1175.61C2506.84 1179.23 2497.72 1179.98 2489.09 1177.76L2488.62 1180.37C2490.74 1180.66 2492.76 1181.43 2494.54 1182.61C2496.32 1183.79 2497.82 1185.36 2498.91 1187.2C2501.47 1191.08 2503.42 1195.34 2504.7 1199.82C2508.44 1208.89 2509.54 1218.84 2507.88 1228.52C2506.49 1232.37 2504.27 1235.88 2501.38 1238.79C2498.49 1241.69 2495 1243.93 2491.15 1245.34C2483.84 1248.71 2475.99 1250.74 2467.96 1251.32C2453.23 1252.49 2438.52 1248.88 2425.99 1241.04L2421.97 1238.42L2424.31 1242.63C2427.43 1248.34 2428.33 1255 2426.83 1261.33C2425.53 1267.1 2422.87 1272.48 2419.07 1277.03C2415.63 1280.95 2411.44 1284.13 2406.73 1286.38C2402.76 1288.34 2398.55 1289.78 2394.21 1290.68C2388.06 1291.95 2381.79 1292.49 2375.51 1292.27C2373.37 1291.98 2371.22 1291.82 2369.06 1291.8Z" fill="white"/>
<path d="M2533.31 1260.3C2533.31 1260.3 2534.52 1261.14 2536.95 1261.79C2541.41 1262.93 2546.08 1262.99 2550.56 1261.97C2555.05 1260.94 2559.23 1258.86 2562.75 1255.9C2564.09 1254.73 2565.18 1253.29 2565.95 1251.69C2566.72 1250.08 2567.16 1248.34 2567.24 1246.56C2567.32 1244.65 2566.87 1242.77 2565.92 1241.11C2564.98 1239.46 2563.59 1238.11 2561.91 1237.21L2560.98 1239.83H2561.91C2567.95 1241.21 2574.22 1241.25 2580.28 1239.94C2586.34 1238.64 2592.04 1236.01 2596.97 1232.25C2599.93 1230.01 2602.55 1227.33 2604.73 1224.31C2605.6 1223.26 2606.26 1222.05 2606.69 1220.76C2603.36 1224.36 2599.73 1227.67 2595.84 1230.66C2591.05 1233.99 2585.62 1236.29 2579.89 1237.41C2574.16 1238.54 2568.26 1238.47 2562.57 1237.21H2561.72L2548.73 1234.31L2560.79 1239.73C2562.03 1240.43 2563.05 1241.47 2563.73 1242.73C2564.41 1243.99 2564.72 1245.41 2564.62 1246.84C2564.4 1249.66 2563.14 1252.29 2561.07 1254.22C2557.27 1257.65 2552.57 1259.92 2547.52 1260.77C2542.78 1261.3 2537.99 1261.15 2533.31 1260.3Z" fill="white"/>
<path d="M3035.76 1095.31L3042.59 1056.61C3042.59 1056.61 3019.96 972.474 3022.3 960.321C3024.64 948.169 3027.16 890.492 3027.16 890.492L3085.31 825.056C3089.4 824.902 3093.45 825.965 3096.95 828.111C3100.44 830.257 3103.22 833.39 3104.94 837.115C3104.94 837.115 3131.48 834.965 3137.47 852.913C3139.75 851.688 3142.31 851.064 3144.9 851.102C3147.49 851.14 3150.02 851.837 3152.27 853.129C3154.52 854.42 3156.39 856.262 3157.73 858.481C3159.07 860.701 3159.81 863.224 3159.9 865.813C3161.1 871.339 3161.63 876.987 3161.49 882.639C3165.32 883.481 3187.39 888.716 3187.57 899.653C3186.9 916.475 3183.75 933.106 3178.22 949.01C3177.07 951.837 3175.24 954.338 3172.89 956.294C3170.54 958.249 3167.75 959.6 3164.76 960.228L3158.22 990.048C3158.22 990.048 3152.52 1039.03 3141.58 1061.84L3133.26 1075.4L3130.74 1136.44L3035.76 1095.31Z" fill="#FFBE9D"/>
<path d="M3122.23 878.058C3119.07 862.433 3112.7 847.633 3103.54 834.59L3081.29 848.799C3083.88 856.365 3087 863.737 3090.64 870.86C3092.18 875.066 3094.67 878.862 3097.91 881.957C3101.15 885.051 3105.06 887.363 3109.33 888.715C3114.29 889.93 3120.64 888.715 3122.23 883.854C3122.7 881.95 3122.7 879.962 3122.23 878.058Z" fill="#FFBE9D"/>
<path d="M3081.38 848.799C3081.49 850.37 3081.83 851.915 3082.41 853.38C3083.73 857.41 3085.32 861.345 3087.18 865.158C3088.3 867.682 3089.42 870.393 3090.73 873.291C3092.15 876.396 3094.04 879.265 3096.34 881.798C3098.94 884.683 3102.12 886.978 3105.69 888.528C3107.65 889.364 3109.77 889.795 3111.9 889.795C3114.04 889.795 3116.15 889.364 3118.12 888.528C3119.17 888.094 3120.12 887.446 3120.91 886.625C3121.7 885.804 3122.31 884.829 3122.7 883.761C3123.21 881.704 3123.21 879.554 3122.7 877.498C3122.1 873.761 3121.23 870.074 3120.08 866.467C3118.21 860.436 3115.8 854.586 3112.88 848.986C3110.36 844.125 3108.02 840.48 3106.43 837.956C3105.61 836.601 3104.67 835.319 3103.63 834.123C3104.24 835.576 3104.96 836.983 3105.78 838.33C3107.27 840.947 3109.33 844.686 3111.67 849.547C3114.44 855.17 3116.72 861.018 3118.49 867.028C3119.49 870.567 3120.3 874.156 3120.92 877.778C3121.35 879.529 3121.35 881.356 3120.92 883.107C3120.62 883.943 3120.15 884.709 3119.54 885.353C3118.93 885.997 3118.19 886.505 3117.37 886.846C3115.64 887.584 3113.78 887.964 3111.9 887.964C3110.02 887.964 3108.16 887.584 3106.43 886.846C3103.12 885.452 3100.15 883.346 3097.74 880.676C3095.5 878.243 3093.61 875.505 3092.13 872.543C3090.82 869.832 3089.7 867.028 3088.49 864.597C3086.5 860.863 3084.73 857.025 3083.16 853.099C3082.68 851.621 3082.09 850.183 3081.38 848.799Z" fill="#EB996E"/>
<path d="M3116.81 888.06C3116.81 888.06 3116.81 888.06 3116.81 889.369C3116.71 890.645 3116.71 891.926 3116.81 893.202C3117.13 897.884 3118.37 902.457 3120.46 906.663C3123.65 912.885 3128.3 918.242 3134.01 922.274C3135.74 923.54 3137.71 924.427 3139.81 924.878C3141.9 925.329 3144.07 925.334 3146.16 924.891C3148.47 924.458 3150.55 923.235 3152.05 921.433C3153.55 919.506 3154.37 917.141 3154.39 914.702C3154.14 910.307 3153.42 905.951 3152.24 901.708C3151.21 897.595 3150.09 893.669 3148.97 889.93L3142.89 870.299C3141.21 864.784 3139.9 860.203 3139.15 857.118C3138.83 855.418 3138.33 853.757 3137.66 852.164C3137.72 853.869 3137.97 855.561 3138.4 857.212C3139.06 860.484 3140.09 865.064 3141.68 870.673C3143.26 876.282 3145.23 883.106 3147.38 890.397C3148.41 894.137 3149.43 898.063 3150.46 902.082C3151.56 906.179 3152.25 910.375 3152.52 914.609C3152.56 916.638 3151.9 918.62 3150.65 920.217C3149.38 921.697 3147.68 922.743 3145.79 923.209C3143.92 923.561 3141.99 923.536 3140.13 923.134C3138.27 922.733 3136.51 921.964 3134.95 920.872C3129.42 917.276 3124.81 912.443 3121.48 906.756C3119.32 902.751 3117.92 898.375 3117.37 893.856C3116.9 890.304 3117 888.06 3116.81 888.06Z" fill="#EB996E"/>
<path d="M3131.02 919.938C3131.02 919.938 3131.02 919.938 3130.46 921.433C3129.9 922.929 3129.9 923.864 3129.52 925.827C3128.65 931.308 3128.65 936.892 3129.52 942.373C3130.61 950.684 3134.46 958.388 3140.46 964.247C3144.12 967.796 3149.01 969.803 3154.11 969.856C3155.49 969.832 3156.86 969.53 3158.13 968.968C3159.4 968.406 3160.54 967.595 3161.49 966.584C3163.31 964.411 3164.41 961.737 3164.67 958.919C3165.38 948.898 3165.38 938.839 3164.67 928.818C3163.92 919.47 3163.27 911.524 3162.71 904.513C3162.15 897.502 3161.96 891.987 3161.77 888.154C3161.89 886.131 3161.89 884.102 3161.77 882.078C3161.77 882.078 3161.77 882.639 3161.77 883.667C3161.77 884.696 3161.77 886.191 3161.77 888.154C3161.77 891.987 3161.77 897.502 3161.77 904.607C3161.77 911.711 3162.8 919.844 3163.36 929.005C3164.02 938.872 3164.02 948.772 3163.36 958.638C3163.15 961.073 3162.2 963.386 3160.65 965.275C3159.89 966.138 3158.95 966.833 3157.91 967.315C3156.86 967.798 3155.73 968.058 3154.57 968.08C3149.94 967.968 3145.5 966.136 3142.14 962.938C3136.34 957.381 3132.55 950.044 3131.39 942.092C3129.97 934.786 3129.85 927.288 3131.02 919.938Z" fill="#EB996E"/>
<path d="M2541.63 889.183L2542.56 886.846L2543.96 888.902C2545.08 890.502 2546.64 891.738 2548.45 892.454L2550.69 893.389L2548.73 894.791C2547.07 895.864 2545.8 897.435 2545.09 899.278L2544.15 901.522L2542.84 899.465C2541.71 897.888 2540.15 896.658 2538.36 895.913L2536.11 894.978L2538.07 893.576C2539.65 892.476 2540.88 890.953 2541.63 889.183Z" fill="#E0E0E0"/>
<path d="M3164.2 630.991L3165.79 627.158L3168.22 630.523C3170.12 633.286 3172.79 635.432 3175.89 636.693L3179.72 638.282L3176.36 640.713C3173.57 642.583 3171.42 645.257 3170.19 648.378L3168.6 652.211L3166.17 648.846C3164.27 646.083 3161.61 643.937 3158.5 642.676L3154.58 641.087L3158.03 638.656C3160.77 636.733 3162.91 634.076 3164.2 630.991Z" fill="#E0E0E0"/>
<path d="M3136.81 491.425L3139.43 484.975L3143.55 490.677C3146.73 495.328 3151.22 498.937 3156.45 501.053L3162.9 503.671L3157.19 507.784C3152.56 510.995 3148.96 515.475 3146.82 520.684L3144.2 527.134L3140.18 521.432C3136.94 516.797 3132.42 513.194 3127.19 511.056L3120.74 508.438L3126.44 504.418C3131.07 501.174 3134.68 496.663 3136.81 491.425Z" fill="#E0E0E0"/>
<path d="M2821.5 1071.75L2819.17 1065.11L2825.99 1066.79C2831.47 1068.09 2837.2 1067.83 2842.54 1066.05L2849.18 1063.71L2847.59 1070.53C2846.19 1076 2846.45 1081.76 2848.33 1087.08L2850.58 1093.72L2843.75 1092.03C2838.28 1090.74 2832.55 1090.99 2827.21 1092.78L2820.57 1095.12L2822.25 1088.29C2823.55 1082.82 2823.29 1077.09 2821.5 1071.75Z" fill="#E0E0E0"/>
<path d="M2708.02 831.972C2696.15 846.274 2683.9 860.016 2672.41 874.785C2667.3 880.943 2663.61 888.14 2661.57 895.873C2659.54 903.607 2659.22 911.691 2660.63 919.562C2662.42 927.558 2665.83 935.102 2670.66 941.726C2675.48 948.351 2681.61 953.915 2688.67 958.076C2732.33 987.99 2785.8 1013.23 2840.02 1006.59C2876.87 1001.38 2910.32 982.241 2933.5 953.122C2935.39 950.732 2936.28 947.696 2935.97 944.661C2935.65 941.627 2934.17 938.835 2931.82 936.882C2929.48 934.929 2926.46 933.97 2923.42 934.21C2920.38 934.45 2917.56 935.869 2915.55 938.165C2898.15 960.274 2873.7 975.749 2846.28 982.007C2822.62 986.117 2798.3 984.155 2775.61 976.305C2753.86 969.105 2733.13 959.146 2713.91 946.672C2703.72 941.625 2694.73 934.453 2687.55 925.639C2684.23 920.106 2682.71 913.676 2683.21 907.242C2683.72 900.808 2686.21 894.691 2690.35 889.742C2701.85 875.159 2714.19 861.698 2726.06 846.928C2728.05 844.536 2729 841.454 2728.71 838.359C2728.42 835.265 2726.91 832.413 2724.52 830.429C2722.13 828.446 2719.05 827.494 2715.95 827.783C2712.86 828.073 2710.01 829.579 2708.02 831.972Z" fill="#AE7EDE"/>
<path d="M2951.07 574.06C2962.29 560.599 2973.41 547.138 2984.63 533.77C2987.54 529.676 2991.34 526.295 2995.74 523.883C3000.15 521.47 3005.04 520.088 3010.06 519.842C3023.89 519.842 3032.58 529.19 3041.47 538.538C3072.87 570.882 3102.04 612.387 3105.22 658.753C3106.6 689.902 3095.96 720.391 3075.49 743.913C3073.6 746.303 3072.71 749.339 3073.02 752.374C3073.33 755.408 3074.82 758.2 3077.17 760.153C3079.51 762.106 3082.52 763.065 3085.56 762.825C3088.61 762.585 3091.43 761.166 3093.44 758.87C3115.21 733.766 3127.86 702.044 3129.34 668.849C3129.27 640.076 3121.7 611.819 3107.37 586.867C3094.41 563.665 3078.33 542.341 3059.6 523.488C3050.32 511.665 3037.77 502.825 3023.52 498.061C3015.1 495.965 3006.3 495.933 2997.87 497.967C2989.44 500.002 2981.63 504.043 2975.09 509.746C2959.89 525.06 2945.86 541.496 2933.12 558.916C2932.13 560.095 2931.39 561.457 2930.93 562.924C2930.46 564.39 2930.3 565.934 2930.43 567.466C2930.56 568.998 2931 570.489 2931.71 571.853C2932.42 573.217 2933.39 574.427 2934.57 575.416C2935.75 576.404 2937.11 577.15 2938.58 577.612C2940.05 578.074 2941.59 578.243 2943.12 578.108C2944.65 577.974 2946.14 577.539 2947.51 576.828C2948.87 576.118 2950.08 575.145 2951.07 573.967V574.06Z" fill="#AE7EDE"/>
<path d="M3118.87 902.924L3094.28 921.62V922.368H3093.63L3079.79 950.412C3079.79 950.412 3122.89 991.636 3141.21 1036.41L3177.66 992.758L3178.6 991.543L3215.06 947.888C3167.19 937.979 3118.87 902.924 3118.87 902.924Z" fill="#AE7EDE"/>
<path d="M3129.43 897.409L3075.96 961.536C3074.32 963.518 3072.3 965.155 3070.02 966.355C3067.75 967.555 3065.26 968.293 3062.69 968.528C3060.13 968.762 3057.55 968.488 3055.09 967.722C3052.64 966.955 3050.36 965.711 3048.38 964.06C3046.33 962.415 3044.63 960.372 3043.39 958.055C3042.15 955.738 3041.39 953.194 3041.15 950.575C3040.92 947.957 3041.21 945.318 3042.02 942.816C3042.83 940.315 3044.13 938.002 3045.86 936.016L3099.33 871.889C3100.97 869.908 3102.99 868.27 3105.26 867.07C3107.54 865.871 3110.03 865.132 3112.59 864.898C3115.15 864.663 3117.74 864.937 3120.19 865.704C3122.65 866.47 3124.93 867.715 3126.91 869.365C3128.96 871.011 3130.65 873.053 3131.89 875.371C3133.14 877.688 3133.9 880.232 3134.13 882.85C3134.37 885.469 3134.07 888.108 3133.27 890.609C3132.46 893.111 3131.15 895.424 3129.43 897.409Z" fill="#AE7EDE"/>
<path d="M2907.23 509.373L2781.03 660.998L2774.3 669.037L2654.83 812.155C2656.98 815.707 2942.56 1078.95 3076.71 907.504C3221.6 744.195 2911.25 510.962 2907.23 509.373Z" fill="#AE7EDE"/>
<path d="M2907.23 509.373C2908.3 509.86 2909.31 510.489 2910.22 511.243C2912.18 512.551 2914.99 514.514 2918.54 517.319C2925.83 522.741 2936.3 531.06 2949.39 542.371C2986.38 574.104 3020.11 609.46 3050.07 647.91C3070.88 674.535 3088.13 703.76 3101.39 734.847C3117.67 770.678 3121.43 810.949 3112.04 849.173C3106.22 869.58 3096.02 888.467 3082.13 904.513C3068.97 922.236 3052.45 937.196 3033.52 948.542C3013.46 959.789 2991.05 966.192 2968.08 967.238C2944.62 968.296 2921.13 965.742 2898.44 959.666C2850.25 945.964 2804.45 924.968 2762.61 897.409C2742.33 884.508 2723.07 870.954 2704.75 857.025C2695.4 850.014 2686.8 842.91 2678.3 835.805L2665.58 824.962C2661.38 821.129 2657.64 818.137 2653.15 813.463L2652.12 812.342L2653.34 810.846C2728.12 721.573 2791.59 646.041 2836.37 592.57L2888.53 530.873L2902.37 514.701L2906.01 510.682C2906.38 510.208 2906.78 509.77 2907.23 509.373C2906.92 509.945 2906.54 510.479 2906.11 510.962L2902.55 515.356L2889 532.182L2837.77 594.72L2656.8 813.277L2655.3 811.781L2656.98 810.753L2657.54 811.313L2659.04 812.622L2662.03 815.427L2668.11 820.755L2681.1 831.973C2689.7 839.077 2698.49 845.995 2707.55 852.912C2725.78 866.747 2744.95 880.208 2765.14 893.015C2806.61 920.33 2852 941.166 2899.75 954.805C2921.95 960.747 2944.93 963.269 2967.9 962.284C2990.11 961.208 3011.77 955.001 3031.18 944.149C3049.63 933.074 3065.75 918.535 3078.67 901.335C3092.17 885.779 3102.13 867.469 3107.84 847.677C3117.03 810.389 3113.48 771.095 3097.74 736.062C3084.74 705.353 3067.84 676.448 3047.45 650.06C3017.81 611.557 2984.57 575.967 2948.17 543.774C2935.27 532.836 2925.08 523.488 2918.07 518.067L2910.03 511.617L2907.23 509.373Z" fill="#263238"/>
<g opacity="0.3">
<path d="M2907.23 509.373C2925.92 524.704 2943.59 538.445 2960.14 553.496C3071.85 654.921 3143.83 769.715 3103.54 867.121L3072.69 913.861C3072.69 913.861 3105.22 794.394 3044.64 708.205C2984.07 622.016 2900.68 523.956 2900.68 523.956L2907.23 509.373Z" fill="black"/>
</g>
<path d="M3291.8 923.769L3134.29 1112.41C3128.15 1107.3 3123.09 1101.03 3119.37 1093.96C3115.66 1086.89 3113.38 1079.16 3112.66 1071.21C3111.94 1063.25 3112.8 1055.24 3115.18 1047.61C3117.55 1039.99 3121.41 1032.91 3126.53 1026.78L3206.36 931.528C3211.47 925.392 3217.74 920.324 3224.81 916.613C3231.88 912.902 3239.62 910.621 3247.57 909.9C3255.52 909.18 3263.54 910.034 3271.16 912.413C3278.78 914.793 3285.86 918.652 3291.99 923.769H3291.8Z" fill="#AE7EDE"/>
<path d="M3315.29 890.783L3103.88 1144.52L3225.98 1246.24L3437.38 992.506L3315.29 890.783Z" fill="#263238"/>
<path d="M3315.38 954.914L3165.84 1134.39L3225.67 1184.24L3375.2 1004.76L3315.38 954.914Z" fill="#455A64"/>
<path d="M2858.71 721.291L2917.6 735.5L2962.76 695.023L2967.43 755.412L3019.97 785.793L2963.88 808.976L2951.26 868.335L2911.9 822.156L2851.61 828.419L2883.3 776.725L2858.71 721.291Z" fill="white"/>
<path d="M3012.49 935.922L3011.74 936.577L3009.59 938.259C3006.64 940.346 3003.51 942.161 3000.24 943.681C2995.21 946.068 2989.9 947.827 2984.44 948.916C2977.25 950.392 2969.91 951.051 2962.57 950.879C2953.66 950.75 2944.77 949.843 2936.02 948.168L2921.34 945.364C2916.39 944.242 2911.34 942.84 2906.11 941.624C2883.62 935.385 2861.73 927.19 2840.67 917.133C2819.54 907.126 2799.03 895.857 2779.25 883.386C2760.56 871.982 2744.85 860.951 2731.49 851.697C2718.12 842.442 2707.46 834.496 2700.17 829.075L2692.22 822.624L2689.98 821.035L2689.33 820.381L2690.07 820.942L2692.22 822.624L2700.73 828.701C2708.21 834.029 2718.96 841.694 2732.33 850.949C2745.69 860.203 2761.77 871.14 2780.1 882.452C2799.76 894.858 2820.15 906.095 2841.14 916.104C2862.21 926.105 2884.1 934.268 2906.57 940.503C2911.81 941.811 2916.86 943.214 2921.81 944.335L2936.39 947.233C2945.12 948.857 2953.97 949.763 2962.85 949.944C2970.15 950.176 2977.46 949.58 2984.63 948.168C2990.05 947.12 2995.32 945.425 3000.33 943.12C3003.6 941.654 3006.73 939.902 3009.68 937.885L3011.93 936.296L3012.49 935.922Z" fill="white"/>
<path d="M3051.37 942.559C3050.84 943.876 3050.5 945.26 3050.34 946.672C3050.24 948.417 3050.54 950.163 3051.2 951.781C3051.86 953.399 3052.88 954.848 3054.18 956.02C3056.77 958.232 3059.8 959.886 3063.06 960.881C3065.49 961.722 3067.08 962.189 3067.08 962.283C3065.61 962.274 3064.16 962.022 3062.78 961.535C3059.33 960.697 3056.13 959.064 3053.43 956.768C3052.17 955.564 3051.18 954.111 3050.52 952.5C3049.86 950.89 3049.55 949.159 3049.6 947.42C3049.74 946.334 3050.09 945.286 3050.63 944.335L3051.37 942.559Z" fill="white"/>
<path d="M3135.79 1026.22C3135.79 1026.22 3135.13 1027.06 3134.01 1028.65C3132.32 1030.81 3130.79 1033.09 3129.43 1035.48C3124.84 1043.34 3122.06 1052.12 3121.3 1061.18C3120.64 1070.27 3121.95 1079.39 3125.13 1087.92C3126.13 1090.48 3127.28 1092.98 3128.59 1095.4C3129.12 1096.25 3129.56 1097.16 3129.9 1098.11L3129.43 1097.55L3128.21 1095.59C3126.81 1093.21 3125.56 1090.74 3124.47 1088.2C3121.02 1079.64 3119.58 1070.39 3120.27 1061.18C3121.29 1049.14 3125.95 1037.7 3133.64 1028.37L3135.23 1026.69C3135.23 1026.69 3135.79 1026.13 3135.79 1026.22Z" fill="white"/>
<path d="M3084.28 961.629C3095.14 951.003 3103.72 938.282 3109.52 924.237C3112.34 917.248 3113.06 909.585 3111.58 902.193C3110.1 894.801 3106.49 888.003 3101.2 882.639L3035.76 957.423L3109.05 1053.05C3130.27 1016.6 3112.88 973.314 3084.28 961.629Z" fill="#FFBE9D"/>
<path d="M3122.23 1037.63C3122.23 1037.63 3122.23 1037.07 3122.23 1035.95C3122.23 1034.82 3122.98 1033.23 3123.26 1030.99C3124.29 1024.64 3124.29 1018.17 3123.26 1011.83C3121.67 1002.09 3118.01 992.814 3112.51 984.625C3105.63 974.159 3095.9 965.886 3084.46 960.787V962.189C3089.84 956.429 3094.9 950.375 3099.61 944.054C3104.76 937.274 3108.63 929.607 3111.01 921.432C3112.74 914.337 3112.74 906.933 3111.01 899.838C3109.56 893.05 3105.99 886.897 3100.82 882.264L3100.17 881.703L3099.61 882.357L3052.87 936.576L3039.5 952.281L3035.95 956.581C3035.11 957.609 3034.73 958.076 3034.83 958.17L3036.14 956.768L3039.87 952.748L3053.71 937.23L3100.92 883.573H3099.7C3104.47 888.011 3107.74 893.828 3109.05 900.212C3110.54 907.042 3110.35 914.132 3108.49 920.871C3106.21 928.844 3102.47 936.324 3097.46 942.933C3092.82 949.201 3087.86 955.223 3082.59 960.974L3081.75 961.815H3082.88C3094.24 966.675 3103.97 974.688 3110.92 984.905C3116.36 992.904 3120.08 1001.94 3121.86 1011.45C3122.99 1017.62 3123.21 1023.92 3122.51 1030.15C3122.98 1035.29 3122.23 1037.63 3122.23 1037.63Z" fill="#EB996E"/>
<path d="M3125.69 1032.3C3152.33 997.244 3185.14 960.787 3211.78 925.639Z" fill="#AE7EDE"/>
<path d="M3211.78 925.453C3199.83 945.017 3186.02 963.392 3170.56 980.326C3159.06 994.067 3148.59 1006.41 3139.34 1017.72C3135.38 1023.15 3130.8 1028.11 3125.69 1032.49C3137.62 1012.93 3151.39 994.555 3166.82 977.615L3198.14 940.223C3202.16 934.84 3206.74 929.89 3211.78 925.453Z" fill="#263238"/>
<path d="M2015.15 3473.06L2003.46 3470.17C2003.46 3470.17 1874.18 3649.37 1835.85 3642.17L1935.88 3247.4L2065.81 3286.1C2023.75 3337.89 2005.15 3398.56 2015.15 3473.06Z" fill="#455A64"/>
<path d="M2013.75 3315.36C2013.55 3311.27 2011.84 3307.39 2008.96 3304.48C2006.08 3301.56 2002.23 3299.81 1998.13 3299.56C1994.04 3299.63 1990.13 3301.25 1987.2 3304.1C1984.26 3306.95 1982.53 3310.81 1982.34 3314.9C1982.54 3319.23 1984.34 3323.33 1987.4 3326.4C1990.46 3329.48 1994.55 3331.31 1998.88 3331.53C2003.15 3331.04 2007.06 3328.92 2009.79 3325.61C2012.53 3322.3 2013.88 3318.06 2013.56 3313.77" fill="white"/>
<path d="M1935.88 3247.4L1967.1 3256.75L1860.25 3631.6C1860.25 3631.6 1848.1 3647.22 1836.23 3642.17L1935.88 3247.4Z" fill="#263238"/>
<path d="M2001.97 3471.29C2000.1 3470.73 2001.97 3460.82 1997.85 3449.79C1993.74 3438.76 1987.2 3431.65 1988.51 3430.06C1989.81 3428.47 2000.19 3434.18 2004.49 3447.64C2008.79 3461.1 2003.65 3472.13 2001.97 3471.29Z" fill="#263238"/>
<path d="M1974.39 3508.3C1972.43 3508.3 1971.21 3498.96 1965.04 3490.54C1958.87 3482.13 1950.37 3477.83 1950.93 3475.96C1951.49 3474.09 1962.71 3475.96 1970.56 3486.43C1978.41 3496.9 1976.26 3508.77 1974.39 3508.3Z" fill="#263238"/>
<path d="M1918.86 3519.24C1918.86 3517.47 1929.24 3517.19 1938.49 3524.85C1947.75 3532.52 1949.71 3542.52 1947.84 3542.89C1945.97 3543.27 1941.77 3536.35 1934.01 3530.18C1926.25 3524.01 1918.58 3521.21 1918.86 3519.24Z" fill="#263238"/>
<path d="M2424.31 4317.47L2419.82 4327.84C2419.82 4327.84 2564.62 4474.23 2552.1 4508.35L2204.72 4356.17L2260.25 4242.68C2280.65 4266.17 2305.85 4285 2334.15 4297.91C2362.46 4310.81 2393.2 4317.48 2424.31 4317.47Z" fill="#455A64"/>
<path d="M2279.23 4294.56C2275.44 4294.1 2271.61 4295.05 2268.49 4297.25C2265.36 4299.44 2263.16 4302.71 2262.31 4306.44C2261.72 4310.2 2262.59 4314.05 2264.75 4317.2C2266.9 4320.34 2270.18 4322.54 2273.9 4323.36C2277.92 4323.8 2281.96 4322.75 2285.25 4320.41C2288.55 4318.06 2290.86 4314.59 2291.75 4310.64C2291.96 4306.66 2290.62 4302.74 2288 4299.73C2285.39 4296.71 2281.71 4294.83 2277.73 4294.47" fill="white"/>
<path d="M2204.72 4356.17L2218.09 4328.87L2546.11 4485.17C2546.11 4485.17 2558.64 4498.63 2552.1 4508.82L2204.72 4356.17Z" fill="#263238"/>
<path d="M2421.13 4329.34C2420.29 4331.02 2411.78 4328.12 2400.75 4329.9C2389.72 4331.68 2382.06 4336.82 2381.12 4335.51C2380.19 4334.2 2386.73 4325.41 2399.82 4323.45C2412.9 4321.49 2421.69 4328.12 2421.13 4329.34Z" fill="#263238"/>
<path d="M2450.39 4360.47C2450.39 4362.25 2441.51 4361.87 2432.54 4366.55C2423.56 4371.22 2418.7 4378.04 2417.02 4377.2C2415.34 4376.36 2418.51 4366.36 2429.64 4360.84C2440.76 4355.33 2451.14 4358.79 2450.39 4360.47Z" fill="#263238"/>
<path d="M2451.98 4413.1C2450.3 4413.1 2451.98 4403.75 2460.02 4395.9C2468.06 4388.05 2478.06 4388.33 2478.15 4390.1C2478.25 4391.88 2471.14 4394.59 2464.32 4400.76C2457.49 4406.93 2453.76 4413.75 2451.98 4413.1Z" fill="#263238"/>
<path d="M2252.87 1536.62C2252.23 1533.16 2250.33 1530.05 2247.53 1527.91C2244.73 1525.77 2241.24 1524.74 2237.72 1525.03H2236.79C2234.19 1525.55 2231.81 1526.82 2229.92 1528.68C2228.04 1530.54 2226.74 1532.91 2226.19 1535.5C2225.64 1538.09 2225.86 1540.78 2226.82 1543.25C2227.78 1545.72 2229.44 1547.85 2231.6 1549.38C2233.76 1550.91 2236.32 1551.78 2238.97 1551.87C2241.62 1551.96 2244.23 1551.28 2246.49 1549.9C2248.75 1548.53 2250.56 1546.52 2251.7 1544.12C2252.83 1541.73 2253.24 1539.06 2252.87 1536.44V1536.62Z" fill="#455A64"/>
<path d="M2266.05 1735.64L2348.31 1962.8L2545.65 2283.44L2551.54 1943.26L2494.79 1680.4H2490.21L2449.46 1854.18L2395.33 1788.74L2272.22 1703.02L2266.05 1735.64Z" fill="#FAFAFA"/>
<path d="M2526.3 1826.51C2521.61 1821.87 2517.41 1816.77 2513.77 1811.27C2510.03 1806.5 2505.54 1800.8 2500.31 1794.63C2494.9 1787.85 2488.61 1781.81 2481.61 1776.68L2485.26 1775.09C2484.49 1778.26 2483.52 1781.39 2482.36 1784.44C2474.32 1804.54 2465.07 1821.36 2459.08 1833.98C2453.1 1846.6 2450.2 1854.55 2449.74 1854.46C2450.41 1846.81 2452.61 1839.37 2456.19 1832.58C2461.33 1819.59 2470.21 1802.29 2477.97 1782.76C2479.05 1780.02 2479.96 1777.2 2480.68 1774.34L2481.52 1770.98L2484.32 1772.85C2491.77 1778.24 2498.36 1784.74 2503.86 1792.11C2509 1798.56 2513.21 1804.63 2516.67 1809.68C2520.6 1814.84 2523.84 1820.5 2526.3 1826.51Z" fill="#263238"/>
<path d="M2545.65 2283.44C2543.94 2278.17 2542.72 2272.75 2542 2267.26C2539.76 2256.05 2536.77 2241.09 2533.21 2223.05C2525.64 2185.66 2514.52 2134.34 2501.9 2077.59C2489.28 2020.85 2477.69 1970.28 2469.18 1932.33C2465.16 1914.38 2461.89 1899.51 2459.83 1888.3C2458.38 1882.94 2457.38 1877.46 2456.84 1871.94C2458.82 1877.11 2460.41 1882.42 2461.61 1887.83C2464.41 1898.11 2468.24 1913.07 2472.92 1931.58C2482.27 1968.97 2494.33 2019.73 2506.94 2076.47C2519.56 2133.21 2530.22 2184.91 2536.95 2222.39C2540.22 2241.09 2542.84 2256.42 2544.24 2266.98C2545.06 2272.43 2545.53 2277.93 2545.65 2283.44Z" fill="#263238"/>
<path d="M2507.32 1662.17C2452.63 1702.08 2333.07 1709.38 2282.5 1706.1C2214.35 1701.34 2140.69 1673.29 2075.25 1655.72C2007.11 1637.86 1944.38 1638.99 1876.42 1648.71C1808.46 1658.43 1727.42 1704.8 1687.41 1759.76L1715.45 1789.77C1715.45 1789.77 1808.93 1712.09 1894.18 1700.68C1975.89 1689.93 2026.36 1707.32 2122.28 1732.65C2231.46 1761.54 2363.45 1755.18 2405.05 1743.96C2445.08 1732.72 2483.34 1715.95 2518.72 1694.14L2507.32 1662.17Z" fill="#455A64"/>
<path d="M2285.68 1789.77C2288.61 1791.33 2291.34 1793.24 2293.81 1795.47C2298.77 1799.3 2305.87 1804.82 2314.66 1812.2C2332.14 1826.51 2356.07 1846.6 2382.24 1868.95L2383.65 1870.16L2379.72 1871.47C2384.21 1850.62 2388.51 1831.09 2392.25 1813.98L2392.99 1810.52L2395.61 1812.67C2410.57 1824.82 2422.91 1835.01 2431.51 1842.21C2436.21 1845.78 2440.56 1849.79 2444.5 1854.18C2439.34 1851.31 2434.46 1847.96 2429.92 1844.17C2420.57 1837.54 2408.14 1827.81 2392.99 1816.13L2396.36 1814.91L2384.49 1872.59L2383.65 1876.61L2380.47 1873.9L2379.07 1872.68C2352.89 1850.34 2329.33 1829.87 2312.41 1814.91C2303.91 1807.44 2297.18 1801.27 2292.5 1796.97C2289.93 1794.87 2287.64 1792.45 2285.68 1789.77Z" fill="#263238"/>
<path d="M1614.77 2013.84C1615.33 2010.19 1596.08 1936.62 1596.08 1936.62L1502.6 1893.9L1519.05 1979.16C1529.68 1989.7 1540.85 1999.68 1552.52 2009.07C1554.11 2008.51 1614.77 2013.84 1614.77 2013.84Z" fill="#EB996E"/>
<path d="M1755.27 1857.07C1757.37 1881.65 1752.12 1906.3 1740.21 1927.89C1728.3 1949.49 1710.25 1967.07 1688.34 1978.41C1666.43 1989.74 1641.66 1994.33 1617.15 1991.59C1592.63 1988.84 1569.49 1978.89 1550.63 1962.99C1531.77 1947.09 1518.06 1925.95 1511.21 1902.26C1504.37 1878.56 1504.71 1853.36 1512.18 1829.86C1519.66 1806.35 1533.94 1785.59 1553.22 1770.2C1572.49 1754.82 1595.9 1745.49 1620.47 1743.4C1653.42 1740.61 1686.13 1751.01 1711.41 1772.33C1736.69 1793.64 1752.47 1824.13 1755.27 1857.07Z" fill="#AE7EDE"/>
<g opacity="0.3">
<path d="M1755.27 1857.07C1757.37 1881.65 1752.12 1906.3 1740.21 1927.89C1728.3 1949.49 1710.25 1967.07 1688.34 1978.41C1666.43 1989.74 1641.66 1994.33 1617.15 1991.59C1592.63 1988.84 1569.49 1978.89 1550.63 1962.99C1531.77 1947.09 1518.06 1925.95 1511.21 1902.26C1504.37 1878.56 1504.71 1853.36 1512.18 1829.86C1519.66 1806.35 1533.94 1785.59 1553.22 1770.2C1572.49 1754.82 1595.9 1745.49 1620.47 1743.4C1653.42 1740.61 1686.13 1751.01 1711.41 1772.33C1736.69 1793.64 1752.47 1824.13 1755.27 1857.07Z" fill="black"/>
</g>
<path d="M1755.27 1840.9C1757.37 1865.48 1752.12 1890.12 1740.21 1911.72C1728.3 1933.32 1710.25 1950.9 1688.34 1962.23C1666.43 1973.57 1641.66 1978.16 1617.15 1975.41C1592.63 1972.67 1569.49 1962.72 1550.63 1946.82C1531.77 1930.92 1518.06 1909.78 1511.21 1886.08C1504.37 1862.39 1504.71 1837.19 1512.18 1813.69C1519.66 1790.18 1533.94 1769.42 1553.22 1754.03C1572.49 1738.64 1595.9 1729.32 1620.47 1727.23C1653.42 1724.43 1686.13 1734.84 1711.41 1756.15C1736.69 1777.47 1752.47 1807.95 1755.27 1840.9Z" fill="#AE7EDE"/>
<g opacity="0.3">
<path d="M1543.91 1864.09C1541.77 1838.68 1549.79 1813.45 1566.24 1793.96C1582.68 1774.47 1606.19 1762.3 1631.6 1760.14H1635.62C1622.58 1759.39 1609.53 1761.32 1597.27 1765.78C1585 1770.25 1573.77 1777.17 1564.27 1786.13C1554.76 1795.08 1547.18 1805.87 1541.99 1817.85C1536.8 1829.83 1534.1 1842.74 1534.06 1855.8C1534.02 1868.85 1536.64 1881.78 1541.77 1893.79C1546.89 1905.8 1554.41 1916.64 1563.86 1925.64C1573.31 1934.65 1584.5 1941.64 1596.74 1946.18C1608.98 1950.72 1622.02 1952.72 1635.06 1952.05C1611.78 1950.93 1589.71 1941.39 1572.94 1925.21C1556.18 1909.03 1545.86 1887.31 1543.91 1864.09Z" fill="black"/>
</g>
<g opacity="0.3">
<path d="M1683.01 1775L1703.49 1750.04L1719.1 1763.31L1697.13 1786.12L1683.01 1775Z" fill="white"/>
</g>
<path d="M1726.76 1847.73C1725.28 1840.02 1723.35 1832.4 1720.97 1824.92C1713.6 1804.78 1699.76 1787.65 1681.61 1776.21C1668.27 1767.87 1653.05 1763 1637.35 1762.04C1621.64 1761.07 1605.95 1764.05 1591.68 1770.7C1583.48 1774.47 1575.88 1779.44 1569.16 1785.47C1562.02 1791.65 1555.93 1798.94 1551.11 1807.06C1540.7 1824.06 1535.99 1843.94 1537.67 1863.8C1539.35 1883.66 1547.34 1902.46 1560.46 1917.46C1566.6 1924.62 1573.82 1930.78 1581.87 1935.69C1589.52 1940.53 1597.88 1944.16 1606.64 1946.44C1619.37 1949.86 1632.67 1950.59 1645.7 1948.59C1658.73 1946.59 1671.2 1941.9 1682.32 1934.83C1693.44 1927.75 1702.97 1918.44 1710.3 1907.48C1717.62 1896.53 1722.6 1884.17 1724.89 1871.19C1726.01 1863.42 1726.64 1855.58 1726.76 1847.73C1728.04 1855.62 1728.04 1863.67 1726.76 1871.56C1724.7 1885.1 1719.8 1898.05 1712.38 1909.56C1704.96 1921.07 1695.2 1930.88 1683.73 1938.36C1672.25 1945.83 1659.33 1950.8 1645.81 1952.93C1632.28 1955.07 1618.46 1954.32 1605.24 1950.74C1586.44 1945.75 1569.55 1935.27 1556.72 1920.64C1542.79 1904.85 1534.32 1885 1532.57 1864.01C1530.81 1843.03 1535.88 1822.04 1547 1804.16C1552.02 1795.73 1558.33 1788.13 1565.7 1781.64C1572.78 1775.33 1580.78 1770.16 1589.44 1766.31C1605.4 1759 1623.02 1756.09 1640.48 1757.89C1659.03 1759.86 1676.62 1767.13 1691.14 1778.83C1705.67 1790.54 1716.51 1806.18 1722.37 1823.89C1725.17 1831.53 1726.65 1839.59 1726.76 1847.73Z" fill="#263238"/>
<path d="M1585.23 1746.02C1585.23 1746.86 1578.32 1748.73 1568.78 1755.37C1556.69 1764.49 1546.12 1775.47 1537.46 1787.9C1528.46 1800.03 1522.09 1813.91 1518.77 1828.66C1516.15 1839.97 1516.06 1847.35 1515.31 1847.35C1513.87 1840.98 1513.87 1834.37 1515.31 1828C1517.91 1812.35 1524.34 1797.58 1534.01 1785C1542.95 1772.1 1554.32 1761.05 1567.47 1752.47C1572.69 1748.74 1578.83 1746.51 1585.23 1746.02Z" fill="white"/>
<path d="M1608.98 1737.61C1608.98 1738.92 1607.11 1740.6 1603.93 1741.53C1600.75 1742.47 1597.85 1741.53 1597.48 1740.69C1597.1 1739.85 1599.44 1737.61 1602.62 1736.77C1605.8 1735.92 1608.7 1736.3 1608.98 1737.61Z" fill="white"/>
<path d="M1671.61 1927C1662.1 1933.37 1651.26 1937.48 1639.91 1939C1628.57 1940.53 1617.02 1939.43 1606.17 1935.78C1606.17 1934.38 1621.41 1936.72 1639.45 1934.2C1657.49 1931.67 1671.05 1925.69 1671.61 1927Z" fill="white"/>
<path d="M1727.04 1895.5C1725.92 1894.75 1727.98 1889.33 1729.75 1882.5C1731.53 1875.68 1732.28 1869.88 1733.68 1869.79C1735.08 1869.69 1736.48 1876.05 1734.43 1883.72C1732.37 1891.38 1728.16 1896.24 1727.04 1895.5Z" fill="white"/>
<g opacity="0.3">
<path d="M1643.85 1819.59V1905.78H1623.84V1835.57H1606.64V1819.59H1643.85Z" fill="black"/>
</g>
<path d="M1620.57 2002.9C1602.71 1995.52 1539.05 1987.76 1539.05 1987.76L1544.1 1958.41C1544.1 1958.41 1579.81 1947.75 1589.44 1932.23C1592.17 1927.32 1593.66 1921.82 1593.79 1916.2C1593.92 1910.58 1592.69 1905.02 1590.19 1899.98L1570.46 1905.59C1580.37 1895.5 1574.67 1875.77 1574.67 1875.77L1552.7 1880.45C1554.63 1879 1556.24 1877.17 1557.41 1875.07C1558.59 1872.96 1559.31 1870.63 1559.52 1868.23C1559.73 1865.83 1559.43 1863.42 1558.64 1861.14C1557.86 1858.86 1556.6 1856.77 1554.95 1855.02L1537.93 1860.53C1548.22 1849.32 1529.89 1837.07 1529.89 1837.07C1529.89 1837.07 1452.49 1897.46 1447.44 1905.78C1442.4 1914.1 1453.52 1936.25 1453.52 1936.25C1447.34 1943.41 1443.38 1952.21 1442.12 1961.59C1441.65 1974.49 1458.01 1979.25 1458.01 1979.25C1457.02 1986.09 1457.47 1993.07 1459.32 1999.73C1462.49 2010.38 1513.91 2040.11 1513.91 2040.11L1581.49 2108.26L1649.45 2015.34C1649.45 2015.34 1638.42 2010.29 1620.57 2002.9Z" fill="#FFBE9D"/>
<path d="M1589.16 1900.92C1584.03 1904.23 1578.32 1906.55 1572.33 1907.74C1558.42 1911.21 1544.74 1915.59 1531.39 1920.83C1524.3 1923.88 1517.73 1928.05 1511.95 1933.17C1506.62 1938.03 1502.6 1942.51 1498.39 1947C1490.73 1955.23 1484.65 1958.97 1484.28 1958.41C1483.9 1957.85 1488.95 1953.45 1495.87 1944.76C1499.89 1939.54 1504.23 1934.58 1508.86 1929.89C1514.84 1924.21 1521.77 1919.62 1529.33 1916.34C1542.97 1911 1557.09 1906.99 1571.49 1904.37C1577.27 1902.72 1583.18 1901.56 1589.16 1900.92Z" fill="#EB996E"/>
<path d="M1576.07 1994.4C1576.07 1995.61 1559.99 1992.06 1538.68 1992.99H1535.41L1536.34 1989.82C1537.56 1985.52 1538.77 1980.47 1539.71 1975.98C1541.04 1969.54 1541.91 1963.01 1542.33 1956.44V1954.48H1544.38C1551.83 1953.65 1559.1 1951.6 1565.88 1948.4C1571.12 1946.25 1574.11 1944.67 1574.39 1945.13C1574.67 1945.6 1572.15 1947.84 1567.19 1950.84C1560.27 1955.12 1552.53 1957.92 1544.48 1959.06L1546.63 1956.91C1546.4 1963.73 1545.62 1970.51 1544.29 1977.2C1543.36 1982 1542.14 1986.75 1540.64 1991.41L1538.31 1988.32C1551.2 1987.37 1564.13 1989.45 1576.07 1994.4Z" fill="#EB996E"/>
<path d="M1475.21 1928.59C1478.32 1924 1482.07 1919.88 1486.33 1916.34L1499.42 1903.44C1501.96 1900.69 1504.81 1898.24 1507.93 1896.15C1511.32 1894.02 1514.88 1892.17 1518.58 1890.63C1531.35 1885.67 1544.52 1881.8 1557.94 1879.04C1563.38 1877.42 1569 1876.48 1574.67 1876.24C1569.77 1879.13 1564.44 1881.21 1558.87 1882.41C1548.96 1885.59 1534.94 1889.23 1520.54 1895.12C1517.08 1896.52 1513.73 1898.21 1510.54 1900.17C1507.64 1902.06 1504.94 1904.25 1502.5 1906.71L1488.76 1918.77C1484.73 1922.67 1480.16 1925.97 1475.21 1928.59Z" fill="#EB996E"/>
<path d="M1462.31 1908.77C1461.84 1908.21 1466.14 1903.81 1473.43 1897.18L1486.33 1885.77L1494.09 1879.04L1498.2 1875.58L1500.35 1873.81C1501.2 1873.17 1502.11 1872.6 1503.06 1872.12C1514.83 1866.82 1526.95 1862.32 1539.33 1858.66C1544.31 1856.62 1549.58 1855.39 1554.94 1855.02C1550.46 1857.91 1545.62 1860.2 1540.55 1861.84C1531.2 1865.67 1518.49 1870.25 1505.4 1876.42L1503.34 1877.64L1501.19 1879.32L1497.08 1882.78L1489.13 1889.23L1475.58 1899.89C1471.61 1903.47 1467.14 1906.46 1462.31 1908.77Z" fill="#EB996E"/>
<path d="M1749.1 1370.14L1752.56 1361.54L1757.89 1369.11C1762.17 1375.2 1768.11 1379.94 1775 1382.76L1783.6 1386.31L1776.03 1391.64C1769.91 1395.85 1765.17 1401.77 1762.38 1408.65L1758.83 1417.25L1753.5 1409.68C1749.22 1403.59 1743.28 1398.85 1736.39 1396.03L1727.79 1392.48L1735.46 1387.15C1741.52 1382.88 1746.25 1376.98 1749.1 1370.14Z" fill="#AE7EDE"/>
<path d="M2914.42 2358.13L2917.88 2349.53L2923.21 2357.1C2927.49 2363.19 2933.43 2367.93 2940.32 2370.75L2948.92 2374.3L2941.25 2379.63C2935.19 2383.93 2930.45 2389.86 2927.61 2396.73L2924.15 2405.24L2918.82 2397.67C2914.54 2391.58 2908.6 2386.84 2901.71 2384.02L2893.11 2380.47L2900.78 2375.14C2906.84 2370.87 2911.57 2364.97 2914.42 2358.13Z" fill="#AE7EDE"/>
<path d="M3115.5 1959.34L3118.96 1950.83L3124.29 1958.41C3128.59 1964.48 3134.52 1969.21 3141.39 1972.05L3150 1975.61L3142.42 1980.93C3136.33 1985.18 3131.59 1991.08 3128.78 1997.95L3125.22 2006.55L3119.89 1998.98C3115.62 1992.88 3109.68 1988.15 3102.79 1985.33L3094.19 1981.78L3101.85 1976.45C3107.95 1972.17 3112.68 1966.23 3115.5 1959.34Z" fill="#AE7EDE"/>
<path d="M1413.98 1323.12L1416.03 1318.16L1419.12 1322.56C1421.58 1326.11 1425.03 1328.87 1429.03 1330.5L1433.98 1332.56L1429.59 1335.64C1426.04 1338.11 1423.28 1341.55 1421.64 1345.55L1419.59 1350.51L1416.5 1346.11C1414.04 1342.56 1410.6 1339.8 1406.59 1338.17L1401.64 1336.11L1406.03 1333.03C1409.58 1330.56 1412.34 1327.12 1413.98 1323.12Z" fill="#AE7EDE"/>
<path d="M2926.48 2066.47L2928.54 2061.52L2931.63 2065.91C2934.09 2069.46 2937.53 2072.23 2941.53 2073.86L2946.58 2075.91L2942.1 2079C2938.59 2081.49 2935.87 2084.93 2934.24 2088.91L2932.19 2093.86L2929.1 2089.47C2926.59 2085.96 2923.16 2083.21 2919.19 2081.52L2914.14 2079.56L2918.54 2076.38C2922.11 2073.94 2924.88 2070.49 2926.48 2066.47Z" fill="#AE7EDE"/>
<path d="M1571.49 1059.97L1579.81 1046.98L1586.92 1060.91C1592.62 1072.01 1601.37 1081.26 1612.16 1087.55L1625.62 1095.4L1611.78 1102.5C1600.66 1108.22 1591.4 1116.97 1585.05 1127.74L1577.19 1141.2L1570.09 1127.37C1564.4 1116.23 1555.65 1106.95 1544.85 1100.63L1531.39 1092.78L1545.32 1085.68C1556.34 1079.81 1565.43 1070.88 1571.49 1059.97Z" fill="#AE7EDE"/>
</svg>
