<svg width="489" height="83" viewBox="0 0 489 83" fill="none" xmlns="http://www.w3.org/2000/svg">
<path d="M0.352 69V1.8H61.6V69H46.144V10.92L49.696 14.472H12.256L15.808 10.92V69H0.352ZM78.2583 69V1.8H93.7143V45.576L125.778 1.8H140.37V69H125.01V25.32L92.9463 69H78.2583ZM203.182 1.8H218.734V69H203.182V1.8ZM172.654 69H157.102V1.8H172.654V69ZM204.334 41.448H171.502V28.296H204.334V41.448ZM232.211 47.976V35.976H259.379V47.976H232.211ZM316.09 69L295.162 36.648L307.738 29.064L333.754 69H316.09ZM272.41 69V1.8H287.866V69H272.41ZM283.354 41.928V28.968H306.778V41.928H283.354ZM309.178 37.128L294.874 35.4L316.666 1.8H333.082L309.178 37.128ZM372.918 70.152C367.606 70.152 362.678 69.288 358.134 67.56C353.654 65.832 349.75 63.4 346.422 60.264C343.158 57.128 340.598 53.448 338.742 49.224C336.95 45 336.054 40.392 336.054 35.4C336.054 30.408 336.95 25.8 338.742 21.576C340.598 17.352 343.19 13.672 346.518 10.536C349.846 7.4 353.75 4.96799 358.23 3.23999C362.71 1.512 367.574 0.647999 372.822 0.647999C378.134 0.647999 382.998 1.512 387.414 3.23999C391.894 4.96799 395.766 7.4 399.03 10.536C402.358 13.672 404.95 17.352 406.806 21.576C408.662 25.736 409.59 30.344 409.59 35.4C409.59 40.392 408.662 45.032 406.806 49.32C404.95 53.544 402.358 57.224 399.03 60.36C395.766 63.432 391.894 65.832 387.414 67.56C382.998 69.288 378.166 70.152 372.918 70.152ZM372.822 56.904C375.83 56.904 378.582 56.392 381.078 55.368C383.638 54.344 385.878 52.872 387.798 50.952C389.718 49.032 391.19 46.76 392.214 44.136C393.302 41.512 393.846 38.6 393.846 35.4C393.846 32.2 393.302 29.288 392.214 26.664C391.19 24.04 389.718 21.768 387.798 19.848C385.942 17.928 383.734 16.456 381.174 15.432C378.614 14.408 375.83 13.896 372.822 13.896C369.814 13.896 367.03 14.408 364.47 15.432C361.974 16.456 359.766 17.928 357.846 19.848C355.926 21.768 354.422 24.04 353.334 26.664C352.31 29.288 351.798 32.2 351.798 35.4C351.798 38.536 352.31 41.448 353.334 44.136C354.422 46.76 355.894 49.032 357.75 50.952C359.67 52.872 361.91 54.344 364.47 55.368C367.03 56.392 369.814 56.904 372.822 56.904ZM464.24 62.088V14.472H441.2L440.912 24.264C440.72 28.424 440.432 32.36 440.048 36.072C439.728 39.784 439.216 43.176 438.512 46.248C437.808 49.256 436.88 51.816 435.728 53.928C434.64 56.04 433.264 57.544 431.6 58.44L414.992 56.328C417.296 56.392 419.184 55.592 420.656 53.928C422.192 52.264 423.408 49.928 424.304 46.92C425.2 43.848 425.84 40.264 426.224 36.168C426.672 32.072 426.992 27.624 427.184 22.824L427.952 1.8H479.6V62.088H464.24ZM412.784 82.92L412.88 56.328H489.008V82.92H474.608V69H427.184V82.92H412.784Z" fill="#33D3D4"/>
</svg>
