<svg width="28" height="28" viewBox="0 0 28 28" fill="none" xmlns="http://www.w3.org/2000/svg">
<path d="M27.9974 14.0013C27.9974 21.7239 21.7213 28 13.9987 28C6.27608 28 0 21.7239 0 14.0013C0 6.2787 6.27608 0.00262094 13.9987 0.00262094C14.2203 0.00262094 14.442 0.00262094 14.6636 0.0142865C15.6319 0.0609488 16.3785 0.877539 16.3318 1.84578C16.2851 2.81402 15.4919 3.53729 14.5003 3.51396C14.337 3.51396 14.162 3.50229 13.9987 3.50229C8.21256 3.50229 3.49967 8.21519 3.49967 14.0013C3.49967 19.7874 8.21256 24.5003 13.9987 24.5003C19.7848 24.5003 24.4977 19.7874 24.4977 14.0013C24.4977 13.838 24.4977 13.663 24.486 13.4997C24.4394 12.5314 25.186 11.7149 26.1542 11.6682C27.1458 11.6332 27.9391 12.3681 27.9857 13.3364C27.9857 13.558 27.9974 13.7797 27.9974 14.0013ZM12.7271 9.51006C13.6604 9.24176 14.197 8.28518 13.9404 7.35193C13.6837 6.41869 12.7038 5.88207 11.7822 6.13871C8.28256 7.13029 5.84445 10.3617 5.84445 14.0013C5.84445 18.5042 9.50744 22.1672 14.0104 22.1672C17.65 22.1672 20.8814 19.7291 21.873 16.2294C22.1413 15.2962 21.593 14.3279 20.6597 14.0713C19.7265 13.803 18.7582 14.3513 18.5016 15.2845C17.9417 17.2793 16.0868 18.6792 14.0104 18.6792C11.4323 18.6792 9.34413 16.5911 9.34413 14.013C9.34413 11.9365 10.744 10.0817 12.7388 9.52173L12.7271 9.51006ZM12.7621 12.7648C12.0739 13.453 12.0739 14.5613 12.7621 15.2379C13.1004 15.5762 13.5554 15.7511 13.9987 15.7511C14.442 15.7511 14.8969 15.5762 15.2352 15.2379L21.138 9.33508H23.9144C24.3811 9.33508 24.8243 9.14843 25.151 8.8218L27.4841 6.48868C27.9857 5.98706 28.1374 5.24046 27.8691 4.58719C27.6007 3.93392 26.9591 3.50229 26.2475 3.50229H24.4977V1.75246C24.4977 1.04086 24.0661 0.410916 23.4128 0.130942C22.7595 -0.137366 22.0013 0.0142865 21.5113 0.515906L19.1782 2.84902C18.8516 3.17566 18.6649 3.61895 18.6649 4.08557V6.86198L12.7621 12.7648Z" fill="#AE7EDE"/>
</svg>
