<svg width="500" height="117" viewBox="0 0 500 117" fill="none" xmlns="http://www.w3.org/2000/svg">
<path d="M28.5028 2.57255C26.0175 3.31586 23.8533 5.38512 23.1677 7.69543C21.6036 12.9188 26.1675 19.4881 33.688 22.7828C36.0451 23.8274 37.0734 23.8676 39.259 22.9837C43.0727 21.4971 47.101 18.1421 48.7293 15.1086C50.422 11.9344 50.6576 9.04144 49.4364 6.61059C48.6222 4.94314 47.3796 3.77793 45.5798 2.99443C44.3156 2.43191 43.9298 2.35156 42.3229 2.35156C40.2232 2.35156 38.959 2.73325 37.4805 3.77793L36.5163 4.46098L35.7236 3.87837C33.838 2.45201 30.7741 1.88949 28.5028 2.57255ZM31.8453 6.67085C32.8097 6.93202 33.5595 7.67533 34.288 9.1218C34.6951 9.94548 35.0595 10.3473 35.5736 10.5683C36.4522 10.9701 36.6234 10.9701 37.5019 10.5683C38.0375 10.3473 38.3805 9.94548 38.8519 9.00125C39.1946 8.31822 39.7946 7.51463 40.1588 7.23336C41.5088 6.14852 43.7371 6.32932 44.8727 7.59498C45.6654 8.51912 45.8369 9.40306 45.5369 10.8495C44.8942 13.7826 42.1944 16.776 38.6375 18.5238L36.7949 19.4278L35.4451 18.8252C33.6453 18.0216 31.0955 16.2336 29.8314 14.8876C27.3245 12.2156 26.6816 8.9209 28.3528 7.41418C29.317 6.55031 30.4526 6.30925 31.8453 6.67085Z" fill="#338EF7" stroke="#338EF7"/>
<path d="M16.2896 29.3142C13.0542 29.7761 10.2902 31.8455 9.09032 34.6781C8.68322 35.6223 8.59751 36.2251 8.59751 37.8522C8.5761 39.6404 8.66181 40.0018 9.21888 41.167C9.75455 42.3322 10.4402 43.0355 15.0897 47.4352C17.9608 50.1672 20.2963 52.4374 20.232 52.4977C20.1892 52.5379 19.5892 52.8192 18.925 53.1005C15.004 54.8281 12.8399 59.0268 13.9113 62.864C14.0827 63.4666 14.2755 64.1096 14.3612 64.2903C14.4683 64.5314 14.2755 64.672 13.5042 64.873C12.1971 65.2146 10.2259 66.42 9.36886 67.4043C8.9832 67.8261 8.36183 68.7703 7.97614 69.4936C7.33336 70.7191 7.2905 70.9201 7.2905 73.0094C7.2905 75.0183 7.3548 75.3398 7.89046 76.4247C8.21185 77.0875 8.64037 77.7705 8.81178 77.9513C9.09032 78.2527 8.9832 78.3532 7.56904 78.9759C2.61957 81.2058 0.798322 86.8109 3.60518 91.1502C4.59078 92.6972 22.439 109.271 24.5387 110.617C33.3021 116.182 44.3366 116.303 53.0145 110.939C55.2855 109.532 64.199 101.356 65.9773 99.0455C72.2339 90.8692 72.3839 80.4626 66.3631 71.804C65.7416 70.9201 63.449 68.5696 60.085 65.3753L54.7928 60.3528L54.9857 58.1429C55.414 53.2208 56.914 48.1784 58.3282 46.973C59.5065 45.9485 60.7494 44.1204 61.1992 42.7542C61.585 41.589 61.6277 40.9661 61.585 38.8969C61.4992 36.6066 61.4563 36.3454 60.8136 35.1402C59.8923 33.4124 58.9923 32.428 57.4926 31.524C54.8569 29.9168 51.343 29.6558 48.7076 30.881C47.0793 31.6245 45.9222 32.6491 44.2081 34.8187C42.0227 37.5709 39.8585 42.1112 39.43 44.8636L39.2585 45.8279L31.4165 38.4952C27.1099 34.4571 23.1031 30.881 22.5032 30.5397C20.7463 29.495 18.3251 29.0128 16.2896 29.3142ZM19.675 33.9549C20.7463 34.4571 60.3636 71.4222 62.0563 73.5115C63.5133 75.2996 64.9275 78.0719 65.5916 80.4626C66.4058 83.3353 66.4058 87.0319 65.5916 89.8647C64.9275 92.2552 63.5133 95.0277 62.0563 96.8156C61.4777 97.5389 58.9494 100.03 56.4211 102.36C52.843 105.675 51.4718 106.82 50.0362 107.624C46.5649 109.633 43.1798 110.517 39.1088 110.537C36.5375 110.537 35.0163 110.336 32.6807 109.633C30.9024 109.11 28.2455 107.825 26.7028 106.76C25.0743 105.635 8.44754 90.186 7.65475 89.081C6.84055 87.9158 6.64772 86.7707 7.07626 85.445C7.67619 83.5162 9.94738 82.1302 11.9615 82.4313C13.2042 82.6323 13.997 83.0743 15.5825 84.4805C16.8681 85.6457 17.0824 85.7662 17.8966 85.7662C18.6465 85.7662 18.925 85.6457 19.5464 85.0632C20.232 84.4202 20.2963 84.2597 20.1892 83.5162C20.0821 82.7729 19.7178 82.3711 16.2253 79.0563C13.1613 76.1634 12.3043 75.2193 12.0043 74.4758C10.6759 71.1409 14.2969 67.7457 17.8323 68.9913C18.625 69.2726 19.5678 70.0159 21.989 72.2458C24.9887 74.9982 25.1601 75.1188 25.9958 75.1188C27.6885 75.1188 28.8455 73.5115 28.117 72.1855C27.9241 71.8643 25.8458 69.7951 23.4674 67.5852C21.0891 65.3753 18.9465 63.2054 18.7108 62.7636C18.068 61.6185 18.0894 59.9911 18.775 58.846C19.525 57.5604 20.8106 56.7768 22.3747 56.6763C24.5601 56.5356 24.8816 56.7366 29.2741 60.7747C33.1092 64.3304 33.3021 64.4711 34.1163 64.4711C35.6805 64.4711 36.8375 63.0449 36.3232 61.739C36.1946 61.4175 31.1809 56.5356 24.7745 50.5088C13.697 40.0822 13.4399 39.8411 13.1828 38.8165C12.6685 36.687 13.847 34.5575 15.9682 33.754C16.9109 33.4124 18.7108 33.4928 19.675 33.9549ZM54.8999 35.0599C56.4211 35.9438 57.1067 37.2898 57.1067 39.4394C57.1067 41.4283 56.7426 42.272 55.1784 43.8792C53.2072 45.9083 51.7503 49.4441 50.9574 54.0246C50.7432 55.23 50.5289 56.2344 50.4647 56.2344C50.4003 56.2344 48.772 54.7477 46.8222 52.9196L43.3083 49.6249L43.5869 47.5756C44.1654 43.2563 46.2222 38.8768 49.0076 36.0041C50.7859 34.2159 52.843 33.8746 54.8999 35.0599Z" fill="#338EF7" stroke="#338EF7"/>
<path d="M92.7333 20.1064H98.3317V34.2751C98.3317 34.9708 98.3184 35.7401 98.2917 36.5829C98.2782 37.4259 98.2515 38.2555 98.2113 39.0716C98.1846 39.8742 98.1579 40.5768 98.131 41.1787C98.1043 41.7808 98.0775 42.1822 98.0508 42.3829H98.1712L111.716 20.1064H119.161V49.4471H113.622V35.3588C113.622 34.6096 113.636 33.7935 113.662 32.9103C113.689 32.0273 113.723 31.171 113.763 30.3415C113.816 29.5121 113.863 28.7963 113.903 28.1942C113.943 27.5788 113.97 27.1708 113.983 26.97H113.823L100.218 49.4471H92.7333V20.1064ZM134.251 26.5887C135.869 26.5887 137.381 26.8027 138.786 27.2308C140.19 27.6457 141.327 28.2946 142.197 29.1776C143.066 30.0471 143.501 31.171 143.501 32.5491C143.501 33.9004 143.093 34.9774 142.277 35.7803C141.461 36.5697 140.378 37.1382 139.026 37.486V37.6867C139.976 37.9141 140.832 38.2219 141.595 38.6099C142.371 38.998 142.986 39.533 143.441 40.2155C143.896 40.8978 144.123 41.7943 144.123 42.9047C144.123 44.1489 143.728 45.2995 142.939 46.3565C142.15 47.4 140.939 48.243 139.307 48.8851C137.689 49.5274 135.608 49.8485 133.067 49.8485C131.863 49.8485 130.725 49.7951 129.655 49.688C128.599 49.5809 127.629 49.427 126.746 49.2263C125.863 49.0123 125.094 48.7582 124.438 48.4638V43.4064C125.361 43.8345 126.498 44.2293 127.849 44.5905C129.214 44.9518 130.665 45.1324 132.204 45.1324C133.314 45.1324 134.317 45.052 135.214 44.8915C136.123 44.731 136.839 44.4633 137.361 44.0886C137.896 43.7007 138.163 43.1856 138.163 42.5435C138.163 41.9413 137.929 41.4463 137.461 41.0583C137.006 40.6569 136.304 40.3626 135.354 40.1754C134.418 39.9746 133.227 39.8742 131.782 39.8742H129.415V35.6399H131.662C133.695 35.6399 135.267 35.4725 136.378 35.138C137.488 34.8035 138.043 34.1881 138.043 33.2916C138.043 32.5692 137.689 32.0273 136.98 31.6661C136.27 31.3048 135.1 31.1242 133.468 31.1242C132.411 31.1242 131.247 31.2514 129.976 31.5055C128.705 31.7464 127.515 32.0942 126.404 32.5491L124.599 28.2745C125.896 27.7795 127.301 27.3781 128.812 27.0703C130.338 26.7492 132.15 26.5887 134.251 26.5887ZM145.708 27.0102H152.411L156.645 39.6335C156.778 40.0349 156.892 40.443 156.986 40.8576C157.079 41.2723 157.159 41.7004 157.226 42.142C157.293 42.5837 157.347 43.0451 157.387 43.5269H157.507C157.588 42.8042 157.695 42.1286 157.828 41.5C157.976 40.8711 158.156 40.2489 158.37 39.6335L162.524 27.0102H169.086L159.594 52.3171C159.019 53.8689 158.27 55.1601 157.347 56.1904C156.424 57.2339 155.36 58.0166 154.156 58.5384C152.966 59.0602 151.655 59.3209 150.223 59.3209C149.528 59.3209 148.926 59.281 148.417 59.2006C147.909 59.1337 147.474 59.0602 147.113 58.9798V54.1232C147.394 54.1901 147.749 54.2502 148.177 54.3038C148.605 54.3573 149.053 54.384 149.521 54.384C150.377 54.384 151.113 54.2034 151.728 53.8421C152.344 53.4809 152.859 52.9927 153.273 52.3771C153.688 51.7752 154.016 51.1128 154.257 50.3903L154.618 49.2865L145.708 27.0102ZM177.694 27.0102V35.2183C177.694 36.195 177.928 36.9309 178.396 37.4259C178.878 37.9075 179.547 38.1484 180.403 38.1484C181.58 38.1484 182.671 38.0146 183.674 37.747C184.691 37.4794 185.714 37.1316 186.744 36.7035V27.0102H192.864V49.4471H186.744V40.5366C185.767 41.0449 184.664 41.5132 183.433 41.9413C182.216 42.3695 180.825 42.5837 179.259 42.5837C176.918 42.5837 175.052 41.9881 173.661 40.7974C172.27 39.5933 171.574 37.7805 171.574 35.3588V27.0102H177.694ZM208.536 26.5887C210.61 26.5887 212.396 26.9901 213.894 27.7928C215.392 28.5821 216.549 29.7327 217.365 31.2446C218.181 32.7566 218.589 34.6027 218.589 36.7836V39.7538H204.122C204.188 41.4799 204.704 42.8378 205.667 43.8279C206.643 44.8045 207.994 45.2929 209.72 45.2929C211.152 45.2929 212.462 45.1456 213.653 44.8513C214.844 44.557 216.068 44.1156 217.325 43.5269V48.2631C216.215 48.8116 215.051 49.213 213.834 49.4672C212.63 49.7213 211.165 49.8485 209.439 49.8485C207.192 49.8485 205.199 49.4338 203.459 48.6043C201.734 47.7747 200.376 46.5104 199.386 44.8113C198.409 43.112 197.921 40.9713 197.921 38.3893C197.921 35.7668 198.362 33.5859 199.245 31.8467C200.142 30.094 201.386 28.7828 202.978 27.9133C204.57 27.0301 206.423 26.5887 208.536 26.5887ZM208.576 30.9436C207.386 30.9436 206.396 31.3249 205.607 32.0876C204.831 32.8502 204.382 34.0476 204.262 35.6798H212.85C212.837 34.7701 212.67 33.9607 212.349 33.2517C212.041 32.5424 211.573 31.9805 210.944 31.5658C210.329 31.1509 209.539 30.9436 208.576 30.9436ZM229.687 27.0102V35.6399H238.235V27.0102H244.354V49.4471H238.235V40.1955H229.687V49.4471H223.566V27.0102H229.687ZM256.696 27.0102V35.8805C256.696 36.3354 256.676 36.9108 256.635 37.6065C256.609 38.2888 256.568 38.9846 256.516 39.6936C256.461 40.4028 256.409 41.0383 256.354 41.6002C256.301 42.1621 256.26 42.5435 256.233 42.7442L266.589 27.0102H273.952V49.4471H268.032V40.4964C268.032 39.7605 268.059 38.951 268.114 38.068C268.167 37.1716 268.226 36.3288 268.294 35.5394C268.361 34.75 268.406 34.1547 268.434 33.7533L258.121 49.4471H250.776V27.0102H256.696ZM289.644 26.5887C291.717 26.5887 293.504 26.9901 295.002 27.7928C296.5 28.5821 297.657 29.7327 298.473 31.2446C299.29 32.7566 299.699 34.6027 299.699 36.7836V39.7538H285.231C285.297 41.4799 285.813 42.8378 286.774 43.8279C287.751 44.8045 289.103 45.2929 290.829 45.2929C292.26 45.2929 293.571 45.1456 294.76 44.8513C295.952 44.557 297.176 44.1156 298.434 43.5269V48.2631C297.324 48.8116 296.16 49.213 294.943 49.4672C293.737 49.7213 292.274 49.8485 290.548 49.8485C288.299 49.8485 286.306 49.4338 284.568 48.6043C282.842 47.7747 281.484 46.5104 280.493 44.8113C279.518 43.112 279.03 40.9713 279.03 38.3893C279.03 35.7668 279.47 33.5859 280.354 31.8467C281.251 30.094 282.493 28.7828 284.087 27.9133C285.678 27.0301 287.53 26.5887 289.644 26.5887ZM289.685 30.9436C288.493 30.9436 287.504 31.3249 286.715 32.0876C285.938 32.8502 285.491 34.0476 285.37 35.6798H293.959C293.945 34.7701 293.778 33.9607 293.457 33.2517C293.148 32.5424 292.68 31.9805 292.052 31.5658C291.436 31.1509 290.648 30.9436 289.685 30.9436ZM327.831 26.5887C330.358 26.5887 332.399 27.572 333.952 29.5389C335.516 31.5055 336.299 34.3888 336.299 38.1886C336.299 40.7305 335.931 42.8711 335.194 44.6106C334.459 46.3364 333.443 47.6409 332.144 48.5239C330.847 49.4069 329.356 49.8485 327.671 49.8485C326.587 49.8485 325.657 49.7147 324.881 49.4471C324.105 49.1662 323.443 48.8116 322.895 48.3835C322.347 47.9419 321.87 47.4738 321.47 46.9787H321.148C321.256 47.5137 321.336 48.0624 321.39 48.6244C321.443 49.1863 321.47 49.7348 321.47 50.27V59.3209H315.349V27.0102H320.326L321.189 29.9202H321.47C321.87 29.3181 322.358 28.7627 322.934 28.2545C323.509 27.7459 324.199 27.3445 325.002 27.0502C325.817 26.7426 326.76 26.5887 327.831 26.5887ZM325.865 31.4855C324.794 31.4855 323.945 31.7063 323.315 32.1479C322.687 32.5892 322.226 33.2517 321.931 34.1346C321.651 35.0176 321.495 36.1347 321.47 37.486V38.1484C321.47 39.5933 321.603 40.8175 321.87 41.821C322.153 42.8243 322.614 43.587 323.256 44.1087C323.911 44.6307 324.808 44.8915 325.945 44.8915C326.881 44.8915 327.651 44.6307 328.251 44.1087C328.854 43.587 329.301 42.8243 329.596 41.821C329.904 40.8042 330.057 39.5666 330.057 38.1082C330.057 35.9141 329.717 34.2616 329.034 33.1512C328.352 32.0408 327.294 31.4855 325.865 31.4855ZM338.144 27.0102H344.847L349.08 39.6335C349.215 40.0349 349.329 40.443 349.422 40.8576C349.516 41.2723 349.596 41.7004 349.662 42.142C349.73 42.5837 349.783 43.0451 349.824 43.5269H349.943C350.025 42.8042 350.13 42.1286 350.265 41.5C350.411 40.8711 350.594 40.2489 350.806 39.6335L354.961 27.0102H361.523L352.03 52.3171C351.457 53.8689 350.705 55.1601 349.783 56.1904C348.861 57.2339 347.797 58.0166 346.594 58.5384C345.402 59.0602 344.091 59.3209 342.66 59.3209C341.963 59.3209 341.363 59.281 340.854 59.2006C340.345 59.1337 339.911 59.0602 339.55 58.9798V54.1232C339.831 54.1901 340.185 54.2502 340.612 54.3038C341.041 54.3573 341.488 54.384 341.957 54.384C342.813 54.384 343.55 54.2034 344.164 53.8421C344.781 53.4809 345.294 52.9927 345.71 52.3771C346.125 51.7752 346.452 51.1128 346.694 50.3903L347.055 49.2865L338.144 27.0102ZM373.863 49.8485C371.641 49.8485 369.749 49.4471 368.185 48.6445C366.619 47.8281 365.429 46.5707 364.612 44.8714C363.797 43.1723 363.388 40.9981 363.388 38.3491C363.388 35.6063 363.849 33.372 364.774 31.646C365.71 29.9067 367 28.6289 368.646 27.8128C370.304 26.9968 372.224 26.5887 374.404 26.5887C375.957 26.5887 377.294 26.7426 378.418 27.0502C379.555 27.3445 380.546 27.6991 381.388 28.114L379.582 32.8502C378.619 32.4621 377.721 32.1479 376.893 31.907C376.064 31.6528 375.235 31.5256 374.404 31.5256C373.336 31.5256 372.445 31.7798 371.735 32.2883C371.027 32.7833 370.498 33.5325 370.151 34.5361C369.804 35.5394 369.628 36.7971 369.628 38.3089C369.628 39.794 369.815 41.0248 370.192 42.0016C370.566 42.9782 371.107 43.7075 371.815 44.1891C372.525 44.6574 373.388 44.8915 374.404 44.8915C375.676 44.8915 376.806 44.7243 377.797 44.3898C378.785 44.0418 379.749 43.5603 380.685 42.9449V48.1828C379.749 48.7714 378.765 49.1929 377.735 49.4471C376.719 49.7147 375.429 49.8485 373.863 49.8485ZM395.014 49.8485C392.792 49.8485 390.899 49.4471 389.333 48.6445C387.769 47.8281 386.578 46.5707 385.762 44.8714C384.945 43.1723 384.539 40.9981 384.539 38.3491C384.539 35.6063 385 33.372 385.922 31.646C386.858 29.9067 388.151 28.6289 389.794 27.8128C391.454 26.9968 393.374 26.5887 395.555 26.5887C397.107 26.5887 398.445 26.7426 399.568 27.0502C400.705 27.3445 401.694 27.6991 402.539 28.114L400.733 32.8502C399.769 32.4621 398.872 32.1479 398.043 31.907C397.212 31.6528 396.383 31.5256 395.555 31.5256C394.484 31.5256 393.596 31.7798 392.886 32.2883C392.176 32.7833 391.648 33.5325 391.301 34.5361C390.952 35.5394 390.778 36.7971 390.778 38.3089C390.778 39.794 390.966 41.0248 391.34 42.0016C391.715 42.9782 392.258 43.7075 392.966 44.1891C393.676 44.6574 394.539 44.8915 395.555 44.8915C396.826 44.8915 397.957 44.7243 398.945 44.3898C399.936 44.0418 400.899 43.5603 401.836 42.9449V48.1828C400.899 48.7714 399.915 49.1929 398.886 49.4471C397.87 49.7147 396.578 49.8485 395.014 49.8485ZM421.76 27.0102H428.504L419.614 37.7671L429.285 49.4471H422.342L413.173 38.068V49.4471H407.052V27.0102H413.173V37.9075L421.76 27.0102ZM452.883 38.1886C452.883 40.0616 452.63 41.7205 452.121 43.1655C451.625 44.6106 450.897 45.8347 449.934 46.8381C448.984 47.8281 447.833 48.5776 446.484 49.0858C445.146 49.5944 443.635 49.8485 441.947 49.8485C440.37 49.8485 438.918 49.5944 437.594 49.0858C436.283 48.5776 435.139 47.8281 434.162 46.8381C433.199 45.8347 432.45 44.6106 431.915 43.1655C431.393 41.7205 431.132 40.0616 431.132 38.1886C431.132 35.6999 431.573 33.5928 432.457 31.8668C433.34 30.1408 434.598 28.8296 436.228 27.9334C437.861 27.037 439.808 26.5887 442.068 26.5887C444.169 26.5887 446.027 27.037 447.646 27.9334C449.278 28.8296 450.557 30.1408 451.479 31.8668C452.415 33.5928 452.883 35.6999 452.883 38.1886ZM437.372 38.1886C437.372 39.6602 437.534 40.8978 437.854 41.9011C438.176 42.9047 438.678 43.6605 439.358 44.169C440.041 44.6775 440.931 44.9317 442.027 44.9317C443.112 44.9317 443.988 44.6775 444.657 44.169C445.34 43.6605 445.833 42.9047 446.141 41.9011C446.463 40.8978 446.623 39.6602 446.623 38.1886C446.623 36.7035 446.463 35.4725 446.141 34.4959C445.833 33.5058 445.34 32.7632 444.657 32.2682C443.975 31.7732 443.084 31.5256 441.988 31.5256C440.37 31.5256 439.192 32.081 438.457 33.1914C437.735 34.3018 437.372 35.9675 437.372 38.1886ZM473.431 27.0102V31.6058H464.062V49.4471H457.941V27.0102H473.431ZM497.993 38.1886C497.993 40.0616 497.74 41.7205 497.23 43.1655C496.735 44.6106 496.007 45.8347 495.043 46.8381C494.093 47.8281 492.943 48.5776 491.591 49.0858C490.253 49.5944 488.742 49.8485 487.057 49.8485C485.479 49.8485 484.027 49.5944 482.703 49.0858C481.393 48.5776 480.249 47.8281 479.272 46.8381C478.308 45.8347 477.559 44.6106 477.025 43.1655C476.502 41.7205 476.242 40.0616 476.242 38.1886C476.242 35.6999 476.683 33.5928 477.566 31.8668C478.45 30.1408 479.705 28.8296 481.338 27.9334C482.97 27.037 484.918 26.5887 487.178 26.5887C489.278 26.5887 491.137 27.037 492.756 27.9334C494.388 28.8296 495.667 30.1408 496.589 31.8668C497.525 33.5928 497.993 35.6999 497.993 38.1886ZM482.482 38.1886C482.482 39.6602 482.641 40.8978 482.963 41.9011C483.285 42.9047 483.785 43.6605 484.468 44.169C485.151 44.6775 486.041 44.9317 487.137 44.9317C488.221 44.9317 489.098 44.6775 489.767 44.169C490.447 43.6605 490.943 42.9047 491.251 41.9011C491.573 40.8978 491.733 39.6602 491.733 38.1886C491.733 36.7035 491.573 35.4725 491.251 34.4959C490.943 33.5058 490.447 32.7632 489.767 32.2682C489.084 31.7732 488.194 31.5256 487.098 31.5256C485.479 31.5256 484.301 32.081 483.566 33.1914C482.842 34.3018 482.482 35.9675 482.482 38.1886ZM124.137 77.2449L115.87 88.0017L124.92 99.6817H118.378L109.83 88.3026V99.6817H104.131V88.3026L95.5826 99.6817H89.041L98.091 88.0017L89.8237 77.2449H96.1444L104.131 88.1421V77.2449H109.83V88.1421L117.816 77.2449H124.137ZM137.381 76.8233C139.454 76.8233 141.24 77.2248 142.739 78.0274C144.237 78.8167 145.394 79.9673 146.21 81.4792C147.026 82.9912 147.434 84.8374 147.434 87.0182V89.9885H132.966C133.033 91.7145 133.548 93.0724 134.511 94.0625C135.488 95.0391 136.839 95.5275 138.565 95.5275C139.996 95.5275 141.307 95.3802 142.498 95.0859C143.688 94.7916 144.912 94.3502 146.17 93.7615V98.4978C145.06 99.0462 143.896 99.4476 142.678 99.7018C141.474 99.9559 140.01 100.083 138.284 100.083C136.036 100.083 134.043 99.6685 132.304 98.8389C130.578 98.0093 129.22 96.745 128.231 95.046C127.254 93.3467 126.766 91.206 126.766 88.6239C126.766 86.0014 127.207 83.8206 128.09 82.0813C128.986 80.3286 130.231 79.0175 131.823 78.1479C133.414 77.2647 135.267 76.8233 137.381 76.8233ZM137.421 81.1782C136.23 81.1782 135.241 81.5596 134.451 82.3222C133.675 83.0849 133.227 84.2823 133.107 85.9144H141.695C141.682 85.0047 141.515 84.1953 141.194 83.4863C140.886 82.7771 140.417 82.2151 139.789 81.8005C139.173 81.3856 138.384 81.1782 137.421 81.1782ZM161.521 100.083C159.3 100.083 157.407 99.6817 155.842 98.8791C154.277 98.0628 153.086 96.8053 152.27 95.106C151.454 93.4069 151.046 91.2327 151.046 88.5837C151.046 85.8409 151.508 83.6066 152.431 81.8806C153.367 80.1413 154.658 78.8636 156.303 78.0475C157.962 77.2314 159.882 76.8233 162.062 76.8233C163.614 76.8233 164.952 76.9772 166.076 77.2848C167.213 77.5791 168.203 77.9338 169.046 78.3487L167.24 83.0849C166.276 82.6967 165.38 82.3825 164.551 82.1416C163.721 81.8875 162.892 81.7603 162.062 81.7603C160.992 81.7603 160.103 82.0144 159.394 82.5229C158.685 83.018 158.156 83.7671 157.808 84.7707C157.461 85.774 157.287 87.0317 157.287 88.5435C157.287 90.0287 157.474 91.2594 157.849 92.2362C158.223 93.2128 158.765 93.9422 159.474 94.4237C160.183 94.8921 161.046 95.1261 162.062 95.1261C163.333 95.1261 164.464 94.959 165.454 94.6244C166.444 94.2765 167.407 93.7949 168.343 93.1795V98.4174C167.407 99.006 166.424 99.4276 165.394 99.6817C164.377 99.9493 163.086 100.083 161.521 100.083ZM192.122 81.8404H184.778V99.6817H178.657V81.8404H171.293V77.2449H192.122V81.8404ZM216.703 88.4232C216.703 90.2963 216.449 91.9552 215.941 93.4001C215.446 94.8452 214.717 96.0694 213.753 97.0727C212.804 98.0628 211.653 98.8122 210.302 99.3205C208.964 99.829 207.453 100.083 205.767 100.083C204.188 100.083 202.737 99.829 201.413 99.3205C200.102 98.8122 198.958 98.0628 197.981 97.0727C197.018 96.0694 196.269 94.8452 195.734 93.4001C195.212 91.9552 194.951 90.2963 194.951 88.4232C194.951 85.9345 195.393 83.8274 196.276 82.1014C197.159 80.3754 198.416 79.0643 200.048 78.168C201.68 77.2716 203.627 76.8233 205.887 76.8233C207.988 76.8233 209.847 77.2716 211.466 78.168C213.098 79.0643 214.375 80.3754 215.299 82.1014C216.235 83.8274 216.703 85.9345 216.703 88.4232ZM201.192 88.4232C201.192 89.8948 201.352 91.1324 201.673 92.1358C201.994 93.1393 202.496 93.8951 203.178 94.4036C203.861 94.9121 204.75 95.1663 205.847 95.1663C206.931 95.1663 207.807 94.9121 208.476 94.4036C209.158 93.8951 209.653 93.1393 209.961 92.1358C210.282 91.1324 210.442 89.8948 210.442 88.4232C210.442 86.9381 210.282 85.7071 209.961 84.7305C209.653 83.7404 209.158 82.9979 208.476 82.5028C207.794 82.0078 206.904 81.7603 205.807 81.7603C204.188 81.7603 203.011 82.3156 202.275 83.426C201.553 84.5364 201.192 86.2021 201.192 88.4232ZM241.646 83.1248C241.646 84.3291 241.265 85.3593 240.502 86.2156C239.753 87.0584 238.641 87.6003 237.171 87.8412V88.0017C238.724 88.1889 239.973 88.7308 240.922 89.6272C241.872 90.5102 242.347 91.6275 242.347 92.9788C242.347 94.2632 242.014 95.4138 241.345 96.4306C240.676 97.4342 239.612 98.2301 238.155 98.8188C236.696 99.394 234.79 99.6817 232.436 99.6817H221.76V77.2449H232.436C234.187 77.2449 235.76 77.4321 237.151 77.8066C238.541 78.168 239.639 78.7768 240.441 79.6331C241.244 80.4893 241.646 81.6532 241.646 83.1248ZM236.007 92.6578C236.007 91.7745 235.66 91.1391 234.963 90.7511C234.281 90.3497 233.265 90.149 231.913 90.149H227.88V95.4471H232.034C233.185 95.4471 234.135 95.2332 234.883 94.8051C235.632 94.3769 236.007 93.6611 236.007 92.6578ZM235.445 83.6066C235.445 82.9109 235.171 82.3957 234.623 82.0612C234.073 81.7267 233.265 81.5596 232.194 81.5596H227.88V85.9948H231.493C232.79 85.9948 233.774 85.8076 234.443 85.4329C235.112 85.0582 235.445 84.4494 235.445 83.6066ZM267.993 88.4232C267.993 90.2963 267.74 91.9552 267.23 93.4001C266.735 94.8452 266.007 96.0694 265.043 97.0727C264.094 98.0628 262.943 98.8122 261.591 99.3205C260.253 99.829 258.742 100.083 257.057 100.083C255.477 100.083 254.027 99.829 252.703 99.3205C251.39 98.8122 250.246 98.0628 249.272 97.0727C248.308 96.0694 247.559 94.8452 247.023 93.4001C246.502 91.9552 246.242 90.2963 246.242 88.4232C246.242 85.9345 246.683 83.8274 247.566 82.1014C248.447 80.3754 249.705 79.0643 251.338 78.168C252.97 77.2716 254.915 76.8233 257.178 76.8233C259.276 76.8233 261.137 77.2716 262.756 78.168C264.388 79.0643 265.664 80.3754 266.589 82.1014C267.525 83.8274 267.993 85.9345 267.993 88.4232ZM252.482 88.4232C252.482 89.8948 252.641 91.1324 252.963 92.1358C253.283 93.1393 253.785 93.8951 254.468 94.4036C255.151 94.9121 256.041 95.1663 257.137 95.1663C258.221 95.1663 259.096 94.9121 259.765 94.4036C260.447 93.8951 260.943 93.1393 261.251 92.1358C261.571 91.1324 261.733 89.8948 261.733 88.4232C261.733 86.9381 261.571 85.7071 261.251 84.7305C260.943 83.7404 260.447 82.9979 259.765 82.5028C259.084 82.0078 258.194 81.7603 257.096 81.7603C255.477 81.7603 254.301 82.3156 253.566 83.426C252.842 84.5364 252.482 86.2021 252.482 88.4232ZM288.541 77.2449V81.8404H279.169V99.6817H273.05V77.2449H288.541ZM313.103 88.4232C313.103 90.2963 312.847 91.9552 312.34 93.4001C311.845 94.8452 311.116 96.0694 310.153 97.0727C309.203 98.0628 308.052 98.8122 306.701 99.3205C305.363 99.829 303.852 100.083 302.167 100.083C300.587 100.083 299.135 99.829 297.81 99.3205C296.5 98.8122 295.356 98.0628 294.379 97.0727C293.418 96.0694 292.667 94.8452 292.132 93.4001C291.612 91.9552 291.349 90.2963 291.349 88.4232C291.349 85.9345 291.792 83.8274 292.673 82.1014C293.557 80.3754 294.815 79.0643 296.447 78.168C298.08 77.2716 300.025 76.8233 302.285 76.8233C304.386 76.8233 306.246 77.2716 307.865 78.168C309.498 79.0643 310.774 80.3754 311.696 82.1014C312.635 83.8274 313.103 85.9345 313.103 88.4232ZM297.591 88.4232C297.591 89.8948 297.751 91.1324 298.073 92.1358C298.393 93.1393 298.895 93.8951 299.578 94.4036C300.26 94.9121 301.148 95.1663 302.246 95.1663C303.329 95.1663 304.205 94.9121 304.874 94.4036C305.557 93.8951 306.052 93.1393 306.361 92.1358C306.68 91.1324 306.84 89.8948 306.84 88.4232C306.84 86.9381 306.68 85.7071 306.361 84.7305C306.052 83.7404 305.557 82.9979 304.874 82.5028C304.192 82.0078 303.304 81.7603 302.205 81.7603C300.587 81.7603 299.411 82.3156 298.673 83.426C297.952 84.5364 297.591 86.2021 297.591 88.4232ZM332.244 99.6817H325.623L331.664 90.8114C330.902 90.4901 330.185 90.0488 329.516 89.4868C328.847 88.9114 328.306 88.1889 327.89 87.3194C327.477 86.4497 327.269 85.4062 327.269 84.1887C327.269 81.9544 328.112 80.2418 329.797 79.051C331.495 77.8468 333.683 77.2449 336.358 77.2449H346.794V99.6817H340.673V91.3332H337.301L332.244 99.6817ZM333.269 84.2286C333.269 85.1653 333.637 85.9012 334.372 86.4362C335.121 86.9582 336.084 87.2189 337.262 87.2189H340.673V81.5596H336.479C335.381 81.5596 334.573 81.8272 334.05 82.3624C333.53 82.8841 333.269 83.5062 333.269 84.2286ZM361.361 76.8233C362.979 76.8233 364.491 77.0373 365.897 77.4654C367.301 77.8803 368.438 78.5293 369.308 79.4123C370.178 80.2818 370.612 81.4057 370.612 82.7837C370.612 84.135 370.203 85.2121 369.388 86.0149C368.573 86.8043 367.488 87.3728 366.137 87.7206V87.9213C367.087 88.1487 367.943 88.4565 368.705 88.8445C369.482 89.2327 370.098 89.7677 370.552 90.4502C371.007 91.1324 371.235 92.0289 371.235 93.1393C371.235 94.3835 370.84 95.5341 370.05 96.5911C369.26 97.6346 368.05 98.4777 366.418 99.1198C364.799 99.7621 362.719 100.083 360.178 100.083C358.972 100.083 357.836 100.03 356.767 99.9226C355.71 99.8155 354.74 99.6616 353.856 99.4609C352.975 99.2469 352.205 98.9928 351.55 98.6985V93.641C352.473 94.0691 353.61 94.4639 354.961 94.8251C356.324 95.1864 357.776 95.367 359.315 95.367C360.425 95.367 361.429 95.2866 362.324 95.1261C363.235 94.9656 363.95 94.698 364.473 94.3233C365.007 93.9353 365.274 93.4202 365.274 92.7781C365.274 92.176 365.041 91.6809 364.573 91.293C364.116 90.8916 363.415 90.5972 362.466 90.41C361.53 90.2093 360.338 90.1088 358.893 90.1088H356.525V85.8745H358.774C360.806 85.8745 362.379 85.7071 363.488 85.3726C364.598 85.0381 365.155 84.4227 365.155 83.5262C365.155 82.8038 364.799 82.2619 364.091 81.9007C363.381 81.5395 362.21 81.3588 360.58 81.3588C359.523 81.3588 358.358 81.486 357.087 81.7402C355.817 81.9811 354.625 82.3288 353.516 82.7837L351.71 78.5092C353.007 78.0141 354.411 77.6127 355.925 77.3049C357.447 76.9839 359.26 76.8233 361.361 76.8233ZM376.03 99.6817V77.2449H382.151V85.9144H385.1C387.388 85.9144 389.274 86.1553 390.758 86.6369C392.258 87.1187 393.367 87.8544 394.089 88.8445C394.813 89.8213 395.173 91.0521 395.173 92.5372C395.173 93.9821 394.838 95.2398 394.169 96.3103C393.502 97.3805 392.445 98.21 391 98.7987C389.555 99.3874 387.662 99.6817 385.322 99.6817H376.03ZM382.151 95.4471H384.979C386.171 95.4471 387.146 95.2332 387.909 94.8051C388.671 94.3634 389.052 93.6344 389.052 92.6176C389.052 91.7478 388.705 91.119 388.009 90.731C387.315 90.3431 386.276 90.149 384.899 90.149H382.151V95.4471ZM398.425 99.6817V77.2449H404.543V99.6817H398.425ZM425.694 77.2449H432.436L423.548 88.0017L433.219 99.6817H426.276L417.105 88.3026V99.6817H410.986V77.2449H417.105V88.1421L425.694 77.2449ZM445.621 76.7832C448.63 76.7832 450.938 77.4387 452.543 78.7498C454.148 80.0612 454.952 82.0546 454.952 84.7305V99.6817H450.676L449.493 96.6313H449.333C448.689 97.4342 448.034 98.0897 447.365 98.598C446.696 99.1065 445.927 99.481 445.059 99.7219C444.189 99.9628 443.132 100.083 441.888 100.083C440.564 100.083 439.372 99.829 438.315 99.3205C437.272 98.8122 436.45 98.0361 435.847 96.9925C435.246 95.9356 434.945 94.5977 434.945 92.9788C434.945 90.5972 435.781 88.8445 437.452 87.7206C439.125 86.5835 441.635 85.9546 444.977 85.8343L448.87 85.7137V84.7305C448.87 83.553 448.564 82.6901 447.947 82.1416C447.333 81.5931 446.477 81.3187 445.379 81.3187C444.297 81.3187 443.233 81.4726 442.189 81.7804C441.146 82.0879 440.103 82.4761 439.059 82.9442L437.032 78.8101C438.221 78.1813 439.552 77.6862 441.025 77.325C442.509 76.9638 444.041 76.7832 445.621 76.7832ZM448.87 89.2861L446.502 89.3662C444.523 89.4199 443.146 89.7745 442.37 90.4301C441.607 91.0856 441.226 91.9485 441.226 93.019C441.226 93.9554 441.5 94.6244 442.048 95.0259C442.596 95.4138 443.313 95.6077 444.196 95.6077C445.507 95.6077 446.609 95.2197 447.507 94.4438C448.415 93.6677 448.87 92.5639 448.87 91.1324V89.2861Z" fill="#338EF7"/>
</svg>
