<svg width="1224" height="249" viewBox="0 0 1224 249" fill="none" xmlns="http://www.w3.org/2000/svg">
<path d="M354.986 96.3572H339.63V55.733L314.257 96.3572H299.23V35.3184H314.585V72.0893L338.193 35.3184H354.986V96.3572ZM408.195 83.3214C408.195 85.9449 407.552 88.1996 406.266 90.0853C404.979 91.9436 403.241 93.433 401.051 94.5536C398.834 95.6741 396.37 96.4669 393.661 96.9315C390.951 97.3962 388.063 97.628 384.998 97.628C380.974 97.628 377.403 97.2864 374.282 96.6034C371.189 95.9203 368.165 95.0727 365.209 94.0617V82.8705H366.851C369.013 84.0729 371.436 85.1251 374.118 86.027C376.8 86.9014 379.537 87.3387 382.329 87.3387C383.369 87.3387 384.601 87.2704 386.024 87.1337C387.475 86.9971 388.624 86.7648 389.473 86.4369C390.622 85.9996 391.485 85.4941 392.059 84.9201C392.662 84.3463 392.963 83.4307 392.963 82.1736C392.963 80.9984 392.689 80.0829 392.141 79.427C391.622 78.7711 390.896 78.2929 389.966 77.9923C389.172 77.719 388.159 77.5413 386.927 77.4594C385.723 77.3774 384.191 77.3364 382.329 77.3364H375.267V67.9899H380.933C382.028 67.9899 383.328 67.9763 384.834 67.949C386.366 67.9216 387.57 67.7986 388.446 67.58C389.734 67.2794 390.65 66.8011 391.197 66.1452C391.773 65.4893 392.059 64.6422 392.059 63.6037C392.059 62.7564 391.773 62.046 391.197 61.472C390.622 60.8981 389.87 60.4472 388.939 60.1192C388.145 59.846 387.215 59.641 386.148 59.5044C385.08 59.3678 383.958 59.2993 382.78 59.2993C380.838 59.2993 378.566 59.641 375.966 60.3243C373.392 61.0074 371.107 61.8546 369.109 62.8658H367.508V51.8386C369.205 51.3194 371.723 50.7182 375.062 50.0349C378.429 49.3518 381.864 49.0101 385.367 49.0101C388.433 49.0101 391.225 49.2424 393.743 49.707C396.262 50.1715 398.492 50.8685 400.435 51.7977C402.488 52.8088 404.144 54.1206 405.403 55.733C406.662 57.3454 407.292 59.354 407.292 61.759C407.292 64.2186 406.443 66.4186 404.746 68.3588C403.076 70.2992 401.065 71.5974 398.71 72.2533V72.6222C401.42 73.3327 403.679 74.5762 405.485 76.3525C407.292 78.1016 408.195 80.4246 408.195 83.3214ZM439.768 80.0829L450.278 50.3219H465.47L439.85 113.246H423.837L431.146 96.029L413.204 50.3219H428.724L439.768 80.0829ZM517.283 96.3572H502.502V80.5339C500.039 81.0531 497.63 81.4904 495.277 81.8457C492.922 82.1736 490.363 82.3376 487.599 82.3376C482.589 82.3376 478.649 81.0941 475.775 78.6072C472.928 76.0929 471.505 72.5948 471.505 68.1129V50.3219H486.367V60.8981C486.367 62.9204 486.435 64.5192 486.572 65.6944C486.71 66.8421 487.188 67.949 488.009 69.0147C488.775 69.9712 489.816 70.6818 491.13 71.1464C492.443 71.611 494.415 71.8433 497.042 71.8433C497.726 71.8433 498.629 71.8159 499.751 71.7614C500.874 71.6793 501.791 71.5837 502.502 71.4744V50.3219H517.283V96.3572ZM576.692 76.0656H542.862C543.08 79.673 544.449 82.4332 546.967 84.3463C549.513 86.2593 553.249 87.2158 558.175 87.2158C561.296 87.2158 564.32 86.6555 567.249 85.535C570.177 84.4146 572.491 83.2121 574.188 81.9276H575.83V93.7747C572.491 95.1138 569.342 96.0844 566.387 96.6854C563.431 97.2864 560.16 97.587 556.574 97.587C547.323 97.587 540.234 95.5101 535.306 91.356C530.38 87.202 527.917 81.2854 527.917 73.606C527.917 66.0086 530.243 59.9963 534.896 55.569C539.577 51.1144 545.981 48.8871 554.111 48.8871C561.61 48.8871 567.249 50.7865 571.026 54.5851C574.803 58.3566 576.692 63.795 576.692 70.9005V76.0656ZM561.994 67.4161C561.911 64.3279 561.145 62.005 559.695 60.4472C558.244 58.8895 555.985 58.1106 552.92 58.1106C550.074 58.1106 547.734 58.8485 545.899 60.3243C544.066 61.7999 543.039 64.1639 542.82 67.4161H561.994ZM633.679 96.3572H618.899V76.7215H601.901V96.3572H587.12V50.3219H601.901V66.1863H618.899V50.3219H633.679V96.3572ZM694.237 96.3572H679.908V68.1949L659.873 96.3572H647.638V50.3219H661.967V75.5327L680.525 50.3219H694.237V96.3572ZM753.647 76.0656H719.816C720.035 79.673 721.403 82.4332 723.922 84.3463C726.467 86.2593 730.203 87.2158 735.13 87.2158C738.251 87.2158 741.275 86.6555 744.203 85.535C747.132 84.4146 749.445 83.2121 751.142 81.9276H752.785V93.7747C749.445 95.1138 746.298 96.0844 743.341 96.6854C740.385 97.2864 737.114 97.587 733.529 97.587C724.277 97.587 717.188 95.5101 712.262 91.356C707.334 87.202 704.871 81.2854 704.871 73.606C704.871 66.0086 707.198 59.9963 711.851 55.569C716.531 51.1144 722.937 48.8871 731.065 48.8871C738.565 48.8871 744.203 50.7865 747.98 54.5851C751.759 58.3566 753.647 63.795 753.647 70.9005V76.0656ZM738.948 67.4161C738.866 64.3279 738.1 62.005 736.649 60.4472C735.199 58.8895 732.941 58.1106 729.875 58.1106C727.028 58.1106 724.688 58.8485 722.855 60.3243C721.02 61.7999 719.994 64.1639 719.775 67.4161H738.948ZM840.934 72.7041C840.934 76.5029 840.345 79.96 839.168 83.0754C838.018 86.191 836.499 88.7599 834.611 90.7821C832.64 92.9138 830.409 94.5262 827.919 95.6198C825.428 96.7121 822.759 97.2588 819.913 97.2588C817.285 97.2588 815.054 96.9726 813.22 96.3983C811.387 95.8516 809.511 95.0727 807.595 94.0617V113.246H792.815V50.3219H807.595V55.1181C809.867 53.3144 812.18 51.8523 814.534 50.7318C816.915 49.6113 819.653 49.0511 822.746 49.0511C828.493 49.0511 832.954 51.1554 836.129 55.364C839.332 59.5727 840.934 65.3527 840.934 72.7041ZM825.701 72.9911C825.701 68.5092 824.935 65.257 823.402 63.2347C821.87 61.2124 819.447 60.2013 816.136 60.2013C814.74 60.2013 813.303 60.4198 811.824 60.8572C810.346 61.2671 808.937 61.8683 807.595 62.6609V85.822C808.58 86.2046 809.634 86.4506 810.757 86.5599C811.879 86.6692 812.987 86.7238 814.082 86.7238C817.997 86.7238 820.911 85.5896 822.828 83.3214C824.744 81.0258 825.701 77.5823 825.701 72.9911ZM872.424 80.0829L882.935 50.3219H898.125L872.506 113.246H856.494L863.802 96.029L845.86 50.3219H861.38L872.424 80.0829ZM930.397 97.587C926.373 97.587 922.691 97.109 919.352 96.1521C916.04 95.1958 913.153 93.72 910.689 91.725C908.253 89.73 906.365 87.2158 905.023 84.1823C903.682 81.1488 903.011 77.596 903.011 73.524C903.011 69.2334 903.723 65.5304 905.146 62.4149C906.597 59.2993 908.609 56.7168 911.181 54.6672C913.672 52.7268 916.547 51.3057 919.804 50.4038C923.061 49.502 926.441 49.0511 929.945 49.0511C933.092 49.0511 935.994 49.3927 938.648 50.0759C941.304 50.7591 943.78 51.6473 946.08 52.7404V65.3254H943.986C943.411 64.8334 942.713 64.2596 941.892 63.6037C941.098 62.9478 940.113 62.3056 938.936 61.677C937.814 61.0757 936.583 60.5838 935.241 60.2013C933.899 59.7913 932.34 59.5863 930.561 59.5863C926.62 59.5863 923.581 60.8434 921.445 63.3578C919.339 65.8446 918.285 69.2334 918.285 73.524C918.285 77.9513 919.365 81.3128 921.528 83.6083C923.718 85.904 926.811 87.0518 930.807 87.0518C932.668 87.0518 934.338 86.8468 935.816 86.4369C937.321 85.9996 938.566 85.4941 939.552 84.9201C940.483 84.3736 941.304 83.7996 942.016 83.1984C942.727 82.5972 943.384 82.0096 943.986 81.4357H946.08V94.0206C943.754 95.1138 941.317 95.9747 938.772 96.6034C936.254 97.2588 933.462 97.587 930.397 97.587ZM980.73 97.587C976.707 97.587 973.028 97.109 969.684 96.1521C966.378 95.1958 963.492 93.72 961.027 91.725C958.591 89.73 956.699 87.2158 955.359 84.1823C954.018 81.1488 953.347 77.596 953.347 73.524C953.347 69.2334 954.059 65.5304 955.482 62.4149C956.928 59.2993 958.944 56.7168 961.514 54.6672C964.008 52.7268 966.884 51.3057 970.143 50.4038C973.401 49.502 976.774 49.0511 980.281 49.0511C983.424 49.0511 986.329 49.3927 988.985 50.0759C991.642 50.7591 994.116 51.6473 996.419 52.7404V65.3254H994.317C993.744 64.8334 993.046 64.2596 992.224 63.6037C991.431 62.9478 990.447 62.3056 989.272 61.677C988.154 61.0757 986.921 60.5838 985.574 60.2013C984.236 59.7913 982.679 59.5863 980.892 59.5863C976.955 59.5863 973.917 60.8434 971.786 63.3578C969.674 65.8446 968.623 69.2334 968.623 73.524C968.623 77.9513 969.703 81.3128 971.863 83.6083C974.051 85.904 977.146 87.0518 981.141 87.0518C983.004 87.0518 984.676 86.8468 986.147 86.4369C987.657 85.9996 988.899 85.4941 989.883 84.9201C990.82 84.3736 991.642 83.7996 992.349 83.1984C993.065 82.5972 993.715 82.0096 994.317 81.4357H996.419V94.0206C994.088 95.1138 991.651 95.9747 989.109 96.6034C986.587 97.2588 983.797 97.587 980.73 97.587ZM1055.99 96.3572H1038.91L1026.56 78.1153H1021.83V96.3572H1007.05V50.3219H1021.83V68.8098C1024.57 68.7825 1026.46 68.4956 1027.49 67.949C1028.53 67.3751 1029.74 65.8856 1031.1 63.4807C1031.51 62.7702 1032.01 61.8546 1032.58 60.7342C1033.16 59.6137 1033.62 58.7528 1033.94 58.1516C1035.45 55.4733 1037.2 53.492 1039.2 52.2076C1041.22 50.8958 1044.03 50.2399 1047.61 50.2399C1048.66 50.2399 1049.75 50.2536 1050.9 50.2809C1052.08 50.3083 1052.87 50.3219 1053.28 50.3219V62.6198H1049.26C1047.61 62.6198 1046.3 63.0298 1045.31 63.8497C1044.36 64.6695 1043.53 65.8856 1042.81 67.498C1042.21 68.8371 1041.66 69.9029 1041.17 70.6955C1040.68 71.4607 1040.05 72.1166 1039.28 72.6632L1055.99 96.3572ZM1110.59 73.36C1110.59 80.9301 1108.38 86.9014 1103.94 91.2741C1099.54 95.6198 1093.34 97.7921 1085.35 97.7921C1077.35 97.7921 1071.14 95.6198 1066.71 91.2741C1062.3 86.9014 1060.09 80.9301 1060.09 73.36C1060.09 65.7353 1062.31 59.7503 1066.74 55.405C1071.21 51.0597 1077.41 48.8871 1085.35 48.8871C1093.39 48.8871 1099.6 51.0735 1103.98 55.446C1108.39 59.8186 1110.59 65.7899 1110.59 73.36ZM1092.41 84.5512C1093.36 83.376 1094.07 81.9687 1094.54 80.3289C1095.04 78.6618 1095.29 76.3662 1095.29 73.4421C1095.29 70.7365 1095.04 68.4682 1094.54 66.6372C1094.05 64.8062 1093.36 63.344 1092.49 62.2509C1091.62 61.1304 1090.56 60.3379 1089.32 59.8733C1088.1 59.4087 1086.77 59.1764 1085.35 59.1764C1083.92 59.1764 1082.65 59.3678 1081.53 59.7503C1080.43 60.1329 1079.38 60.8981 1078.36 62.046C1077.46 63.1117 1076.74 64.5739 1076.18 66.4322C1075.67 68.2905 1075.41 70.6271 1075.41 73.4421C1075.41 75.9563 1075.64 78.1426 1076.11 80.001C1076.58 81.8319 1077.25 83.3077 1078.16 84.4282C1079.03 85.4941 1080.07 86.2729 1081.28 86.7648C1082.51 87.2567 1083.9 87.5028 1085.47 87.5028C1086.81 87.5028 1088.08 87.2841 1089.28 86.8468C1090.52 86.3822 1091.56 85.617 1092.41 84.5512ZM1158.46 60.5702H1135.97V96.3572H1121.19V50.3219H1158.46V60.5702ZM1212.99 73.36C1212.99 80.9301 1210.78 86.9014 1206.34 91.2741C1201.93 95.6198 1195.74 97.7921 1187.74 97.7921C1179.75 97.7921 1173.53 95.6198 1169.1 91.2741C1164.69 86.9014 1162.49 80.9301 1162.49 73.36C1162.49 65.7353 1164.71 59.7503 1169.15 55.405C1173.61 51.0597 1179.8 48.8871 1187.74 48.8871C1195.78 48.8871 1202.01 51.0735 1206.38 55.446C1210.79 59.8186 1212.99 65.7899 1212.99 73.36ZM1194.8 84.5512C1195.76 83.376 1196.47 81.9687 1196.94 80.3289C1197.43 78.6618 1197.68 76.3662 1197.68 73.4421C1197.68 70.7365 1197.43 68.4682 1196.94 66.6372C1196.44 64.8062 1195.76 63.344 1194.89 62.2509C1194.01 61.1304 1192.96 60.3379 1191.72 59.8733C1190.49 59.4087 1189.16 59.1764 1187.74 59.1764C1186.32 59.1764 1185.05 59.3678 1183.92 59.7503C1182.83 60.1329 1181.78 60.8981 1180.76 62.046C1179.86 63.1117 1179.13 64.5739 1178.59 66.4322C1178.06 68.2905 1177.8 70.6271 1177.8 73.4421C1177.8 75.9563 1178.04 78.1426 1178.5 80.001C1178.97 81.8319 1179.66 83.3077 1180.55 84.4282C1181.43 85.4941 1182.47 86.2729 1183.68 86.7648C1184.91 87.2567 1186.31 87.5028 1187.86 87.5028C1189.2 87.5028 1190.48 87.2841 1191.69 86.8468C1192.91 86.3822 1193.95 85.617 1194.8 84.5512ZM373.584 213.702H356.586L344.967 195.46H340.779V213.702H326.082V195.46H321.894L310.275 213.702H293.277L309.165 190.008C308.399 189.434 307.784 188.806 307.318 188.123C306.853 187.439 306.292 186.346 305.635 184.843C304.814 183.012 303.91 181.741 302.925 181.031C301.94 180.32 300.695 179.965 299.189 179.965H295.165V167.667C295.631 167.667 296.397 167.653 297.464 167.626C298.559 167.598 299.682 167.585 300.832 167.585C304.636 167.585 307.496 168.268 309.412 169.635C311.355 171.001 313.052 172.955 314.503 175.496C314.832 176.097 315.27 176.945 315.817 178.038C316.392 179.131 316.898 180.06 317.336 180.825C318.787 183.339 319.991 184.856 320.95 185.376C321.907 185.895 323.618 186.155 326.082 186.155V167.667H340.779V186.155C343.489 186.127 345.283 185.826 346.158 185.253C347.062 184.679 348.183 183.203 349.525 180.825C349.935 180.115 350.428 179.2 351.003 178.079C351.577 176.959 352.029 176.097 352.358 175.496C353.59 173.173 355.218 171.274 357.244 169.798C359.269 168.323 362.198 167.585 366.029 167.585C367.07 167.585 368.165 167.598 369.314 167.626C370.491 167.653 371.285 167.667 371.696 167.667V179.965H367.672C366.139 179.965 364.867 180.348 363.854 181.113C362.869 181.85 361.992 183.094 361.226 184.843C360.624 186.182 360.077 187.248 359.584 188.041C359.091 188.806 358.462 189.461 357.695 190.008L373.584 213.702ZM427.82 193.41H393.989C394.208 197.018 395.576 199.778 398.095 201.691C400.641 203.604 404.377 204.561 409.303 204.561C412.424 204.561 415.448 204.001 418.377 202.88C421.305 201.76 423.619 200.557 425.316 199.272H426.958V211.12C423.619 212.459 420.471 213.429 417.515 214.03C414.558 214.631 411.288 214.932 407.703 214.932C398.451 214.932 391.362 212.855 386.435 208.701C381.508 204.547 379.044 198.63 379.044 190.951C379.044 183.354 381.371 177.341 386.024 172.914C390.704 168.459 397.11 166.232 405.238 166.232C412.738 166.232 418.377 168.131 422.154 171.93C425.932 175.701 427.82 181.139 427.82 188.245V193.41ZM413.121 184.761C413.039 181.673 412.273 179.35 410.822 177.792C409.372 176.235 407.114 175.455 404.048 175.455C401.201 175.455 398.861 176.194 397.028 177.669C395.193 179.144 394.167 181.509 393.948 184.761H413.121ZM462.267 214.932C458.243 214.932 454.562 214.454 451.222 213.497C447.91 212.541 445.023 211.065 442.559 209.07C440.123 207.074 438.235 204.561 436.893 201.527C435.553 198.494 434.882 194.941 434.882 190.868C434.882 186.578 435.594 182.876 437.017 179.76C438.467 176.644 440.479 174.061 443.053 172.012C445.543 170.072 448.417 168.65 451.674 167.749C454.931 166.847 458.312 166.396 461.815 166.396C464.963 166.396 467.864 166.737 470.519 167.421C473.174 168.104 475.651 168.992 477.95 170.085V182.671H475.857C475.282 182.178 474.584 181.604 473.762 180.949C472.968 180.292 471.983 179.65 470.806 179.021C469.684 178.42 468.453 177.929 467.111 177.546C465.771 177.136 464.21 176.931 462.431 176.931C458.49 176.931 455.451 178.189 453.317 180.702C451.209 183.19 450.155 186.578 450.155 190.868C450.155 195.296 451.236 198.657 453.399 200.953C455.588 203.249 458.681 204.397 462.678 204.397C464.539 204.397 466.208 204.191 467.686 203.782C469.191 203.344 470.437 202.839 471.422 202.265C472.353 201.719 473.174 201.144 473.886 200.543C474.598 199.942 475.254 199.354 475.857 198.78H477.95V211.366C475.624 212.459 473.188 213.319 470.643 213.948C468.124 214.604 465.332 214.932 462.267 214.932ZM526.192 177.669H511.493V213.702H496.714V177.669H482.015V167.667H526.192V177.669ZM580.716 190.705C580.716 198.275 578.499 204.247 574.064 208.619C569.658 212.965 563.458 215.137 555.466 215.137C547.473 215.137 541.26 212.965 536.826 208.619C532.419 204.247 530.215 198.275 530.215 190.705C530.215 183.08 532.433 177.095 536.867 172.75C541.328 168.405 547.528 166.232 555.466 166.232C563.513 166.232 569.727 168.418 574.106 172.791C578.512 177.164 580.716 183.135 580.716 190.705ZM562.528 201.896C563.485 200.721 564.197 199.313 564.662 197.674C565.155 196.007 565.401 193.711 565.401 190.786C565.401 188.082 565.155 185.813 564.662 183.982C564.169 182.151 563.485 180.689 562.61 179.596C561.734 178.476 560.68 177.683 559.448 177.218C558.216 176.754 556.889 176.521 555.466 176.521C554.042 176.521 552.769 176.713 551.647 177.095C550.552 177.478 549.498 178.243 548.486 179.391C547.583 180.456 546.857 181.919 546.31 183.777C545.79 185.636 545.53 187.972 545.53 190.786C545.53 193.301 545.762 195.488 546.228 197.345C546.693 199.177 547.377 200.653 548.28 201.773C549.156 202.839 550.197 203.618 551.401 204.109C552.633 204.602 554.029 204.848 555.589 204.848C556.93 204.848 558.203 204.629 559.407 204.191C560.639 203.727 561.679 202.962 562.528 201.896ZM637.539 199.806C637.539 202.019 637.087 203.986 636.184 205.708C635.307 207.43 634.13 208.865 632.652 210.013C630.791 211.461 628.821 212.445 626.74 212.965C624.687 213.456 622.238 213.702 619.391 213.702H591.308V167.667H618.2C621.567 167.667 624.044 167.776 625.632 167.995C627.219 168.213 628.779 168.747 630.312 169.594C631.927 170.468 633.132 171.63 633.925 173.078C634.747 174.526 635.157 176.248 635.157 178.243C635.157 180.512 634.5 182.506 633.186 184.228C631.9 185.923 630.34 187.22 628.505 188.123V188.573C631.052 189.202 633.186 190.473 634.911 192.385C636.662 194.271 637.539 196.744 637.539 199.806ZM620.254 181.523C620.254 179.828 619.733 178.626 618.693 177.915C617.68 177.204 616.038 176.849 613.767 176.849H605.966V186.032H614.012C616.011 186.032 617.544 185.636 618.611 184.843C619.706 184.023 620.254 182.916 620.254 181.523ZM622.306 199.355C622.306 197.36 621.732 195.966 620.581 195.173C619.459 194.354 617.79 193.943 615.572 193.943H605.966V204.479H615.819C617.845 204.479 619.432 204.027 620.581 203.126C621.732 202.197 622.306 200.939 622.306 199.355ZM695.428 190.705C695.428 198.275 693.211 204.247 688.777 208.619C684.371 212.965 678.17 215.137 670.179 215.137C662.186 215.137 655.973 212.965 651.539 208.619C647.132 204.247 644.928 198.275 644.928 190.705C644.928 183.08 647.145 177.095 651.58 172.75C656.041 168.405 662.24 166.232 670.179 166.232C678.226 166.232 684.439 168.418 688.819 172.791C693.225 177.164 695.428 183.135 695.428 190.705ZM677.24 201.896C678.198 200.721 678.91 199.313 679.375 197.674C679.867 196.007 680.114 193.711 680.114 190.786C680.114 188.082 679.867 185.813 679.375 183.982C678.882 182.151 678.198 180.689 677.322 179.596C676.447 178.476 675.393 177.683 674.161 177.218C672.929 176.754 671.601 176.521 670.179 176.521C668.755 176.521 667.482 176.713 666.36 177.095C665.265 177.478 664.211 178.243 663.199 179.391C662.296 180.456 661.57 181.919 661.023 183.777C660.502 185.636 660.242 187.972 660.242 190.786C660.242 193.301 660.475 195.488 660.941 197.345C661.406 199.177 662.09 200.653 662.993 201.773C663.869 202.839 664.909 203.618 666.114 204.109C667.346 204.602 668.741 204.848 670.302 204.848C671.642 204.848 672.915 204.629 674.12 204.191C675.352 203.727 676.391 202.962 677.24 201.896ZM743.3 177.915H720.801V213.702H706.02V167.667H743.3V177.915ZM797.824 190.705C797.824 198.275 795.607 204.247 791.173 208.619C786.766 212.965 780.566 215.137 772.574 215.137C764.581 215.137 758.369 212.965 753.934 208.619C749.527 204.247 747.324 198.275 747.324 190.705C747.324 183.08 749.541 177.095 753.975 172.75C758.437 168.405 764.636 166.232 772.574 166.232C780.621 166.232 786.834 168.418 791.214 172.791C795.621 177.164 797.824 183.135 797.824 190.705ZM779.635 201.896C780.594 200.721 781.306 199.313 781.771 197.674C782.263 196.007 782.509 193.711 782.509 190.786C782.509 188.082 782.263 185.813 781.771 183.982C781.278 182.151 780.594 180.689 779.717 179.596C778.842 178.476 777.788 177.683 776.557 177.218C775.325 176.754 773.997 176.521 772.574 176.521C771.15 176.521 769.878 176.713 768.756 177.095C767.661 177.478 766.607 178.243 765.594 179.391C764.691 180.456 763.966 181.919 763.419 183.777C762.898 185.636 762.638 187.972 762.638 190.786C762.638 193.301 762.871 195.488 763.336 197.345C763.802 199.177 764.486 200.653 765.389 201.773C766.265 202.839 767.305 203.618 768.509 204.109C769.741 204.602 771.137 204.848 772.697 204.848C774.038 204.848 775.311 204.629 776.516 204.191C777.747 203.727 778.787 202.962 779.635 201.896ZM880.513 213.702H865.773V197.715H859.163L848.118 213.702H831.573L844.793 195.665C841.7 194.271 839.346 192.522 837.731 190.418C836.144 188.286 835.35 185.348 835.35 181.604C835.35 179.062 835.843 176.931 836.828 175.209C837.841 173.488 839.196 172.012 840.893 170.782C842.398 169.744 844.163 168.965 846.189 168.445C848.241 167.926 850.527 167.667 853.046 167.667H880.513V213.702ZM865.773 188.696V177.218H857.028C855.003 177.218 853.415 177.683 852.265 178.612C851.143 179.514 850.581 180.839 850.581 182.589C850.581 184.747 851.143 186.305 852.265 187.261C853.388 188.218 855.057 188.696 857.274 188.696H865.773ZM933.147 200.666C933.147 203.29 932.503 205.544 931.217 207.43C929.931 209.289 928.193 210.778 926.003 211.898C923.786 213.019 921.323 213.812 918.613 214.276C915.904 214.741 913.016 214.973 909.95 214.973C905.926 214.973 902.354 214.631 899.234 213.948C896.141 213.265 893.117 212.418 890.16 211.407V200.215H891.803C893.965 201.418 896.387 202.47 899.07 203.372C901.753 204.247 904.489 204.684 907.281 204.684C908.322 204.684 909.553 204.615 910.976 204.479C912.427 204.342 913.577 204.109 914.425 203.782C915.575 203.344 916.437 202.839 917.012 202.265C917.614 201.691 917.915 200.776 917.915 199.519C917.915 198.343 917.642 197.427 917.094 196.772C916.574 196.116 915.848 195.638 914.917 195.337C914.124 195.064 913.112 194.886 911.88 194.804C910.675 194.722 909.142 194.681 907.281 194.681H900.22V185.335H905.885C906.98 185.335 908.281 185.321 909.785 185.294C911.319 185.266 912.523 185.143 913.399 184.925C914.685 184.624 915.603 184.146 916.149 183.49C916.724 182.835 917.012 181.987 917.012 180.949C917.012 180.101 916.724 179.391 916.149 178.817C915.575 178.243 914.822 177.792 913.891 177.464C913.097 177.191 912.167 176.986 911.099 176.849C910.032 176.713 908.91 176.644 907.733 176.644C905.79 176.644 903.517 176.986 900.917 177.669C898.344 178.353 896.059 179.2 894.061 180.211H892.46V169.184C894.157 168.665 896.675 168.063 900.015 167.379C903.381 166.696 906.816 166.355 910.32 166.355C913.385 166.355 916.177 166.588 918.695 167.052C921.213 167.517 923.444 168.213 925.387 169.143C927.44 170.154 929.096 171.466 930.355 173.078C931.614 174.69 932.244 176.699 932.244 179.103C932.244 181.563 931.395 183.763 929.698 185.703C928.029 187.644 926.017 188.942 923.663 189.598V189.967C926.373 190.678 928.631 191.921 930.438 193.697C932.244 195.447 933.147 197.769 933.147 200.666ZM973.544 198.289C973.544 196.321 972.961 194.845 971.786 193.861C970.601 192.878 968.91 192.385 966.693 192.385H958.648V204.397H966.693C968.165 204.397 969.369 204.191 970.305 203.782C971.232 203.344 971.92 202.812 972.359 202.183C972.818 201.582 973.133 200.953 973.296 200.297C973.468 199.642 973.544 198.972 973.544 198.289ZM988.737 198.166C988.737 200.516 988.269 202.689 987.342 204.684C986.415 206.679 985.192 208.304 983.692 209.562C981.828 211.065 979.898 212.131 977.901 212.759C975.933 213.388 973.258 213.702 969.894 213.702H943.904V167.667H958.648V183.039H969.932C973.248 183.039 975.914 183.285 977.94 183.777C979.994 184.242 981.934 185.157 983.768 186.524C985.412 187.754 986.644 189.407 987.466 191.484C988.316 193.533 988.737 195.761 988.737 198.166ZM1008.69 213.702H993.916V167.667H1008.69V213.702ZM1071.67 213.702H1054.59L1042.24 195.46H1037.52V213.702H1022.73V167.667H1037.52V186.155C1040.25 186.127 1042.14 185.841 1043.18 185.294C1044.22 184.72 1045.43 183.231 1046.79 180.825C1047.2 180.115 1047.69 179.2 1048.27 178.079C1048.85 176.959 1049.3 176.097 1049.62 175.496C1051.13 172.818 1052.88 170.837 1054.88 169.553C1056.9 168.241 1059.71 167.585 1063.29 167.585C1064.34 167.585 1065.44 167.598 1066.58 167.626C1067.76 167.653 1068.55 167.667 1068.96 167.667V179.965H1064.94C1063.29 179.965 1061.99 180.374 1061 181.195C1060.04 182.014 1059.21 183.231 1058.5 184.843C1057.89 186.182 1057.34 187.248 1056.85 188.041C1056.36 188.806 1055.73 189.461 1054.96 190.008L1071.67 213.702ZM1107.07 201.691V192.098C1105.07 192.262 1102.9 192.495 1100.58 192.796C1098.25 193.068 1096.49 193.397 1095.29 193.779C1093.8 194.244 1092.67 194.927 1091.87 195.829C1091.11 196.703 1090.73 197.865 1090.73 199.313C1090.73 200.27 1090.8 201.049 1090.97 201.65C1091.14 202.251 1091.55 202.825 1092.2 203.372C1092.83 203.919 1093.58 204.328 1094.46 204.602C1095.33 204.848 1096.7 204.971 1098.56 204.971C1100.04 204.971 1101.53 204.67 1103.04 204.068C1104.57 203.467 1105.91 202.675 1107.07 201.691ZM1107.07 208.824C1106.27 209.425 1105.29 210.149 1104.1 210.996C1102.93 211.844 1101.82 212.513 1100.78 213.006C1099.33 213.661 1097.83 214.139 1096.27 214.44C1094.7 214.768 1092.99 214.932 1091.14 214.932C1086.75 214.932 1083.08 213.579 1080.13 210.873C1077.18 208.168 1075.7 204.711 1075.7 200.502C1075.7 197.141 1076.45 194.395 1077.95 192.262C1079.46 190.131 1081.59 188.45 1084.36 187.22C1087.1 185.991 1090.49 185.116 1094.54 184.597C1098.59 184.078 1102.8 183.695 1107.14 183.449V183.203C1107.14 180.661 1106.1 178.913 1104.03 177.956C1101.94 176.972 1098.88 176.48 1094.83 176.48C1092.39 176.48 1089.79 176.918 1087.03 177.792C1084.27 178.639 1082.28 179.295 1081.08 179.76H1079.72V168.65C1081.28 168.241 1083.81 167.762 1087.32 167.215C1090.84 166.642 1094.38 166.355 1097.91 166.355C1106.31 166.355 1112.37 167.653 1116.1 170.249C1119.84 172.818 1121.72 176.862 1121.72 182.383V213.702H1107.07V208.824Z" fill="white"/>
<path fill-rule="evenodd" clip-rule="evenodd" d="M184.858 129.23C205.05 129.23 234.074 140.051 244.441 160.752C246.588 165.038 240.619 214.177 233.93 215.608C233.92 215.609 233.909 215.611 233.899 215.612C232.555 217.242 230.441 217.639 228.315 217.639H226.482C214.175 217.639 201.938 219.505 190.191 223.17L164.022 231.334C146.207 236.893 127.72 233.84 111.268 225.04L30.0436 178.249C20.0335 169.337 13.3544 162.652 21.1438 147.055C27.9936 136.797 36.72 137.029 48.96 140.371L86.7926 158.196C90.1804 150.617 97.791 143.949 106.64 143.949H137.855C141.257 143.949 143.537 143.635 147.442 141.013C157.264 134.419 169.6 129.23 184.858 129.23ZM87.9053 173.793C91.2435 181.591 100.029 186.048 107.93 186.048H141.404C146.203 186.048 150.094 183.45 150.094 178.658C150.094 173.866 146.203 172.679 141.404 172.679H106.64C104.241 172.679 100.141 169.35 100.141 166.953C99.0282 162.652 104.241 158.196 106.64 158.196H137.855C144.748 158.196 150.214 154.854 153.552 152.626C163.559 145.909 175.471 142.599 184.858 142.599C209.193 144.827 222.203 153.101 229.217 167.109C228.256 176.011 227.743 183.354 226.992 189.39C226.451 193.733 225.097 199.666 224.766 202.759C211.942 203.096 198.077 205.619 185.821 209.443L160.228 217.242C146.867 221.411 130.999 217.569 118.659 210.969L34.8232 166.126C31.1272 164.149 29.9448 158.337 32.2707 154.854C34.258 151.877 39.0808 151.026 42.2852 152.626L87.9053 173.793Z" fill="white"/>
<path fill-rule="evenodd" clip-rule="evenodd" d="M41.1069 51.6821L108.981 17.7234C110.452 16.988 112.181 16.988 113.652 17.7234L181.526 51.6821C185.375 53.6074 185.375 59.1025 181.526 61.0278L158.307 72.6449V100.762C158.307 115.724 136.462 126.885 111.317 126.885C86.1721 126.885 64.3264 115.724 64.3264 100.762V72.6449L41.1069 61.0278C37.2586 59.1025 37.2586 53.6074 41.1069 51.6821ZM74.7687 77.8693V100.762C74.7687 108.047 91.1892 116.436 111.317 116.436C131.444 116.436 147.865 108.047 147.865 100.762V77.8693L113.652 94.9865C112.181 95.7223 110.452 95.7223 108.981 94.9865L74.7687 77.8693ZM168.749 79.8648V105.987C168.749 108.873 171.087 111.211 173.97 111.211C176.854 111.211 179.192 108.873 179.192 105.987V79.8648C179.192 76.9795 176.854 74.6404 173.97 74.6404C171.087 74.6404 168.749 76.9795 168.749 79.8648ZM111.317 28.2374L167.517 56.3549L111.317 84.4726L55.1167 56.3549L111.317 28.2374Z" fill="white"/>
</svg>
