<svg width="550" height="112" viewBox="0 0 550 112" fill="none" xmlns="http://www.w3.org/2000/svg">
<path d="M159.512 43.2462H152.612V25.0138L141.21 43.2462H134.458V15.8516H141.358V32.3546L151.966 15.8516H159.512V43.2462ZM183.421 37.3957C183.421 38.5731 183.132 39.585 182.554 40.4314C181.976 41.2654 181.195 41.9339 180.211 42.4367C179.215 42.9397 178.108 43.2955 176.89 43.504C175.672 43.7125 174.375 43.8166 172.998 43.8166C171.19 43.8166 169.585 43.6633 168.182 43.3567C166.793 43.0501 165.434 42.6698 164.105 42.216V37.1933H164.843C165.815 37.733 166.903 38.2052 168.109 38.61C169.314 39.0024 170.544 39.1987 171.798 39.1987C172.266 39.1987 172.819 39.168 173.459 39.1067C174.11 39.0454 174.627 38.9411 175.008 38.7939C175.525 38.5977 175.912 38.3708 176.17 38.1132C176.441 37.8556 176.577 37.4447 176.577 36.8805C176.577 36.3531 176.453 35.9422 176.207 35.6479C175.974 35.3535 175.648 35.1388 175.23 35.0039C174.873 34.8813 174.418 34.8015 173.864 34.7647C173.323 34.728 172.635 34.7096 171.798 34.7096H168.625V30.5148H171.171C171.663 30.5148 172.247 30.5087 172.924 30.4964C173.612 30.4841 174.153 30.4289 174.547 30.3308C175.125 30.1959 175.537 29.9813 175.783 29.6869C176.042 29.3925 176.17 29.0123 176.17 28.5462C176.17 28.166 176.042 27.8471 175.783 27.5895C175.525 27.3319 175.187 27.1296 174.769 26.9824C174.412 26.8597 173.994 26.7677 173.514 26.7064C173.034 26.6451 172.53 26.6144 172.001 26.6144C171.128 26.6144 170.107 26.7677 168.939 27.0744C167.783 27.381 166.756 27.7612 165.858 28.215H165.138V23.266C165.901 23.033 167.033 22.7631 168.533 22.4565C170.046 22.1498 171.589 21.9965 173.163 21.9965C174.541 21.9965 175.796 22.1008 176.927 22.3093C178.059 22.5178 179.061 22.8306 179.934 23.2476C180.856 23.7014 181.601 24.2902 182.166 25.0138C182.732 25.7375 183.015 26.6389 183.015 27.7183C183.015 28.8222 182.634 29.8096 181.871 30.6804C181.121 31.5512 180.217 32.1338 179.159 32.4282V32.5938C180.377 32.9127 181.392 33.4708 182.203 34.268C183.015 35.053 183.421 36.0956 183.421 37.3957ZM197.608 35.9422L202.331 22.5853H209.157L197.645 50.8262H190.45L193.734 43.099L185.672 22.5853H192.646L197.608 35.9422ZM232.439 43.2462H225.798V36.1446C224.691 36.3776 223.608 36.5739 222.551 36.7334C221.493 36.8805 220.343 36.9541 219.101 36.9541C216.85 36.9541 215.079 36.396 213.788 35.2799C212.509 34.1515 211.869 32.5815 211.869 30.57V22.5853H218.548V27.3319C218.548 28.2396 218.578 28.9571 218.639 29.4845C218.701 29.9997 218.916 30.4964 219.285 30.9747C219.63 31.404 220.097 31.7229 220.687 31.9314C221.278 32.14 222.164 32.2442 223.344 32.2442C223.652 32.2442 224.057 32.2319 224.561 32.2074C225.066 32.1706 225.478 32.1277 225.798 32.0787V22.5853H232.439V43.2462ZM259.135 34.1392H243.933C244.031 35.7582 244.646 36.997 245.778 37.8556C246.922 38.7142 248.6 39.1435 250.814 39.1435C252.216 39.1435 253.575 38.892 254.891 38.3891C256.207 37.8863 257.247 37.3466 258.009 36.7701H258.747V42.0872C257.247 42.6882 255.832 43.1238 254.504 43.3935C253.176 43.6633 251.706 43.7982 250.095 43.7982C245.938 43.7982 242.752 42.866 240.538 41.0017C238.324 39.1373 237.217 36.4819 237.217 33.0353C237.217 29.6256 238.263 26.9272 240.354 24.9402C242.457 22.9409 245.335 21.9413 248.988 21.9413C252.358 21.9413 254.891 22.7938 256.589 24.4986C258.286 26.1913 259.135 28.6321 259.135 31.8211V34.1392ZM252.53 30.2573C252.493 28.8713 252.149 27.8287 251.497 27.1296C250.845 26.4305 249.83 26.0809 248.453 26.0809C247.174 26.0809 246.122 26.412 245.298 27.0744C244.474 27.7367 244.013 28.7977 243.915 30.2573H252.53ZM284.742 43.2462H278.1V34.4336H270.462V43.2462H263.821V22.5853H270.462V29.7053H278.1V22.5853H284.742V43.2462ZM311.953 43.2462H305.515V30.6068L296.512 43.2462H291.014V22.5853H297.453V33.9001L305.791 22.5853H311.953V43.2462ZM338.648 34.1392H323.447C323.545 35.7582 324.16 36.997 325.292 37.8556C326.436 38.7142 328.114 39.1435 330.328 39.1435C331.73 39.1435 333.089 38.892 334.405 38.3891C335.721 37.8863 336.761 37.3466 337.523 36.7701H338.261V42.0872C336.761 42.6882 335.346 43.1238 334.018 43.3935C332.689 43.6633 331.22 43.7982 329.609 43.7982C325.451 43.7982 322.266 42.866 320.052 41.0017C317.838 39.1373 316.731 36.4819 316.731 33.0353C316.731 29.6256 317.777 26.9272 319.868 24.9402C321.971 22.9409 324.849 21.9413 328.502 21.9413C331.872 21.9413 334.405 22.7938 336.102 24.4986C337.8 26.1913 338.648 28.6321 338.648 31.8211V34.1392ZM332.044 30.2573C332.007 28.8713 331.662 27.8287 331.011 27.1296C330.359 26.4305 329.344 26.0809 327.967 26.0809C326.688 26.0809 325.636 26.412 324.812 27.0744C323.988 27.7367 323.527 28.7977 323.428 30.2573H332.044ZM377.871 32.6306C377.871 34.3355 377.606 35.887 377.077 37.2853C376.561 38.6836 375.878 39.8365 375.03 40.7441C374.144 41.7008 373.141 42.4245 372.022 42.9153C370.903 43.4055 369.704 43.6509 368.425 43.6509C367.244 43.6509 366.242 43.5224 365.418 43.2647C364.594 43.0193 363.751 42.6698 362.89 42.216V50.8262H356.248V22.5853H362.89V24.7378C363.911 23.9283 364.95 23.2721 366.008 22.7692C367.078 22.2664 368.308 22.0149 369.698 22.0149C372.28 22.0149 374.285 22.9594 375.712 24.8482C377.151 26.7371 377.871 29.3312 377.871 32.6306ZM371.026 32.7594C371.026 30.7478 370.682 29.2883 369.993 28.3806C369.304 27.473 368.216 27.0192 366.728 27.0192C366.1 27.0192 365.455 27.1173 364.79 27.3136C364.126 27.4976 363.493 27.7674 362.89 28.1231V38.5179C363.333 38.6897 363.806 38.8001 364.311 38.8491C364.815 38.8982 365.313 38.9227 365.805 38.9227C367.564 38.9227 368.874 38.4137 369.735 37.3957C370.596 36.3654 371.026 34.8199 371.026 32.7594ZM392.021 35.9422L396.744 22.5853H403.57L392.058 50.8262H384.863L388.146 43.099L380.084 22.5853H387.058L392.021 35.9422ZM418.07 43.7982C416.262 43.7982 414.608 43.5836 413.108 43.1542C411.619 42.725 410.322 42.0626 409.215 41.1673C408.12 40.2719 407.272 39.1435 406.669 37.782C406.066 36.4206 405.765 34.8261 405.765 32.9985C405.765 31.0729 406.085 29.4109 406.724 28.0127C407.376 26.6144 408.28 25.4553 409.436 24.5355C410.555 23.6646 411.847 23.0268 413.311 22.622C414.774 22.2173 416.293 22.0149 417.867 22.0149C419.282 22.0149 420.586 22.1682 421.778 22.4749C422.972 22.7815 424.084 23.1801 425.118 23.6707V29.319H424.177C423.919 29.0981 423.605 28.8406 423.236 28.5462C422.879 28.2519 422.436 27.9636 421.908 27.6815C421.403 27.4117 420.85 27.1909 420.247 27.0192C419.644 26.8352 418.944 26.7432 418.144 26.7432C416.373 26.7432 415.008 27.3074 414.048 28.4358C413.102 29.552 412.628 31.0729 412.628 32.9985C412.628 34.9855 413.114 36.4942 414.085 37.5245C415.069 38.5548 416.459 39.0699 418.255 39.0699C419.091 39.0699 419.842 38.9779 420.506 38.7939C421.182 38.5977 421.741 38.3708 422.184 38.1132C422.603 37.8679 422.971 37.6103 423.291 37.3405C423.611 37.0706 423.906 36.8069 424.177 36.5494H425.118V42.1976C424.072 42.6882 422.977 43.0745 421.834 43.3567C420.702 43.6509 419.448 43.7982 418.07 43.7982ZM440.687 43.7982C438.88 43.7982 437.227 43.5836 435.724 43.1542C434.239 42.725 432.942 42.0626 431.834 41.1673C430.739 40.2719 429.889 39.1435 429.287 37.782C428.684 36.4206 428.383 34.8261 428.383 32.9985C428.383 31.0729 428.703 29.4109 429.343 28.0127C429.992 26.6144 430.898 25.4553 432.053 24.5355C433.174 23.6646 434.466 23.0268 435.93 22.622C437.394 22.2173 438.91 22.0149 440.486 22.0149C441.898 22.0149 443.203 22.1682 444.397 22.4749C445.591 22.7815 446.703 23.1801 447.737 23.6707V29.319H446.793C446.535 29.0981 446.222 28.8406 445.853 28.5462C445.496 28.2519 445.054 27.9636 444.526 27.6815C444.023 27.4117 443.47 27.1909 442.864 27.0192C442.263 26.8352 441.563 26.7432 440.76 26.7432C438.991 26.7432 437.626 27.3074 436.669 28.4358C435.72 29.552 435.248 31.0729 435.248 32.9985C435.248 34.9855 435.733 36.4942 436.703 37.5245C437.686 38.5548 439.077 39.0699 440.872 39.0699C441.709 39.0699 442.461 38.9779 443.122 38.7939C443.8 38.5977 444.358 38.3708 444.801 38.1132C445.221 37.8679 445.591 37.6103 445.908 37.3405C446.23 37.0706 446.522 36.8069 446.793 36.5494H447.737V42.1976C446.69 42.6882 445.595 43.0745 444.453 43.3567C443.319 43.6509 442.066 43.7982 440.687 43.7982ZM474.503 43.2462H466.831L461.279 35.0591H459.154V43.2462H452.516V22.5853H459.154V30.8828C460.386 30.8705 461.236 30.7417 461.7 30.4964C462.168 30.2388 462.709 29.5704 463.323 28.491C463.508 28.1721 463.731 27.7612 463.988 27.2584C464.246 26.7555 464.452 26.3691 464.598 26.0993C465.276 24.8973 466.062 24.008 466.959 23.4316C467.87 22.8428 469.132 22.5485 470.742 22.5485C471.21 22.5485 471.7 22.5546 472.219 22.5668C472.747 22.5791 473.104 22.5853 473.288 22.5853V28.1047H471.481C470.742 28.1047 470.15 28.2886 469.707 28.6566C469.278 29.0246 468.904 29.5704 468.582 30.294C468.312 30.895 468.067 31.3734 467.844 31.7291C467.625 32.0725 467.342 32.3669 466.998 32.6122L474.503 43.2462ZM499.041 32.9249C499.041 36.3224 498.045 39.0024 496.052 40.9649C494.073 42.9153 491.287 43.8902 487.697 43.8902C484.104 43.8902 481.313 42.9153 479.321 40.9649C477.341 39.0024 476.349 36.3224 476.349 32.9249C476.349 29.5029 477.346 26.8168 479.338 24.8666C481.343 22.9164 484.129 21.9413 487.697 21.9413C491.312 21.9413 494.103 22.9226 496.07 24.885C498.053 26.8475 499.041 29.5274 499.041 32.9249ZM490.87 37.9476C491.299 37.4202 491.617 36.7886 491.828 36.0526C492.051 35.3044 492.162 34.2741 492.162 32.9618C492.162 31.7475 492.051 30.7294 491.828 29.9077C491.609 29.0859 491.299 28.4297 490.904 27.9391C490.514 27.4362 490.037 27.0805 489.483 26.872C488.934 26.6635 488.337 26.5592 487.697 26.5592C487.057 26.5592 486.486 26.6451 485.98 26.8168C485.486 26.9885 485.014 27.3319 484.559 27.8471C484.155 28.3254 483.829 28.9816 483.58 29.8157C483.348 30.6497 483.232 31.6984 483.232 32.9618C483.232 34.0902 483.335 35.0714 483.545 35.9054C483.756 36.7272 484.061 37.3895 484.468 37.8924C484.859 38.3708 485.327 38.7203 485.868 38.9411C486.422 39.1619 487.049 39.2723 487.753 39.2723C488.354 39.2723 488.925 39.1742 489.466 38.9779C490.02 38.7694 490.488 38.426 490.87 37.9476ZM520.551 27.1848H510.444V43.2462H503.802V22.5853H520.551V27.1848ZM545.054 32.9249C545.054 36.3224 544.058 39.0024 542.066 40.9649C540.082 42.9153 537.3 43.8902 533.707 43.8902C530.117 43.8902 527.322 42.9153 525.33 40.9649C523.351 39.0024 522.359 36.3224 522.359 32.9249C522.359 29.5029 523.359 26.8168 525.351 24.8666C527.356 22.9164 530.139 21.9413 533.707 21.9413C537.322 21.9413 540.117 22.9226 542.083 24.885C544.063 26.8475 545.054 29.5274 545.054 32.9249ZM536.879 37.9476C537.309 37.4202 537.631 36.7886 537.841 36.0526C538.06 35.3044 538.172 34.2741 538.172 32.9618C538.172 31.7475 538.06 30.7294 537.841 29.9077C537.618 29.0859 537.309 28.4297 536.918 27.9391C536.523 27.4362 536.051 27.0805 535.497 26.872C534.943 26.6635 534.346 26.5592 533.707 26.5592C533.067 26.5592 532.496 26.6451 531.989 26.8168C531.5 26.9885 531.027 27.3319 530.572 27.8471C530.164 28.3254 529.838 28.9816 529.593 29.8157C529.357 30.6497 529.241 31.6984 529.241 32.9618C529.241 34.0902 529.349 35.0714 529.555 35.9054C529.765 36.7272 530.074 37.3895 530.478 37.8924C530.873 38.3708 531.341 38.7203 531.882 38.9411C532.436 39.1619 533.063 39.2723 533.762 39.2723C534.363 39.2723 534.939 39.1742 535.48 38.9779C536.029 38.7694 536.497 38.426 536.879 37.9476ZM167.869 95.9114H160.231L155.01 87.7244H153.128V95.9114H146.524V87.7244H144.642L139.421 95.9114H131.783L138.922 85.2774C138.578 85.0196 138.302 84.7379 138.093 84.4313C137.883 84.1243 137.631 83.634 137.336 82.9592C136.967 82.1376 136.561 81.5672 136.118 81.2483C135.676 80.9293 135.116 80.77 134.44 80.77H132.632V75.2504C132.841 75.2504 133.185 75.2444 133.665 75.232C134.157 75.2196 134.661 75.2136 135.178 75.2136C136.887 75.2136 138.172 75.5202 139.033 76.1337C139.907 76.7469 140.669 77.6238 141.321 78.7644C141.469 79.0342 141.666 79.4144 141.911 79.9051C142.17 80.3958 142.397 80.8128 142.594 81.1562C143.246 82.2844 143.787 82.9652 144.218 83.1986C144.648 83.4315 145.417 83.548 146.524 83.548V75.2504H153.128V83.548C154.346 83.5356 155.152 83.4007 155.545 83.1433C155.951 82.8856 156.455 82.2232 157.058 81.1562C157.242 80.8372 157.464 80.4266 157.722 79.9235C157.98 79.4208 158.183 79.0342 158.331 78.7644C158.884 77.7218 159.616 76.8693 160.526 76.207C161.436 75.545 162.752 75.2136 164.474 75.2136C164.942 75.2136 165.434 75.2196 165.95 75.232C166.479 75.2444 166.836 75.2504 167.02 75.2504V80.77H165.212C164.523 80.77 163.952 80.9417 163.496 81.2851C163.054 81.6161 162.66 82.1744 162.316 82.9592C162.045 83.5604 161.799 84.0387 161.578 84.3945C161.356 84.7379 161.074 85.032 160.729 85.2774L167.869 95.9114ZM192.239 86.8042H177.038C177.136 88.4236 177.751 89.6623 178.883 90.5208C180.026 91.3792 181.705 91.8087 183.919 91.8087C185.321 91.8087 186.68 91.5574 187.996 91.0543C189.312 90.5516 190.352 90.0117 191.114 89.4353H191.852V94.7524C190.352 95.3535 188.937 95.789 187.609 96.0587C186.28 96.3285 184.811 96.4634 183.2 96.4634C179.042 96.4634 175.857 95.5312 173.643 93.667C171.429 91.8027 170.322 89.1472 170.322 85.7004C170.322 82.2909 171.368 79.5925 173.459 77.6054C175.562 75.6062 178.44 74.6064 182.093 74.6064C185.463 74.6064 187.996 75.4589 189.693 77.1639C191.391 78.8565 192.239 81.2971 192.239 84.4861V86.8042ZM185.635 82.9224C185.598 81.5364 185.253 80.4938 184.602 79.7946C183.95 79.0958 182.935 78.746 181.558 78.746C180.279 78.746 179.227 79.0774 178.403 79.7394C177.579 80.4018 177.118 81.4628 177.019 82.9224H185.635ZM207.718 96.4634C205.91 96.4634 204.256 96.2488 202.755 95.8194C201.267 95.3904 199.969 94.728 198.863 93.8327C197.768 92.9369 196.919 91.8087 196.317 90.4471C195.714 89.086 195.413 87.4914 195.413 85.6636C195.413 83.7381 195.733 82.0763 196.372 80.6779C197.024 79.2795 197.928 78.1205 199.084 77.2007C200.203 76.3298 201.495 75.6919 202.958 75.2872C204.422 74.8826 205.941 74.6801 207.515 74.6801C208.93 74.6801 210.233 74.8334 211.426 75.14C212.619 75.4465 213.732 75.8451 214.765 76.3358V81.9843H213.825C213.566 81.7634 213.253 81.5056 212.884 81.2114C212.527 80.9168 212.084 80.6287 211.555 80.3465C211.051 80.0768 210.498 79.8563 209.895 79.6846C209.292 79.5005 208.591 79.4084 207.792 79.4084C206.021 79.4084 204.655 79.9727 203.696 81.101C202.749 82.2172 202.276 83.7381 202.276 85.6636C202.276 87.6507 202.762 89.1592 203.733 90.1898C204.717 91.22 206.107 91.7351 207.903 91.7351C208.739 91.7351 209.489 91.643 210.153 91.4593C210.829 91.2628 211.389 91.0358 211.832 90.7785C212.25 90.5332 212.619 90.2754 212.939 90.0057C213.259 89.7359 213.554 89.4722 213.825 89.2144H214.765V94.8629C213.72 95.3535 212.625 95.7397 211.482 96.0219C210.35 96.3161 209.095 96.4634 207.718 96.4634ZM236.443 79.7394H229.838V95.9114H223.197V79.7394H216.592V75.2504H236.443V79.7394ZM260.943 85.5904C260.943 88.9875 259.947 91.6678 257.954 93.6301C255.974 95.5805 253.188 96.5554 249.597 96.5554C246.005 96.5554 243.213 95.5805 241.221 93.6301C239.241 91.6678 238.251 88.9875 238.251 85.5904C238.251 82.168 239.247 79.482 241.239 77.5317C243.244 75.5818 246.03 74.6064 249.597 74.6064C253.213 74.6064 256.005 75.5878 257.972 77.5501C259.953 79.5129 260.943 82.1928 260.943 85.5904ZM252.77 90.6128C253.2 90.0853 253.52 89.4538 253.729 88.7177C253.951 87.9697 254.061 86.9395 254.061 85.6267C254.061 84.4129 253.951 83.3947 253.729 82.573C253.508 81.7509 253.2 81.095 252.807 80.6043C252.413 80.1016 251.94 79.7458 251.386 79.5373C250.833 79.3288 250.236 79.2243 249.597 79.2243C248.957 79.2243 248.385 79.3103 247.881 79.482C247.389 79.6537 246.915 79.9971 246.46 80.5122C246.054 80.9905 245.729 81.6469 245.483 82.481C245.249 83.315 245.132 84.3636 245.132 85.6267C245.132 86.7554 245.236 87.7368 245.446 88.5704C245.655 89.3925 245.962 90.0549 246.368 90.5576C246.762 91.0359 247.229 91.3857 247.77 91.6062C248.324 91.8271 248.951 91.9376 249.652 91.9376C250.255 91.9376 250.827 91.8395 251.368 91.643C251.921 91.4345 252.389 91.0911 252.77 90.6128ZM286.476 89.6747C286.476 90.6681 286.273 91.5509 285.867 92.3238C285.473 93.0966 284.944 93.7406 284.28 94.2557C283.444 94.9057 282.558 95.3471 281.624 95.5805C280.701 95.801 279.601 95.9114 278.321 95.9114H265.702V75.2504H277.786C279.299 75.2504 280.412 75.2997 281.126 75.3977C281.839 75.4958 282.54 75.7351 283.229 76.1153C283.954 76.5075 284.496 77.029 284.852 77.679C285.221 78.329 285.405 79.1018 285.405 79.9971C285.405 81.0153 285.11 81.9106 284.52 82.6831C283.942 83.4439 283.241 84.0262 282.417 84.4313V84.6334C283.561 84.9156 284.52 85.4859 285.295 86.3444C286.082 87.1909 286.476 88.3007 286.476 89.6747ZM278.709 81.4692C278.709 80.7083 278.475 80.1688 278.008 79.8498C277.553 79.5309 276.814 79.3716 275.794 79.3716H272.289V83.4927H275.904C276.802 83.4927 277.491 83.315 277.971 82.9592C278.463 82.5914 278.709 82.0943 278.709 81.4692ZM279.631 89.4722C279.631 88.5769 279.373 87.9513 278.856 87.5955C278.352 87.2277 277.602 87.0436 276.605 87.0436H272.289V91.7719H276.716C277.626 91.7719 278.34 91.5694 278.856 91.1647C279.373 90.7477 279.631 90.1834 279.631 89.4722ZM312.488 85.5904C312.488 88.9875 311.492 91.6678 309.5 93.6301C307.52 95.5805 304.734 96.5554 301.142 96.5554C297.551 96.5554 294.759 95.5805 292.767 93.6301C290.786 91.6678 289.796 88.9875 289.796 85.5904C289.796 82.168 290.792 79.482 292.785 77.5317C294.79 75.5818 297.575 74.6064 301.142 74.6064C304.758 74.6064 307.55 75.5878 309.518 77.5501C311.498 79.5129 312.488 82.1928 312.488 85.5904ZM304.315 90.6128C304.746 90.0853 305.066 89.4538 305.275 88.7177C305.496 87.9697 305.607 86.9395 305.607 85.6267C305.607 84.4129 305.496 83.3947 305.275 82.573C305.053 81.7509 304.746 81.095 304.352 80.6043C303.959 80.1016 303.485 79.7458 302.932 79.5373C302.379 79.3288 301.782 79.2243 301.142 79.2243C300.503 79.2243 299.931 79.3103 299.427 79.482C298.935 79.6537 298.461 79.9971 298.006 80.5122C297.6 80.9905 297.274 81.6469 297.028 82.481C296.794 83.315 296.678 84.3636 296.678 85.6267C296.678 86.7554 296.782 87.7368 296.991 88.5704C297.201 89.3925 297.508 90.0549 297.914 90.5576C298.307 91.0359 298.775 91.3857 299.316 91.6062C299.869 91.8271 300.497 91.9376 301.198 91.9376C301.8 91.9376 302.372 91.8395 302.914 91.643C303.467 91.4345 303.934 91.0911 304.315 90.6128ZM333.999 79.8498H323.889V95.9114H317.248V75.2504H333.999V79.8498ZM358.5 85.5904C358.5 88.9875 357.503 91.6678 355.511 93.6301C353.531 95.5805 350.745 96.5554 347.154 96.5554C343.562 96.5554 340.77 95.5805 338.778 93.6301C336.798 91.6678 335.807 88.9875 335.807 85.5904C335.807 82.168 336.804 79.482 338.796 77.5317C340.801 75.5818 343.586 74.6064 347.154 74.6064C350.77 74.6064 353.561 75.5878 355.529 77.5501C357.509 79.5129 358.5 82.1928 358.5 85.5904ZM350.326 90.6128C350.757 90.0853 351.077 89.4538 351.286 88.7177C351.507 87.9697 351.618 86.9395 351.618 85.6267C351.618 84.4129 351.507 83.3947 351.286 82.573C351.064 81.7509 350.757 81.095 350.363 80.6043C349.97 80.1016 349.496 79.7458 348.943 79.5373C348.39 79.3288 347.793 79.2243 347.154 79.2243C346.514 79.2243 345.942 79.3103 345.438 79.482C344.946 79.6537 344.472 79.9971 344.017 80.5122C343.611 80.9905 343.285 81.6469 343.039 82.481C342.805 83.315 342.689 84.3636 342.689 85.6267C342.689 86.7554 342.793 87.7368 343.003 88.5704C343.212 89.3925 343.519 90.0549 343.925 90.5576C344.318 91.0359 344.786 91.3857 345.327 91.6062C345.88 91.8271 346.508 91.9376 347.209 91.9376C347.811 91.9376 348.383 91.8395 348.925 91.643C349.478 91.4345 349.945 91.0911 350.326 90.6128ZM395.655 95.9114H389.032V88.7361H386.062L381.099 95.9114H373.664L379.605 87.8164C378.215 87.1909 377.157 86.4056 376.431 85.4615C375.718 84.5045 375.362 83.1862 375.362 81.5056C375.362 80.3649 375.583 79.4084 376.026 78.6355C376.481 77.8631 377.09 77.2007 377.852 76.6488C378.528 76.1825 379.322 75.8332 380.232 75.5998C381.154 75.3669 382.181 75.2504 383.313 75.2504H395.655V95.9114ZM389.032 84.6886V79.5373H385.103C384.192 79.5373 383.479 79.7458 382.962 80.1628C382.458 80.5675 382.206 81.1622 382.206 81.9475C382.206 82.9164 382.458 83.6156 382.962 84.0447C383.467 84.4741 384.217 84.6886 385.213 84.6886H389.032ZM419.307 90.0609C419.307 91.2384 419.017 92.2501 418.439 93.0966C417.861 93.9307 417.08 94.5991 416.096 95.1018C415.1 95.6049 413.993 95.9607 412.776 96.1692C411.558 96.3777 410.261 96.4818 408.883 96.4818C407.075 96.4818 405.47 96.3285 404.068 96.0219C402.678 95.7153 401.319 95.3351 399.99 94.8813V89.8584H400.728C401.7 90.3983 402.789 90.8706 403.994 91.2752C405.199 91.6678 406.429 91.8639 407.684 91.8639C408.151 91.8639 408.705 91.8331 409.344 91.7719C409.996 91.7106 410.513 91.6062 410.894 91.4593C411.41 91.2628 411.798 91.0358 412.056 90.7785C412.327 90.5208 412.462 90.1101 412.462 89.5458C412.462 89.0183 412.339 88.6073 412.093 88.3131C411.859 88.0185 411.533 87.804 411.115 87.6691C410.759 87.5467 410.303 87.4666 409.75 87.4298C409.209 87.393 408.52 87.3745 407.684 87.3745H404.511V83.1802H407.056C407.548 83.1802 408.133 83.1738 408.809 83.1618C409.498 83.1493 410.039 83.0941 410.433 82.9961C411.011 82.8612 411.423 82.6467 411.668 82.3521C411.927 82.0579 412.056 81.6777 412.056 81.2114C412.056 80.8312 411.927 80.5122 411.668 80.2549C411.41 79.9971 411.072 79.7946 410.654 79.6478C410.297 79.5249 409.879 79.4328 409.399 79.3716C408.92 79.3103 408.416 79.2795 407.887 79.2795C407.013 79.2795 405.992 79.4328 404.824 79.7394C403.668 80.0464 402.641 80.4266 401.743 80.8805H401.024V75.9312C401.786 75.6983 402.918 75.4281 404.418 75.1215C405.931 74.815 407.474 74.6617 409.049 74.6617C410.426 74.6617 411.681 74.7662 412.813 74.9747C413.944 75.1832 414.946 75.4958 415.819 75.9128C416.742 76.3667 417.486 76.9554 418.052 77.679C418.617 78.4026 418.9 79.3044 418.9 80.3833C418.9 81.4872 418.519 82.4745 417.757 83.3454C417.007 84.2163 416.102 84.7991 415.045 85.0932V85.2589C416.262 85.5779 417.277 86.1358 418.089 86.9331C418.9 87.7184 419.307 88.7605 419.307 90.0609ZM437.459 88.9939C437.459 88.1106 437.197 87.4482 436.669 87.0067C436.136 86.5653 435.376 86.3444 434.38 86.3444H430.765V91.7351H434.38C435.041 91.7351 435.582 91.643 436.003 91.4593C436.42 91.2628 436.729 91.0239 436.926 90.7417C437.132 90.4719 437.274 90.1898 437.347 89.8952C437.424 89.601 437.459 89.3005 437.459 88.9939ZM444.285 88.9387C444.285 89.9932 444.075 90.9686 443.659 91.8639C443.242 92.7592 442.693 93.4889 442.018 94.0532C441.181 94.728 440.314 95.2062 439.417 95.4884C438.532 95.7706 437.33 95.9114 435.819 95.9114H424.14V75.2504H430.765V82.1496H435.836C437.326 82.1496 438.523 82.26 439.434 82.481C440.357 82.6895 441.228 83.1001 442.053 83.7137C442.791 84.2656 443.345 85.0076 443.714 85.9397C444.096 86.8595 444.285 87.8592 444.285 88.9387ZM453.25 95.9114H446.612V75.2504H453.25V95.9114ZM481.553 95.9114H473.876L468.325 87.7244H466.204V95.9114H459.562V75.2504H466.204V83.548C467.432 83.5356 468.282 83.4071 468.75 83.1618C469.218 82.904 469.759 82.2356 470.373 81.1562C470.557 80.8372 470.776 80.4266 471.038 79.9235C471.296 79.4208 471.498 79.0342 471.644 78.7644C472.322 77.5625 473.108 76.6732 474.005 76.0969C474.915 75.5082 476.178 75.2136 477.788 75.2136C478.256 75.2136 478.75 75.2196 479.265 75.232C479.793 75.2444 480.149 75.2504 480.334 75.2504V80.77H478.526C477.788 80.77 477.2 80.9537 476.757 81.3219C476.324 81.6897 475.95 82.2356 475.632 82.9592C475.358 83.5604 475.113 84.0387 474.894 84.3945C474.671 84.7379 474.387 85.032 474.044 85.2774L481.553 95.9114ZM497.456 90.5208V86.2155C496.559 86.2891 495.584 86.3936 494.541 86.5285C493.493 86.6509 492.703 86.7982 492.162 86.9699C491.497 87.1784 490.986 87.485 490.63 87.8901C490.286 88.2823 490.114 88.8038 490.114 89.4538C490.114 89.8832 490.149 90.2326 490.222 90.5023C490.299 90.7721 490.484 91.0299 490.776 91.2752C491.059 91.5205 491.398 91.7042 491.793 91.8271C492.184 91.9376 492.798 91.9928 493.635 91.9928C494.301 91.9928 494.97 91.8579 495.649 91.5878C496.336 91.318 496.937 90.9622 497.456 90.5208ZM497.456 93.7222C497.1 93.992 496.658 94.3169 496.125 94.6972C495.597 95.0774 495.099 95.3779 494.631 95.5989C493.979 95.893 493.305 96.1076 492.605 96.2424C491.901 96.3897 491.132 96.4634 490.299 96.4634C488.328 96.4634 486.68 95.8562 485.353 94.6419C484.026 93.4276 483.361 91.8764 483.361 89.9873C483.361 88.4788 483.7 87.2461 484.374 86.2891C485.052 85.3326 486.01 84.5782 487.255 84.0262C488.483 83.4743 490.007 83.0817 491.828 82.8488C493.648 82.6158 495.537 82.4441 497.491 82.3337V82.2232C497.491 81.0826 497.023 80.2977 496.091 79.8683C495.155 79.4268 493.777 79.2059 491.956 79.2059C490.862 79.2059 489.694 79.4024 488.453 79.7946C487.212 80.1748 486.319 80.4694 485.778 80.6779H485.168V75.6919C485.868 75.5082 487.006 75.2932 488.582 75.0479C490.166 74.7906 491.755 74.6617 493.343 74.6617C497.117 74.6617 499.839 75.2444 501.514 76.4095C503.197 77.5625 504.043 79.3776 504.043 81.8554V95.9114H497.456V93.7222Z" fill="#338EF7"/>
<path fill-rule="evenodd" clip-rule="evenodd" d="M83.0655 58C92.1386 58 105.181 62.8562 109.839 72.1471C110.803 74.0709 108.121 96.1248 105.116 96.767C105.111 96.7675 105.106 96.7683 105.102 96.7687C104.498 97.5 103.548 97.6786 102.592 97.6786H101.769C96.2389 97.6786 90.7402 98.5157 85.4617 100.161L73.7026 103.825C65.6978 106.32 57.3906 104.949 49.998 101L13.5001 80C9.00205 76 6.0008 73 9.50097 66C12.5789 61.3959 16.5001 61.5 22.0001 63L39 71C40.5223 67.5986 43.9421 64.6057 47.9183 64.6057H61.9448C63.4733 64.6057 64.498 64.4646 66.2525 63.2882C70.6662 60.3287 76.2092 58 83.0655 58ZM39.5 78C41 81.5 44.9477 83.5 48.498 83.5H63.5394C65.6961 83.5 67.4444 82.3342 67.4444 80.1835C67.4444 78.0328 65.6961 77.5 63.5394 77.5H47.9183C46.8402 77.5 44.998 76.0058 44.998 74.9302C44.498 73 46.8402 71 47.9183 71H61.9448C65.0422 71 67.498 69.5 68.998 68.5C73.4946 65.4852 78.8471 64 83.0655 64C94 65 99.8462 68.7131 102.998 75C102.566 78.9953 102.336 82.291 101.998 85C101.755 86.949 101.147 89.6119 100.998 91C95.2353 91.1516 89.0053 92.2839 83.498 94L71.998 97.5C65.9944 99.3711 58.8638 97.6469 53.3191 94.6848L15.6477 74.559C13.987 73.6718 13.4557 71.0633 14.5008 69.5C15.3938 68.1641 17.5609 67.782 19.0008 68.5L39.5 78Z" fill="#338EF7"/>
<path fill-rule="evenodd" clip-rule="evenodd" d="M18.4707 23.1955L48.9699 7.95456C49.6307 7.62452 50.4078 7.62452 51.0686 7.95456L81.5676 23.1955C83.2971 24.0596 83.2971 26.5258 81.5676 27.3899L71.1344 32.6037V45.2231C71.1344 51.9381 61.3181 56.9469 50.0193 56.9469C38.7206 56.9469 28.9043 51.9381 28.9043 45.2231V32.6037L18.4707 27.3899C16.7415 26.5258 16.7415 24.0596 18.4707 23.1955ZM33.5966 34.9485V45.2231C33.5966 48.4926 40.975 52.2575 50.0193 52.2575C59.0636 52.2575 66.442 48.4926 66.442 45.2231V34.9485L51.0686 42.6308C50.4078 42.961 49.6307 42.961 48.9699 42.6308L33.5966 34.9485ZM75.8263 35.8441V47.5677C75.8263 48.863 76.877 49.9124 78.1723 49.9124C79.4681 49.9124 80.5187 48.863 80.5187 47.5677V35.8441C80.5187 34.5491 79.4681 33.4993 78.1723 33.4993C76.877 33.4993 75.8263 34.5491 75.8263 35.8441ZM50.0193 12.6733L75.2725 25.2927L50.0193 37.9121L24.766 25.2927L50.0193 12.6733Z" fill="#338EF7"/>
</svg>
