<svg width="132" height="82" viewBox="0 0 132 82" fill="none" xmlns="http://www.w3.org/2000/svg">
<g clip-path="url(#clip0_1180_4123)">
<path d="M38.152 33.2939C40.7921 33.2939 42.8665 35.4031 42.8665 37.9917C42.8665 40.6761 40.8864 42.7852 38.152 42.7852C35.5119 42.7852 33.4375 40.6761 33.4375 37.9917C33.4375 35.4031 35.5119 33.2939 38.152 33.2939ZM38.152 41.3471C39.8492 41.3471 41.1693 39.909 41.1693 38.0875C41.1693 36.266 39.8492 34.9237 38.152 34.9237C36.4548 34.9237 35.1347 36.266 35.1347 38.0875C35.1347 39.909 36.4548 41.3471 38.152 41.3471Z" fill="#EE3524"/>
<path d="M59.1786 33.4854H57.4814V42.689H59.1786V33.4854Z" fill="#4D4D4F"/>
<path d="M64.3644 33.4854H62.573L59.5557 37.8954L62.7615 42.7848H64.7416L61.3471 37.8954L64.3644 33.4854Z" fill="#4D4D4F"/>
<path d="M102.551 33.4854H100.854V42.689H102.551V33.4854Z" fill="#4D4D4F"/>
<path d="M107.737 33.4854H105.946L102.929 37.8954L106.135 42.7848H108.115L104.72 37.8954L107.737 33.4854Z" fill="#4D4D4F"/>
<path d="M87.4648 51.9893H85.7676V61.1929H87.4648V51.9893Z" fill="#4D4D4F"/>
<path d="M92.6506 51.9893H90.7649L87.8418 56.3993L91.0477 61.1929H93.0278L89.6334 56.3035L92.6506 51.9893Z" fill="#4D4D4F"/>
<path d="M21.4627 33.4854H23.2543L25.0458 38.0871C25.2345 38.6623 25.5172 39.4294 25.5172 39.4294C25.5172 39.4294 25.8002 38.6623 25.9887 38.0871L27.7802 33.4854H29.5718L30.326 42.689H28.6288L28.2516 37.5119C28.1574 36.9367 28.2516 36.0738 28.2516 36.0738C28.2516 36.0738 27.9688 36.9367 27.7802 37.5119L26.2716 41.0592H24.8573L23.3486 37.5119C23.1601 36.9367 22.8771 36.0738 22.8771 36.0738C22.8771 36.0738 22.8771 36.9367 22.8771 37.5119L22.4999 42.689H20.8027L21.4627 33.4854Z" fill="#4D4D4F"/>
<path d="M50.5981 33.2939C51.8238 33.2939 53.0495 33.6775 53.9925 34.5402L53.2382 35.7866C52.5781 35.2114 51.6353 34.8279 50.7866 34.8279C48.8065 34.8279 47.7693 36.266 47.7693 37.9917C47.7693 39.7173 48.9008 41.2513 50.7866 41.2513C51.7295 41.2513 52.7667 40.7719 53.4267 40.1008L54.2754 41.3471C53.521 42.1142 52.2953 42.8811 50.6924 42.8811C47.8636 42.8811 45.9778 40.7719 45.9778 38.0875C45.8836 35.4031 47.8636 33.2939 50.5981 33.2939Z" fill="#4D4D4F"/>
<path d="M71.5299 33.2939C74.1701 33.2939 76.2445 35.4031 76.2445 37.9917C76.2445 40.6761 74.2643 42.7852 71.5299 42.7852C68.8898 42.7852 66.8154 40.6761 66.8154 37.9917C66.8154 35.4031 68.8898 33.2939 71.5299 33.2939ZM71.5299 41.3471C73.2271 41.3471 74.5473 39.909 74.5473 38.0875C74.5473 36.266 73.2271 34.9237 71.5299 34.9237C69.8328 34.9237 68.5126 36.266 68.5126 38.0875C68.5126 39.909 69.8328 41.3471 71.5299 41.3471Z" fill="#4D4D4F"/>
<path d="M79.8281 33.4854H83.034C84.7312 33.4854 85.8628 34.3481 85.8628 35.8821C85.8628 36.745 85.4856 37.5119 84.7312 37.8954C85.7684 38.1829 86.2398 39.1417 86.2398 40.1004C86.2398 41.9219 84.8256 42.7848 83.1282 42.7848H79.8281V33.4854ZM83.034 37.2243C83.7884 37.2243 84.1654 36.745 84.1654 36.0738C84.1654 35.4027 83.7884 34.9233 83.034 34.9233H81.431V37.2243H83.034ZM83.2226 41.2509C84.0712 41.2509 84.5426 40.6756 84.5426 39.9087C84.5426 39.1417 84.0712 38.5665 83.2226 38.5665H81.431V41.2509H83.2226Z" fill="#4D4D4F"/>
<path d="M93.9711 33.2939C95.1969 33.2939 96.4226 33.6775 97.3655 34.5402L96.6113 35.7866C95.9511 35.2114 95.0083 34.8279 94.1597 34.8279C92.1795 34.8279 91.1423 36.266 91.1423 37.9917C91.1423 39.7173 92.2738 41.2513 94.1597 41.2513C95.1026 41.2513 96.1398 40.7719 96.7998 40.1008L97.6484 41.3471C96.894 42.1142 95.6683 42.8811 94.0654 42.8811C91.2367 42.8811 89.3509 40.7719 89.3509 38.0875C89.2566 35.4031 91.2367 33.2939 93.9711 33.2939Z" fill="#4D4D4F"/>
<path d="M110.942 33.4854H112.64V38.8541C112.64 39.4294 112.545 40.2921 112.545 40.2921C112.545 40.2921 113.017 39.4294 113.3 38.8541L116.694 33.4854H118.297V42.689H116.694V37.3202C116.694 36.745 116.788 35.8821 116.788 35.8821C116.788 35.8821 116.411 36.745 116.034 37.3202L112.545 42.689H110.942V33.4854Z" fill="#4D4D4F"/>
<path d="M122.541 33.4857H124.238V38.8545C124.238 39.4297 124.144 40.2925 124.144 40.2925C124.144 40.2925 124.615 39.4297 124.898 38.8545L128.293 33.4857H129.896V42.6893H128.293V37.3206C128.293 36.7453 128.387 35.8824 128.387 35.8824C128.387 35.8824 128.01 36.7453 127.633 37.3206L124.144 42.6893H122.541V33.4857ZM124.238 31.2806V31.0889H125.464V31.2806C125.464 31.8558 125.936 32.1435 126.313 32.1435C126.69 32.1435 127.161 31.8558 127.161 31.2806V31.0889H128.387V31.2806C128.387 32.4311 127.444 33.1022 126.313 33.1022C125.181 33.1022 124.238 32.4311 124.238 31.2806Z" fill="#4D4D4F"/>
<path d="M21.0855 51.9893H26.2715V53.4272H22.6884V61.1929H20.9912V51.9893H21.0855Z" fill="#4D4D4F"/>
<path d="M33.3424 51.7969C35.9826 51.7969 38.057 53.9061 38.057 56.4946C38.057 59.179 36.0768 61.2882 33.3424 61.2882C30.7023 61.2882 28.6279 59.179 28.6279 56.4946C28.6279 53.9061 30.6081 51.7969 33.3424 51.7969ZM33.3424 59.8501C35.0396 59.8501 36.3596 58.4121 36.3596 56.5904C36.3596 54.7689 35.0396 53.4267 33.3424 53.4267C31.6453 53.4267 30.3251 54.7689 30.3251 56.5904C30.3251 58.4121 31.6453 59.8501 33.3424 59.8501Z" fill="#4D4D4F"/>
<path d="M41.5454 51.9893H45.0342C46.7314 51.9893 47.9573 53.2355 47.9573 54.9612C47.9573 56.7828 46.7314 58.0291 45.0342 58.0291H43.1484V61.1929H41.4512V51.9893H41.5454ZM44.7513 56.591C45.6942 56.591 46.26 55.9199 46.26 54.9612C46.26 54.0024 45.6942 53.4272 44.7513 53.4272H43.1484V56.591H44.7513Z" fill="#4D4D4F"/>
<path d="M55.5016 51.7969C58.1417 51.7969 60.2161 53.9061 60.2161 56.4946C60.2161 59.179 58.236 61.2882 55.5016 61.2882C52.8615 61.2882 50.7871 59.179 50.7871 56.4946C50.7871 53.9061 52.8615 51.7969 55.5016 51.7969ZM55.5016 59.8501C57.1988 59.8501 58.5189 58.4121 58.5189 56.5904C58.5189 54.7689 57.1988 53.4267 55.5016 53.4267C53.8044 53.4267 52.4843 54.7689 52.4843 56.5904C52.4843 58.4121 53.8044 59.8501 55.5016 59.8501Z" fill="#4D4D4F"/>
<path d="M63.4214 59.7548C64.5529 58.0291 64.7414 55.8241 64.7414 54.0024V51.9893H70.3989V59.7548H71.4361V63.0144H69.9274V61.1929H63.9872V63.0144H62.4785V59.7548H63.4214ZM68.7017 59.7548V53.4272H66.2501V54.0984C66.2501 55.9199 66.0616 58.2208 65.1186 59.7548H68.7017Z" fill="#4D4D4F"/>
<path d="M78.8851 51.7969C80.1109 51.7969 81.3367 52.1804 82.2796 53.0433L81.5252 54.2896C80.8652 53.7144 79.9223 53.3308 79.0737 53.3308C77.0936 53.3308 76.0564 54.7689 76.0564 56.4946C76.0564 58.2203 77.1879 59.7542 79.0737 59.7542C80.0167 59.7542 81.0539 59.2748 81.7139 58.6038L82.5624 59.8501C81.8081 60.6171 80.5824 61.384 78.9795 61.384C76.1507 61.384 74.265 59.2748 74.265 56.5904C74.1706 53.9061 76.1507 51.7969 78.8851 51.7969Z" fill="#4D4D4F"/>
<path d="M99.8171 51.7969C102.457 51.7969 104.532 53.9061 104.532 56.4946C104.532 59.179 102.551 61.2882 99.8171 61.2882C97.1769 61.2882 95.1025 59.179 95.1025 56.4946C95.1025 53.9061 97.0827 51.7969 99.8171 51.7969ZM99.8171 59.8501C101.514 59.8501 102.834 58.4121 102.834 56.5904C102.834 54.7689 101.514 53.4267 99.8171 53.4267C98.1199 53.4267 96.7997 54.7689 96.7997 56.5904C96.7997 58.4121 98.1199 59.8501 99.8171 59.8501Z" fill="#4D4D4F"/>
<path d="M108.114 51.9886H109.811V57.3574C109.811 57.9327 109.717 58.7954 109.717 58.7954C109.717 58.7954 110.189 57.9327 110.471 57.3574L113.866 52.0845H115.469V61.2881H113.866V55.9193C113.866 55.3441 113.96 54.4812 113.96 54.4812C113.96 54.4812 113.583 55.3441 113.206 55.9193L109.717 61.2881H108.114V51.9886ZM109.717 49.7836V49.5918H110.943V49.7836C110.943 50.3588 111.414 50.6464 111.792 50.6464C112.169 50.6464 112.64 50.3588 112.64 49.7836V49.5918H113.866V49.7836C113.866 50.9341 112.923 51.6051 111.792 51.6051C110.754 51.6051 109.717 50.9341 109.717 49.7836Z" fill="#4D4D4F"/>
<path d="M21.5561 77.97C21.7446 78.1617 22.1218 78.4494 22.5932 78.4494C23.0647 78.4494 23.3475 78.1617 23.536 77.6823L19.9531 70.5879H21.7446L23.7247 74.7104C24.0075 75.2856 24.1962 75.9567 24.1962 75.9567C24.1962 75.9567 24.3847 75.3815 24.5732 74.7104L25.9876 70.5879H27.6848L24.8562 77.8742C24.479 78.8328 23.819 79.9832 22.4988 79.9832C21.8389 79.9832 21.2731 79.6957 20.7074 79.3121L21.5561 77.97Z" fill="#4D4D4F"/>
<path d="M30.7969 70.4912H32.4941V74.422H36.6429V70.4912H38.2458V79.6948H36.6429V75.86H32.4941V79.6948H30.7969V70.4912Z" fill="#4D4D4F"/>
<path d="M42.3945 70.4912H44.0917V75.86C44.0917 76.4352 43.9975 77.2981 43.9975 77.2981C43.9975 77.2981 44.4689 76.4352 44.7517 75.86L48.1462 70.4912H49.7492V79.6948H48.1462V74.422C48.1462 73.8468 48.2405 72.9839 48.2405 72.9839C48.2405 72.9839 47.8633 73.8468 47.4862 74.422L43.9975 79.6948H42.3945V70.4912Z" fill="#4D4D4F"/>
<path d="M53.9922 70.4912H57.198C58.8952 70.4912 60.0267 71.3541 60.0267 72.8881C60.0267 73.7508 59.6496 74.5179 58.8952 74.9014C59.9324 75.1889 60.4039 76.1477 60.4039 77.1064C60.4039 78.9279 58.9895 79.7908 57.2923 79.7908H53.9922V70.4912ZM57.198 74.2302C57.9523 74.2302 58.3295 73.7508 58.3295 73.0798C58.3295 72.4087 57.9523 71.9293 57.198 71.9293H55.5951V74.2302H57.198ZM57.3866 78.2569C58.2352 78.2569 58.7067 77.6816 58.7067 76.9146C58.7067 76.1477 58.2352 75.5725 57.3866 75.5725H55.5951V78.2569H57.3866Z" fill="#4D4D4F"/>
<path d="M63.9873 70.4912H69.4561V71.9293H65.6845V74.3262H68.7018V75.7642H65.6845V78.2569H69.6447V79.6948H63.9873V70.4912Z" fill="#4D4D4F"/>
<path d="M73.1324 70.4912H76.6211C78.3183 70.4912 79.5441 71.7376 79.5441 73.4633C79.5441 75.2848 78.3183 76.5312 76.6211 76.5312H74.7353V79.6948H73.0381V70.4912H73.1324ZM76.3382 75.0931C77.2811 75.0931 77.8469 74.422 77.8469 73.4633C77.8469 72.5045 77.2811 71.9293 76.3382 71.9293H74.7353V75.0931H76.3382Z" fill="#4D4D4F"/>
<path d="M87.0883 70.3008C88.314 70.3008 89.5399 70.6843 90.4827 71.5472L89.7284 72.7935C89.0684 72.2183 88.1255 71.8347 87.2769 71.8347C85.2969 71.8347 84.2597 73.2728 84.2597 74.9985C84.2597 76.7242 85.3911 78.2581 87.2769 78.2581C88.2198 78.2581 89.257 77.7787 89.917 77.1077L90.7656 78.3541C90.0112 79.121 88.7855 79.8879 87.1826 79.8879C84.3539 79.8879 82.4681 77.7787 82.4681 75.0943C82.3738 72.41 84.3539 70.3008 87.0883 70.3008Z" fill="#4D4D4F"/>
<path d="M93.9717 70.4912H95.6689V75.86C95.6689 76.4352 95.5746 77.2981 95.5746 77.2981C95.5746 77.2981 96.0461 76.4352 96.3289 75.86L99.7233 70.4912H101.326V79.6948H99.7233V74.422C99.7233 73.8468 99.8177 72.9839 99.8177 72.9839C99.8177 72.9839 99.4405 73.8468 99.0633 74.422L95.5746 79.6948H93.9717V70.4912Z" fill="#4D4D4F"/>
<path d="M107.642 71.9293H104.625V70.4912H112.263V71.9293H109.245V79.6948H107.642V71.9293Z" fill="#4D4D4F"/>
<path d="M115.469 70.4912H120.938V71.9293H117.166V74.3262H120.184V75.7642H117.072V78.2569H121.032V79.6948H115.375V70.4912H115.469Z" fill="#4D4D4F"/>
<path d="M126.69 71.9293H123.673V70.4912H131.31V71.9293H128.293V79.6948H126.69V71.9293Z" fill="#4D4D4F"/>
<path d="M13.3534 60.9049C7.97888 54.8651 4.67873 46.9077 4.67873 38.0875C4.67873 19.2968 19.6708 4.05326 38.1517 4.05326C52.201 4.05326 64.2701 12.9693 69.1732 25.4326L72.5676 24.0903C67.0988 10.2849 53.7096 0.410156 38.1517 0.410156C17.6907 0.410156 1.0957 17.3794 1.0957 38.0875C1.0957 47.7705 4.67873 56.6866 10.7133 63.3017L13.3534 60.9049Z" fill="#EE3524"/>
</g>
<defs>
<clipPath id="clip0_1180_4123">
<rect width="131" height="81" fill="white" transform="translate(0.5 0.730469)"/>
</clipPath>
</defs>
</svg>
