<svg width="84" height="73" viewBox="0 0 84 73" fill="none" xmlns="http://www.w3.org/2000/svg">
<path d="M0.431641 27.2305V0.103516H22.6602V27.2305H15.2754V6.09668H7.79785V27.2305H0.431641ZM27.7634 0.103516H34.5916V12.5166C34.5916 13.0732 34.5854 13.6608 34.573 14.2793C34.5606 14.8854 34.5421 15.4854 34.5173 16.0791C34.4926 16.6729 34.4617 17.2357 34.4246 17.7676C34.3875 18.2995 34.3442 18.7695 34.2947 19.1777H34.4431L45.613 0.103516H54.0183V27.2305H47.1716V15.4854C47.1716 14.9782 47.1778 14.403 47.1902 13.7598C47.2149 13.1165 47.2397 12.4548 47.2644 11.7744C47.3015 11.0941 47.3386 10.4385 47.3757 9.80762C47.4252 9.17676 47.4747 8.6263 47.5242 8.15625H47.3572L36.1873 27.2305H27.7634V0.103516ZM82.3892 27.2305H75.023V16.1719H66.5064V27.2305H59.1402V0.103516H66.5064V10.1602H75.023V0.103516H82.3892V27.2305ZM24.1445 64.2305H15.8506L7.79785 50.4814V64.2305H0.431641V37.1035H7.79785V50.2402L15.5537 37.1035H23.6064L15.2383 50.0547L24.1445 64.2305ZM51.5505 50.6299C51.5505 52.7204 51.297 54.6253 50.7898 56.3447C50.295 58.0518 49.5157 59.5238 48.4519 60.7607C47.3881 61.9977 46.0212 62.9502 44.3513 63.6182C42.6814 64.2738 40.6837 64.6016 38.3582 64.6016C36.0821 64.6016 34.1091 64.2738 32.4392 63.6182C30.7817 62.9502 29.4148 62.0039 28.3386 60.7793C27.2625 59.5423 26.4646 58.0641 25.9451 56.3447C25.4255 54.6253 25.1658 52.708 25.1658 50.5928C25.1658 47.7725 25.6296 45.3232 26.5574 43.2451C27.4975 41.1546 28.9448 39.5404 30.8992 38.4023C32.8536 37.252 35.3523 36.6768 38.3953 36.6768C41.4877 36.6768 43.9988 37.252 45.9285 38.4023C47.8705 39.5527 49.2931 41.1732 50.1961 43.2637C51.099 45.3542 51.5505 47.8096 51.5505 50.6299ZM32.8845 50.6299C32.8845 52.2627 33.0701 53.6667 33.4412 54.8418C33.8123 56.0169 34.3998 56.9199 35.2039 57.5508C36.0079 58.1816 37.0593 58.4971 38.3582 58.4971C39.7065 58.4971 40.7765 58.1816 41.5681 57.5508C42.3722 56.9199 42.9474 56.0169 43.2937 54.8418C43.6524 53.6667 43.8318 52.2627 43.8318 50.6299C43.8318 48.1807 43.4236 46.2448 42.6072 44.8223C41.7908 43.3997 40.3868 42.6885 38.3953 42.6885C37.0717 42.6885 36.0017 43.0101 35.1853 43.6533C34.3813 44.2965 33.7937 45.2119 33.4226 46.3994C33.0639 47.5869 32.8845 48.9971 32.8845 50.6299ZM79.2905 37.1035V58.2188H83.0015V72.6729H75.8579V64.2305H60.0493V72.6729H52.9058V58.2188H55.1509C55.992 56.7962 56.7528 55.2686 57.4331 53.6357C58.1135 52.0029 58.7072 50.2897 59.2144 48.4961C59.7339 46.7025 60.1545 44.8532 60.4761 42.9482C60.8101 41.0309 61.0513 39.0827 61.1997 37.1035H79.2905ZM71.9058 43.0967H67.0816C66.9579 44.4202 66.7785 45.7314 66.5435 47.0303C66.3085 48.3167 66.0116 49.5908 65.6529 50.8525C65.3065 52.1143 64.9045 53.3574 64.4468 54.582C63.9891 55.8066 63.4758 57.0189 62.9068 58.2188H71.9058V43.0967Z" fill="#60E5AB"/>
</svg>
