<svg width="32" height="32" viewBox="0 0 32 32" fill="none" xmlns="http://www.w3.org/2000/svg">
<rect width="32" height="32" rx="16" fill="#338EF7"/>
<path d="M13 9H11C9.89543 9 9 9.89543 9 11V23C9 24.1046 9.89543 25 11 25H21C22.1046 25 23 24.1046 23 23V11C23 9.89543 22.1046 9 21 9H19M13 9C13 10.1046 13.8954 11 15 11H17C18.1046 11 19 10.1046 19 9M13 9C13 7.89543 13.8954 7 15 7H17C18.1046 7 19 7.89543 19 9M16 16H19M16 20H19M13 16H13.01M13 20H13.01" stroke="white" stroke-width="2" stroke-linecap="round"/>
</svg>
