<svg width="24" height="24" viewBox="0 0 24 24" fill="none" stroke="#71717A" xmlns="http://www.w3.org/2000/svg">
<path d="M10.1385 3.46368C10.6123 1.51211 13.3877 1.51211 13.8615 3.46368C14.1676 4.72437 15.6119 5.32264 16.7198 4.64761C18.4348 3.60266 20.3973 5.56523 19.3524 7.28021C18.6774 8.38806 19.2756 9.83242 20.5363 10.1385C22.4879 10.6123 22.4879 13.3877 20.5363 13.8615C19.2756 14.1676 18.6774 15.6119 19.3524 16.7198C20.3973 18.4348 18.4348 20.3973 16.7198 19.3524C15.6119 18.6774 14.1676 19.2756 13.8615 20.5363C13.3877 22.4879 10.6123 22.4879 10.1385 20.5363C9.83242 19.2756 8.38806 18.6774 7.28021 19.3524C5.56523 20.3973 3.60266 18.4348 4.64761 16.7198C5.32264 15.6119 4.72437 14.1676 3.46368 13.8615C1.51211 13.3877 1.51211 10.6123 3.46368 10.1385C4.72437 9.83242 5.32264 8.38806 4.64761 7.28021C3.60266 5.56523 5.56523 3.60265 7.28021 4.64761C8.38806 5.32264 9.83242 4.72437 10.1385 3.46368Z" stroke-width="2.5" stroke-linecap="round" stroke-linejoin="round"/>
<path d="M15.3333 12C15.3333 13.8409 13.8409 15.3333 12 15.3333C10.1591 15.3333 8.66667 13.8409 8.66667 12C8.66667 10.1591 10.1591 8.66667 12 8.66667C13.8409 8.66667 15.3333 10.1591 15.3333 12Z" stroke-width="2.5" stroke-linecap="round" stroke-linejoin="round"/>
</svg>
