<svg width="32" height="32" viewBox="0 0 32 32" fill="none" xmlns="http://www.w3.org/2000/svg">
<rect width="32" height="32" rx="16" fill="#338EF7"/>
<path d="M13.6635 21H18.3364M15.9999 7V8M22.3639 9.63604L21.6568 10.3431M25 15.9999H24M8 15.9999H7M10.3431 10.3431L9.63599 9.63604M12.4644 19.5356C10.5118 17.5829 10.5118 14.4171 12.4644 12.4645C14.417 10.5119 17.5829 10.5119 19.5355 12.4645C21.4881 14.4171 21.4881 17.5829 19.5355 19.5356L18.9884 20.0827C18.3555 20.7155 17.9999 21.5739 17.9999 22.469V23C17.9999 24.1046 17.1045 25 15.9999 25C14.8954 25 13.9999 24.1046 13.9999 23V22.469C13.9999 21.5739 13.6444 20.7155 13.0115 20.0827L12.4644 19.5356Z" stroke="white" stroke-width="2" stroke-linecap="round" stroke-linejoin="round"/>
</svg>
