<svg xmlns="http://www.w3.org/2000/svg" viewBox="0 0 500 500"><g id="freepik--Shadow--inject-513"><ellipse id="freepik--path--inject-513" cx="250" cy="416.24" rx="193.89" ry="11.32" style="fill:#f5f5f5"></ellipse></g><g id="freepik--character-1--inject-513"><polygon points="205.72 408.01 213.75 407.89 215.59 389.27 207.57 389.39 205.72 408.01" style="fill:#b55b52"></polygon><polygon points="151.77 393.36 159.42 395.79 168.05 379.02 160.4 376.6 151.77 393.36" style="fill:#b55b52"></polygon><polygon points="215.59 389.27 214.64 398.87 206.61 399 207.56 389.4 215.59 389.27" style="opacity:0.2"></polygon><polygon points="160.4 376.6 168.05 379.03 163.6 387.67 155.95 385.24 160.4 376.6" style="opacity:0.2"></polygon><path d="M217.62,397l-13.59.21s5.36-52.81,7.13-77.76c.53-7.59.28-18.32-.35-29.87-.81-14.56-1.34-20.39-2.43-38.79-.78-13.12-1.74-21.62-1.74-21.62l28.13,2.31s1.11,63.71-2.08,88C229.37,344.7,217.62,397,217.62,397Z" style="fill:#FF725E"></path><path d="M214.38,246.78c3.52,13.12.1,42.44-3.2,50.41-.1-2.49-.23-5-.37-7.64-.81-14.56-1.34-20.38-2.44-38.79,0-.36,0-.72-.06-1.07A19.49,19.49,0,0,1,214.38,246.78Z" style="opacity:0.2"></path><path d="M219.6,230.21s-13,65.44-19.52,88C193,343,167.71,387,167.71,387l-14-4.44s16.14-37.27,22.1-61.67c6.79-27.78,16.19-93,16.19-93Z" style="fill:#FF725E"></path><path d="M161.06,395.26l-8.86-4.16a.69.69,0,0,0-.85.2l-4.47,5.79a1.18,1.18,0,0,0,.46,1.79c2.87,1.29,5,2.1,8.62,3.78,2.21,1,7.33,3.67,10.38,5.1s4.81-1.33,3.74-2.25c-4.78-4.15-7-6.8-8.05-9.25A1.93,1.93,0,0,0,161.06,395.26Z" style="fill:#263238"></path><path d="M213.68,407l-8.77.14a.69.69,0,0,0-.67.55l-1.47,7.16a1.16,1.16,0,0,0,1.17,1.41c3.16-.1,7.73-.36,11.7-.42,4.65-.07,5.18.12,10.63,0,3.3-.05,4.16-3.39,2.77-3.67-6.3-1.28-7.94-1.35-13.42-4.61A3.74,3.74,0,0,0,213.68,407Z" style="fill:#263238"></path><path d="M241.56,164.21l7.16,4.45c2.42,1.49,4.86,2.94,7.29,4.37s4.89,2.8,7.35,4.08c1.23.65,2.45,1.24,3.68,1.87l1.83.86.46.21.17.09c.12.05.25.11.41.16a9.93,9.93,0,0,0,2.59.36,22.55,22.55,0,0,0,3.46-.24,52.83,52.83,0,0,0,7.68-1.74,160.29,160.29,0,0,0,15.84-5.84l3.93,6.31a81.67,81.67,0,0,1-7.54,5.37,82.49,82.49,0,0,1-8.16,4.54,54.6,54.6,0,0,1-9.15,3.5,34.8,34.8,0,0,1-5.28,1,21.41,21.41,0,0,1-6.19-.18,17.22,17.22,0,0,1-1.73-.41l-.86-.27-.57-.2-2.26-.79c-1.47-.56-2.95-1.12-4.37-1.75-2.87-1.22-5.66-2.52-8.38-3.94s-5.39-2.87-8-4.42-5.14-3.14-7.76-5Z" style="fill:#FF725E"></path><path d="M241.56,164.21l7.16,4.45c2.42,1.49,4.86,2.94,7.29,4.37s4.89,2.8,7.35,4.08c1.23.65,2.45,1.24,3.68,1.87l1.83.86.46.21.17.09c.12.05.25.11.41.16a9.93,9.93,0,0,0,2.59.36,22.55,22.55,0,0,0,3.46-.24,52.83,52.83,0,0,0,7.68-1.74,160.29,160.29,0,0,0,15.84-5.84l3.93,6.31a81.67,81.67,0,0,1-7.54,5.37,82.49,82.49,0,0,1-8.16,4.54,54.6,54.6,0,0,1-9.15,3.5,34.8,34.8,0,0,1-5.28,1,21.41,21.41,0,0,1-6.19-.18,17.22,17.22,0,0,1-1.73-.41l-.86-.27-.57-.2-2.26-.79c-1.47-.56-2.95-1.12-4.37-1.75-2.87-1.22-5.66-2.52-8.38-3.94s-5.39-2.87-8-4.42-5.14-3.14-7.76-5Z" style="fill:#fff;opacity:0.7000000000000001"></path><path d="M224.88,170.29c1.71,7.48,21.83,16.19,21.83,16.19l8.57-16.13a57.92,57.92,0,0,0-15.13-9.2C230.73,157.23,223,162.08,224.88,170.29Z" style="fill:#263238"></path><path d="M298.25,175.53l3.25-5.64,8.27,4.92s-3.65,6.24-9.23,4.51Z" style="fill:#b55b52"></path><polygon points="306.58 165.58 313.71 170.51 309.77 174.81 301.5 169.89 306.58 165.58" style="fill:#b55b52"></polygon><path d="M188.67,235.17a17.53,17.53,0,0,0,11.25,15.25c5.33-8,14.5-10.17,14.5-10.17s10.16,7.25,16.16,9.08a52.74,52.74,0,0,1,4.75-10.48l-18.75-6.43Z" style="fill:#FF725E"></path><path d="M188.67,235.17a17.53,17.53,0,0,0,11.25,15.25c5.33-8,14.5-10.17,14.5-10.17s10.16,7.25,16.16,9.08a52.74,52.74,0,0,1,4.75-10.48l-18.75-6.43Z" style="fill:#fff;opacity:0.7000000000000001"></path><path d="M192.54,158.09c5,31.3-5.65,72.1-5.89,78.69,6.27.52,37.32,3.38,50.2,4.43,7.48-54.73.6-80.69.6-80.69s-2.67-.86-6.35-1.69c-1.15-.26-2.39-.51-3.69-.74-.72-.13-1.45-.24-2.2-.35a160.8,160.8,0,0,0-18.23-.82c-1.15,0-2.33,0-3.46.09s-2.1.12-3.08.19C196,157.55,192.54,158.09,192.54,158.09Z" style="fill:#263238"></path><path d="M209.72,136.47c.88,5.92,1.54,16.72-2.74,20.45,3.05,3.31,7.05,7.16,14,7.72s6-4.28,4.23-6.9c-6.47-1.85-6.08-6.7-4.73-11.21Z" style="fill:#b55b52"></path><path d="M214.1,140.58l6.37,5.95a19.68,19.68,0,0,0-.71,3.21c-2.48-.47-5.79-3.37-5.94-6A8.87,8.87,0,0,1,214.1,140.58Z" style="opacity:0.2"></path><path d="M209.42,127.61c.13,8-.2,12.64,3.62,16.9,5.76,6.4,15.73,3.21,18-4.64,2-7.06,1.48-18.9-6.15-22.41A10.86,10.86,0,0,0,209.42,127.61Z" style="fill:#b55b52"></path><path d="M209.11,134.94c3.24,1.4,7.53-8.9,7.62-12.16s-11.81,3.08-11.81,3.08S201.88,131.83,209.11,134.94Z" style="fill:#263238"></path><path d="M214.17,123.22c2.55.46,10.78-1.55,15.11-.78,1.06,1.56,2.91,4.27,7.72,1.67,2.06-1.11,4.11-7.22-1.39-8.61-3.57-.9-5-7-11.32-7.17s-5.12,2.89-8.62,3.61-5.35-2.44-7.78-.5-.39,4.73-4,6c-4.94,1.67-4.89,11,1.61,10.53C210.3,127.61,214.17,123.22,214.17,123.22Z" style="fill:#263238"></path><path d="M205.43,136.21a7.62,7.62,0,0,0,4.57,3.55c2.56.69,3.82-1.61,3.08-4-.66-2.17-2.8-5.13-5.36-4.76S204.24,134.06,205.43,136.21Z" style="fill:#b55b52"></path><polygon points="169.3 387.86 152.79 382.63 154.36 377.7 172.91 381.83 169.3 387.86" style="fill:#FF725E"></polygon><polygon points="169.3 387.86 152.79 382.63 154.36 377.7 172.91 381.83 169.3 387.86" style="opacity:0.30000000000000004"></polygon><polygon points="219.33 397.26 203.14 397.51 203.06 392.28 220.38 391.72 219.33 397.26" style="fill:#FF725E"></polygon><polygon points="219.33 397.26 203.14 397.51 203.06 392.28 220.38 391.72 219.33 397.26" style="opacity:0.30000000000000004"></polygon><path d="M222.6,130.43c0,.64.25,1.19.67,1.23s.8-.46.86-1.11-.25-1.19-.67-1.23S222.65,129.78,222.6,130.43Z" style="fill:#263238"></path><path d="M229.89,131c0,.64.25,1.2.67,1.23s.81-.46.86-1.11-.25-1.19-.67-1.23S230,130.37,229.89,131Z" style="fill:#263238"></path><path d="M227.55,131.15a23.12,23.12,0,0,0,2.63,5.77,3.75,3.75,0,0,1-3.13.33Z" style="fill:#a02724"></path><path d="M223.26,138.64a5.33,5.33,0,0,1-3.56-2.28.19.19,0,0,1,.07-.26.2.2,0,0,1,.26.07,5.12,5.12,0,0,0,4.08,2.19.18.18,0,0,1,.18.2.19.19,0,0,1-.19.18A6.91,6.91,0,0,1,223.26,138.64Z" style="fill:#263238"></path><path d="M220.74,140.31a5.33,5.33,0,0,1-1.07-4.09.18.18,0,0,1,.22-.14.19.19,0,0,1,.15.22,5.12,5.12,0,0,0,1.53,4.38.19.19,0,0,1-.27.27A5.46,5.46,0,0,1,220.74,140.31Z" style="fill:#263238"></path><path d="M219.22,127.92a.51.51,0,0,1-.18-.09.38.38,0,0,1,0-.53,3.78,3.78,0,0,1,3.17-1.43.37.37,0,0,1,.33.42.38.38,0,0,1-.42.34h0a3,3,0,0,0-2.49,1.15A.39.39,0,0,1,219.22,127.92Z" style="fill:#263238"></path><path d="M231.94,128.34a.41.41,0,0,1-.28-.23,3,3,0,0,0-2.07-1.81.38.38,0,0,1-.3-.44.37.37,0,0,1,.43-.31,3.77,3.77,0,0,1,2.64,2.26.39.39,0,0,1-.2.5A.42.42,0,0,1,231.94,128.34Z" style="fill:#263238"></path><path d="M162.86,397.65a8.88,8.88,0,0,1-1.77-1.15.2.2,0,0,1-.07-.2.21.21,0,0,1,.16-.14c.34,0,3.36-.38,4,.41a.59.59,0,0,1,.07.63,1.17,1.17,0,0,1-.78.74A2.47,2.47,0,0,1,162.86,397.65Zm-1.16-1.16c1.12.83,2.09,1.23,2.64,1.08a.77.77,0,0,0,.53-.51c0-.14,0-.21,0-.25C164.54,396.39,162.91,396.39,161.7,396.49Z" style="fill:#FF725E"></path><path d="M161.12,396.52a.18.18,0,0,1-.08-.07.21.21,0,0,1,0-.19c.05-.09,1.21-2.1,2.37-2.4a1.06,1.06,0,0,1,.84.13h0a.62.62,0,0,1,.34.71c-.23.88-2.43,1.79-3.37,1.84A.16.16,0,0,1,161.12,396.52Zm2.85-2.25a.65.65,0,0,0-.46,0c-.75.19-1.56,1.3-1.93,1.88,1-.22,2.5-1,2.64-1.51,0-.05,0-.16-.17-.29h0Z" style="fill:#FF725E"></path><path d="M214.49,408.06a.2.2,0,0,1-.13-.16.17.17,0,0,1,.1-.19c.36-.2,3.56-1.88,4.54-1.36a.62.62,0,0,1,.32.51h0a1.06,1.06,0,0,1-.34.93c-.87.79-3.17.51-4.47.27Zm4.26-1.4c-.61-.2-2.35.49-3.61,1.12,1.78.27,3.1.17,3.59-.27a.69.69,0,0,0,.21-.62.2.2,0,0,0-.12-.2Z" style="fill:#FF725E"></path><path d="M214.49,408.06l-.05,0a.17.17,0,0,1-.08-.17c0-.09.19-2.26,1.19-3.11a1.37,1.37,0,0,1,1-.34h0c.53,0,.68.3.72.52.16.9-1.73,2.67-2.69,3.12A.23.23,0,0,1,214.49,408.06Zm2.28-3.24-.2,0h0a1,1,0,0,0-.77.26,4.45,4.45,0,0,0-1,2.49c1-.61,2.26-2,2.16-2.54C216.94,405,216.92,404.87,216.77,404.82Zm-.18-.22Z" style="fill:#FF725E"></path><path d="M197,177.34c-1.59-.14-2.94-.31-4.38-.51s-2.82-.44-4.21-.71c-2.8-.52-5.57-1.15-8.32-1.83s-5.49-1.46-8.19-2.34l-2.21-.71c-.83-.25-1.61-.57-2.4-.88a35.73,35.73,0,0,1-4.42-2.21,46.2,46.2,0,0,1-7.57-5.53,60.85,60.85,0,0,1-6.26-6.4,73.06,73.06,0,0,1-5.28-7,66.52,66.52,0,0,1-4.44-7.55l6.26-4c1.66,1.86,3.52,3.86,5.37,5.68s3.77,3.62,5.72,5.29a53.2,53.2,0,0,0,12.18,8.08,27.1,27.1,0,0,0,3.08,1.16c.51.15,1,.31,1.51.41.27.06.46.11.79.17l1,.18c2.63.45,5.24.93,7.87,1.33s5.25.85,7.87,1.26l7.7,1.18Z" style="fill:#FF725E"></path><path d="M197,177.34c-1.59-.14-2.94-.31-4.38-.51s-2.82-.44-4.21-.71c-2.8-.52-5.57-1.15-8.32-1.83s-5.49-1.46-8.19-2.34l-2.21-.71c-.83-.25-1.61-.57-2.4-.88a35.73,35.73,0,0,1-4.42-2.21,46.2,46.2,0,0,1-7.57-5.53,60.85,60.85,0,0,1-6.26-6.4,73.06,73.06,0,0,1-5.28-7,66.52,66.52,0,0,1-4.44-7.55l6.26-4c1.66,1.86,3.52,3.86,5.37,5.68s3.77,3.62,5.72,5.29a53.2,53.2,0,0,0,12.18,8.08,27.1,27.1,0,0,0,3.08,1.16c.51.15,1,.31,1.51.41.27.06.46.11.79.17l1,.18c2.63.45,5.24.93,7.87,1.33s5.25.85,7.87,1.26l7.7,1.18Z" style="fill:#fff;opacity:0.7000000000000001"></path><path d="M206.51,160c-2.68-5.29-23.1-2.13-23.1-2.13l-3.22,18.22a58.81,58.81,0,0,0,18.31,3.42C208.31,179.62,210.72,168.25,206.51,160Z" style="fill:#263238"></path><path d="M146.51,138.62l-.22-6.17-9.22,2.73s.72,4.59,3,6.61a3,3,0,0,0,3.26.39l1.5-.72A3,3,0,0,0,146.51,138.62Z" style="fill:#b55b52"></path><polygon points="142.71 125.16 135.01 128.96 137.07 135.18 146.29 132.45 142.71 125.16" style="fill:#b55b52"></polygon></g><g id="freepik--character-2--inject-513"><path d="M309.4,177c.1,1,.25,2.14.39,3.23s.32,2.21.52,3.31c.41,2.21.79,4.42,1.33,6.59a77.75,77.75,0,0,0,4.13,12.63c.19.51.45,1,.68,1.48l.66,1.41a3,3,0,0,0,1,1.17,12.21,12.21,0,0,0,5.1,1.62,55.35,55.35,0,0,0,13.21-.23l1.07,4.11c-1.21.45-2.34.8-3.54,1.13s-2.38.63-3.6.85a39.55,39.55,0,0,1-7.57.79,17.88,17.88,0,0,1-8.43-1.87,10.35,10.35,0,0,1-3.95-3.69c-.15-.23-.19-.32-.28-.47l-.23-.42-.45-.82c-.3-.56-.63-1.1-.89-1.67a70.2,70.2,0,0,1-5.19-13.94c-.63-2.38-1.19-4.77-1.6-7.19-.21-1.21-.39-2.42-.56-3.65s-.29-2.4-.38-3.78Z" style="fill:#e8bcbe"></path><path d="M334.52,208.25l-1.31.23s-1.54,2.29,1,5.83c.31-.18,1.08-.52,1.08-.52S333,210.85,334.52,208.25Z" style="fill:#263238"></path><path d="M305.86,167.23c3.51.59,7.1,14.55,7.1,14.55L304,189s-10.29-13.53-8-17.53C298.49,167.32,300.73,166.37,305.86,167.23Z" style="fill:#FF725E"></path><polygon points="305.81 170.42 309.64 184.47 304.62 188.53 305.81 170.42" style="opacity:0.2"></polygon><path d="M335.14,208.9l5.32-5.39.62,8.5a5.66,5.66,0,0,1-5.79.3Z" style="fill:#ffc3bd"></path><polygon points="344.07 202.88 345.65 209.84 341.08 212.01 340.46 203.51 344.07 202.88" style="fill:#ffc3bd"></polygon><polygon points="303.25 407.68 311.63 407.68 312.18 388.28 303.81 388.28 303.25 407.68" style="fill:#ffc3bd"></polygon><polygon points="247.33 387.32 255.33 389.83 263.71 372.13 255.72 369.62 247.33 387.32" style="fill:#ffc3bd"></polygon><path d="M256.51,389l-8-4.88a.66.66,0,0,0-.87.14l-4.78,5.81a1.34,1.34,0,0,0,.37,2c2.84,1.66,4.29,2.31,7.83,4.46,2.18,1.32,6.1,4.58,9.11,6.4s5-1.05,3.88-2.08a21.4,21.4,0,0,1-6.57-10.65A2.13,2.13,0,0,0,256.51,389Z" style="fill:#263238"></path><path d="M311.91,406.71H302.5a.67.67,0,0,0-.67.58l-1.07,7.44a1.34,1.34,0,0,0,1.34,1.49c3.28-.05,4.86-.25,9-.25,2.55,0,7.82.27,11.33.27s3.71-3.48,2.24-3.79c-6.56-1.42-9.15-3.36-11.36-5.22A2.17,2.17,0,0,0,311.91,406.71Z" style="fill:#263238"></path><g style="opacity:0.2"><polygon points="312.18 388.29 311.89 398.29 303.51 398.29 303.8 388.29 312.18 388.29"></polygon><polygon points="255.71 369.63 263.71 372.14 259.38 381.26 251.39 378.75 255.71 369.63"></polygon></g><path d="M305.86,167.23s4.09,1.07.21,50.72l-33.91,2.83c-.58-13.85-1.27-22.36-10.23-50.13a100.06,100.06,0,0,1,14.24-3.1,108.18,108.18,0,0,1,15.4-1.28C298.23,166.32,305.86,167.23,305.86,167.23Z" style="fill:#FF725E"></path><path d="M303.17,141.08c.78-8.37,11.53-12.34,10.11-5.22s4.58,9,2.22,14.23C313.39,154.78,301.67,157.21,303.17,141.08Z" style="fill:#263238"></path><path d="M309,142.8a7,7,0,1,1-7-7A7,7,0,0,1,309,142.8Z" style="fill:#FF725E"></path><path d="M280.78,127.43a6.22,6.22,0,0,0-5.23,3.32c-2.06,4.07-5.22,8-11.49,12.05-7.65,5-2.84,13.28,5.34,12.87-1.07,7.16,6.18,11.33,13.52,7.5,3.24,3.28,15.8,3.42,15.66-3.4-.18-8.6,2.92-12.57,2.92-12.57S302.09,126.18,280.78,127.43Z" style="fill:#263238"></path><path d="M300.74,189.41a6.63,6.63,0,0,0-2.56-.69,6.87,6.87,0,0,0,1.14-2.42,2.93,2.93,0,0,0-.48-2.42,2.6,2.6,0,0,0-2.07-1.12,2.15,2.15,0,0,0-.83.16,5.88,5.88,0,0,0-2.12,1.43,7.91,7.91,0,0,0-.84-2.72,2.66,2.66,0,0,0-2.32-1.53,2.21,2.21,0,0,0-2.1,1.53,7.6,7.6,0,0,0-.44,2.72,7.17,7.17,0,0,0-2.33-1.43,2.29,2.29,0,0,0-.85-.16,2.2,2.2,0,0,0-1.91,1.12,2.77,2.77,0,0,0-.11,2.42,8.24,8.24,0,0,0,1.49,2.42,5.84,5.84,0,0,0-2.45.69,2.42,2.42,0,0,0-1.23,2.4,2.88,2.88,0,0,0,1.58,2.39,6.61,6.61,0,0,0,2.56.7,6.65,6.65,0,0,0-1.14,2.41,2.92,2.92,0,0,0,.47,2.42,2.61,2.61,0,0,0,2.08,1.13,2.1,2.1,0,0,0,.82-.16,5.92,5.92,0,0,0,2.12-1.43,8.23,8.23,0,0,0,.85,2.72,2.63,2.63,0,0,0,2.32,1.52,2.19,2.19,0,0,0,2.09-1.52,7.22,7.22,0,0,0,.44-2.72,7.4,7.4,0,0,0,2.34,1.43,2.24,2.24,0,0,0,.84.16,2.18,2.18,0,0,0,1.91-1.13,2.77,2.77,0,0,0,.12-2.42,8,8,0,0,0-1.5-2.41,5.9,5.9,0,0,0,2.46-.7,2.43,2.43,0,0,0,1.23-2.39A2.9,2.9,0,0,0,300.74,189.41Z" style="fill:#fff;opacity:0.4"></path><ellipse cx="291.52" cy="191.81" rx="5.44" ry="6.08" transform="translate(-51.64 128.45) rotate(-22.88)" style="fill:#FF725E"></ellipse><ellipse cx="291.52" cy="191.81" rx="5.44" ry="6.08" transform="translate(-51.64 128.45) rotate(-22.88)" style="opacity:0.2"></ellipse><path d="M276.25,150.09c1.38,4.87,3.11,13.87-.08,17.46,0,0,1.77,4.86,11,4.15,9-.7,4.42-5.43,4.42-5.43-5.64-.86-5.84-5-5.2-8.9Z" style="fill:#ffc3bd"></path><path d="M276.17,167.56a106.93,106.93,0,0,1,15.4-1.29l1,0c.74,1.49,1.3,7.28-2.41,10.27-5.58-1.08-12-3.3-16-8.7C274.82,167.75,275.5,167.65,276.17,167.56Z" style="fill:#ffc3bd"></path><path d="M284.7,156.16l-6.9,1.68a26.88,26.88,0,0,1,.14,4.18,10.79,10.79,0,0,0,6.13-2.81,5.14,5.14,0,0,0,1.34-2.53Z" style="opacity:0.2"></path><path d="M296,143.65c-2.49,7.93-3.38,11.34-8.47,14.47-7.66,4.7-16.86-.1-16.79-8.62.07-7.66,4.13-19.35,12.81-20.6A11.34,11.34,0,0,1,296,143.65Z" style="fill:#ffc3bd"></path><path d="M302.33,136.47c0-11.3-16.42-17.65-23.76-14.14-5.91,2.83-4.14,11.27.65,11.17a12.84,12.84,0,0,0,3.61-.44s2.5,6.19,8.78,4.4c-1.83,2.71-3.82,10,1.87,11.84S310.67,145.16,302.33,136.47Z" style="fill:#263238"></path><path d="M306.07,218S318,281.71,319.6,307.22c1.64,26.53-5.93,89.13-5.93,89.13H302.35S302.16,336.9,299,311c-3.45-28.26-17.75-91-17.75-91Z" style="fill:#263238"></path><polygon points="301.37 396.76 314.66 396.76 315.63 392.52 300.75 392 301.37 396.76" style="fill:#FF725E"></polygon><path d="M292.78,235.17c9.73,16.06,5.62,47.18,3.62,58.79-2.93-16.95-7.22-37.61-10.48-52.77C286.45,232.41,288.29,227.77,292.78,235.17Z" style="opacity:0.2"></path><path d="M297.12,218.7S295,286.2,291,308.15C286.24,334.21,261.9,380,261.9,380L251,376.6s13.93-51,18.08-64.88c8.84-29.59-4.34-71.49,3.08-90.94Z" style="fill:#263238"></path><polygon points="249.56 376.77 263.08 381.02 265.86 377.22 250.18 371.51 249.56 376.77" style="fill:#FF725E"></polygon><path d="M282,142.23c-.17.66-.64,1.1-1.07,1s-.65-.73-.48-1.38.64-1.1,1.07-1S282.11,141.58,282,142.23Z" style="fill:#263238"></path><path d="M274.53,140.39c-.16.66-.64,1.1-1.07,1s-.64-.73-.48-1.38.64-1.1,1.07-1S274.7,139.74,274.53,140.39Z" style="fill:#263238"></path><path d="M274.23,139.1l-1.46-.85S273.27,139.68,274.23,139.1Z" style="fill:#263238"></path><path d="M276.53,142.14a18.24,18.24,0,0,1-3.38,3.61,2.93,2.93,0,0,0,2.23,1Z" style="fill:#ed847e"></path><path d="M278.92,150.05a8.55,8.55,0,0,1-.93-.37.2.2,0,0,1-.09-.27.19.19,0,0,1,.26-.09,5.32,5.32,0,0,0,4.84,0,.22.22,0,0,1,.28.07.21.21,0,0,1-.07.27A5.56,5.56,0,0,1,278.92,150.05Z" style="fill:#263238"></path><path d="M279.77,152.12a6,6,0,0,1-1,.16.19.19,0,0,1-.21-.18.19.19,0,0,1,.18-.21,5.35,5.35,0,0,0,4.17-2.46.21.21,0,0,1,.27-.08.2.2,0,0,1,.08.27A5.54,5.54,0,0,1,279.77,152.12Z" style="fill:#263238"></path><path d="M296.37,151.63a6.12,6.12,0,0,1-3.94,2.46c-2.1.33-2.91-1.61-2.13-3.47.71-1.67,2.66-3.86,4.68-3.35A2.74,2.74,0,0,1,296.37,151.63Z" style="fill:#ffc3bd"></path><path d="M285.83,139.76a.4.4,0,0,1-.44-.15c-1-1.51-3.41-1.55-3.43-1.55a.41.41,0,0,1-.39-.4.4.4,0,0,1,.4-.4c.11,0,2.8.05,4.08,1.9a.4.4,0,0,1-.11.55A.22.22,0,0,1,285.83,139.76Z" style="fill:#263238"></path><path d="M273.82,135.26a.39.39,0,0,1-.32-.22.4.4,0,0,1,.19-.53,3.92,3.92,0,0,1,3.62,0,.38.38,0,0,1,.13.54.39.39,0,0,1-.54.14,3.12,3.12,0,0,0-2.87,0A.39.39,0,0,1,273.82,135.26Z" style="fill:#263238"></path><path d="M259.7,392.22l.1,0a1.11,1.11,0,0,0,.82-.73.67.67,0,0,0,0-.68c-.61-.88-3.64-.8-4-.79a.23.23,0,0,0-.18.13.19.19,0,0,0,.05.21C257.24,391.1,258.66,392.33,259.7,392.22Zm-2.6-1.83c1.21,0,2.83.16,3.15.62a.29.29,0,0,1,0,.31.73.73,0,0,1-.54.49C259.15,391.93,258.19,391.4,257.1,390.39Z" style="fill:#FF725E"></path><path d="M256.91,390.39c1-.11,2.88-.81,3.18-1.62a.7.7,0,0,0-.28-.82,1,1,0,0,0-.86-.21c-1.2.22-2.46,2.27-2.51,2.36a.19.19,0,0,0,.16.3Zm2.17-2.27a.64.64,0,0,1,.48.14c.2.16.19.28.16.37-.2.55-1.72,1.22-2.73,1.35.45-.66,1.32-1.72,2-1.85Z" style="fill:#FF725E"></path><path d="M315.06,408.18a3.13,3.13,0,0,0,2-.52,1.11,1.11,0,0,0,.36-1,.64.64,0,0,0-.34-.53c-1-.57-4.37,1.14-4.74,1.34a.2.2,0,0,0-.11.2.2.2,0,0,0,.16.17A14.34,14.34,0,0,0,315.06,408.18Zm1.49-1.74a.78.78,0,0,1,.37.08.24.24,0,0,1,.13.21.7.7,0,0,1-.23.64c-.5.46-1.88.53-3.74.23A10.66,10.66,0,0,1,316.55,406.44Z" style="fill:#FF725E"></path><path d="M312.46,407.88h.08c1-.46,3-2.26,2.82-3.21,0-.23-.2-.51-.75-.56a1.42,1.42,0,0,0-1.09.34c-1.06.88-1.25,3.13-1.26,3.23a.23.23,0,0,0,.08.18Zm2-3.39h.11c.37,0,.39.18.4.23.09.57-1.25,2-2.27,2.61a4.65,4.65,0,0,1,1.07-2.59A1,1,0,0,1,314.46,404.49Z" style="fill:#FF725E"></path><path d="M281.65,140.94l-1.47-.85S280.69,141.52,281.65,140.94Z" style="fill:#263238"></path><path d="M271.49,218.83l-.61,3.11c-.1.25.2.46.59.43l34.89-2.91c.31,0,.55-.2.55-.39L307,216c0-.21-.28-.37-.61-.34L272,218.53A.61.61,0,0,0,271.49,218.83Z" style="fill:#FF725E"></path><path d="M271.49,218.83l-.61,3.11c-.1.25.2.46.59.43l34.89-2.91c.31,0,.55-.2.55-.39L307,216c0-.21-.28-.37-.61-.34L272,218.53A.61.61,0,0,0,271.49,218.83Z" style="opacity:0.2"></path><path d="M276.42,222.29l-.92.07c-.18,0-.33-.06-.33-.18l.11-4c0-.12.15-.22.34-.24l.91-.08c.19,0,.34.07.33.19l-.1,4C276.76,222.16,276.6,222.27,276.42,222.29Z" style="fill:#263238"></path><path d="M303.81,220l-.92.08c-.18,0-.33-.07-.33-.18l.1-4c0-.12.16-.23.34-.24l.92-.08c.18,0,.33.07.33.18l-.1,4C304.14,219.88,304,220,303.81,220Z" style="fill:#263238"></path><path d="M290.11,221.15l-.91.07c-.19,0-.34-.07-.33-.18l.1-4c0-.12.16-.23.34-.24l.92-.08c.18,0,.33.07.33.19l-.11,4C290.45,221,290.3,221.13,290.11,221.15Z" style="fill:#263238"></path><path d="M275,230.43l8.12,4-7.8,3.42s-4.27-3.28-3.71-6.71Z" style="fill:#ffc3bd"></path><path d="M267.27,182.12c-.86,4.31-1.63,8.87-2.2,13.3a96.51,96.51,0,0,0-.83,13.25c.06,1,.08,2.24.19,3a15.28,15.28,0,0,0,.65,2.72A31,31,0,0,0,267.7,220a55.89,55.89,0,0,0,3.62,5.54c1.32,1.79,2.75,3.61,4.17,5.27L272.65,234a54.39,54.39,0,0,1-10.43-10.3,32.83,32.83,0,0,1-4-6.64,20.34,20.34,0,0,1-1.33-4,39.46,39.46,0,0,1-.54-4,80.28,80.28,0,0,1,.26-14.65,111.33,111.33,0,0,1,2.29-14.26Z" style="fill:#e8bcbe"></path><path d="M261.93,170.65C258.62,172,255.51,184,255.51,184l14,8.32s4-10.17,2.2-14.44C269.81,173.44,265.71,169.15,261.93,170.65Z" style="fill:#FF725E"></path><polygon points="286.22 240.77 279.53 243.28 275.36 237.85 283.16 234.43 286.22 240.77" style="fill:#ffc3bd"></polygon></g></svg>
