<svg width="421" height="270" viewBox="0 0 421 270" fill="none" xmlns="http://www.w3.org/2000/svg">
<g clip-path="url(#clip0_1326_1426)">
<path d="M231.149 222.021C179.535 216.514 137.013 192.314 116.567 170.946C108.051 162.019 101.644 151.297 97.8161 139.568C93.9882 127.84 92.8369 115.402 94.4468 103.17C97.669 78.3664 111.494 54.462 133.15 41.9716C154.805 29.4811 184.188 30.0267 203.631 45.7615C212.524 24.3198 235.912 10.48 259.123 10.8044C282.335 11.1288 304.425 24.4967 317.498 43.6748C330.571 62.8529 335.025 87.1776 332.06 110.212C329.096 133.246 319.098 154.983 305.575 173.851C287.791 198.677 261.615 219.868 231.156 222.051" fill="#FF725E"/>
<path opacity="0.8" d="M231.149 222.021C179.535 216.514 137.013 192.314 116.567 170.946C108.051 162.019 101.644 151.297 97.8161 139.568C93.9882 127.84 92.8369 115.402 94.4468 103.17C97.669 78.3664 111.494 54.462 133.15 41.9716C154.805 29.4811 184.188 30.0267 203.631 45.7615C212.524 24.3198 235.912 10.48 259.123 10.8044C282.335 11.1288 304.425 24.4967 317.498 43.6748C330.571 62.8529 335.025 87.1776 332.06 110.212C329.096 133.246 319.098 154.983 305.575 173.851C287.791 198.677 261.615 219.868 231.156 222.051" fill="white"/>
<path d="M336.404 253.461C336.365 253.313 336.311 253.169 336.242 253.033L335.703 251.787C335.057 250.183 334.546 248.528 334.177 246.839C333.196 242.415 333.019 235.779 334.914 227.934C335.945 223.656 337.252 219.449 338.83 215.34C340.452 210.88 342.332 206.146 343.903 201.021C345.473 195.897 346.734 190.345 346.704 184.468C346.675 178.592 345.127 172.671 343.394 166.772C341.661 160.873 339.877 155.071 339.464 149.297C338.987 143.74 340.277 138.174 343.15 133.393C345.834 128.807 349.152 124.914 351.667 120.858C354.02 117.094 355.795 112.998 356.931 108.707C358.57 102.488 358.882 95.994 357.846 89.6469C357.477 87.3281 356.882 85.0512 356.069 82.8486C356.088 83.004 356.123 83.157 356.172 83.3058C356.26 83.6228 356.378 84.0431 356.533 84.6035C356.982 86.2766 357.341 87.9724 357.61 89.6837C358.548 95.9936 358.176 102.429 356.518 108.589C355.365 112.827 353.588 116.87 351.246 120.585C348.732 124.604 345.407 128.475 342.671 133.12C339.723 137.99 338.394 143.669 338.874 149.342C339.287 155.24 341.086 161.036 342.819 166.942C344.551 172.848 346.085 178.739 346.122 184.49C346.023 190.054 345.094 195.571 343.364 200.859C341.816 205.961 339.965 210.695 338.35 215.163C336.793 219.294 335.512 223.523 334.516 227.823C332.658 235.735 332.901 242.467 333.956 246.876C334.353 248.573 334.906 250.229 335.608 251.824L336.197 253.04C336.253 253.187 336.322 253.327 336.404 253.461Z" fill="#263238"/>
<path d="M348.29 124.804C348.29 124.804 353.628 109.46 345.222 100.111C345.156 100.037 345.071 99.9818 344.976 99.9529C344.881 99.924 344.779 99.922 344.683 99.9472C344.587 99.9725 344.499 100.024 344.431 100.096C344.362 100.168 344.314 100.257 344.293 100.354C343.748 102.898 342.922 110.67 348.29 124.804Z" fill="#FF725E"/>
<path d="M346.004 105.308C345.983 106.269 346.062 107.231 346.24 108.176C346.491 110.152 346.793 112.482 347.125 115.048L347.995 121.912C348.05 122.872 348.193 123.825 348.422 124.759C348.535 123.801 348.535 122.833 348.422 121.876C348.319 120.099 348.083 117.658 347.729 114.967C347.375 112.275 346.992 109.857 346.66 108.109C346.544 107.154 346.324 106.215 346.004 105.308Z" fill="#263238"/>
<path d="M341.44 161.174C341.44 161.174 338.985 145.115 327.18 140.787C327.086 140.741 326.981 140.724 326.878 140.738C326.775 140.752 326.678 140.795 326.599 140.864C326.52 140.932 326.464 141.022 326.436 141.123C326.408 141.223 326.41 141.329 326.443 141.428C327.18 143.935 330.092 151.191 341.44 161.174Z" fill="#FF725E"/>
<path d="M330.298 145.014C330.733 145.871 331.251 146.684 331.846 147.44L335.85 153.095L339.832 158.758C340.323 159.585 340.894 160.363 341.535 161.08C341.19 160.178 340.737 159.322 340.186 158.529C339.264 157.003 337.915 154.953 336.344 152.741C334.773 150.529 333.299 148.575 332.193 147.181C331.647 146.388 331.011 145.661 330.298 145.014Z" fill="#263238"/>
<path d="M343.4 201.332C343.4 201.332 345.708 185.251 335.673 177.678C335.595 177.617 335.501 177.578 335.403 177.567C335.304 177.556 335.204 177.572 335.114 177.614C335.024 177.656 334.947 177.722 334.892 177.805C334.837 177.888 334.806 177.984 334.803 178.084C334.759 180.686 335.43 188.48 343.4 201.332Z" fill="#FF725E"/>
<path d="M337.465 182.626C337.636 183.573 337.898 184.501 338.246 185.398L340.458 191.975L342.626 198.552C342.859 199.483 343.18 200.389 343.585 201.258C343.513 200.297 343.33 199.347 343.039 198.427C342.597 196.709 341.896 194.35 341.034 191.791C340.171 189.232 339.33 186.917 338.681 185.266C338.38 184.341 337.972 183.456 337.465 182.626Z" fill="#263238"/>
<path d="M333.137 241.329C333.137 241.329 334.87 225.174 324.57 217.963C324.489 217.906 324.394 217.873 324.295 217.866C324.197 217.86 324.099 217.881 324.011 217.926C323.923 217.972 323.85 218.041 323.799 218.125C323.748 218.21 323.721 218.307 323.722 218.406C323.766 221.008 324.717 228.773 333.137 241.329Z" fill="#FF725E"/>
<path d="M326.509 222.854C326.704 223.794 326.998 224.711 327.386 225.589C328.079 227.462 328.898 229.659 329.805 232.085L332.201 238.581C332.466 239.505 332.819 240.401 333.255 241.257C333.152 240.298 332.934 239.355 332.607 238.448C332.105 236.738 331.324 234.408 330.395 231.871C329.465 229.335 328.514 227.064 327.806 225.434C327.469 224.53 327.034 223.664 326.509 222.854Z" fill="#263238"/>
<path d="M355.685 111.412C355.685 111.412 370.313 104.348 370.999 91.7912C371.005 91.6922 370.983 91.5936 370.937 91.506C370.89 91.4185 370.82 91.3456 370.735 91.2952C370.65 91.2449 370.552 91.2191 370.453 91.2208C370.354 91.2224 370.257 91.2514 370.173 91.3046C367.983 92.7129 361.9 97.6235 355.685 111.412Z" fill="#FF725E"/>
<path d="M367.873 96.0166C367.176 96.687 366.551 97.4284 366.008 98.2286L361.798 103.692L357.543 109.156C356.902 109.873 356.329 110.648 355.833 111.471C356.592 110.876 357.277 110.193 357.875 109.436C359.062 108.109 360.625 106.214 362.299 104.061C363.973 101.908 365.388 99.9245 366.399 98.4645C366.977 97.704 367.471 96.8833 367.873 96.0166Z" fill="#263238"/>
<path d="M339.176 144.203C339.176 144.203 354.211 138.046 355.656 125.556C355.668 125.457 355.653 125.357 355.612 125.266C355.571 125.175 355.506 125.097 355.423 125.042C355.341 124.986 355.244 124.954 355.145 124.95C355.045 124.945 354.946 124.969 354.859 125.018C352.588 126.293 346.218 130.82 339.176 144.203Z" fill="#FF725E"/>
<path d="M352.279 129.573C351.545 130.198 350.875 130.894 350.281 131.653L345.724 136.865C344.013 138.812 342.465 140.552 341.153 142.071C340.468 142.751 339.846 143.491 339.294 144.283C340.091 143.739 340.819 143.1 341.462 142.381C342.723 141.127 344.412 139.328 346.181 137.286C347.951 135.243 349.521 133.341 350.605 131.94C351.252 131.218 351.813 130.423 352.279 129.573Z" fill="#263238"/>
<path d="M346.535 181.6C346.535 181.6 357.109 169.264 352.707 157.489C352.673 157.396 352.614 157.314 352.536 157.252C352.459 157.19 352.366 157.151 352.267 157.139C352.169 157.127 352.069 157.142 351.979 157.183C351.888 157.224 351.811 157.289 351.756 157.371C350.318 159.539 346.705 166.477 346.535 181.6Z" fill="#FF725E"/>
<path d="M351.534 162.613C351.178 163.504 350.911 164.428 350.737 165.371C350.251 167.303 349.683 169.574 349.056 172.088C348.429 174.602 347.84 176.866 347.353 178.798C347.053 179.71 346.836 180.648 346.704 181.6C347.164 180.753 347.52 179.855 347.766 178.923C348.319 177.227 348.99 174.868 349.646 172.235C350.302 169.603 350.818 167.207 351.121 165.459C351.364 164.529 351.502 163.574 351.534 162.613Z" fill="#263238"/>
<path d="M335.069 224.962C335.069 224.962 350 218.555 351.224 206.042C351.236 205.944 351.221 205.844 351.179 205.754C351.138 205.664 351.072 205.587 350.989 205.533C350.906 205.478 350.809 205.448 350.71 205.445C350.611 205.443 350.513 205.468 350.428 205.519C348.179 206.831 341.889 211.462 335.069 224.962Z" fill="#FF725E"/>
<path d="M347.921 210.127C347.199 210.763 346.542 211.47 345.959 212.236L341.491 217.5L337.001 222.772C336.334 223.457 335.728 224.197 335.187 224.984C335.975 224.428 336.69 223.777 337.318 223.045C338.564 221.769 340.208 219.948 341.956 217.884C343.703 215.819 345.222 213.887 346.299 212.472C346.925 211.753 347.469 210.966 347.921 210.127Z" fill="#263238"/>
<path d="M307.787 160.204C307.77 160.321 307.77 160.44 307.787 160.557C307.787 160.838 307.787 161.184 307.787 161.597C307.787 162.57 307.787 163.89 307.839 165.542C307.92 169.007 308.031 173.837 308.163 179.625C309.026 185.524 311.813 192.16 315.632 198.589C318.434 203.345 321.391 207.673 323.927 211.699C326.236 215.226 328.296 218.909 330.092 222.722C331.274 225.3 332.212 227.984 332.893 230.737C333.122 231.71 333.292 232.477 333.387 233.001C333.424 233.269 333.488 233.534 333.579 233.79C333.587 233.518 333.565 233.246 333.513 232.978C333.454 232.448 333.321 231.673 333.129 230.685C332.526 227.899 331.639 225.181 330.482 222.575C328.725 218.726 326.687 215.012 324.385 211.463C321.863 207.408 318.921 203.072 316.134 198.346C312.337 191.924 309.557 185.42 308.65 179.603V179.64C308.429 173.859 308.237 169.022 308.104 165.557C308.023 163.912 307.964 162.607 307.913 161.619C307.913 161.206 307.861 160.882 307.839 160.587C307.817 160.292 307.802 160.196 307.787 160.204Z" fill="#263238"/>
<path d="M315.382 197.402C315.382 197.402 309.623 182.213 317.771 172.635C317.834 172.558 317.918 172.501 318.012 172.469C318.106 172.437 318.207 172.432 318.304 172.454C318.401 172.476 318.49 172.525 318.561 172.594C318.633 172.664 318.683 172.752 318.707 172.849C319.319 175.378 320.359 183.127 315.382 197.402Z" fill="#FF725E"/>
<path d="M317.137 177.847C316.835 178.762 316.64 179.71 316.555 180.671C316.275 182.426 315.95 184.859 315.67 187.557C315.39 190.256 315.228 192.719 315.169 194.481C315.085 195.442 315.112 196.409 315.25 197.364C315.453 196.425 315.569 195.47 315.596 194.51C315.795 192.52 316.024 190.19 316.275 187.616C316.525 185.043 316.776 182.713 316.975 180.722C317.125 179.772 317.179 178.808 317.137 177.847Z" fill="#263238"/>
<g opacity="0.3">
<path d="M315.382 197.402C315.382 197.402 309.623 182.213 317.771 172.635C317.834 172.558 317.918 172.501 318.012 172.469C318.106 172.437 318.207 172.432 318.304 172.454C318.401 172.476 318.49 172.525 318.561 172.594C318.633 172.664 318.683 172.752 318.707 172.849C319.319 175.378 320.359 183.127 315.382 197.402Z" fill="black"/>
</g>
<path d="M333.535 234.149C333.535 234.149 329.03 218.54 337.922 209.655C337.993 209.585 338.081 209.535 338.177 209.512C338.274 209.488 338.375 209.491 338.47 209.521C338.565 209.55 338.65 209.605 338.716 209.68C338.782 209.754 338.826 209.845 338.844 209.943C339.25 212.516 339.677 220.324 333.535 234.149Z" fill="#FF725E"/>
<path d="M336.868 214.802C336.493 215.689 336.22 216.617 336.057 217.567C335.636 219.292 335.12 221.688 334.619 224.358C334.117 227.027 333.756 229.453 333.557 231.215C333.388 232.166 333.338 233.134 333.409 234.098C333.683 233.178 333.876 232.235 333.985 231.281C334.339 229.32 334.759 227.012 335.216 224.468C335.673 221.924 336.116 219.617 336.477 217.655C336.702 216.72 336.833 215.764 336.868 214.802Z" fill="#263238"/>
<g opacity="0.3">
<path d="M333.536 234.15C333.536 234.15 329.031 218.541 337.923 209.656C337.993 209.586 338.081 209.536 338.178 209.513C338.274 209.489 338.376 209.492 338.47 209.522C338.565 209.551 338.65 209.606 338.716 209.681C338.782 209.755 338.826 209.846 338.845 209.944C339.25 212.517 339.678 220.325 333.536 234.15Z" fill="black"/>
</g>
<path d="M308.023 178.828C308.023 178.828 295.017 169.095 296.757 156.641C296.768 156.543 296.807 156.451 296.867 156.373C296.928 156.296 297.008 156.236 297.1 156.201C297.192 156.166 297.292 156.157 297.389 156.175C297.485 156.193 297.576 156.237 297.649 156.302C299.537 158.123 304.573 164.11 308.023 178.828Z" fill="#FF725E"/>
<g opacity="0.3">
<path d="M308.023 178.828C308.023 178.828 295.017 169.095 296.757 156.641C296.768 156.543 296.807 156.451 296.867 156.373C296.928 156.296 297.008 156.236 297.1 156.201C297.192 156.166 297.292 156.157 297.389 156.175C297.485 156.193 297.576 156.237 297.649 156.302C299.537 158.123 304.573 164.11 308.023 178.828Z" fill="black"/>
</g>
<path d="M299.013 161.382C299.256 162.316 299.6 163.221 300.038 164.08C300.775 165.71 301.778 167.937 302.987 170.363C304.197 172.788 305.369 174.941 306.276 176.475C306.722 177.332 307.267 178.133 307.898 178.864C307.563 177.962 307.146 177.094 306.652 176.269L303.548 170.09C302.383 167.775 301.336 165.666 300.444 163.896C300.052 163.012 299.573 162.17 299.013 161.382Z" fill="#263238"/>
<path d="M328.654 218.665C328.654 218.665 312.69 215.65 308.746 203.712C308.713 203.618 308.707 203.517 308.728 203.42C308.749 203.323 308.796 203.234 308.865 203.162C308.933 203.09 309.021 203.039 309.117 203.014C309.213 202.989 309.314 202.99 309.409 203.019C311.909 203.815 319.068 206.971 328.654 218.665Z" fill="#FF725E"/>
<g opacity="0.3">
<path d="M328.655 218.665C328.655 218.665 312.691 215.65 308.747 203.712C308.714 203.618 308.707 203.517 308.729 203.42C308.75 203.323 308.797 203.234 308.866 203.162C308.934 203.09 309.022 203.039 309.118 203.014C309.214 202.989 309.315 202.99 309.41 203.019C311.91 203.815 319.069 206.971 328.655 218.665Z" fill="black"/>
</g>
<path d="M312.883 206.972C313.507 207.705 314.212 208.366 314.985 208.94C316.341 210.091 318.244 211.632 320.404 213.276C322.565 214.92 324.563 216.343 326.052 217.316C326.825 217.893 327.664 218.376 328.552 218.754C327.859 218.088 327.103 217.491 326.295 216.97L320.773 212.797L315.25 208.601C314.519 207.978 313.726 207.432 312.883 206.972Z" fill="#263238"/>
<path d="M343.025 248.667L345.532 270.198H318.943L322.32 248.019L343.025 248.667Z" fill="#455A64"/>
<path d="M320.846 257.737C320.846 257.906 326.103 258.209 332.599 258.415C339.095 258.622 344.397 258.651 344.397 258.482C344.397 258.312 339.139 258.017 332.644 257.811C326.148 257.604 320.854 257.575 320.846 257.737Z" fill="#263238"/>
<path d="M320.19 260.267C320.19 260.436 325.617 260.739 332.326 260.953C339.036 261.166 344.478 261.203 344.485 261.034C344.492 260.864 339.051 260.562 332.341 260.348C325.631 260.134 320.197 260.06 320.19 260.267Z" fill="#263238"/>
<path d="M128.505 95.5676C127.996 94.4106 127.144 93.4377 126.064 92.7805C125.033 92.096 123.814 91.7506 122.577 91.7925C121.924 91.8371 121.288 92.0129 120.705 92.3093C120.122 92.6058 119.605 93.0168 119.185 93.5178C118.686 94.1189 118.342 94.8327 118.182 95.5971C117.675 95.1068 117.065 94.7343 116.398 94.5059C115.776 94.2994 115.12 94.2204 114.467 94.2736C113.815 94.3269 113.18 94.5112 112.6 94.8155C111.524 95.4285 110.667 96.3649 110.152 97.4921C109.578 98.6168 109.364 99.8913 109.54 101.142C109.793 102.733 110.551 104.201 111.701 105.33C112.973 106.434 114.489 107.22 116.125 107.623C118.816 108.36 122.333 109.23 122.333 109.23C122.333 109.23 124.346 106.591 126.248 104.556C127.442 103.353 128.329 101.881 128.837 100.264C129.233 98.7038 129.117 97.057 128.505 95.5676Z" fill="#FF725E"/>
<path d="M346.165 17.1372C346.864 15.1388 346.931 12.974 346.357 10.9362C345.866 8.92813 344.761 7.12359 343.194 5.77485C341.837 4.65635 340.15 4.01682 338.393 3.95549C336.635 3.89417 334.907 4.41447 333.476 5.43568C333.411 4.25382 333.086 3.10084 332.525 2.05868C331.997 1.09794 331.281 0.25345 330.42 -0.424327C329.558 -1.1021 328.569 -1.59925 327.511 -1.88606C325.492 -2.36088 323.375 -2.19068 321.457 -1.39941C319.471 -0.669433 317.756 0.653618 316.547 2.39049C315.045 4.62984 314.301 7.29159 314.423 9.98504C314.728 12.8068 315.704 15.5145 317.269 17.8819C319.739 21.8414 323.057 26.929 323.057 26.929C323.057 26.929 328.543 25.9852 333.196 25.6608C336.032 25.5391 338.798 24.7401 341.262 23.3308C343.521 21.8487 345.241 19.6763 346.165 17.1372Z" fill="#FF725E"/>
<path d="M307.286 102.307C307.477 101.207 307.328 100.075 306.858 99.0625C306.436 98.0543 305.709 97.2034 304.779 96.6293C303.978 96.1611 303.046 95.9702 302.126 96.0861C301.206 96.2021 300.35 96.6186 299.691 97.2708C299.559 96.6591 299.292 96.0846 298.91 95.5897C298.554 95.1322 298.109 94.7518 297.602 94.4716C297.095 94.1915 296.537 94.0175 295.96 93.9602C294.872 93.8784 293.785 94.136 292.849 94.6975C291.886 95.2505 291.114 96.0839 290.637 97.0865C290.04 98.3766 289.877 99.8251 290.172 101.216C290.566 102.66 291.302 103.988 292.318 105.087C293.932 106.945 296.086 109.311 296.086 109.311C296.086 109.311 298.865 108.36 301.247 107.8C302.711 107.494 304.083 106.847 305.251 105.912C306.294 104.956 307.006 103.694 307.286 102.307Z" fill="#FF725E"/>
<path d="M129.418 133.04C129.233 132.541 128.898 132.111 128.46 131.808C128.042 131.501 127.54 131.329 127.022 131.314C126.583 131.318 126.157 131.464 125.807 131.73C125.458 131.995 125.204 132.367 125.083 132.789C124.879 132.568 124.626 132.396 124.345 132.288C124.09 132.185 123.816 132.136 123.541 132.144C123.266 132.152 122.995 132.216 122.745 132.332C122.278 132.561 121.896 132.933 121.654 133.394C121.388 133.853 121.267 134.383 121.308 134.913C121.378 135.588 121.662 136.224 122.119 136.727C122.631 137.221 123.252 137.587 123.932 137.796C125.046 138.164 126.506 138.614 126.506 138.614C126.506 138.614 127.413 137.552 128.261 136.741C128.791 136.265 129.198 135.668 129.448 135.001C129.647 134.361 129.637 133.674 129.418 133.04Z" fill="#FF725E"/>
<path d="M90.679 158.263C90.49 157.768 90.1559 157.341 89.7205 157.039C89.2919 156.726 88.7766 156.553 88.2458 156.545C87.9691 156.549 87.6959 156.608 87.4426 156.72C87.1892 156.831 86.9609 156.992 86.7711 157.194C86.5504 157.435 86.3911 157.726 86.3066 158.042C86.1033 157.819 85.8508 157.648 85.5693 157.54C85.3137 157.438 85.0399 157.389 84.7647 157.397C84.4895 157.404 84.2188 157.468 83.9693 157.585C83.5034 157.816 83.1217 158.187 82.878 158.646C82.6104 159.105 82.4919 159.636 82.5388 160.165C82.6094 160.841 82.8935 161.476 83.3499 161.979C83.8609 162.475 84.4827 162.841 85.1637 163.048C86.2771 163.417 87.7297 163.867 87.7297 163.867C87.7297 163.867 88.644 162.805 89.4919 161.994C90.0193 161.517 90.4239 160.92 90.6716 160.254C90.8894 159.608 90.892 158.91 90.679 158.263Z" fill="#FF725E"/>
<path d="M314.874 129.633C314.686 129.137 314.352 128.71 313.915 128.409C313.49 128.089 312.973 127.913 312.441 127.907C312.003 127.913 311.578 128.059 311.23 128.325C310.882 128.59 310.629 128.961 310.509 129.382C310.221 129.068 309.84 128.855 309.422 128.772C309.005 128.69 308.571 128.744 308.186 128.925C307.718 129.156 307.334 129.527 307.087 129.987C306.826 130.448 306.708 130.977 306.748 131.505C306.817 132.181 307.102 132.817 307.559 133.319C308.07 133.815 308.692 134.181 309.373 134.388C310.487 134.757 311.947 135.207 311.947 135.207C311.947 135.207 312.853 134.145 313.701 133.334C314.23 132.857 314.637 132.26 314.888 131.594C315.089 130.955 315.084 130.269 314.874 129.633Z" fill="#FF725E"/>
<path d="M168.166 59.867C162.747 56.9177 154.334 56.9177 148.428 65.139C142.374 73.552 144.601 80.1069 146.113 86.9936C146.924 90.6803 148.657 94.625 147.167 98.12C145.574 101.873 141.047 103.281 138.061 106.046C136.289 107.756 135.076 109.962 134.581 112.375C134.087 114.787 134.333 117.292 135.289 119.562C137.427 124.376 142.662 127.547 143.938 132.649C145.044 137 142.927 141.586 139.971 144.963C137.014 148.34 133.224 150.898 130.083 154.091C126.942 157.284 124.28 161.464 124.538 165.888C124.885 171.787 129.987 176.211 134.758 179.691C137.626 181.808 140.583 183.909 143.945 185.089C151.842 187.861 172.738 191.319 180.369 187.891C191.776 182.729 198.633 172.045 206.11 162.017C215.098 149.955 220.724 125.151 206.722 110.057" fill="#263238"/>
<path d="M128.8 173.683C128.591 173.331 128.404 172.966 128.239 172.591C127.713 171.521 127.431 170.348 127.414 169.155C127.414 167.578 128.394 165.786 129.935 164.245C131.713 162.508 133.788 161.104 136.063 160.101C138.54 158.907 141.401 157.977 144.372 156.761C147.344 155.544 150.47 153.981 152.822 151.26C154.042 149.903 154.928 148.279 155.41 146.519C155.859 144.669 155.754 142.728 155.108 140.938C154.416 139.076 153.518 137.298 152.431 135.636C151.287 133.904 150.3 132.073 149.482 130.165C148.642 128.226 148.329 126.1 148.575 124.001C148.734 122.965 149.128 121.979 149.725 121.118C150.331 120.286 151.08 119.57 151.937 119.002C153.574 117.852 155.351 117.048 156.774 115.846C158.174 114.681 159.093 113.04 159.355 111.238C159.604 109.518 159.437 107.763 158.868 106.121C158.325 104.569 157.605 103.084 156.723 101.697C155.034 98.9685 153.154 96.6312 151.561 94.4192C148.928 90.9656 146.876 87.1052 145.486 82.9905C145.099 81.8779 144.813 80.7329 144.63 79.5692C144.562 79.1624 144.53 78.7504 144.534 78.3379C144.534 78.3379 144.579 78.7582 144.726 79.5545C144.945 80.7033 145.256 81.8326 145.655 82.9315C147.099 87.0008 149.182 90.814 151.827 94.2275C153.449 96.4395 155.351 98.7547 157.069 101.498C157.979 102.911 158.721 104.425 159.281 106.01C159.88 107.712 160.057 109.534 159.797 111.319C159.533 113.225 158.565 114.964 157.084 116.193C155.609 117.454 153.81 118.265 152.232 119.385C151.426 119.923 150.724 120.602 150.16 121.391C149.599 122.195 149.233 123.119 149.091 124.09C148.864 126.099 149.167 128.132 149.969 129.988C150.791 131.868 151.778 133.672 152.918 135.378C154.02 137.074 154.93 138.886 155.631 140.783C156.303 142.655 156.409 144.684 155.934 146.615C155.43 148.44 154.506 150.122 153.235 151.526C150.802 154.32 147.572 155.883 144.608 157.1C141.644 158.317 138.761 159.216 136.291 160.381C134.044 161.356 131.987 162.722 130.215 164.414C128.674 165.889 127.716 167.622 127.686 169.148C127.689 170.318 127.941 171.474 128.424 172.54C128.652 173.262 128.844 173.668 128.8 173.683Z" fill="#455A64"/>
<path d="M144.46 79.1932C144.406 79.0813 144.368 78.9621 144.349 78.8393C144.262 78.5016 144.193 78.1595 144.143 77.8144C143.962 76.5328 143.962 75.2323 144.143 73.9507C144.407 72.042 145.025 70.1992 145.964 68.5166C147.092 66.4275 148.725 64.6534 150.713 63.3555C152.701 62.0575 154.982 61.2768 157.348 61.0843C159.266 60.9008 161.202 61.0758 163.055 61.6004C164.302 61.9477 165.493 62.469 166.595 63.1488C166.892 63.3323 167.178 63.5342 167.45 63.7534C167.552 63.8211 167.646 63.9003 167.73 63.9894C166.242 63.0898 164.64 62.393 162.967 61.9174C161.149 61.4473 159.26 61.3074 157.393 61.5045C155.099 61.7121 152.891 62.4794 150.962 63.7393C149.034 64.9991 147.444 66.713 146.333 68.7304C145.397 70.3603 144.765 72.1466 144.467 74.0024C144.229 75.7243 144.227 77.4706 144.46 79.1932Z" fill="#455A64"/>
<path d="M207.782 71.9456L244.458 135.578L217.913 155.596L201.795 132.518C201.795 132.518 188.037 139.309 179.166 127.017C172.98 118.135 167.48 108.792 162.717 99.0722C155.196 83.5881 159.642 70.7216 172.648 63.0386C185.441 55.4956 200.158 59.2339 207.782 71.9456Z" fill="#B78876"/>
<path d="M201.441 132.355C201.441 132.355 209.729 127.482 214.382 116.399C214.382 116.399 216.837 128.005 203.676 135.57L201.441 132.355Z" fill="#A36957"/>
<path d="M194.908 84.4C194.532 84.3041 193.788 86.2064 191.819 87.4452C189.85 88.6839 187.778 88.6102 187.719 88.9862C187.719 89.1632 188.184 89.4433 189.105 89.5023C190.33 89.5578 191.541 89.2305 192.571 88.5659C193.597 87.9222 194.392 86.9696 194.842 85.8452C195.159 84.9972 195.085 84.4368 194.908 84.4Z" fill="#263238"/>
<path d="M175.355 95.629C174.979 95.5405 174.234 97.4428 172.266 98.6815C170.297 99.9202 168.225 99.8465 168.166 100.223C168.166 100.392 168.631 100.68 169.552 100.739C170.776 100.79 171.986 100.463 173.018 99.8023C174.046 99.1578 174.841 98.2021 175.289 97.0741C175.598 96.2336 175.532 95.6658 175.355 95.629Z" fill="#263238"/>
<path d="M193.124 111.245C192.859 111.052 192.638 110.804 192.478 110.518C192.317 110.231 192.221 109.913 192.195 109.586C192.15 108.933 192.203 108.277 192.35 107.64C192.419 106.802 192.721 106 193.22 105.324C193.746 104.807 194.422 104.469 195.152 104.358C195.924 104.149 196.742 104.19 197.489 104.476C198.033 104.767 198.471 105.221 198.744 105.773C199.016 106.326 199.109 106.95 199.008 107.558C198.887 108.162 198.631 108.731 198.259 109.223C197.888 109.714 197.41 110.116 196.862 110.397C195.756 110.946 194.527 111.2 193.294 111.135" fill="#A36957"/>
<path d="M194.555 102.959C194.238 103.158 195.683 105.23 194.945 107.943C194.208 110.656 191.841 111.976 191.996 112.278C192.055 112.426 192.77 112.337 193.714 111.703C194.94 110.873 195.831 109.635 196.228 108.208C196.615 106.837 196.451 105.368 195.771 104.116C195.277 103.217 194.687 102.848 194.555 102.959Z" fill="#263238"/>
<path d="M193.522 79.3049C193.087 78.7887 191.008 79.8652 188.324 80.4846C185.64 81.104 183.31 81.1556 183.163 81.8118C183.104 82.1215 183.664 82.5491 184.711 82.8293C186.086 83.1305 187.512 83.1151 188.88 82.7843C190.248 82.4534 191.523 81.8158 192.608 80.9196C193.412 80.197 193.685 79.5556 193.522 79.3049Z" fill="#263238"/>
<path d="M168.763 88.6816C168.092 88.6373 167.443 90.2005 166.183 91.6678C164.922 93.1351 163.55 94.101 163.72 94.7499C163.808 95.0522 164.376 95.207 165.195 95.0079C166.281 94.6887 167.247 94.0532 167.971 93.1826C168.694 92.312 169.142 91.2456 169.257 90.1194C169.353 89.2493 169.073 88.7184 168.763 88.6816Z" fill="#263238"/>
<path d="M188.199 106.049C188.148 105.931 186.798 106.366 184.667 107.155C184.129 107.369 183.598 107.517 183.325 107.214C183.009 106.713 182.855 106.126 182.883 105.533C182.713 104.058 182.544 102.51 182.36 100.881C181.571 94.2888 180.715 88.9726 180.45 89.0021C180.184 89.0316 180.612 94.4141 181.401 101.006C181.607 102.628 181.807 104.176 181.998 105.651C181.988 106.426 182.249 107.179 182.736 107.782C182.904 107.921 183.101 108.021 183.313 108.074C183.524 108.128 183.745 108.134 183.96 108.092C184.28 108.015 184.592 107.904 184.889 107.76C186.997 106.816 188.251 106.167 188.199 106.049Z" fill="#263238"/>
<path d="M217.906 100.142C217.272 103.829 217.979 107.995 218.105 111.763C218.23 115.53 219.646 119.512 222.824 121.517C226.002 123.523 230.735 123.604 232.232 127.018C232.866 128.493 232.675 130.152 233.11 131.671C233.744 133.883 235.668 135.549 237.792 136.441C238.307 136.659 238.837 136.841 239.377 136.987L242.26 141.934C245.821 148.054 249.773 154.521 256.203 157.477C257.94 158.318 259.829 158.802 261.757 158.898C263.685 158.994 265.613 158.702 267.425 158.038C271.001 156.615 273.855 153.238 274.201 149.403C274.459 146.491 273.346 143.623 273.302 140.703C273.206 134.613 277.726 128.78 276.251 122.882C274.422 115.678 265.036 113.237 261.35 106.785C259.816 104.094 259.388 100.887 257.891 98.1808C255.082 93.1079 249.206 90.7558 243.919 88.3595C242.12 87.5564 240.383 86.6224 238.721 85.565C238.985 85.3149 239.232 85.0463 239.458 84.7613C241.67 82.0037 241.773 77.8819 240.063 74.7851C239.158 73.2609 237.931 71.9529 236.468 70.953C235.004 69.9532 233.34 69.2856 231.591 68.9971C229.327 68.5841 226.864 68.6726 224.91 67.456C222.698 66.0993 221.585 63.3343 219.218 62.3389C217.463 61.6016 215.465 62.0514 213.563 62.1251C209.36 62.2947 204.84 59.2863 199.834 55.8061C196.258 52.8568 192.239 50.2835 187.675 50.0402C182.256 49.7526 177.293 52.8347 172.737 55.7988C168.608 58.49 163.977 62.1103 164.257 67.0357C169.743 76.3188 178.119 85.012 193.124 77.4838C196.582 75.7511 201.552 75.6478 204.132 78.5308C206.883 81.5981 205.349 87.6148 209.021 89.4802C209.791 89.8287 210.624 90.0193 211.469 90.0406C212.587 90.2899 213.631 90.7947 214.521 91.5153C214.521 91.5153 218.156 95.9467 217.906 100.142Z" fill="#263238"/>
<path d="M224.941 87.3181C224.941 87.3181 225.059 87.0969 225.155 86.6398C225.263 85.9719 225.138 85.2873 224.801 84.7006C224.273 83.7711 223.411 83.0777 222.39 82.7614C221.017 82.3627 219.618 82.0645 218.202 81.8692C217.36 81.7162 216.55 81.422 215.806 80.9992C215.008 80.5043 214.343 79.8238 213.866 79.0157C212.849 77.3715 212.392 75.3291 211.654 73.4194C210.793 71.329 209.441 69.4771 207.712 68.0203C205.983 66.5635 203.929 65.5449 201.722 65.0506C200.57 64.787 199.387 64.6755 198.205 64.7188C197.056 64.7839 195.918 64.9819 194.814 65.3087C192.602 65.9428 190.626 66.8866 188.635 67.6239C186.744 68.359 184.757 68.8184 182.736 68.988C180.983 69.1083 179.221 69.0043 177.494 68.6783C174.994 68.2151 172.607 67.271 170.467 65.8986C169.884 65.5295 169.327 65.1205 168.8 64.6746C168.613 64.5263 168.436 64.3662 168.27 64.1953C168.48 64.3094 168.678 64.4453 168.859 64.6008C169.407 65.0117 169.975 65.3931 170.563 65.7437C172.71 67.0408 175.081 67.926 177.553 68.3539C179.256 68.6549 180.99 68.7391 182.714 68.6046C184.686 68.4174 186.622 67.9532 188.465 67.2258C190.426 66.4884 192.439 65.5299 194.666 64.8737C195.804 64.5376 196.977 64.3323 198.161 64.2617C199.385 64.2134 200.61 64.3275 201.804 64.6008C204.081 65.111 206.2 66.1658 207.98 67.6747C209.76 69.1837 211.147 71.1018 212.023 73.2645C212.76 75.2553 213.181 77.2388 214.139 78.8167C214.58 79.5781 215.197 80.2228 215.938 80.6969C216.649 81.1038 217.421 81.3927 218.224 81.5522C219.65 81.7681 221.057 82.091 222.434 82.5181C223.497 82.879 224.382 83.6302 224.912 84.6195C225.248 85.2444 225.347 85.9696 225.192 86.6619C225.156 86.896 225.071 87.1198 224.941 87.3181Z" fill="#455A64"/>
<path d="M204.007 58.6218C203.926 58.5086 203.862 58.3844 203.816 58.2531C203.67 57.8891 203.498 57.5366 203.299 57.1987C202.998 56.6544 202.618 56.1575 202.171 55.7241C201.565 55.1922 200.817 54.8489 200.018 54.736C198.227 54.4706 196.103 55.3701 194.201 56.8153C192.298 58.2605 189.917 59.6393 187.506 61.114C183.265 63.5257 178.418 64.6601 173.548 64.3804C172.085 64.2996 170.633 64.0799 169.212 63.7241C168.711 63.6062 168.328 63.4735 168.069 63.3924C167.933 63.3569 167.802 63.3049 167.679 63.2375C168.208 63.3113 168.733 63.4171 169.249 63.5546C170.671 63.836 172.114 64.0037 173.563 64.0559C178.356 64.2387 183.105 63.0821 187.277 60.7158C189.666 59.2411 191.981 57.8771 193.913 56.4761C195.845 55.0752 198.109 54.0872 200.033 54.419C200.886 54.5543 201.678 54.945 202.304 55.5397C202.757 55.9915 203.133 56.5146 203.417 57.0881C203.601 57.442 203.752 57.8123 203.867 58.1941C203.934 58.3294 203.981 58.4734 204.007 58.6218Z" fill="#455A64"/>
<path d="M280.949 179.773C272.786 183.46 269.291 185.171 261.129 186.144V186.247L250.275 160.19C251.433 159.113 252.76 157.808 254.25 156.208C255.526 154.828 256.556 153.24 257.295 151.511C258.202 149.417 259.286 146.586 259.404 144.875C259.544 142.73 262.22 141.874 263.267 143.519C264.314 145.163 264.071 151.091 260.768 157.174C257.464 163.257 267.536 159.113 271.238 157.661L280.949 179.773Z" fill="#FFBE9D"/>
<path d="M215.067 144.735C217.059 142.176 219.549 140.046 222.386 138.475C225.223 136.904 228.349 135.923 231.576 135.592C237.43 134.907 242.304 134.258 248.018 136.802C260.759 142.479 262.765 149.535 269.556 161.709C274.85 171.176 278.183 187.98 276.502 204.931C274.806 222.148 271.783 244.01 271.783 244.01L288.402 270.193H202.458V220.519L173.909 202.085L215.067 144.735Z" fill="#455A64"/>
<path d="M272.992 163.523L268.723 171.552C268.03 172.857 267.042 174.347 265.567 174.317C264.218 174.317 263.23 172.88 263.171 171.53C263.235 170.179 263.633 168.864 264.329 167.703L269.165 157.934L269.438 157.027C269.438 157.027 270.994 154.365 272.83 155.287C274.504 156.12 275.175 159.416 272.992 163.523Z" fill="#FFBE9D"/>
<path d="M276.03 170.138C274.614 172.812 273.193 175.489 271.768 178.168C271.075 179.473 270.087 180.962 268.605 180.933C267.255 180.933 266.275 179.495 266.216 178.153C266.273 176.799 266.668 175.481 267.366 174.319L272.21 164.549L272.483 163.642C272.483 163.642 274.032 160.98 275.875 161.902C277.549 162.735 278.212 166.031 276.03 170.138Z" fill="#FFBE9D"/>
<path d="M278.898 176.949L274.85 184.566C274.194 185.797 273.257 187.213 271.856 187.183C270.581 187.183 269.644 185.826 269.585 184.544C269.644 183.262 270.022 182.015 270.684 180.916C272.208 177.829 273.737 174.742 275.27 171.655L275.528 170.792C275.528 170.792 277.003 168.271 278.743 169.141C280.336 169.922 280.963 173.041 278.898 176.949Z" fill="#FFBE9D"/>
<path d="M281.509 180.275L278.479 185.945C277.985 186.866 277.292 187.913 276.267 187.891C275.795 187.825 275.364 187.59 275.053 187.229C274.742 186.868 274.574 186.406 274.578 185.93C274.621 184.974 274.902 184.043 275.397 183.224L278.811 176.323L279.002 175.681C279.002 175.681 280.101 173.801 281.399 174.45C282.696 175.099 283.05 177.37 281.509 180.275Z" fill="#FFBE9D"/>
<path d="M273.553 161.981C273.401 162.417 273.211 162.839 272.986 163.242L271.29 166.619L268.716 171.596C268.279 172.662 267.541 173.579 266.593 174.235C266.309 174.392 265.996 174.486 265.673 174.513C265.35 174.54 265.025 174.498 264.72 174.39C264.106 174.158 263.587 173.727 263.245 173.166C262.954 172.619 262.781 172.016 262.738 171.398C262.695 170.779 262.782 170.158 262.995 169.576C263.391 168.532 263.864 167.519 264.41 166.545C265.384 164.702 266.261 163.021 267.013 161.583C267.765 160.145 268.34 159.12 268.797 158.257C269.007 157.84 269.254 157.443 269.535 157.07C269.389 157.509 269.203 157.933 268.982 158.339L267.323 161.738C266.585 163.212 265.745 164.879 264.808 166.744C264.284 167.692 263.83 168.678 263.452 169.693C263.25 170.217 263.161 170.777 263.19 171.337C263.22 171.898 263.366 172.445 263.621 172.945C263.876 173.422 264.305 173.782 264.818 173.951C265.332 174.12 265.891 174.085 266.379 173.852C267.244 173.235 267.92 172.39 268.333 171.411L270.995 166.479C271.732 165.137 272.351 164.031 272.823 163.175C273.032 162.757 273.276 162.358 273.553 161.981Z" fill="#EB996E"/>
<path d="M276.532 169.067C276.385 169.504 276.197 169.926 275.971 170.327C275.529 171.198 274.954 172.333 274.268 173.704L271.695 178.682C271.257 179.748 270.519 180.665 269.571 181.321C269.287 181.477 268.974 181.572 268.651 181.599C268.329 181.625 268.004 181.583 267.698 181.476C267.084 181.244 266.565 180.813 266.224 180.252C265.934 179.696 265.766 179.086 265.731 178.46C265.695 177.835 265.793 177.209 266.017 176.624C266.408 175.58 266.879 174.566 267.425 173.594C268.399 171.751 269.276 170.069 270.028 168.632C270.78 167.194 271.355 166.169 271.82 165.306C272.028 164.888 272.275 164.491 272.557 164.119C272.411 164.557 272.226 164.982 272.004 165.387L270.345 168.786L267.838 173.793C267.311 174.741 266.855 175.727 266.474 176.742C266.273 177.266 266.184 177.826 266.214 178.386C266.243 178.946 266.389 179.494 266.644 179.994C266.899 180.471 267.327 180.831 267.841 181C268.355 181.169 268.913 181.133 269.402 180.901C270.266 180.284 270.943 179.439 271.355 178.46C272.351 176.624 273.243 174.958 274.017 173.528L275.846 170.224C276.046 169.822 276.275 169.435 276.532 169.067Z" fill="#EB996E"/>
<path d="M279.953 174.319C279.797 174.759 279.609 175.188 279.393 175.602L277.852 179.089C277.203 180.564 276.451 182.334 275.485 184.251C275.044 185.321 274.345 186.266 273.45 187.001C273.18 187.184 272.874 187.309 272.553 187.367C272.232 187.425 271.902 187.416 271.585 187.34C270.94 187.163 270.377 186.766 269.992 186.219C269.665 185.676 269.463 185.067 269.4 184.435C269.338 183.804 269.416 183.167 269.631 182.57C270.01 181.506 270.481 180.477 271.039 179.495C272.02 177.63 272.904 175.934 273.664 174.481C274.423 173.029 275.006 171.989 275.47 171.119C275.678 170.696 275.925 170.294 276.208 169.917C276.057 170.359 275.869 170.789 275.647 171.2L273.974 174.629L271.43 179.694C270.893 180.653 270.441 181.657 270.08 182.695C269.889 183.227 269.816 183.795 269.869 184.358C269.921 184.921 270.096 185.466 270.383 185.954C270.705 186.409 271.174 186.739 271.71 186.89C271.967 186.955 272.235 186.965 272.495 186.918C272.756 186.87 273.004 186.768 273.221 186.618C274.056 185.933 274.707 185.051 275.116 184.052C276.097 182.172 276.879 180.424 277.564 178.964C278.25 177.504 278.825 176.332 279.253 175.535C279.443 175.106 279.678 174.699 279.953 174.319Z" fill="#EB996E"/>
<path d="M229.814 56.446L226.99 56.7188L211.278 87.9597L205.667 99.1008C204.302 101.292 202.748 103.36 201.021 105.28C194.489 112.432 175.539 122.592 175.539 122.592L211.993 142.604L231.392 129.206L231.444 129.25C231.444 129.25 245.542 135.297 253.748 122.548C261.955 109.8 278.228 78.8831 278.228 78.8831C272.887 71.1705 265.584 65.0242 257.073 61.0796C248.561 57.1351 239.151 55.5354 229.814 56.446Z" fill="#FFBE9D"/>
<path d="M231.606 129.075C227.807 127.511 224.449 125.04 221.823 121.88C219.198 118.72 217.385 114.966 216.543 110.944C216.543 110.944 214.441 124.703 227.986 131.59L231.606 129.075Z" fill="#EB996E"/>
<path d="M220.229 71.0181C220.074 70.7896 213.04 62.9074 207.82 71.8366C202.599 80.7657 213.35 84.4671 213.519 84.2238C213.689 83.9805 220.229 71.0181 220.229 71.0181Z" fill="#FFBE9D"/>
<path d="M212.118 78.9488C212.118 78.8972 211.896 78.9488 211.565 78.9488C211.1 78.8938 210.676 78.658 210.385 78.2926C209.648 77.393 209.721 75.4317 210.613 73.7874C211.04 73.0082 211.635 72.3333 212.354 71.8114C212.6 71.5794 212.9 71.4111 213.226 71.3212C213.552 71.2312 213.896 71.2223 214.226 71.2953C214.433 71.3529 214.613 71.4809 214.736 71.6573C214.858 71.8336 214.916 72.0472 214.897 72.2612C214.897 72.5782 214.713 72.7257 214.75 72.7699C214.787 72.8142 215.03 72.7331 215.178 72.3202C215.258 72.0809 215.258 71.822 215.178 71.5828C215.11 71.4167 215.011 71.2658 214.884 71.1391C214.757 71.0125 214.606 70.9126 214.44 70.8455C214.03 70.7045 213.591 70.6705 213.164 70.7466C212.736 70.8227 212.336 71.0065 212 71.2805C211.163 71.8435 210.477 72.603 210.001 73.4925C209.013 75.3358 208.947 77.5626 210.001 78.6907C210.202 78.9012 210.447 79.0636 210.719 79.1658C210.991 79.268 211.283 79.3072 211.572 79.2806C211.963 79.1552 212.118 78.9857 212.118 78.9488Z" fill="#EB996E"/>
<path d="M256.565 90.9114C256.934 90.7861 257.833 92.6146 259.905 93.6764C261.977 94.7382 264.034 94.4875 264.123 94.8561C264.182 95.0257 263.702 95.3502 262.788 95.4903C261.573 95.6508 260.339 95.4292 259.256 94.8561C258.174 94.3085 257.298 93.4268 256.757 92.3418C256.358 91.5308 256.358 90.963 256.565 90.9114Z" fill="#263238"/>
<path d="M237.187 79.547C237.563 79.4438 238.352 81.324 240.358 82.4964C242.363 83.6688 244.421 83.5582 244.494 83.9711C244.531 84.1406 244.044 84.443 243.123 84.5241C241.898 84.6067 240.678 84.3107 239.628 83.6761C238.588 83.0569 237.77 82.1254 237.291 81.0143C236.922 80.1517 236.973 79.6208 237.187 79.547Z" fill="#263238"/>
<path d="M242.836 102.804C242.894 102.686 244.259 103.239 246.404 104.235C246.942 104.493 247.481 104.692 247.783 104.404C248.15 103.91 248.358 103.316 248.38 102.701C248.675 101.182 248.98 99.5895 249.295 97.9232C250.651 91.1618 251.964 85.7276 252.244 85.7866C252.524 85.8456 251.639 91.3756 250.29 98.137L249.295 102.893C249.232 103.698 248.887 104.455 248.321 105.031C248.137 105.166 247.924 105.256 247.698 105.294C247.473 105.333 247.242 105.318 247.024 105.252C246.697 105.152 246.385 105.011 246.095 104.832C244.023 103.689 242.777 102.922 242.836 102.804Z" fill="#263238"/>
<path d="M236.17 100.524C236.502 100.708 235.167 102.854 236.045 105.523C236.922 108.192 239.355 109.387 239.186 109.697C239.134 109.851 238.448 109.792 237.438 109.217C236.17 108.45 235.214 107.259 234.74 105.855C234.278 104.505 234.363 103.029 234.976 101.741C235.462 100.804 236.03 100.421 236.17 100.524Z" fill="#263238"/>
<path d="M250.201 76.25C249.67 76.6703 247.856 75.1809 245.364 74.038C242.872 72.8951 240.601 72.32 240.601 71.649C240.601 71.332 241.25 71.0297 242.326 70.9854C243.737 70.9637 245.133 71.2797 246.397 71.9071C247.672 72.5037 248.785 73.3991 249.641 74.5173C250.275 75.3578 250.459 76.0509 250.201 76.25Z" fill="#263238"/>
<path d="M267.33 89.295C266.703 89.5236 265.634 88.2037 264.012 87.1567C262.39 86.1097 260.804 85.5714 260.782 84.9005C260.782 84.5834 261.284 84.2737 262.154 84.2295C263.285 84.2295 264.392 84.5659 265.332 85.1961C266.272 85.8263 267.003 86.7218 267.433 87.7687C267.721 88.5871 267.625 89.2065 267.33 89.295Z" fill="#263238"/>
<path d="M289.539 74.7183C290.128 73.9787 290.52 73.1018 290.679 72.1696C290.837 71.2374 290.757 70.2802 290.445 69.3873C290.096 68.5084 289.444 67.7831 288.607 67.3423C287.771 66.9016 286.804 66.7744 285.881 66.9836C286.338 66.5227 286.693 65.9709 286.923 65.364C287.153 64.7571 287.253 64.1086 287.216 63.4606C287.179 62.8127 287.007 62.1797 286.709 61.6027C286.412 61.0258 285.997 60.5178 285.491 60.1117C283.478 58.637 280.698 59.1236 278.324 58.4158C275.949 57.708 274.18 55.9236 272.764 53.9918C271.348 52.06 270.228 49.8701 268.738 47.9604C265.602 43.9277 261.001 41.296 255.935 40.6374C250.869 39.9788 245.748 41.3466 241.685 44.4433C239.429 41.8036 235.344 41.2285 232.1 42.5262C228.856 43.8239 226.474 46.67 224.992 49.8037C224.034 51.9475 223.314 54.1902 222.847 56.4914C222.743 56.6536 222.625 56.8084 222.529 56.978C218.238 64.1228 213.836 72.9192 216.823 74.851C222.021 78.228 226.968 67.544 226.968 67.544C234.976 69.0924 238.626 57.9587 241.155 57.472C243.684 56.9854 249.192 55.7245 258.364 71.0758C261.933 77.0409 268.952 81.3174 273.295 82.8732L273.671 83.0133H273.76H273.9C275.315 83.4846 276.795 83.7334 278.287 83.7506C280.005 83.813 281.699 83.3276 283.124 82.3645C283.823 81.8701 284.364 81.1834 284.681 80.3876C284.998 79.5918 285.077 78.7212 284.908 77.8815C286.73 77.3066 288.341 76.2061 289.539 74.7183Z" fill="#263238"/>
<path d="M279.009 71.3642C278.767 71.2276 278.556 71.0417 278.39 70.8186C277.911 70.168 277.681 69.3677 277.741 68.5623C277.765 67.9784 277.924 67.408 278.205 66.896C278.544 66.2766 279.078 65.7867 279.724 65.5024C280.517 65.1843 281.386 65.1055 282.224 65.2759C283.061 65.4463 283.83 65.8582 284.436 66.4609C285.135 67.2364 285.576 68.2099 285.697 69.2469C285.819 70.2838 285.615 71.3329 285.114 72.249C284.528 73.2782 283.675 74.1295 282.644 74.7124C281.613 75.2953 280.444 75.5881 279.26 75.5596C276.65 75.4828 274.176 74.3808 272.373 72.4923C270.433 70.54 268.926 68.2011 267.949 65.6277C266.887 63.0323 266.113 60.4221 265.228 57.9594C264.449 55.576 263.356 53.3071 261.977 51.2128L261.461 50.4755C261.284 50.2396 261.077 50.0331 260.885 49.8119L260.318 49.163C260.111 48.964 259.912 48.7649 259.698 48.5805C258.884 47.8496 257.986 47.2184 257.022 46.7003C254.895 45.5418 252.504 44.9546 250.082 44.9959C247.66 45.0373 245.29 45.7058 243.204 46.9363C242.529 47.3282 241.886 47.772 241.28 48.2635C241.078 48.4482 240.864 48.6182 240.638 48.7723C241.36 47.9935 242.192 47.3252 243.108 46.7888C245.602 45.2457 248.514 44.5188 251.44 44.7095C254.599 44.9278 257.598 46.1822 259.971 48.2782C260.192 48.4626 260.399 48.669 260.613 48.8755L261.202 49.5391C261.394 49.7603 261.608 49.9741 261.792 50.2174C261.977 50.4607 262.139 50.7041 262.323 50.9548C263.735 53.0737 264.856 55.3726 265.656 57.7899C266.548 60.2673 267.322 62.8701 268.377 65.436C269.319 67.9504 270.778 70.2388 272.661 72.1531C274.386 73.9545 276.745 75.0125 279.238 75.1025C280.348 75.1348 281.446 74.867 282.417 74.3271C283.388 73.7873 284.195 72.9954 284.753 72.0352C285.222 71.1929 285.421 70.2267 285.322 69.2678C285.223 68.3088 284.831 67.4035 284.2 66.6748C283.641 66.109 282.929 65.7179 282.151 65.5491C281.374 65.3802 280.564 65.4408 279.82 65.7236C279.273 65.9747 278.805 66.3718 278.468 66.8712C278.131 67.3707 277.938 67.9532 277.91 68.555C277.835 69.335 278.033 70.117 278.471 70.767C278.638 70.9768 278.818 71.1763 279.009 71.3642Z" fill="#FAFAFA"/>
<path d="M202.459 218.328L225.774 147.456L220.229 136.912L186.548 115.064C185.316 115.883 145.994 131.138 134.197 167.032C125.74 192.787 120.711 245.801 120.711 245.801L116.287 270.2H202.459V218.328Z" fill="#FF725E"/>
<g opacity="0.2">
<path d="M135.288 244.328C141.489 248.671 147.764 253.058 154.85 255.712C161.935 258.367 170.024 259.148 176.97 256.214C180.096 254.894 183.193 252.815 186.555 253.265C190.573 253.788 193.191 257.63 196.605 259.812C198.426 260.977 200.513 262.481 202.164 261.08L202.29 255.034C202.201 247.381 202.422 230.702 202.422 230.702C202.363 229.869 202.422 230.51 202.135 230.311C200.66 229.264 198.684 230.097 197.313 231.292C190.935 236.851 185.574 243.827 177.958 247.513C171.373 250.706 163.705 251.053 156.501 249.843C149.297 248.634 142.418 245.965 135.605 243.311" fill="black"/>
</g>
<path d="M195.16 142.634C195.16 142.634 174.935 157.381 187.182 186.948C199.429 216.515 210.548 231.822 210.548 231.822L249.723 199.844L242.659 186.66C239.537 180.878 237.286 174.667 235.979 168.227C234.305 159.836 230.213 146.881 220.414 139.471C214.441 134.995 205.711 136.197 195.16 142.634Z" fill="#FF725E"/>
<path d="M163.704 128.397C164.853 128.392 165.999 128.503 167.125 128.728C168.463 128.967 169.748 129.438 170.923 130.122C171.655 130.566 172.308 131.129 172.854 131.788C173.458 132.537 173.92 133.389 174.219 134.303C174.92 136.387 175.034 138.624 174.55 140.769C174.013 143.251 172.689 145.493 170.775 147.162C168.784 148.924 166.27 150.111 163.874 151.63C162.646 152.359 161.517 153.241 160.511 154.255C159.499 155.307 158.753 156.586 158.336 157.986C157.496 160.839 157.791 163.833 157.599 166.679C157.539 168.094 157.291 169.495 156.862 170.845C156.435 172.135 155.829 173.358 155.063 174.48C153.643 176.564 151.734 178.268 149.503 179.442C147.555 180.447 145.397 180.975 143.206 180.983C141.404 180.991 139.616 180.674 137.927 180.047C136.655 179.585 135.453 178.947 134.358 178.152C133.667 177.652 133.025 177.087 132.441 176.464L132.006 175.962C131.91 175.844 131.866 175.785 131.873 175.778C132.667 176.592 133.533 177.333 134.461 177.99C135.558 178.749 136.754 179.355 138.015 179.789C139.672 180.376 141.42 180.663 143.177 180.637C145.313 180.611 147.412 180.081 149.304 179.088C151.468 177.933 153.316 176.264 154.687 174.229C156.205 171.981 157.054 169.347 157.134 166.635C157.326 163.833 157.016 160.817 157.872 157.838C158.307 156.371 159.091 155.03 160.158 153.931C161.19 152.886 162.352 151.979 163.616 151.232C166.041 149.757 168.534 148.533 170.473 146.808C172.334 145.21 173.628 143.053 174.16 140.659C174.649 138.58 174.557 136.407 173.894 134.376C173.618 133.496 173.186 132.671 172.618 131.943C172.097 131.303 171.474 130.753 170.775 130.314C169.64 129.614 168.393 129.116 167.088 128.839C166.012 128.603 165.164 128.515 164.589 128.441L163.925 128.367C163.854 128.388 163.779 128.398 163.704 128.397Z" fill="#FAFAFA"/>
<path d="M182.47 122.116C182.47 122.116 182.581 122.042 182.817 121.939C183.165 121.794 183.525 121.678 183.893 121.592C185.265 121.286 186.694 121.368 188.022 121.828C188.946 122.151 189.78 122.69 190.455 123.399C191.218 124.235 191.729 125.271 191.93 126.385C192.186 127.621 191.998 128.908 191.399 130.02C190.698 131.183 189.601 132.055 188.31 132.475C187.086 132.898 185.769 132.976 184.503 132.7C183.238 132.425 182.073 131.806 181.136 130.912C180.384 130.171 179.838 129.247 179.552 128.23C179.267 127.214 179.251 126.141 179.506 125.117C179.895 123.749 180.803 122.588 182.035 121.88C182.365 121.693 182.717 121.547 183.082 121.445C183.209 121.406 183.34 121.387 183.473 121.386C183.01 121.571 182.559 121.785 182.124 122.027C180.989 122.764 180.169 123.897 179.823 125.205C179.605 126.169 179.64 127.172 179.922 128.119C180.205 129.066 180.727 129.923 181.438 130.61C182.32 131.438 183.413 132.009 184.597 132.262C185.781 132.514 187.011 132.437 188.155 132.04C189.339 131.669 190.349 130.884 191.001 129.828C191.553 128.808 191.736 127.628 191.517 126.488C191.338 125.448 190.873 124.478 190.175 123.686C189.546 123.009 188.769 122.487 187.904 122.16C186.634 121.692 185.263 121.567 183.93 121.799C182.979 121.939 182.485 122.16 182.47 122.116Z" fill="#FAFAFA"/>
<path d="M199.583 213.079C199.883 213.485 200.241 213.846 200.645 214.148C201.841 214.974 203.313 215.297 204.745 215.048C206.985 214.544 209.007 213.341 210.518 211.612C211.494 210.574 212.345 209.426 213.054 208.19C213.814 206.794 214.397 205.308 214.787 203.766C215.701 200.196 215.464 196.429 214.109 193.001C213.302 191.134 212.226 189.396 210.916 187.84C209.618 186.174 208.173 184.522 206.949 182.62C205.636 180.684 204.872 178.429 204.737 176.094C204.701 173.685 204.949 171.279 205.475 168.927C206.018 166.529 206.224 164.068 206.087 161.613C205.734 157.811 204.101 154.242 201.456 151.489C200.568 150.608 199.578 149.835 198.507 149.189C196.394 147.905 193.939 147.301 191.473 147.456C190.288 147.526 189.116 147.744 187.985 148.105C186.882 148.472 185.825 148.967 184.837 149.58C183.894 150.217 183.036 150.973 182.285 151.828C181.566 152.678 180.991 153.639 180.582 154.675C179.88 156.719 179.51 158.862 179.484 161.023C179.443 163.098 179.141 165.159 178.584 167.158C177.905 168.977 176.953 170.683 175.76 172.216C174.676 173.69 173.585 175.114 172.707 176.551C171.845 177.892 171.275 179.399 171.034 180.975C170.843 182.385 170.946 183.818 171.336 185.186C171.709 186.364 172.274 187.473 173.01 188.467C173.343 188.898 173.711 189.302 174.108 189.676L174.669 190.192L175.251 190.62C176.44 191.444 177.777 192.03 179.189 192.345C179.675 192.441 180.051 192.47 180.302 192.522L180.685 192.588C180.558 192.598 180.43 192.598 180.302 192.588C180.044 192.588 179.661 192.537 179.167 192.456C177.727 192.177 176.359 191.608 175.148 190.782L174.551 190.362L173.968 189.845C172.617 188.61 171.624 187.033 171.093 185.281C170.676 183.881 170.558 182.409 170.746 180.961C170.981 179.342 171.557 177.791 172.435 176.411C173.305 174.937 174.403 173.536 175.472 172.039C176.636 170.531 177.563 168.856 178.223 167.069C178.759 165.097 179.046 163.066 179.078 161.023C179.104 158.818 179.477 156.631 180.184 154.542C180.614 153.471 181.211 152.476 181.954 151.593C182.727 150.698 183.617 149.912 184.601 149.255C185.616 148.609 186.705 148.087 187.845 147.699C189.013 147.321 190.225 147.093 191.451 147.021C192.7 146.951 193.954 147.057 195.174 147.338C196.406 147.653 197.589 148.134 198.691 148.769C199.795 149.435 200.813 150.235 201.722 151.15C202.629 152.086 203.425 153.122 204.096 154.24C205.425 156.467 206.239 158.964 206.477 161.547C206.619 164.043 206.411 166.547 205.858 168.986C205.34 171.302 205.093 173.67 205.121 176.043C205.259 178.306 206.002 180.491 207.274 182.369C209.67 186.056 212.981 189.005 214.433 192.861C215.802 196.361 216.027 200.205 215.075 203.84C214.668 205.413 214.066 206.929 213.283 208.353C212.555 209.608 211.679 210.772 210.673 211.818C209.121 213.559 207.055 214.76 204.774 215.247C204.046 215.365 203.301 215.337 202.583 215.165C201.866 214.992 201.189 214.679 200.593 214.244C200.29 214.011 200.02 213.738 199.79 213.433C199.713 213.319 199.644 213.201 199.583 213.079Z" fill="#FAFAFA"/>
<path d="M231.473 158.088C231.421 158.221 231.349 158.346 231.259 158.457C231.048 158.802 230.801 159.123 230.522 159.416C229.466 160.516 228.15 161.332 226.695 161.79C224.527 162.492 222.182 162.422 220.059 161.591C217.459 160.567 215.288 158.683 213.91 156.252C212.559 153.83 211.896 151.084 211.993 148.311C212.066 145.79 212.597 143.467 213.718 141.86C214.139 141.217 214.689 140.669 215.332 140.249C215.976 139.829 216.699 139.546 217.456 139.419C217.864 139.352 218.28 139.352 218.688 139.419C218.832 139.436 218.971 139.479 219.101 139.544C218.562 139.471 218.017 139.471 217.478 139.544C216.763 139.7 216.085 139.996 215.485 140.417C214.885 140.837 214.374 141.373 213.984 141.992C212.899 143.902 212.359 146.072 212.42 148.267C212.347 150.958 212.999 153.62 214.308 155.972C215.638 158.307 217.716 160.126 220.207 161.134C222.243 161.954 224.498 162.056 226.599 161.421C228.023 160.997 229.325 160.238 230.397 159.209C231.119 158.56 231.436 158.059 231.473 158.088Z" fill="#FAFAFA"/>
<path d="M239.296 180.034C238.899 179.556 238.432 179.141 237.91 178.802C237.176 178.394 236.361 178.151 235.523 178.091C234.685 178.031 233.843 178.156 233.058 178.456C231.06 179.193 229.261 181.28 228.362 183.956C227.462 186.633 227.381 189.855 226.99 193.129C226.599 196.402 226.069 199.536 225.825 202.39C225.563 204.909 225.59 207.449 225.906 209.962C226.129 211.653 226.56 213.31 227.189 214.895C227.646 216.016 227.978 216.598 227.927 216.62C227.821 216.495 227.729 216.359 227.654 216.215C227.415 215.812 227.198 215.396 227.005 214.969C226.304 213.387 225.82 211.718 225.567 210.006C225.204 207.471 225.144 204.902 225.39 202.353C225.611 199.477 226.128 196.358 226.518 193.07C226.909 189.781 226.953 186.589 227.941 183.816C228.929 181.044 230.802 178.898 232.933 178.146C233.76 177.844 234.645 177.732 235.521 177.82C236.397 177.908 237.241 178.194 237.991 178.655C238.389 178.914 238.741 179.238 239.031 179.613C239.141 179.738 239.231 179.88 239.296 180.034Z" fill="#FAFAFA"/>
<path d="M119.214 256.707C119.214 256.707 119.369 257.12 119.745 257.865C120.289 258.954 120.976 259.966 121.788 260.873C122.378 261.519 123.038 262.098 123.756 262.598C124.605 263.191 125.588 263.564 126.617 263.682C127.806 263.73 128.984 263.441 130.016 262.849C131.228 262.259 132.407 261.605 133.548 260.888C135.959 259.413 138.651 257.644 141.998 256.943C145.346 256.243 148.929 256.125 152.365 254.643C155.915 252.976 158.82 250.188 160.63 246.709C162.551 242.964 163.676 238.862 163.934 234.661C164.405 230.477 164.082 226.242 162.983 222.178C162.422 220.269 161.547 218.468 160.395 216.847C159.28 215.304 157.847 214.019 156.192 213.079C154.577 212.135 152.874 211.427 151.325 210.498C149.806 209.61 148.481 208.424 147.432 207.011C145.397 204.29 144.299 201.319 143.089 198.76C142.116 196.402 140.733 194.235 139.004 192.36C137.658 190.984 135.942 190.026 134.064 189.602C132.879 189.331 131.644 189.361 130.473 189.691C129.677 189.949 129.308 190.192 129.294 190.163C129.649 189.923 130.036 189.735 130.444 189.602C131.637 189.226 132.907 189.165 134.131 189.425C136.058 189.826 137.827 190.782 139.218 192.176C140.988 194.058 142.409 196.24 143.414 198.62C144.645 201.186 145.758 204.135 147.771 206.782C148.796 208.151 150.087 209.298 151.569 210.152C153.08 211.059 154.783 211.759 156.435 212.71C158.143 213.679 159.623 215.001 160.778 216.589C161.965 218.246 162.867 220.091 163.447 222.045C164.569 226.165 164.902 230.461 164.428 234.705C164.152 238.968 163.005 243.128 161.058 246.93C159.191 250.491 156.207 253.34 152.564 255.041C150.847 255.738 149.048 256.216 147.211 256.464C145.449 256.751 143.731 256.965 142.109 257.327C138.835 257.99 136.21 259.715 133.747 261.168C132.592 261.885 131.398 262.537 130.171 263.122C129.602 263.394 129.013 263.621 128.409 263.8C128.254 263.837 128.107 263.889 127.959 263.911L127.509 263.963C127.215 263.988 126.919 263.988 126.625 263.963C125.559 263.83 124.544 263.429 123.675 262.798C122.946 262.283 122.28 261.684 121.692 261.013C120.883 260.085 120.213 259.044 119.701 257.924C119.498 257.536 119.335 257.128 119.214 256.707Z" fill="#FAFAFA"/>
<path d="M249.722 199.844L249.545 200.006L249.007 200.471L246.891 202.241L238.869 208.877L210.703 231.992L210.526 232.139L210.4 231.955C208.926 229.839 207.576 227.531 206.227 225.216C204.878 222.901 203.536 220.46 202.179 217.99C199.488 213.035 196.819 207.837 194.186 202.454C191.628 197.227 189.231 192.073 187.042 187.044C185.958 184.522 184.903 182.038 183.989 179.56C183.524 178.321 183.097 177.083 182.736 175.873C182.581 175.239 182.426 174.613 182.278 173.993C182.131 173.374 182.05 172.732 181.939 172.106C181.207 167.341 181.619 162.471 183.141 157.897C184.474 153.925 186.573 150.252 189.32 147.088C191.593 144.488 194.312 142.316 197.349 140.673C199.631 139.416 202.09 138.511 204.642 137.989C206.248 137.665 207.884 137.505 209.523 137.51L210.806 137.584C211.093 137.584 211.234 137.62 211.234 137.62H210.798H209.523C207.894 137.654 206.272 137.842 204.679 138.181C202.157 138.734 199.73 139.653 197.475 140.909C194.48 142.561 191.802 144.731 189.563 147.316C186.866 150.459 184.81 154.098 183.51 158.03C182.024 162.543 181.63 167.344 182.359 172.039C182.47 172.651 182.581 173.271 182.699 173.897C182.817 174.524 183.001 175.129 183.156 175.748C183.51 176.979 183.937 178.203 184.395 179.435C185.316 181.905 186.371 184.382 187.454 186.889C189.666 191.91 192.041 197.057 194.599 202.277C197.232 207.653 199.893 212.858 202.577 217.806C203.929 220.263 205.273 222.67 206.61 225.024C207.952 227.362 209.28 229.64 210.74 231.741L210.437 231.697C221.976 222.311 231.776 214.34 238.714 208.707L246.825 202.174L248.985 200.456L249.545 200.021C249.656 199.881 249.722 199.807 249.722 199.844Z" fill="#263238"/>
<path d="M283.219 231.291C281.265 221.823 274.931 219.567 274.931 219.567L273.457 231.187L256.498 224.249L243.27 205.344L215.406 228.127C215.406 228.127 237.615 250.985 246.949 251.951C256.284 252.917 278.308 251.892 278.308 251.892C278.308 251.892 285.166 240.758 283.219 231.291Z" fill="#FFBE9D"/>
<path d="M178.319 204.968L161.095 225.51L124.309 220.186L124.375 219.714L125.511 208.057C114.539 209.665 112.829 218.129 112.335 224.028C111.789 230.553 119.826 236.666 121.5 237.86V238.155C121.5 238.155 158.72 258.292 175.591 252.762C183.421 250.196 202.489 230.177 202.489 230.177V220.518L178.319 204.968Z" fill="#B78876"/>
<path d="M173.497 201.952L202.459 223.991L204.022 221.373C197.869 210.306 192.301 198.923 187.344 187.271L173.497 201.952Z" fill="#455A64"/>
<path d="M136.756 155.825L141.025 163.855C141.718 165.16 142.706 166.649 144.181 166.62C145.53 166.62 146.518 165.182 146.577 163.833C146.513 162.481 146.115 161.166 145.419 160.006C143.807 156.747 142.195 153.49 140.582 150.236L140.31 149.329C140.31 149.329 138.754 146.668 136.918 147.582C135.244 148.422 134.573 151.718 136.756 155.825Z" fill="#B78876"/>
<path d="M133.718 162.44C135.133 165.114 136.554 167.79 137.98 170.469C138.673 171.774 139.572 173.699 141.054 173.669C141.764 173.579 142.422 173.249 142.919 172.734C143.416 172.219 143.723 171.551 143.79 170.838C143.849 169.496 142.979 167.83 142.381 166.62L137.537 156.851L137.264 155.944C137.264 155.944 135.716 153.282 133.873 154.204C132.199 155.037 131.535 158.333 133.718 162.44Z" fill="#B78876"/>
<path d="M130.849 169.237L134.897 176.846C135.553 178.085 136.489 179.501 137.89 179.471C139.166 179.471 140.102 178.107 140.161 176.832C140.103 175.55 139.725 174.303 139.063 173.204L134.476 163.936L134.218 163.08C134.218 163.08 132.744 160.559 131.004 161.429C129.411 162.203 128.799 165.344 130.849 169.237Z" fill="#B78876"/>
<path d="M128.239 172.576L131.247 178.239C131.741 179.161 132.434 180.215 133.459 180.193C133.931 180.127 134.362 179.891 134.673 179.53C134.983 179.17 135.152 178.708 135.148 178.232C135.105 177.276 134.824 176.345 134.329 175.526L130.915 168.624L130.724 167.983C130.724 167.983 129.625 166.103 128.327 166.751C127.162 167.363 126.698 169.671 128.239 172.576Z" fill="#B78876"/>
<path d="M136.173 154.277C136.45 154.652 136.697 155.049 136.91 155.464C137.382 156.312 138.001 157.425 138.739 158.767C139.476 160.109 140.413 161.856 141.401 163.7C141.813 164.681 142.493 165.526 143.362 166.14C143.849 166.372 144.407 166.408 144.919 166.239C145.431 166.07 145.859 165.71 146.112 165.233C146.367 164.732 146.513 164.183 146.543 163.622C146.572 163.06 146.483 162.499 146.282 161.974C145.902 160.959 145.449 159.974 144.925 159.025L142.411 154.011L140.752 150.619C140.529 150.212 140.344 149.785 140.199 149.344C140.479 149.72 140.725 150.12 140.936 150.538L142.72 153.864L145.323 158.826C145.869 159.8 146.342 160.813 146.739 161.856C146.962 162.442 147.058 163.068 147.022 163.693C146.985 164.319 146.815 164.929 146.525 165.484C146.186 166.045 145.666 166.474 145.05 166.701C144.745 166.809 144.421 166.852 144.098 166.827C143.775 166.801 143.462 166.708 143.178 166.553C142.227 165.896 141.49 164.976 141.054 163.906L138.481 158.936L136.763 155.567C136.529 155.155 136.331 154.723 136.173 154.277Z" fill="#A36957"/>
<path d="M133.223 161.364C133.497 161.741 133.743 162.138 133.96 162.551L135.789 165.854L138.45 170.787C138.863 171.766 139.54 172.611 140.404 173.228C140.892 173.46 141.451 173.496 141.965 173.327C142.478 173.158 142.907 172.798 143.162 172.321C143.417 171.82 143.563 171.271 143.592 170.709C143.622 170.148 143.533 169.587 143.332 169.062C142.948 168.047 142.492 167.062 141.967 166.112C141.031 164.247 140.183 162.558 139.461 161.106L137.802 157.714C137.579 157.307 137.394 156.88 137.249 156.438C137.53 156.814 137.776 157.213 137.986 157.633C138.45 158.488 139.055 159.609 139.778 160.958L142.38 165.921C142.928 166.892 143.399 167.906 143.789 168.951C144 169.531 144.087 170.149 144.045 170.765C144.003 171.381 143.833 171.981 143.545 172.527C143.206 173.088 142.686 173.517 142.071 173.744C141.766 173.852 141.441 173.895 141.119 173.87C140.796 173.844 140.482 173.751 140.198 173.596C139.248 172.939 138.51 172.019 138.074 170.949L135.501 165.98L133.805 162.603C133.572 162.209 133.377 161.794 133.223 161.364Z" fill="#A36957"/>
<path d="M129.81 166.627C130.1 167.001 130.347 167.407 130.547 167.836C130.975 168.633 131.55 169.805 132.235 171.265C132.921 172.725 133.71 174.472 134.683 176.353C135.097 177.349 135.747 178.23 136.578 178.918C136.792 179.062 137.034 179.161 137.287 179.208C137.541 179.255 137.802 179.249 138.053 179.191C138.589 179.04 139.058 178.709 139.38 178.255C139.667 177.767 139.842 177.222 139.894 176.659C139.946 176.096 139.874 175.528 139.682 174.996C139.32 173.956 138.868 172.95 138.333 171.987C137.382 170.107 136.527 168.397 135.789 166.929L134.116 163.501C133.898 163.087 133.711 162.659 133.555 162.218C133.838 162.595 134.085 162.997 134.293 163.42C134.757 164.29 135.362 165.418 136.099 166.782C136.836 168.146 137.743 169.93 138.724 171.796C139.283 172.777 139.755 173.806 140.132 174.87C140.347 175.468 140.425 176.105 140.363 176.736C140.3 177.367 140.098 177.977 139.771 178.52C139.382 179.063 138.821 179.459 138.178 179.641C137.86 179.717 137.53 179.726 137.209 179.666C136.887 179.607 136.582 179.48 136.313 179.294C135.417 178.564 134.718 177.621 134.278 176.552C133.312 174.642 132.56 172.865 131.911 171.39L130.37 167.903C130.154 167.491 129.967 167.065 129.81 166.627Z" fill="#A36957"/>
</g>
<defs>
<clipPath id="clip0_1326_1426">
<rect width="421" height="270" fill="white"/>
</clipPath>
</defs>
</svg>
