<svg width="420" height="270" viewBox="0 0 420 270" fill="none" xmlns="http://www.w3.org/2000/svg">
    <path opacity="0.16" d="M211.837 258.017C257.583 258.017 294.668 253.494 294.668 247.914C294.668 242.334 257.583 237.811 211.837 237.811C166.091 237.811 129.007 242.334 129.007 247.914C129.007 253.494 166.091 258.017 211.837 258.017Z" fill="black"/>
    <path opacity="0.07" d="M294.927 36.9411C289.268 31.8753 283.128 27.3738 276.594 23.5005L222.691 104.5L295.937 37.8699C295.608 37.5567 295.273 37.2597 294.927 36.9411ZM246.689 11.7771C238.284 10.0268 229.645 9.6964 221.131 10.7997L222.691 104.495L246.689 11.7771ZM190.194 22.9281C185.046 26.5435 180.334 30.744 176.154 35.4453C174.693 37.0833 173.19 38.7249 171.645 40.3701L222.697 104.506L190.194 22.9281ZM145.974 64.0869C142.473 66.7993 138.838 69.3334 135.082 71.6793C126.998 76.6797 118.277 80.3895 110.096 86.7669L222.691 104.506L145.974 64.0869ZM84.1976 138.677C83.2094 153.295 85.9796 169.117 91.3418 183.427L222.691 104.506L84.1976 138.677ZM222.691 104.506L128.92 228.614C142.561 234.554 158.961 235.634 175.954 234.327L222.691 104.506ZM222.691 104.506L227.152 226.157C236.791 225.126 248.563 225.444 260.756 224.92L222.691 104.506ZM327.959 188.8L222.691 104.506L304.653 214.995C314.194 209.655 322.397 201.452 327.959 188.8ZM332.414 116.1L222.691 104.506L335.622 145.4C335.171 135.575 334.1 125.789 332.414 116.1ZM314.643 62.2725L222.691 104.506L324.292 84.1587C321.695 76.6055 318.467 69.2843 314.643 62.2725Z" fill="black"/>
    <path d="M317.861 181.051C317.861 181.051 312.035 179.08 310.301 177.876C308.568 176.672 304.134 172.222 303.103 168.793C302.213 165.628 301.622 162.386 301.337 159.111C301.078 156.454 299.966 155.768 298.335 157.826C296.704 159.883 296.175 163.226 296.623 165.386C297.071 167.546 298.421 170.013 298.243 170.445C298.065 170.877 297.811 171.731 297.811 171.731C297.811 171.731 292.584 171.131 289.673 170.445C286.763 169.76 284.446 169.5 284.273 170.872C284.1 172.244 284.7 174.387 284.873 175.845C285.045 177.303 287.27 183.729 288.388 185.182C289.18 186.312 290.099 187.349 291.126 188.271C291.812 188.784 291.812 189.21 293.442 189.383C294.824 189.507 296.198 189.707 297.557 189.983C298.157 190.155 298.756 190.755 301.586 190.668C303.364 190.607 305.137 190.436 306.894 190.155L315.377 193.32L317.861 181.051Z" fill="white" stroke="#263238" stroke-width="0.75" stroke-miterlimit="10"/>
    <path d="M315.118 179.42L311.603 194.675L317.348 196.986L320.259 181.137L315.118 179.42Z" fill="white" stroke="#263238" stroke-width="0.75" stroke-miterlimit="10"/>
    <path d="M329.59 182.336L318.374 179.593L314.259 197.758L329.525 204.881L329.59 203.504V182.336Z" fill="#263238" stroke="#263238" stroke-width="0.75" stroke-miterlimit="10"/>
    <path d="M297.465 172.481C297.465 172.481 296.693 177.12 296.693 178.2C296.693 179.28 299.09 182.315 299.933 182.482" stroke="#263238" stroke-width="0.75" stroke-miterlimit="10"/>
    <path d="M295.748 184.14C295.748 184.14 296.952 184.566 296.606 185.598C296.261 186.629 293.69 188.082 292.492 188.767C291.293 189.453 290.872 189.367 289.495 188.595C288.685 188.147 288.073 187.413 287.777 186.537C288.641 186.516 289.502 186.431 290.353 186.283L295.748 184.14Z" fill="white" stroke="#263238" stroke-width="0.75" stroke-miterlimit="10"/>
    <path d="M285.893 181.904C285.893 181.904 285.893 185.846 286.838 186.192C287.74 186.54 288.7 186.714 289.667 186.705C290.267 186.619 294.295 185.247 295.067 184.734C295.84 184.221 296.612 183.114 296.185 182.077L295.753 181.051C294.451 181.274 293.132 181.388 291.811 181.391C289.651 181.391 286.071 180.706 285.812 180.965C285.553 181.224 285.893 181.904 285.893 181.904Z" fill="white" stroke="#263238" stroke-width="0.75" stroke-miterlimit="10"/>
    <path d="M284.597 176.58C284.426 176.689 284.288 176.843 284.198 177.025C284.107 177.206 284.068 177.409 284.084 177.611C284.084 178.384 283.058 180.695 284.257 181.467C285.456 182.239 289.225 182.839 289.997 182.839C290.769 182.839 295.311 181.219 295.737 181.04C296.164 180.862 296.169 179.323 295.996 178.724C295.824 178.124 294.285 177.952 294.285 177.952C294.285 177.952 287.697 177.795 284.597 176.58Z" fill="white" stroke="#263238" stroke-width="0.75" stroke-miterlimit="10"/>
    <path d="M286.838 171.363C286.838 171.363 289.581 173.421 290.078 173.593L294.279 175.051C294.279 175.051 294.819 175.305 294.819 176.337C294.81 176.781 294.641 177.207 294.343 177.537C294.046 177.867 293.64 178.079 293.199 178.135C292.346 178.308 289.257 178.821 288.145 178.394C286.628 177.644 285.168 176.785 283.776 175.824C283.004 175.284 282.918 174.619 283.344 173.664C283.715 172.74 284.031 171.795 284.289 170.834" fill="white"/>
    <path d="M286.838 171.363C286.838 171.363 289.581 173.421 290.078 173.593L294.279 175.051C294.279 175.051 294.819 175.305 294.819 176.337C294.81 176.781 294.641 177.207 294.343 177.537C294.046 177.867 293.64 178.079 293.199 178.135C292.346 178.308 289.257 178.821 288.145 178.394C286.628 177.644 285.168 176.785 283.776 175.824C283.004 175.284 282.918 174.619 283.344 173.664C283.715 172.74 284.031 171.795 284.289 170.834" stroke="#263238" stroke-width="0.75" stroke-miterlimit="10"/>
    <path d="M300.797 48.5356C300.797 48.5356 294.906 50.323 292.816 50.3446C290.726 50.3662 284.505 49.3348 281.676 47.1424C279.101 45.0955 276.725 42.8102 274.58 40.3168C272.825 38.3026 271.518 38.3944 271.389 41.0134C271.259 43.6324 272.787 46.651 274.386 48.1468C275.984 49.6426 278.538 50.8468 278.652 51.3112C278.765 51.7756 279.051 52.6072 279.051 52.6072C279.051 52.6072 274.45 55.1614 271.68 56.2954C268.91 57.4294 266.88 58.5742 267.538 59.7892C268.197 61.0042 269.931 62.3974 270.919 63.4828C271.907 64.5682 277.458 68.494 279.213 69.034C280.516 69.4888 281.865 69.7949 283.236 69.9466C284.095 69.9466 284.316 70.3138 285.769 69.5092C286.962 68.8026 288.195 68.1661 289.462 67.603C290.051 67.3924 290.888 67.5328 293.134 65.8156C294.547 64.7301 295.891 63.5579 297.157 62.3056L305.905 59.9458L300.797 48.5356Z" fill="white" stroke="#263238" stroke-width="0.75" stroke-miterlimit="10"/>
    <path d="M297.611 48.8054L303.632 63.2558L309.647 61.7978L302.789 47.207L297.611 48.8054Z" fill="white" stroke="#263238" stroke-width="0.75" stroke-miterlimit="10"/>
    <path d="M311.079 42.7578L300.36 47.0508L307.585 64.2174L324.141 61.1286L323.396 59.973L311.079 42.7578Z" fill="#263238" stroke="#263238" stroke-width="0.75" stroke-miterlimit="10"/>
    <path d="M279.197 53.46C279.197 53.46 281.265 57.672 281.897 58.5792C282.529 59.4864 286.217 60.5286 287.038 60.1668" stroke="#263238" stroke-width="0.75" stroke-miterlimit="10"/>
    <path d="M284.597 63.9097C284.597 63.9097 285.823 63.5588 286.141 64.5956C286.46 65.6324 285.218 68.3108 284.64 69.569C284.062 70.8272 283.668 71.0054 282.102 71.189C281.184 71.2978 280.259 71.0568 279.51 70.514C280.2 69.995 280.85 69.4246 281.454 68.8075L284.597 63.9097Z" fill="white" stroke="#263238" stroke-width="0.75" stroke-miterlimit="10"/>
    <path d="M275.293 67.8298C275.293 67.8298 277.582 71.0374 278.533 70.7674C279.469 70.5249 280.352 70.1091 281.135 69.5416C281.573 69.1204 284.051 65.6644 284.375 64.795C284.699 63.9256 284.683 62.5756 283.738 61.987L282.793 61.3984C281.864 62.3388 280.858 63.2004 279.785 63.9742C278.041 65.2162 274.715 66.7552 274.655 67.1116C274.596 67.468 275.293 67.8298 275.293 67.8298Z" fill="white" stroke="#263238" stroke-width="0.75" stroke-miterlimit="10"/>
    <path d="M271.151 64.2609C271.076 64.4497 271.054 64.6553 271.086 64.8558C271.118 65.0563 271.204 65.2444 271.335 65.4003C271.783 66.0267 272.29 68.5053 273.716 68.4351C275.142 68.3649 278.576 66.6585 279.186 66.2103C279.796 65.7621 282.556 61.7931 282.81 61.4043C283.063 61.0155 282.156 59.7843 281.67 59.3739C281.184 58.9635 279.829 59.7465 279.829 59.7465C279.829 59.7465 274.337 63.4401 271.151 64.2609Z" fill="white" stroke="#263238" stroke-width="0.75" stroke-miterlimit="10"/>
    <path d="M269.925 58.7094C269.925 58.7094 273.349 58.785 273.867 58.6284C274.385 58.4718 278.133 57.3702 278.133 57.3702C278.133 57.3702 278.7 57.2784 279.299 58.1154C279.552 58.4827 279.663 58.9294 279.611 59.3723C279.56 59.8152 279.349 60.2244 279.019 60.5238C278.425 61.1664 276.216 63.375 275.06 63.6774C273.389 63.9497 271.7 64.1013 270.006 64.131C269.083 64.131 268.613 63.6504 268.386 62.6352C268.149 61.6701 267.855 60.7199 267.506 59.7894" fill="white"/>
    <path d="M269.925 58.7094C269.925 58.7094 273.349 58.785 273.867 58.6284C274.385 58.4718 278.133 57.3702 278.133 57.3702C278.133 57.3702 278.7 57.2784 279.299 58.1154C279.552 58.4827 279.663 58.9294 279.611 59.3723C279.56 59.8152 279.349 60.2244 279.019 60.5238C278.425 61.1664 276.216 63.375 275.06 63.6774C273.389 63.9497 271.7 64.1013 270.006 64.131C269.083 64.131 268.613 63.6504 268.386 62.6352C268.149 61.6701 267.855 60.7199 267.506 59.7894" stroke="#263238" stroke-width="0.75" stroke-miterlimit="10"/>
    <path d="M112.25 179.113C112.25 179.113 118.077 177.142 119.81 175.943C121.544 174.744 125.961 170.284 126.987 166.86C127.892 163.697 128.496 160.455 128.791 157.178C129.044 154.521 130.162 153.836 131.788 155.893C133.413 157.95 133.948 161.293 133.499 163.453C133.051 165.613 131.701 168.081 131.879 168.507C132.058 168.934 132.306 169.793 132.306 169.793C132.306 169.793 137.533 169.193 140.449 168.507C143.365 167.822 145.676 167.562 145.849 168.934C146.022 170.306 145.417 172.449 145.25 173.907C145.082 175.365 142.847 181.791 141.734 183.249C140.941 184.379 140.021 185.413 138.991 186.333C138.305 186.873 138.305 187.278 136.68 187.445C135.299 187.571 133.925 187.772 132.565 188.045C131.966 188.217 131.366 188.817 128.537 188.73C126.757 188.669 124.982 188.498 123.223 188.217L114.74 191.387L112.25 179.113Z" fill="white" stroke="#263238" stroke-width="0.75" stroke-miterlimit="10"/>
    <path d="M114.993 177.482L118.503 192.737L112.763 195.054L109.847 179.2L114.993 177.482Z" fill="white" stroke="#263238" stroke-width="0.75" stroke-miterlimit="10"/>
    <path d="M100.516 180.398L111.732 177.655L115.847 195.821L100.586 202.943L100.516 201.566V180.398Z" fill="#263238" stroke="#263238" stroke-width="0.75" stroke-miterlimit="10"/>
    <path d="M132.646 170.543C132.646 170.543 133.418 175.171 133.418 176.283C133.418 177.396 131.015 180.398 130.178 180.571" stroke="#263238" stroke-width="0.75" stroke-miterlimit="10"/>
    <path d="M134.358 182.196C134.358 182.196 133.159 182.628 133.499 183.654C133.839 184.68 136.415 186.138 137.614 186.824C138.813 187.51 139.234 187.423 140.616 186.651C141.425 186.207 142.037 185.475 142.328 184.599C141.466 184.578 140.607 184.492 139.758 184.34L134.358 182.196Z" fill="white" stroke="#263238" stroke-width="0.75" stroke-miterlimit="10"/>
    <path d="M144.197 179.972C144.197 179.972 144.197 183.914 143.257 184.254C142.357 184.614 141.397 184.797 140.428 184.794C139.828 184.707 135.8 183.341 135.028 182.823C134.256 182.304 133.483 181.203 133.915 180.166L134.342 179.14C135.644 179.363 136.963 179.477 138.284 179.48C140.444 179.48 144.024 178.794 144.283 179.054C144.543 179.313 144.197 179.972 144.197 179.972Z" fill="white" stroke="#263238" stroke-width="0.75" stroke-miterlimit="10"/>
    <path d="M145.498 174.658C145.676 174.76 145.822 174.911 145.917 175.093C146.013 175.274 146.055 175.48 146.038 175.684C146.038 176.456 147.069 178.768 145.87 179.54C144.672 180.312 140.87 180.901 140.098 180.901C139.326 180.901 134.784 179.281 134.358 179.102C133.931 178.924 133.931 177.385 134.104 176.786C134.277 176.186 135.816 176.019 135.816 176.019C135.816 176.019 142.414 175.857 145.498 174.658Z" fill="white" stroke="#263238" stroke-width="0.75" stroke-miterlimit="10"/>
    <path d="M143.273 169.431C143.273 169.431 140.53 171.483 140.033 171.655C139.536 171.828 135.832 173.113 135.832 173.113C135.832 173.113 135.292 173.373 135.292 174.399C135.3 174.843 135.469 175.27 135.766 175.6C136.064 175.93 136.471 176.142 136.912 176.197C137.771 176.37 140.854 176.883 141.972 176.456C143.494 175.706 144.96 174.845 146.357 173.88C147.129 173.367 147.215 172.681 146.783 171.72C146.415 170.796 146.101 169.851 145.844 168.891" fill="white"/>
    <path d="M143.273 169.431C143.273 169.431 140.53 171.483 140.033 171.655C139.536 171.828 135.832 173.113 135.832 173.113C135.832 173.113 135.292 173.373 135.292 174.399C135.3 174.843 135.469 175.27 135.766 175.6C136.064 175.93 136.471 176.142 136.912 176.197C137.771 176.37 140.854 176.883 141.972 176.456C143.494 175.706 144.96 174.845 146.357 173.88C147.129 173.367 147.215 172.681 146.783 171.72C146.415 170.796 146.101 169.851 145.844 168.891" stroke="#263238" stroke-width="0.75" stroke-miterlimit="10"/>
    <path d="M118.584 53.6655C118.584 53.6655 124.47 55.4529 126.566 55.4745C128.661 55.4961 134.871 54.4647 137.706 52.2723C140.281 50.2254 142.656 47.94 144.801 45.4467C146.556 43.4325 147.863 43.5243 147.987 46.1433C148.112 48.7623 146.589 51.7809 144.996 53.2767C143.403 54.7725 140.838 55.9767 140.73 56.4411C140.622 56.9055 140.33 57.7371 140.33 57.7371C140.33 57.7371 144.931 60.2859 147.701 61.4253C150.471 62.5647 152.502 63.6987 151.843 64.9137C151.184 66.1287 149.451 67.5219 148.463 68.6073C147.474 69.6927 141.923 73.6239 140.168 74.1639C138.866 74.6187 137.516 74.9248 136.145 75.0765C135.287 75.0765 135.065 75.4437 133.613 74.6337C132.417 73.9325 131.184 73.2962 129.919 72.7275C129.33 72.5223 128.493 72.6573 126.242 70.9455C124.832 69.8592 123.49 68.6869 122.224 67.4355L113.476 65.0757L118.584 53.6655Z" fill="white" stroke="#263238" stroke-width="0.75" stroke-miterlimit="10"/>
    <path d="M121.765 53.9353L115.744 68.3857L109.729 66.9277L116.587 52.3369L121.765 53.9353Z" fill="white" stroke="#263238" stroke-width="0.75" stroke-miterlimit="10"/>
    <path d="M108.297 47.8877L119.016 52.1807L111.791 69.3473L95.2349 66.2585L95.9801 65.0975L108.297 47.8877Z" fill="#263238" stroke="#263238" stroke-width="0.75" stroke-miterlimit="10"/>
    <path d="M140.163 58.5635C140.163 58.5635 138.095 62.7755 137.463 63.6773C136.831 64.5791 133.143 65.6267 132.322 65.2973" stroke="#263238" stroke-width="0.75" stroke-miterlimit="10"/>
    <path d="M134.774 69.0396C134.774 69.0396 133.548 68.6886 133.229 69.7254C132.911 70.7622 134.153 73.4406 134.73 74.6934C135.308 75.9462 135.702 76.1298 137.268 76.3134C138.186 76.4191 139.111 76.1784 139.86 75.6384C139.17 75.1195 138.52 74.5491 137.916 73.932L134.774 69.0396Z" fill="white" stroke="#263238" stroke-width="0.75" stroke-miterlimit="10"/>
    <path d="M144.083 72.9597C144.083 72.9597 141.788 76.1673 140.843 75.8973C139.905 75.6567 139.022 75.2388 138.241 74.6661C137.803 74.2503 135.325 70.7889 135.001 69.9249C134.677 69.0609 134.698 67.7001 135.643 67.1169L136.588 66.5283C137.516 67.4694 138.522 68.3293 139.596 69.0987C141.34 70.3461 144.667 71.8851 144.726 72.2415C144.785 72.5979 144.083 72.9597 144.083 72.9597Z" fill="white" stroke="#263238" stroke-width="0.75" stroke-miterlimit="10"/>
    <path d="M148.22 69.3845C148.296 69.5727 148.32 69.7782 148.289 69.979C148.258 70.1797 148.172 70.3681 148.042 70.5239C147.593 71.1503 147.08 73.6289 145.66 73.5587C144.24 73.4885 140.8 71.7821 140.19 71.3339C139.58 70.8857 136.815 66.9167 136.567 66.5279C136.318 66.1391 137.215 64.9079 137.706 64.4975C138.197 64.0871 139.547 64.8647 139.547 64.8647C139.547 64.8647 145.012 68.5799 148.22 69.3845Z" fill="white" stroke="#263238" stroke-width="0.75" stroke-miterlimit="10"/>
    <path d="M149.451 63.8393C149.451 63.8393 146.022 63.9149 145.504 63.7583C144.985 63.6017 141.243 62.4947 141.243 62.4947C141.243 62.4947 140.703 62.4083 140.077 63.2453C139.824 63.6125 139.713 64.0584 139.764 64.501C139.815 64.9436 140.023 65.353 140.352 65.6537C140.951 66.2909 143.16 68.5049 144.316 68.8073C145.987 69.0807 147.677 69.2305 149.37 69.2555C150.293 69.2879 150.763 68.7803 150.963 67.7651C151.201 66.7984 151.495 65.8463 151.843 64.9139" fill="white"/>
    <path d="M149.451 63.8393C149.451 63.8393 146.022 63.9149 145.504 63.7583C144.985 63.6017 141.243 62.4947 141.243 62.4947C141.243 62.4947 140.703 62.4083 140.077 63.2453C139.824 63.6125 139.713 64.0584 139.764 64.501C139.815 64.9436 140.023 65.353 140.352 65.6537C140.951 66.2909 143.16 68.5049 144.316 68.8073C145.987 69.0807 147.677 69.2305 149.37 69.2555C150.293 69.2879 150.763 68.7803 150.963 67.7651C151.201 66.7984 151.495 65.8463 151.843 64.9139" stroke="#263238" stroke-width="0.75" stroke-miterlimit="10"/>
    <path d="M197.657 131.949C197.657 131.949 193.877 148.505 193.725 156.292C193.574 164.079 194.006 192.143 194.152 198.164C194.298 204.185 196.944 223.727 196.944 225.488C196.944 227.248 197.387 230.628 197.387 230.628L196.209 236.946C195.057 237.837 193.829 238.623 192.537 239.295C189.891 240.764 186.808 242.676 185.928 243.702C185.821 243.825 185.745 243.973 185.706 244.132C185.668 244.291 185.668 244.457 185.707 244.615C185.747 244.774 185.823 244.921 185.931 245.044C186.039 245.167 186.175 245.262 186.327 245.322C187.375 245.732 188.478 245.981 189.6 246.062C192.095 246.207 196.209 246.207 198.413 245.619C200.616 245.03 202.382 243.124 203.408 242.379L204.439 241.644L204.585 243.264C205.079 243.192 205.57 243.092 206.054 242.967C207.132 242.657 208.167 242.214 209.137 241.65C209.137 241.65 209.283 239.15 209.283 237.681C209.283 236.212 208.548 233.566 208.403 232.983C208.257 232.4 208.403 227.102 207.965 225.342C207.528 223.581 207.231 224.019 206.934 220.79C206.637 217.56 209.283 186.996 209.137 186.116C208.991 185.236 212.874 158.76 212.874 158.76C212.874 158.76 220.299 193.32 222.648 199.935C224.997 206.55 226.174 219.326 226.174 220.212C226.174 221.097 227.497 231.519 228.086 232.994C228.674 234.468 230.289 239.015 230.289 239.015C230.289 239.015 232.638 242.541 233.664 244.301C234.69 246.062 238.221 247.541 240.862 247.973C243.503 248.405 245.565 248.562 245.722 245.036C245.879 241.509 244.55 239.16 242.342 237.546C240.133 235.931 239.701 234.462 239.701 234.462C239.861 232.305 239.861 230.139 239.701 227.982C239.404 225.482 237.789 223.571 237.644 218.43C237.498 213.289 236.466 186.257 235.586 181.996C234.706 177.735 233.545 149.234 233.691 145.276C233.837 141.318 233.318 130.259 233.318 130.259L197.549 129.854L197.657 131.949Z" fill="#263238" stroke="#263238" stroke-width="0.75" stroke-miterlimit="10"/>
    <path d="M211.697 72.7593C211.697 72.7593 206.237 75.9993 202.371 77.9109C198.504 79.8225 193.785 80.9349 193.304 82.0203C192.824 83.1057 184.481 100.882 182.909 103.296C181.338 105.71 177.59 110.43 178.314 113.087C179.037 115.743 182.061 119.372 183.995 119.134C185.928 118.897 189.8 117.801 191.371 115.025C192.942 112.249 196.69 103.296 196.69 103.296C196.69 103.296 197.295 111.639 197.171 115.749C197.046 119.858 197.052 123.244 196.809 125.296C196.566 127.348 195.48 129.891 195.961 130.615C196.442 131.339 197.041 132.068 197.657 131.949C198.272 131.83 207.328 131.706 210.077 131.824C212.825 131.943 225.429 131.825 228.091 131.949C230.753 132.073 233.048 130.739 233.286 130.253C233.523 129.767 234.015 129.044 233.772 126.387C233.529 123.73 234.015 115.63 234.738 112.487C235.462 109.344 239.814 97.2537 239.814 97.2537C239.814 97.2537 251.3 106.32 253.719 107.044C256.139 107.768 262.662 106.682 264.838 104.025C267.014 101.369 267.738 99.3057 266.409 97.4967C265.081 95.6877 260.243 93.9921 255.167 88.5489C250.091 83.1057 248.147 80.5731 244.653 78.8775C241.159 77.1819 234.015 74.8923 232.319 74.1633C230.624 73.4343 230.159 73.0833 229.079 72.5919C227.999 72.1005 225.45 71.1447 220.736 71.0205C217.64 71.021 214.572 71.6111 211.697 72.7593Z" fill="#FF725E" stroke="#263238" stroke-width="0.75" stroke-miterlimit="10"/>
    <path d="M194.249 94.7324C194.416 95.3156 196.684 103.297 196.684 103.297L193.336 96.6602" stroke="#263238" stroke-width="0.75" stroke-miterlimit="10"/>
    <path d="M239.836 97.2537C239.334 97.2537 234.582 94.5537 234.582 94.5537" stroke="#263238" stroke-width="0.75" stroke-miterlimit="10"/>
    <path d="M232.163 94.2354C232.163 94.2354 234.08 96.7356 235.748 97.2324" stroke="#263238" stroke-width="0.75" stroke-miterlimit="10"/>
    <path d="M211.016 80.1734L212.534 85.9028C212.534 85.9028 207.728 109.927 206.972 113.983C206.511 116.433 206.201 118.909 206.043 121.397L210.255 129.74L215.569 120.722C215.569 120.722 215.061 109.344 214.894 100.245C214.726 91.1462 215.061 86.7452 214.975 86.5076C214.888 86.27 220.288 82.2902 220.288 82.2902C220.288 82.2902 223.404 78.8342 223.571 78.2456C223.739 77.657 221.384 78.413 220.871 78.9206C220.297 79.4064 219.617 79.7509 218.885 79.9263C218.154 80.1016 217.392 80.103 216.659 79.9304C214.467 79.5092 211.6 77.0684 211.178 78.2456C210.926 78.8559 210.87 79.5295 211.016 80.1734Z" fill="#263238" stroke="#263238" stroke-width="0.75" stroke-miterlimit="10"/>
    <path d="M214.64 70.4003C214.386 70.5677 212.366 71.0753 211.691 72.7601C211.016 74.4449 207.56 82.1993 206.551 83.4629C205.541 84.7265 207.139 84.2189 208.489 83.3765C209.839 82.5341 211.016 79.2509 211.772 80.6765C212.528 82.1021 214.726 82.6961 214.726 82.6961C214.726 82.6961 219.273 81.8537 220.288 81.1787C220.98 80.6958 221.629 80.1537 222.227 79.5587C222.227 79.5587 226.104 85.3745 227.195 85.8767C228.286 86.3789 228.464 85.5419 228.545 84.6131C228.944 81.2275 229.592 77.8758 230.483 74.5853C231.563 70.9619 229.474 69.7793 228.124 68.2673C226.774 66.7553 225.256 67.7597 223.744 67.9271C222.232 68.0945 214.64 70.4003 214.64 70.4003Z" fill="#FF725E" stroke="#263238" stroke-width="0.75" stroke-miterlimit="10"/>
    <path d="M212.328 44.4475C212.328 44.4475 209.693 48.4489 210.168 49.4209C210.643 50.3929 210.654 51.6673 210.168 52.3477C209.801 52.795 209.533 53.315 209.381 53.8734C209.23 54.4319 209.198 55.0161 209.288 55.5877C209.482 57.2455 208.51 65.6317 209.974 66.6091C210.915 67.2213 211.929 67.7129 212.992 68.0725C212.992 68.0725 214.65 82.1125 215.239 81.7237C215.827 81.3349 224.224 72.7327 225.196 70.8751C226.168 69.0175 227.356 66.3931 227.356 66.3931C227.356 66.3931 230.672 60.0535 232.621 57.4183C234.571 54.7831 236.817 49.9123 236.137 47.3743C235.456 44.8363 231.941 42.9841 230.283 41.6179C228.625 40.2517 229.7 37.1359 227.356 35.5753C225.013 34.0147 222.189 33.6259 220.336 34.3063C218.484 34.9867 218.387 36.4663 216.141 34.9867C213.894 33.5071 211.756 32.0653 208.343 33.7231C204.93 35.3809 204.244 41.2291 206.291 42.7897C208.338 44.3503 212.328 44.4475 212.328 44.4475Z" fill="white" stroke="#263238" stroke-width="0.75" stroke-miterlimit="10"/>
    <path d="M230.273 41.6179C228.615 40.2571 229.689 37.1359 227.346 35.5753C225.002 34.0147 222.178 33.6259 220.326 34.3063C218.474 34.9867 218.376 36.4663 216.13 34.9867C213.884 33.5071 211.745 32.0653 208.332 33.7231C204.92 35.3809 204.234 41.2291 206.28 42.7897C208.327 44.3503 212.328 44.4475 212.328 44.4475C212.328 44.4475 215.255 43.0813 217.188 42.0121C219.122 40.9429 223.528 42.6925 224.306 43.3783C225.083 44.0641 223.917 43.5727 223.722 44.8363C223.528 46.0999 225.963 48.1573 227.038 49.1563C228.113 50.1553 226.844 50.8141 226.552 52.0831C226.26 53.3521 227.427 53.8381 228.113 53.3521C228.798 52.8661 230.937 50.1121 231.72 51.6943C232.503 53.2765 233.669 55.5931 231.525 57.2509C229.382 58.9087 227.816 58.5199 227.816 58.5199C227.816 58.5199 227.119 62.7427 229.144 63.0721C230.195 61.1375 231.347 59.2594 232.595 57.4453C234.549 54.8155 236.79 49.9393 236.11 47.4013C235.43 44.8633 231.93 42.9841 230.273 41.6179Z" fill="#263238" stroke="#263238" stroke-width="0.75" stroke-miterlimit="10"/>
    <path d="M217.593 49.6156C218.216 49.3834 218.88 49.2841 219.543 49.324" stroke="#263238" stroke-width="0.5" stroke-miterlimit="10"/>
    <path d="M212.604 50.5762C212.123 50.678 211.658 50.8452 211.222 51.073" stroke="#263238" stroke-width="0.5" stroke-miterlimit="10"/>
    <path d="M212.636 47.9141C212.983 48.5779 213.084 49.3428 212.922 50.0741C212.604 51.1541 209.585 53.5139 209.623 53.9729C209.661 54.4319 211.394 55.3931 211.362 55.7819C211.329 56.1707 211.221 56.8133 211.221 56.8133" stroke="#263238" stroke-width="0.75" stroke-miterlimit="10"/>
    <path d="M219.235 50.9654C219.587 50.9654 219.872 50.6149 219.872 50.1824C219.872 49.75 219.587 49.3994 219.235 49.3994C218.883 49.3994 218.598 49.75 218.598 50.1824C218.598 50.6149 218.883 50.9654 219.235 50.9654Z" fill="#263238" stroke="#263238" stroke-width="0.5" stroke-miterlimit="10"/>
    <path d="M217.993 51.4622C218.851 51.1033 219.765 50.8985 220.693 50.8574" stroke="#263238" stroke-width="0.75" stroke-miterlimit="10"/>
    <path d="M215.741 46.7644C215.741 46.7644 217.831 44.8258 219.451 45.2146C221.071 45.6034 221.687 47.164 221.427 47.1694C221.168 47.1748 220.347 45.9706 219.462 45.8788C218.576 45.787 217.944 46.2082 217.178 46.597C216.411 46.9858 215.941 47.2558 215.741 46.7644Z" fill="#263238" stroke="#263238" stroke-width="0.5" stroke-miterlimit="10"/>
    <path d="M212.777 48.3035C212.752 48.1717 212.701 48.0465 212.625 47.9359C212.55 47.8253 212.452 47.7318 212.338 47.6616C212.224 47.5913 212.096 47.5458 211.963 47.528C211.83 47.5102 211.695 47.5205 211.567 47.5583C210.611 47.7041 209.888 49.4429 210.179 49.4213C210.471 49.3997 210.789 48.3035 211.535 48.2009C212.28 48.0983 212.777 49.2647 212.777 48.3035Z" fill="#263238" stroke="#263238" stroke-width="0.5" stroke-miterlimit="10"/>
    <path d="M211.157 59.017C211.157 59.017 212.685 58.8388 214.672 58.5904C216.659 58.342 219.457 57.9532 219.921 56.533C220.186 55.845 220.305 55.1095 220.272 54.373" stroke="#263238" stroke-width="0.75" stroke-miterlimit="10"/>
    <path d="M219.197 54.2644C219.779 54.2168 220.365 54.2532 220.936 54.3724" stroke="#263238" stroke-width="0.75" stroke-miterlimit="10"/>
    <path d="M227.384 61.2734C227.104 62.5898 226.331 63.7492 225.224 64.5134C223.452 65.642 210.444 66.9326 210.876 67.0946C211.308 67.2566 212.998 68.0666 212.998 68.0666L213.506 72.6836C215.554 70.87 217.833 69.334 220.283 68.1152C224.592 65.8796 227.281 65.1398 227.384 61.2734Z" fill="#263238" stroke="#263238" stroke-width="0.5" stroke-miterlimit="10"/>
    <path d="M234.641 124.33C234.641 124.33 232.222 124.211 231.617 124.092C231.012 123.973 229.079 122.153 228.231 122.278C227.383 122.402 225.817 124.092 225.213 125.518C224.608 126.943 224.365 127.678 224.365 127.678C224.365 127.678 222.205 129.611 223.285 130.918C224.365 132.224 225.585 131.765 225.585 131.765C225.585 131.765 226.309 132.975 227.275 133.094C227.993 133.173 228.714 133.215 229.435 133.218C230.061 133.41 230.715 133.492 231.369 133.461C231.885 133.348 232.377 133.143 232.821 132.856C233.334 132.916 233.851 132.785 234.274 132.489C234.717 132.138 236.86 129.946 237.967 128.817L238.621 128.142L234.641 124.33Z" fill="white" stroke="#263238" stroke-width="0.75" stroke-miterlimit="10"/>
    <path d="M254.827 99.4307C254.827 99.4307 250.355 104.388 248.887 106.802C246.546 110.485 244.004 114.036 241.273 117.44C239.582 119.373 233.659 124.092 233.659 124.092C233.659 124.092 235.468 127.959 236.801 128.564C237.577 128.921 238.386 129.203 239.215 129.406L244.075 125.783C244.075 125.783 253.255 118.763 258.115 114.783C262.975 110.803 269.72 105.473 270.206 103.178C270.692 100.883 270.325 99.6737 267.911 97.8593C266.409 96.7474 264.734 95.8899 262.954 95.3213" fill="#FF725E"/>
    <path d="M254.827 99.4307C254.827 99.4307 250.355 104.388 248.887 106.802C246.546 110.485 244.004 114.036 241.273 117.44C239.582 119.373 233.659 124.092 233.659 124.092C233.659 124.092 235.468 127.959 236.801 128.564C237.577 128.921 238.386 129.203 239.215 129.406L244.075 125.783C244.075 125.783 253.255 118.763 258.115 114.783C262.975 110.803 269.72 105.473 270.206 103.178C270.692 100.883 270.325 99.6737 267.911 97.8593C266.409 96.7474 264.734 95.8899 262.954 95.3213" stroke="#263238" stroke-width="0.75" stroke-miterlimit="10"/>
    <path d="M237.422 121.068C237.422 121.068 238.502 126.387 242.255 126.387" stroke="#263238" stroke-width="0.75" stroke-miterlimit="10"/>
    <path d="M184.751 81.902C184.751 81.902 185.247 86.1518 185.501 88.0688C185.574 89.0349 185.858 89.9732 186.333 90.8174C186.333 90.8174 182.418 99.5654 182.25 99.8192C182.083 100.073 178.001 107.736 177.331 108.648C176.661 109.561 175.085 112.482 176.084 114.318C177.083 116.154 178.665 119.902 180.749 119.983C182.834 120.064 185.75 118.816 187.769 117.65C189.789 116.484 190.437 115.733 190.604 112.401C190.772 109.069 190.685 103.07 191.274 99.9002C191.862 96.7304 192.273 93.4202 192.689 92.1512C193.104 90.8822 195.524 91.3196 196.355 90.8174C197.187 90.3152 197.937 89.2352 199.439 88.5656C200.741 88.0706 202.157 87.9564 203.521 88.2362C204.023 88.4036 204.936 87.653 204.687 86.735C204.439 85.817 202.77 85.3202 201.102 85.4822C199.433 85.6442 197.937 86.1518 197.522 85.9034C197.106 85.655 196.69 81.2324 196.69 81.2324C196.69 81.2324 190.75 81.7346 188.687 81.8156C186.624 81.8966 184.751 81.902 184.751 81.902Z" fill="white" stroke="#263238" stroke-width="0.75" stroke-miterlimit="10"/>
    <path d="M193.915 78.6508C193.915 78.6508 194.001 84.1534 194.001 84.6502C194.002 84.7661 194.027 84.8805 194.074 84.9863C194.122 85.0921 194.19 85.187 194.276 85.265C194.362 85.3431 194.462 85.4026 194.572 85.4399C194.682 85.4772 194.798 85.4915 194.914 85.4819C195.335 85.4009 196.415 85.8167 196.669 84.5693C196.922 83.3219 197.414 79.8173 197.165 78.9857C196.917 78.1541 194.665 77.8192 193.915 78.6508Z" fill="white" stroke="#263238" stroke-width="0.75" stroke-miterlimit="10"/>
    <path d="M193.914 78.6509C193.914 78.6509 191.252 77.9867 190.502 78.4025C189.751 78.8183 190.917 84.7367 190.998 85.2335C191.079 85.7303 192.251 85.9841 192.748 85.8167C193.245 85.6493 194.001 85.3199 194.001 84.6503C194.001 83.9807 193.914 78.6509 193.914 78.6509Z" fill="white" stroke="#263238" stroke-width="0.75" stroke-miterlimit="10"/>
    <path d="M189.918 78.5702C189.918 78.5702 188.169 78.2354 187.667 78.8186C187.164 79.4018 187.003 80.2334 187.165 81.7346C187.385 83.2121 187.835 84.646 188.498 85.9844C188.833 86.4866 189.918 86.5676 190.583 86.3192C191.247 86.0708 190.998 85.2392 190.998 85.2392C190.998 85.2392 190.664 84.9044 190.583 82.3232C190.502 79.742 190.502 78.4082 190.502 78.4082L189.918 78.5702Z" fill="white" stroke="#263238" stroke-width="0.75" stroke-miterlimit="10"/>
    <path d="M187.002 79.5693C186.668 79.6503 184.583 79.7367 184.502 80.5683C184.421 81.3999 185.166 85.3203 185.501 85.7361C185.836 86.1519 186.749 85.9845 187.083 85.8171C187.418 85.6497 188.001 85.4013 187.915 84.8991C187.829 84.3969 187.002 79.5693 187.002 79.5693Z" fill="white" stroke="#263238" stroke-width="0.75" stroke-miterlimit="10"/>
    <path d="M187.667 96.0663C187.068 95.9709 186.504 95.7217 186.031 95.343C185.558 94.9644 185.191 94.4693 184.967 93.9062C183.822 96.455 182.364 99.6789 182.267 99.8463C182.099 100.095 178.017 107.763 177.347 108.675C176.678 109.588 175.101 112.509 176.1 114.345C177.099 116.181 178.681 119.929 180.765 120.01C182.85 120.091 185.766 118.843 187.785 117.677C189.805 116.511 190.453 115.76 190.62 112.428C190.788 109.096 190.701 103.097 191.29 99.9273C191.571 98.3721 191.83 96.7845 192.046 95.4129C190.64 95.9023 189.154 96.1239 187.667 96.0663Z" fill="#FF725E" stroke="#263238" stroke-width="0.75" stroke-miterlimit="10"/>
    <path d="M191.5 86.9023C191.5 86.9023 190.08 88.1497 189.918 89.2351C189.834 89.9287 189.98 90.6308 190.334 91.2331" fill="white"/>
    <path d="M191.5 86.9023C191.5 86.9023 190.08 88.1497 189.918 89.2351C189.834 89.9287 189.98 90.6308 190.334 91.2331" stroke="#263238" stroke-width="0.75" stroke-miterlimit="10"/>
</svg>
